<svg width="723" height="709" viewBox="0 0 723 709" fill="none" xmlns="http://www.w3.org/2000/svg">
<path d="M723 477.478H445.687V316.965H723V477.478V477.478ZM447.38 475.786H721.308V318.657H447.38V475.786Z" fill="#E0E0E0"/>
<path d="M665.781 402.543H482.784V407.908H665.781V402.543Z" fill="#F0F0F0"/>
<path d="M678.389 422.563H482.784V428.419H678.389V422.563Z" fill="#F0F0F0"/>
<path d="M678.389 442.803H482.784V448.659H678.389V442.803Z" fill="#F0F0F0"/>
<path d="M546.739 373.504H482.784V387.432H546.739V373.504Z" fill="#F0F0F0"/>
<path d="M722.154 317.811H446.534V343.365H722.154V317.811Z" fill="#E0E0E0"/>
<path d="M700.948 339.557C700.592 339.219 704.146 334.937 708.885 329.996C713.624 325.054 717.736 321.314 718.092 321.653C718.447 321.991 714.893 326.273 710.154 331.214C705.416 336.156 701.286 339.879 700.948 339.557Z" fill="white"/>
<path d="M718.075 339.557C717.72 339.895 713.607 336.156 708.869 331.214C704.13 326.273 700.576 321.991 700.932 321.653C701.287 321.314 705.399 325.054 710.138 329.996C714.877 334.937 718.431 339.219 718.075 339.557Z" fill="white"/>
<path d="M381.698 0H106.078V158.821H381.698V0Z" fill="white"/>
<path d="M325.342 84.7324H142.346V90.097H325.342V84.7324Z" fill="#4EAAC7"/>
<path d="M337.951 104.736H142.346V110.591H337.951V104.736Z" fill="#4EAAC7"/>
<path d="M337.951 124.976H142.346V130.831H337.951V124.976Z" fill="#4EAAC7"/>
<path d="M206.301 55.6763H142.346V69.6038H206.301V55.6763Z" fill="#4EAAC7"/>
<path d="M381.698 0H106.078V25.5535H381.698V0Z" fill="#4EAAC7"/>
<path d="M359.562 21.6102C359.206 21.2718 362.76 16.9903 367.499 12.0488C372.238 7.10734 376.35 3.36739 376.705 3.70585C377.061 4.0443 373.507 8.32579 368.768 13.2673C364.029 18.2087 359.9 21.9487 359.562 21.6102Z" fill="white"/>
<path d="M376.689 21.6102C376.334 21.9487 372.221 18.2087 367.483 13.2673C362.744 8.32579 359.19 4.0443 359.545 3.70585C359.901 3.36739 364.013 7.10734 368.752 12.0488C373.491 16.9903 377.045 21.2718 376.689 21.6102Z" fill="white"/>
<path d="M277.313 295.033H0V134.52H277.313V295.033ZM1.69238 293.341H275.62V136.212H1.69238V293.341Z" fill="#FFF4F4"/>
<path d="M220.11 220.099H37.1138V225.463H220.11V220.099Z" fill="#F0F0F0"/>
<path d="M232.719 240.102H37.1138V245.957H232.719V240.102Z" fill="#F0F0F0"/>
<path d="M232.719 260.341H37.1138V266.197H232.719V260.341Z" fill="#F0F0F0"/>
<path d="M101.069 191.042H37.1138V204.97H101.069V191.042Z" fill="#F0F0F0"/>
<path d="M276.467 135.366H0.846191V160.92H276.467V135.366Z" fill="#FFF4F4"/>
<path d="M597.358 331.806H271.914V623.15H597.358V331.806Z" fill="#E6E6E6"/>
<path d="M288.279 240.034H33.3398V504.893H288.279V240.034Z" fill="#F0F0F0"/>
<path d="M288.279 240.034H33.3398V268.887H288.279V240.034Z" fill="#E0E0E0"/>
<path d="M54.393 254.164C54.393 257.261 51.9898 259.766 49.0451 259.766C46.0835 259.766 43.6972 257.261 43.6972 254.164C43.6972 251.068 46.1004 248.563 49.0451 248.563C51.9898 248.563 54.393 251.068 54.393 254.164Z" fill="white"/>
<path d="M76.1061 254.164C76.1061 257.261 73.7029 259.766 70.7582 259.766C67.7965 259.766 65.4103 257.261 65.4103 254.164C65.4103 251.068 67.8135 248.563 70.7582 248.563C73.7029 248.563 76.1061 251.068 76.1061 254.164Z" fill="white"/>
<path d="M97.8194 254.164C97.8194 257.261 95.4162 259.766 92.4714 259.766C89.5098 259.766 87.1235 257.261 87.1235 254.164C87.1235 251.068 89.5267 248.563 92.4714 248.563C95.4162 248.563 97.8194 251.068 97.8194 254.164Z" fill="white"/>
<path d="M686.597 57.9268H361.153V382.27H686.597V57.9268Z" fill="#F0F0F0"/>
<path d="M686.597 57.9268H361.153V95.9186H686.597V57.9268Z" fill="#E0E0E0"/>
<path d="M388.874 76.5417C388.874 80.6032 385.726 83.9031 381.834 83.9031C377.941 83.9031 374.794 80.6032 374.794 76.5417C374.794 72.4802 377.941 69.1802 381.834 69.1802C385.709 69.1633 388.874 72.4633 388.874 76.5417Z" fill="white"/>
<path d="M415.394 71.5497C418.271 74.4266 418.372 78.9957 415.614 81.7372C412.855 84.4957 408.303 84.3941 405.426 81.5172C402.549 78.6403 402.447 74.0712 405.206 71.3297C407.947 68.5712 412.517 68.6728 415.394 71.5497Z" fill="white"/>
<path d="M446.043 76.5416C446.043 80.6031 442.895 83.9031 439.002 83.9031C435.11 83.9031 431.962 80.6031 431.962 76.5416C431.962 72.4801 435.11 69.1802 439.002 69.1802C442.895 69.1802 446.043 72.4632 446.043 76.5416Z" fill="white"/>
<path d="M501.79 502.033C475.642 483.774 469.719 449.86 470.751 419.399C470.921 414.305 470.362 408.958 472.782 404.49C475.202 400.022 480.855 396.976 485.407 399.126C489.181 400.902 490.84 405.302 492.938 408.924C495.748 413.764 499.945 417.758 504.87 420.313C508.102 421.988 512.113 423.021 515.312 421.261C519.695 418.841 520.22 412.782 520.186 407.722C520.118 398.296 520.067 388.87 520.016 379.427C519.983 374.367 519.966 369.206 521.54 364.4C523.114 359.594 526.583 355.143 531.406 353.789C536.212 352.435 542.17 355.211 543.185 360.169C543.608 362.234 543.185 364.366 543.32 366.464C543.456 368.563 544.437 370.881 546.434 371.474C548.448 372.066 550.479 370.627 551.985 369.155C557.215 364.044 560.752 357.461 564.069 350.929C567.386 344.397 570.602 337.679 575.34 332.111C580.079 326.543 586.628 322.127 593.872 321.72C601.115 321.314 608.832 325.782 610.677 332.889C612.505 340.014 608.359 347.257 603.823 353.028C597.104 361.591 589.15 369.172 580.316 375.434C578.725 376.567 576.999 377.786 576.389 379.664C575.289 383.032 578.488 386.383 581.822 387.5C585.596 388.752 589.692 388.363 593.635 388.836C597.578 389.293 601.86 391.036 603.349 394.776C605.414 399.955 601.098 405.37 596.833 408.924C588.304 416.031 578.573 421.65 568.198 425.458C564.475 426.811 560.566 428.013 557.553 430.636C554.558 433.259 552.747 437.794 554.558 441.365C556.369 444.936 561.023 446.07 564.932 445.342C568.825 444.614 572.328 442.499 576.034 441.094C582.99 438.471 591.959 438.945 596.427 444.953C599.355 448.896 599.609 454.396 598.137 459.117C596.664 463.822 593.652 467.883 590.47 471.623C579.334 484.704 565.068 495.23 548.922 500.815C532.76 506.383 517.816 507.889 501.79 502.033Z" fill="#9BC1CE"/>
<path d="M603.366 325.934C603.383 325.951 603.214 326.103 602.875 326.408C602.503 326.746 602.012 327.186 601.369 327.745C600.049 328.912 598.086 330.639 595.632 332.94C590.707 337.509 583.802 344.397 576.305 353.806C572.548 358.494 568.621 363.807 564.526 369.578C560.43 375.366 556.115 381.576 551.799 388.278C547.5 394.979 543.185 402.155 539.309 409.905C537.363 413.781 535.62 417.825 533.843 421.954C532.083 426.084 530.289 430.264 528.478 434.494C521.286 451.468 514.973 467.866 510.454 483.181C505.902 498.496 503.211 512.678 502.026 524.693C500.808 536.725 501.062 546.541 501.553 553.276C501.823 556.643 502.077 559.266 502.314 561.026C502.416 561.873 502.483 562.533 502.551 563.04C502.602 563.497 502.619 563.734 502.602 563.734C502.585 563.734 502.534 563.514 502.466 563.057C502.382 562.566 502.28 561.906 502.145 561.06C501.84 559.3 501.536 556.694 501.214 553.31C500.605 546.574 500.266 536.725 501.4 524.642C502.5 512.576 505.157 498.31 509.659 482.944C514.144 467.562 520.456 451.112 527.649 434.139C529.46 429.908 531.254 425.711 533.031 421.582C534.808 417.47 536.568 413.391 538.531 409.499C542.423 401.715 546.773 394.522 551.105 387.821C555.438 381.12 559.804 374.909 563.917 369.138C568.046 363.367 572.006 358.071 575.814 353.4C583.396 344.008 590.402 337.188 595.412 332.686C597.899 330.436 599.896 328.743 601.267 327.626C601.927 327.085 602.435 326.679 602.824 326.357C603.163 326.069 603.366 325.934 603.366 325.934Z" fill="#263238"/>
<path d="M538.785 409.449C538.717 409.466 538.548 408.687 538.294 407.282C538.023 405.878 537.719 403.847 537.363 401.326C536.652 396.283 535.891 389.294 535.095 381.594C534.3 373.877 533.454 366.921 532.658 361.912C532.269 359.408 531.931 357.377 531.694 355.989C531.457 354.585 531.355 353.806 531.406 353.789C531.474 353.772 531.694 354.534 532.049 355.905C532.405 357.275 532.845 359.289 533.318 361.794C534.283 366.803 535.231 373.775 536.026 381.492C536.788 389.107 537.482 395.995 538.023 401.241C538.277 403.61 538.497 405.624 538.666 407.232C538.802 408.653 538.853 409.432 538.785 409.449Z" fill="#263238"/>
<path d="M603.84 397.298C603.84 397.366 602.909 397.467 601.25 397.603C599.575 397.755 597.172 397.958 594.193 398.296C588.236 398.939 580.028 400.124 571.042 401.816C562.055 403.526 553.982 405.421 548.195 406.961C545.284 407.705 542.948 408.382 541.34 408.839C539.733 409.296 538.819 409.516 538.802 409.465C538.785 409.398 539.648 409.059 541.239 408.484C542.83 407.925 545.131 407.147 548.025 406.318C553.796 404.609 561.869 402.612 570.889 400.886C579.91 399.193 588.151 398.11 594.142 397.636C597.138 397.383 599.575 397.281 601.25 397.23C602.909 397.213 603.84 397.23 603.84 397.298Z" fill="#263238"/>
<path d="M510.454 481.726C510.421 481.743 510.268 481.472 510.014 480.931C509.71 480.288 509.354 479.526 508.897 478.578C507.933 476.531 506.63 473.535 505.073 469.812C501.942 462.366 497.931 451.925 493.649 440.367C489.367 428.791 485.475 418.333 482.496 410.836C481.041 407.181 479.839 404.186 478.942 401.952C478.553 400.987 478.249 400.192 477.995 399.532C477.792 398.973 477.69 398.669 477.724 398.669C477.758 398.652 477.91 398.923 478.164 399.464C478.469 400.107 478.824 400.869 479.281 401.816C480.246 403.864 481.549 406.859 483.106 410.582C486.237 418.028 490.247 428.47 494.529 440.045C498.794 451.62 502.703 462.062 505.682 469.575C507.137 473.231 508.339 476.226 509.236 478.46C509.625 479.425 509.93 480.237 510.184 480.88C510.387 481.421 510.488 481.709 510.454 481.726Z" fill="#263238"/>
<path d="M596.901 453.871C596.901 453.905 596.613 454.023 596.038 454.226C595.361 454.446 594.532 454.734 593.533 455.072C591.215 455.817 588.084 456.832 584.276 458.068C576.457 460.606 565.71 464.228 553.83 468.255C541.95 472.283 531.152 475.803 523.283 478.189C519.339 479.374 516.158 480.304 513.941 480.897C512.908 481.167 512.062 481.387 511.385 481.574C510.793 481.709 510.488 481.777 510.471 481.743C510.471 481.709 510.759 481.59 511.334 481.387C512.011 481.167 512.841 480.88 513.839 480.541C516.158 479.797 519.289 478.781 523.096 477.546C530.915 475.007 541.662 471.386 553.542 467.358C565.423 463.331 576.22 459.811 584.09 457.442C588.033 456.257 591.215 455.326 593.432 454.734C594.464 454.463 595.31 454.243 595.987 454.057C596.579 453.905 596.884 453.837 596.901 453.871Z" fill="#263238"/>
<path d="M561.632 43.3566L552.916 46.4704L549.193 35.0813C542.322 14.08 520.372 2.84326 500.283 10.0185C480.195 17.2108 469.448 40.1412 476.336 61.1425L480.059 72.5316L471.31 75.6623C464.507 78.0992 460.817 85.9345 463.153 93.059L487.404 167.181C489.774 174.407 497.288 178.266 504.091 175.829L594.413 143.523C601.318 141.052 605.008 133.183 602.638 125.957L578.37 51.8518C576.068 44.7273 568.537 40.8858 561.632 43.3566ZM492.786 55.2703C489.012 43.7627 494.902 31.189 505.919 27.246C516.919 23.303 528.952 29.4798 532.709 40.9874L536.432 52.3765L496.509 66.6593L492.786 55.2703ZM543.574 121.016L549.768 139.935C550.022 140.731 549.565 141.56 548.804 141.831L540.139 144.928C539.479 145.164 538.633 144.809 538.362 144.014L532.168 125.094C525.449 124.806 519.221 120.356 516.886 113.248C513.89 104.093 518.578 94.0913 527.361 90.9437C536.145 87.796 545.707 92.7036 548.702 101.859C551.038 108.983 548.719 116.497 543.574 121.016Z" fill="#36829D"/>
<path d="M552.527 46.284C552.612 46.5209 536.365 52.5962 516.242 59.873C496.12 67.1498 479.738 72.8528 479.653 72.6328C479.569 72.3959 495.815 66.3206 515.938 59.0438C536.06 51.767 552.442 46.047 552.527 46.284Z" fill="#263238"/>
<path d="M571.719 49.3979C571.735 49.3979 571.803 49.5503 571.922 49.8379C572.057 50.1764 572.209 50.6164 572.412 51.1579C572.852 52.3933 573.445 54.1025 574.223 56.2855C575.78 60.8209 577.997 67.2685 580.722 75.2053C583.447 83.2267 586.662 92.7374 590.25 103.297C592.01 108.594 593.956 114.111 595.801 119.932C596.664 122.86 597.375 125.974 597.07 129.223C596.918 130.831 596.478 132.438 595.699 133.911C594.904 135.366 593.787 136.635 592.501 137.684C589.895 139.766 586.848 140.984 583.904 142.068C580.942 143.134 578.031 144.166 575.171 145.198C569.451 147.246 563.934 149.226 558.67 151.104C548.161 154.844 538.7 158.212 530.729 161.055C522.809 163.847 516.378 166.098 511.859 167.689C509.676 168.433 507.95 169.026 506.714 169.449C506.156 169.635 505.716 169.77 505.377 169.889C505.073 169.99 504.92 170.024 504.904 170.007C504.904 169.99 505.039 169.923 505.344 169.804C505.682 169.669 506.122 169.499 506.664 169.279C507.882 168.823 509.591 168.179 511.758 167.367C516.259 165.709 522.657 163.356 530.526 160.463C538.48 157.569 547.924 154.15 558.416 150.343C563.663 148.447 569.18 146.451 574.9 144.386C577.76 143.354 580.671 142.304 583.616 141.238C586.527 140.155 589.505 138.954 591.959 136.991C593.178 136.009 594.21 134.825 594.938 133.488C595.666 132.134 596.072 130.645 596.207 129.138C596.495 126.092 595.818 123.063 594.989 120.186C593.161 114.432 591.232 108.865 589.488 103.568C585.968 92.9912 582.804 83.4467 580.147 75.4084C577.54 67.4377 575.408 60.9563 573.919 56.404C573.208 54.204 572.666 52.461 572.26 51.2256C572.091 50.6672 571.955 50.2272 571.854 49.8718C571.735 49.5672 571.702 49.3979 571.719 49.3979Z" fill="#263238"/>
<path d="M524.061 26.0614C524.01 26.1291 523.164 25.6045 521.506 24.9445C519.83 24.3014 517.309 23.5568 514.11 23.4553C510.928 23.3368 507.07 23.8276 503.211 25.5199C499.369 27.1783 495.579 30.1398 492.871 34.1674C490.112 38.1781 488.894 42.815 488.894 47.0119C488.86 51.2426 489.757 54.9995 490.62 58.0794C491.517 61.1763 492.431 63.6132 493.023 65.3224C493.632 67.0316 493.954 67.9624 493.903 67.9962C493.852 68.0131 493.412 67.1162 492.701 65.4409C492.008 63.7655 490.992 61.3455 490.028 58.2486C489.08 55.1518 488.098 51.3441 488.081 46.995C488.031 42.6627 489.283 37.8058 492.143 33.6597C494.952 29.4967 498.896 26.4506 502.89 24.7583C506.9 23.0491 510.894 22.626 514.144 22.8291C517.427 23.0153 519.983 23.8783 521.641 24.6229C522.453 25.0291 523.08 25.3506 523.486 25.6214C523.875 25.8922 524.078 26.0275 524.061 26.0614Z" fill="#263238"/>
<path d="M524.84 92.2803C524.823 92.2633 525.127 92.111 525.703 91.8572C526.278 91.5864 527.141 91.248 528.309 90.9095C529.46 90.5541 530.949 90.2834 532.709 90.1818C534.452 90.0972 536.517 90.2834 538.65 91.0618C542.965 92.5849 546.959 97.0017 548.922 102.857C549.87 105.819 549.955 109.254 549.007 112.571C547.991 115.871 546.147 119.052 543.473 121.726L543.591 121.269C545.842 127.429 548.279 134.147 550.835 141.137L550.987 141.56L550.564 141.695C549.345 142.101 548.025 142.541 546.688 142.998C543.845 143.946 541.019 144.893 538.26 145.824L537.837 145.96L537.702 145.536C535.383 138.514 532.845 131.914 531 125.584L531.372 125.872C527.903 125.635 524.789 124.18 522.318 122.284C519.83 120.372 517.918 118.003 516.632 115.498C515.362 112.994 514.736 110.337 514.838 107.883C514.905 105.429 515.464 103.212 516.259 101.351C517.833 97.5771 520.186 95.2079 521.929 93.9049C523.689 92.6187 524.84 92.2803 524.84 92.2803C524.874 92.348 523.774 92.788 522.064 94.1249C520.406 95.4618 518.155 97.831 516.682 101.537C515.21 105.159 514.567 110.354 517.207 115.211C518.476 117.614 520.338 119.881 522.741 121.709C525.144 123.52 528.123 124.874 531.389 125.077L531.677 125.094L531.762 125.364C533.623 131.643 536.179 138.226 538.514 145.283L537.956 145.012C540.714 144.081 543.524 143.15 546.367 142.186C547.687 141.746 549.007 141.306 550.242 140.883L549.972 141.441C547.433 134.452 545.013 127.734 542.779 121.557L542.694 121.303L542.897 121.1C545.436 118.595 547.281 115.498 548.245 112.351C549.176 109.169 549.108 105.903 548.245 103.06C546.401 97.3741 542.593 93.0587 538.463 91.5357C536.433 90.7403 534.436 90.5203 532.726 90.5711C531.017 90.6388 529.545 90.8418 528.394 91.1634C526.041 91.7726 524.857 92.348 524.84 92.2803Z" fill="#263238"/>
<path d="M472.528 580.894L303.494 580.116C283.168 580.031 266.752 563.464 266.837 543.139L268.631 119.391C268.716 99.0496 285.284 82.6345 305.626 82.7191L474.661 83.4975C494.986 83.5991 511.402 100.15 511.318 120.474L509.524 544.222C509.439 564.58 492.871 580.996 472.528 580.894Z" fill="#455A64"/>
<path d="M474.424 98.136L441.643 97.9837C437.242 97.9668 433.672 101.673 433.655 106.259L433.621 112.199C433.604 116.785 430.016 120.508 425.633 120.474L361.746 120.186C357.345 120.17 353.808 116.43 353.825 111.827L353.859 105.887C353.876 101.301 350.339 97.5437 345.939 97.5268L334.414 97.476L305.728 97.3406C291.478 97.2729 279.885 108.78 279.818 123.013L278.075 536.624C278.007 550.856 289.498 562.448 303.748 562.516L472.444 563.294C486.694 563.362 498.287 551.872 498.354 537.623L500.097 124.011C500.148 109.796 488.657 98.2037 474.424 98.136Z" fill="white"/>
<path d="M451.775 507.684L326.336 507.109C325.033 507.109 323.983 505.687 324 503.944L324.136 471.131C324.136 469.388 325.202 467.983 326.505 468L451.944 468.576C453.247 468.576 454.296 469.997 454.279 471.74L454.144 504.554C454.144 506.28 453.078 507.684 451.775 507.684Z" fill="#E8505B"/>
<path d="M363.752 494.23C366.04 494.241 367.629 493 367.637 491.032C367.646 488.872 365.809 488.288 363.86 487.639C362.294 487.135 361.511 486.748 361.516 485.708C361.52 484.684 362.355 484.048 363.555 484.053C364.915 484.059 365.695 484.831 366.091 485.793L367.342 485.079C366.724 483.668 365.401 482.622 363.561 482.613C361.689 482.604 360.036 483.749 360.027 485.765C360.019 487.845 361.744 488.413 363.534 488.997C365.18 489.517 366.17 489.905 366.165 491.057C366.161 492.065 365.374 492.782 363.79 492.774C362.158 492.767 361.201 491.962 360.806 490.728L359.523 491.459C360.108 493.141 361.624 494.22 363.752 494.23ZM369.356 482.848L369.308 494.048L370.796 494.055L370.844 482.855L369.356 482.848ZM379.729 486.096L379.723 487.472C379.087 486.493 378.066 485.88 376.722 485.874C374.45 485.863 372.634 487.695 372.624 490.015C372.614 492.351 374.414 494.199 376.686 494.21C378.03 494.216 379.057 493.597 379.701 492.624L379.696 493.76C379.69 495.264 378.678 496.203 377.014 496.195C375.446 496.188 374.777 495.593 374.412 494.839L373.193 495.522C373.843 496.789 375.185 497.483 376.977 497.491C379.057 497.501 381.062 496.262 381.072 493.766L381.105 486.102L379.729 486.096ZM376.852 492.883C375.236 492.875 374.009 491.638 374.016 490.022C374.023 488.422 375.26 487.195 376.876 487.203C378.492 487.21 379.719 488.448 379.712 490.048C379.705 491.664 378.468 492.89 376.852 492.883ZM387.199 485.922C386.079 485.917 385.197 486.329 384.601 487.27L384.606 486.118L383.214 486.112L383.18 494.112L384.572 494.118L384.59 489.878C384.598 487.99 385.641 487.243 386.921 487.249C388.153 487.255 388.902 487.994 388.896 489.306L388.876 494.138L390.268 494.145L390.289 489.233C390.297 487.185 389.071 485.931 387.199 485.922ZM400.418 494.4C402.866 494.411 404.617 492.883 404.627 490.451L404.658 483.011L403.186 483.004L403.155 490.38C403.149 491.932 402.216 492.952 400.424 492.944C398.632 492.935 397.709 491.907 397.715 490.355L397.746 482.979L396.258 482.972L396.227 490.412C396.217 492.844 397.97 494.388 400.418 494.4ZM411.193 486.033C409.833 486.027 408.806 486.63 408.162 487.603L408.168 486.227L406.776 486.221L406.729 497.421L408.121 497.427L408.14 492.851C408.776 493.83 409.797 494.443 411.157 494.449C413.381 494.46 415.213 492.628 415.223 490.26C415.233 487.892 413.417 486.044 411.193 486.033ZM410.987 493.104C409.371 493.097 408.144 491.859 408.151 490.227C408.158 488.595 409.395 487.369 411.011 487.376C412.611 487.384 413.838 488.622 413.831 490.254C413.824 491.886 412.587 493.112 410.987 493.104Z" fill="#E8E8E3"/>
<path d="M351.274 219.694L307.746 219.493L307.71 227.481L351.237 227.682L351.274 219.694Z" fill="#E8505B"/>
<path opacity="0.1" d="M351.274 219.694L307.746 219.493L307.71 227.481L351.237 227.682L351.274 219.694Z" fill="black"/>
<path d="M478.892 268.684C478.892 268.651 479.247 268.701 479.89 268.447C480.482 268.211 481.43 267.5 481.532 266.163C481.532 263.472 481.515 259.546 481.515 254.503C481.515 251.965 481.515 249.155 481.515 246.075C481.515 245.297 481.515 244.519 481.515 243.723C481.532 242.894 481.532 242.132 481.041 241.506C480.601 240.88 479.839 240.474 479.044 240.474C478.181 240.474 477.284 240.474 476.387 240.474C469.194 240.457 460.986 240.44 451.949 240.423C415.698 240.288 365.655 240.102 310.399 239.899C309.671 239.899 308.96 240.254 308.537 240.846C308.063 241.439 308.08 242.149 308.097 243.063C308.097 244.772 308.08 246.499 308.08 248.191C308.063 251.609 308.046 254.994 308.029 258.361C308.029 260.037 308.012 261.729 308.012 263.388C308.046 264.183 307.928 265.148 308.08 265.774C308.249 266.451 308.757 267.026 309.4 267.297C309.739 267.432 310.043 267.483 310.449 267.483H311.685L314.156 267.5C315.797 267.5 317.439 267.517 319.064 267.517C332.095 267.584 344.669 267.652 356.651 267.72C380.598 267.872 402.159 267.991 420.285 268.109C438.376 268.244 453.032 268.363 463.186 268.447C468.23 268.498 472.156 268.549 474.847 268.583C476.15 268.6 477.165 268.634 477.876 268.634C478.553 268.651 478.892 268.684 478.892 268.684C478.892 268.684 478.536 268.718 477.859 268.718C477.148 268.718 476.133 268.735 474.83 268.752C472.122 268.752 468.196 268.769 463.169 268.786C453.015 268.769 438.359 268.752 420.268 268.735C402.142 268.684 380.581 268.617 356.634 268.532C344.652 268.481 332.078 268.431 319.047 268.38C317.422 268.38 315.78 268.363 314.139 268.363L311.668 268.346H310.432C310.009 268.363 309.485 268.295 309.045 268.092C308.165 267.72 307.454 266.924 307.217 265.994C307.082 265.52 307.115 265.029 307.115 264.64V263.388C307.115 261.712 307.132 260.037 307.132 258.361C307.149 254.994 307.166 251.609 307.166 248.191C307.166 246.482 307.183 244.772 307.183 243.063C307.2 242.623 307.166 242.234 307.234 241.709C307.302 241.219 307.505 240.745 307.792 240.339C308.368 239.526 309.366 239.019 310.365 239.036C365.621 239.34 415.664 239.611 451.915 239.814C460.969 239.882 469.16 239.932 476.37 240C477.267 240 478.147 240.017 479.027 240.017C479.975 240.034 480.872 240.508 481.396 241.252C481.972 241.98 481.972 242.979 481.938 243.74C481.938 244.535 481.921 245.331 481.921 246.109C481.887 249.189 481.87 251.998 481.853 254.537C481.786 259.58 481.735 263.506 481.718 266.214C481.566 267.618 480.55 268.346 479.941 268.566C479.264 268.769 478.892 268.684 478.892 268.684Z" fill="#E0E0E0"/>
<path d="M399.032 250.577L319.423 250.209L319.388 257.672L398.998 258.04L399.032 250.577Z" fill="#E8505B"/>
<path opacity="0.2" d="M399.032 250.577L319.423 250.209L319.388 257.672L398.998 258.04L399.032 250.577Z" fill="white"/>
<path d="M350.97 292.565L307.442 292.364L307.405 300.351L350.933 300.552L350.97 292.565Z" fill="#E8505B"/>
<path opacity="0.1" d="M350.97 292.565L307.442 292.364L307.405 300.351L350.933 300.552L350.97 292.565Z" fill="black"/>
<path d="M477.775 341.554C477.775 341.52 478.13 341.554 478.773 341.368C479.383 341.165 480.381 340.657 480.923 339.455C481.21 338.863 481.244 338.135 481.21 337.306C481.21 336.477 481.21 335.58 481.193 334.615C481.193 332.669 481.193 330.419 481.177 327.914C481.177 325.393 481.177 322.583 481.177 319.52C481.177 318.759 481.177 317.963 481.177 317.168C481.21 316.356 481.109 315.611 480.686 314.934C480.28 314.274 479.62 313.75 478.841 313.513C478.079 313.276 477.182 313.411 476.286 313.36C469.11 313.343 460.953 313.327 451.915 313.31C415.783 313.174 365.926 312.988 310.856 312.785C309.333 312.751 307.911 314.003 307.759 315.51C307.708 317.117 307.725 318.894 307.708 320.569C307.691 323.971 307.674 327.356 307.657 330.706C307.657 332.382 307.64 334.057 307.64 335.715C307.674 336.545 307.556 337.408 307.742 338.085C307.928 338.778 308.385 339.405 308.977 339.828C309.603 340.251 310.263 340.403 311.076 340.369L313.53 340.386C315.171 340.386 316.796 340.403 318.421 340.403C331.401 340.471 343.942 340.538 355.873 340.606C379.735 340.758 401.229 340.877 419.286 340.995C437.31 341.131 451.915 341.249 462.036 341.334C467.062 341.402 470.971 341.435 473.662 341.469C474.965 341.503 475.964 341.52 476.692 341.52C477.436 341.52 477.775 341.554 477.775 341.554C477.775 341.554 477.419 341.588 476.743 341.588C476.032 341.588 475.033 341.605 473.713 341.622C471.022 341.622 467.113 341.638 462.087 341.655C451.966 341.638 437.361 341.622 419.337 341.605C401.279 341.554 379.786 341.486 355.924 341.402C343.992 341.351 331.452 341.3 318.471 341.249C316.847 341.249 315.222 341.232 313.58 341.232L311.127 341.215C310.297 341.266 309.282 341.063 308.537 340.522C307.776 339.997 307.2 339.202 306.946 338.305C306.692 337.357 306.845 336.528 306.811 335.715C306.811 334.057 306.828 332.382 306.828 330.706C306.845 327.356 306.862 323.971 306.862 320.569C306.879 318.843 306.845 317.219 306.913 315.408C307.099 313.462 308.909 311.854 310.89 311.905C365.96 312.21 415.817 312.48 451.949 312.683C460.97 312.751 469.127 312.802 476.302 312.87C477.183 312.92 478.079 312.768 478.993 313.056C479.873 313.327 480.618 313.936 481.075 314.697C481.566 315.442 481.667 316.39 481.617 317.168C481.617 317.963 481.6 318.759 481.6 319.52C481.566 322.583 481.549 325.393 481.532 327.914C481.498 330.436 481.481 332.669 481.464 334.615C481.447 335.58 481.447 336.477 481.43 337.306C481.447 338.118 481.397 338.914 481.075 339.523C480.483 340.775 479.433 341.283 478.79 341.452C478.13 341.622 477.775 341.554 477.775 341.554Z" fill="#E0E0E0"/>
<path d="M350.648 368.565L307.12 368.365L307.084 376.353L350.611 376.553L350.648 368.565Z" fill="#E8505B"/>
<path opacity="0.1" d="M350.648 368.565L307.12 368.365L307.084 376.353L350.611 376.553L350.648 368.565Z" fill="black"/>
<path d="M477.453 417.571C477.453 417.537 477.809 417.571 478.452 417.385C479.061 417.182 480.06 416.674 480.601 415.473C480.889 414.88 480.923 414.153 480.889 413.324C480.889 412.494 480.889 411.597 480.872 410.633C480.872 408.687 480.872 406.436 480.855 403.931C480.855 401.41 480.855 398.601 480.855 395.538C480.855 394.776 480.855 393.981 480.855 393.185C480.889 392.373 480.787 391.629 480.364 390.952C479.958 390.292 479.298 389.767 478.519 389.53C477.758 389.293 476.861 389.429 475.964 389.378C468.788 389.361 460.631 389.344 451.611 389.327C415.478 389.192 365.621 389.005 310.551 388.802C309.028 388.769 307.606 390.004 307.454 391.527C307.403 393.135 307.42 394.912 307.403 396.587C307.386 399.988 307.369 403.373 307.353 406.724C307.353 408.399 307.336 410.074 307.336 411.733C307.369 412.562 307.251 413.425 307.437 414.102C307.623 414.796 308.08 415.422 308.673 415.845C309.299 416.268 309.959 416.42 310.771 416.387L313.225 416.404C314.867 416.404 316.491 416.42 318.116 416.42C331.097 416.488 343.637 416.556 355.568 416.624C379.431 416.776 400.924 416.894 418.982 417.013C437.005 417.148 451.611 417.267 461.731 417.351C466.757 417.419 470.667 417.453 473.358 417.487C474.661 417.504 475.676 417.537 476.387 417.537C477.115 417.537 477.453 417.571 477.453 417.571C477.453 417.571 477.098 417.605 476.421 417.605C475.71 417.605 474.712 417.622 473.392 417.639C470.701 417.639 466.791 417.656 461.765 417.673C451.645 417.656 437.039 417.639 419.015 417.622C400.958 417.571 379.465 417.504 355.602 417.419C343.671 417.368 331.13 417.317 318.15 417.267C316.525 417.267 314.901 417.25 313.259 417.25L310.805 417.233C309.976 417.284 308.96 417.08 308.216 416.539C307.454 416.014 306.879 415.219 306.625 414.322C306.371 413.374 306.523 412.545 306.489 411.716C306.489 410.057 306.506 408.382 306.506 406.707C306.523 403.356 306.54 399.971 306.54 396.57C306.557 394.844 306.523 393.219 306.591 391.408C306.777 389.462 308.588 387.855 310.568 387.905C365.638 388.21 415.495 388.481 451.628 388.684C460.648 388.752 468.805 388.802 475.981 388.87C476.861 388.921 477.758 388.769 478.672 389.056C479.552 389.327 480.296 389.936 480.753 390.698C481.244 391.442 481.346 392.39 481.295 393.168C481.295 393.964 481.278 394.759 481.278 395.521C481.244 398.584 481.227 401.393 481.21 403.914C481.176 406.436 481.16 408.67 481.143 410.616C481.126 411.581 481.126 412.477 481.109 413.307C481.126 414.119 481.075 414.914 480.753 415.524C480.161 416.776 479.112 417.284 478.469 417.453C477.809 417.622 477.453 417.571 477.453 417.571Z" fill="#E0E0E0"/>
<path d="M398.728 323.448L319.118 323.08L319.084 330.543L398.693 330.911L398.728 323.448Z" fill="#E8505B"/>
<path opacity="0.2" d="M398.728 323.448L319.118 323.08L319.084 330.543L398.693 330.911L398.728 323.448Z" fill="white"/>
<path d="M326.341 403.746C326.324 405.793 324.767 407.452 322.838 407.435C320.908 407.418 319.368 405.759 319.368 403.712C319.385 401.664 320.942 400.006 322.872 400.023C324.801 400.023 326.358 401.698 326.341 403.746Z" fill="#E8505B"/>
<path d="M337.121 403.796C337.104 405.844 335.547 407.502 333.618 407.486C331.689 407.469 330.149 405.81 330.149 403.763C330.149 401.715 331.723 400.056 333.652 400.073C335.581 400.073 337.138 401.749 337.121 403.796Z" fill="#E8505B"/>
<path d="M347.919 403.847C347.919 405.895 346.345 407.553 344.416 407.536C342.486 407.536 340.946 405.861 340.946 403.813C340.963 401.766 342.52 400.107 344.449 400.124C346.362 400.124 347.919 401.8 347.919 403.847Z" fill="#E8505B"/>
<path d="M358.699 403.898C358.699 405.946 357.125 407.604 355.196 407.587C353.267 407.587 351.727 405.912 351.727 403.864C351.727 401.816 353.3 400.158 355.23 400.175C357.159 400.175 358.699 401.85 358.699 403.898Z" fill="#E8505B"/>
<path d="M369.48 403.949C369.48 405.996 367.906 407.655 365.976 407.638C364.047 407.638 362.507 405.963 362.507 403.915C362.524 401.867 364.081 400.209 366.01 400.226C367.94 400.226 369.497 401.901 369.48 403.949Z" fill="#E8505B"/>
<path d="M380.26 404C380.26 406.047 378.686 407.706 376.757 407.689C374.828 407.689 373.288 406.013 373.288 403.966C373.288 401.918 374.861 400.26 376.791 400.276C378.72 400.276 380.277 401.952 380.26 404Z" fill="#E8505B"/>
<path d="M391.057 404.05C391.041 406.098 389.484 407.756 387.554 407.739C385.625 407.723 384.085 406.064 384.085 404.016C384.085 401.969 385.659 400.31 387.588 400.327C389.517 400.327 391.057 402.003 391.057 404.05Z" fill="#E8505B"/>
<path d="M401.838 404.101C401.838 406.149 400.264 407.807 398.335 407.79C396.405 407.773 394.865 406.115 394.865 404.067C394.865 402.02 396.439 400.361 398.369 400.378C400.298 400.378 401.855 402.053 401.838 404.101Z" fill="#E8505B"/>
<path d="M412.618 404.152C412.618 406.2 411.044 407.858 409.115 407.841C407.186 407.841 405.646 406.166 405.646 404.118C405.663 402.07 407.22 400.412 409.149 400.429C411.078 400.429 412.635 402.104 412.618 404.152Z" fill="#E8505B"/>
<g opacity="0.2">
<g opacity="0.2">
<path opacity="0.2" d="M326.341 403.746C326.324 405.793 324.767 407.452 322.838 407.435C320.908 407.418 319.368 405.759 319.368 403.712C319.385 401.664 320.942 400.006 322.872 400.023C324.801 400.023 326.358 401.698 326.341 403.746Z" fill="white"/>
</g>
<g opacity="0.2">
<path opacity="0.2" d="M337.121 403.796C337.104 405.844 335.547 407.502 333.618 407.486C331.689 407.469 330.149 405.81 330.149 403.763C330.149 401.715 331.723 400.056 333.652 400.073C335.581 400.073 337.138 401.749 337.121 403.796Z" fill="white"/>
</g>
<g opacity="0.2">
<path opacity="0.2" d="M347.919 403.847C347.919 405.895 346.345 407.553 344.416 407.536C342.486 407.536 340.946 405.861 340.946 403.813C340.963 401.766 342.52 400.107 344.449 400.124C346.362 400.124 347.919 401.8 347.919 403.847Z" fill="white"/>
</g>
<g opacity="0.2">
<path opacity="0.2" d="M358.699 403.898C358.699 405.946 357.125 407.604 355.196 407.587C353.267 407.587 351.727 405.912 351.727 403.864C351.727 401.816 353.3 400.158 355.23 400.175C357.159 400.175 358.699 401.85 358.699 403.898Z" fill="white"/>
</g>
<g opacity="0.2">
<path opacity="0.2" d="M369.48 403.949C369.48 405.996 367.906 407.655 365.976 407.638C364.047 407.638 362.507 405.963 362.507 403.915C362.524 401.867 364.081 400.209 366.01 400.226C367.94 400.226 369.497 401.901 369.48 403.949Z" fill="white"/>
</g>
<g opacity="0.2">
<path opacity="0.2" d="M380.26 404C380.26 406.047 378.686 407.706 376.757 407.689C374.828 407.689 373.288 406.013 373.288 403.966C373.288 401.918 374.861 400.26 376.791 400.276C378.72 400.276 380.277 401.952 380.26 404Z" fill="white"/>
</g>
<g opacity="0.2">
<path opacity="0.2" d="M391.057 404.05C391.041 406.098 389.484 407.756 387.554 407.739C385.625 407.723 384.085 406.064 384.085 404.016C384.085 401.969 385.659 400.31 387.588 400.327C389.517 400.327 391.057 402.003 391.057 404.05Z" fill="white"/>
</g>
<g opacity="0.2">
<path opacity="0.2" d="M401.838 404.101C401.838 406.149 400.264 407.807 398.335 407.79C396.405 407.773 394.865 406.115 394.865 404.067C394.865 402.02 396.439 400.361 398.369 400.378C400.298 400.378 401.855 402.053 401.838 404.101Z" fill="white"/>
</g>
<g opacity="0.2">
<path opacity="0.2" d="M412.618 404.152C412.618 406.2 411.044 407.858 409.115 407.841C407.186 407.841 405.646 406.166 405.646 404.118C405.663 402.07 407.22 400.412 409.149 400.429C411.078 400.429 412.635 402.104 412.618 404.152Z" fill="white"/>
</g>
</g>
<path d="M397.302 159.836C399.587 158.889 401.195 156.536 401.212 153.761C401.229 150.14 398.487 147.178 395.085 147.161C391.684 147.144 388.925 150.072 388.908 153.693C388.891 156.486 390.533 158.855 392.834 159.82C383.357 161.241 383.797 171.547 383.797 171.547L406.187 171.649C406.187 171.665 406.695 161.258 397.302 159.836Z" fill="#E8505B"/>
<path opacity="0.1" d="M397.302 159.836C399.587 158.889 401.195 156.536 401.212 153.761C401.229 150.14 398.487 147.178 395.085 147.161C391.684 147.144 388.925 150.072 388.908 153.693C388.891 156.486 390.533 158.855 392.834 159.82C383.357 161.241 383.797 171.547 383.797 171.547L406.187 171.649C406.187 171.665 406.695 161.258 397.302 159.836Z" fill="black"/>
<path d="M433.697 178.401L353.834 178.032L353.79 187.577L433.653 187.946L433.697 178.401Z" fill="#E8505B"/>
<path opacity="0.2" d="M433.697 178.401L353.834 178.032L353.79 187.577L433.653 187.946L433.697 178.401Z" fill="white"/>
<path d="M140.095 227.815C140.095 227.832 139.824 227.866 139.316 227.9C138.758 227.934 137.996 228.001 137.015 228.069C135.999 228.086 134.764 228.306 133.308 228.56C132.581 228.712 131.785 228.763 130.956 229C130.127 229.237 129.264 229.474 128.333 229.728C124.677 230.878 120.277 232.706 115.86 235.921C111.443 239.103 107.026 243.655 103.573 249.595C101.763 252.506 100.442 255.89 99.2748 259.427C98.3101 263.032 97.4639 266.856 97.3962 270.901C97.2101 272.915 97.4131 274.962 97.4978 277.027C97.5485 278.059 97.7685 279.092 97.9039 280.141C98.0393 281.19 98.1916 282.239 98.4963 283.271C99.3594 287.485 101.069 291.597 103.235 295.557C107.567 303.494 114.845 310.331 123.848 314.291C128.35 316.271 133.325 317.354 138.386 317.557C143.446 317.879 148.641 317.066 153.566 315.374L155.055 314.833L155.259 314.765L155.445 314.85C162.722 318.539 169.864 322.177 176.786 325.68L176.142 326.222C173.858 319.148 171.658 312.294 169.542 305.711L169.458 305.457L169.644 305.271C175.026 299.89 178.766 293.341 180.847 286.639C182.929 279.921 183.284 273.084 182.472 266.806C181.66 260.527 179.612 254.807 176.87 250.001C174.129 245.178 170.727 241.252 167.241 238.206C163.704 235.177 160.031 233.112 156.748 231.538C153.38 230.134 150.385 229.237 147.897 228.746C146.644 228.526 145.544 228.34 144.58 228.188C143.615 228.12 142.803 228.069 142.126 228.018C141.5 227.968 140.992 227.934 140.62 227.9C140.281 227.849 140.095 227.832 140.095 227.815C140.095 227.798 140.264 227.798 140.603 227.798C140.975 227.815 141.483 227.815 142.109 227.849C142.786 227.883 143.615 227.917 144.58 227.951C145.561 228.103 146.678 228.255 147.931 228.441C150.452 228.881 153.482 229.744 156.9 231.132C160.234 232.689 163.957 234.737 167.562 237.783C171.133 240.846 174.602 244.789 177.412 249.68C180.221 254.536 182.337 260.341 183.183 266.721C184.029 273.084 183.707 280.039 181.609 286.893C179.51 293.713 175.719 300.397 170.236 305.897L170.338 305.457C172.47 312.04 174.687 318.894 176.972 325.951L177.31 326.983L176.346 326.492C169.424 322.989 162.282 319.368 154.988 315.662L155.36 315.679L153.837 316.237C148.811 317.963 143.497 318.793 138.318 318.471C133.139 318.251 128.062 317.151 123.459 315.12C114.269 311.059 106.857 304.07 102.456 295.981C100.256 291.953 98.5301 287.739 97.667 283.458C97.3624 282.408 97.2101 281.342 97.0747 280.276C96.9393 279.21 96.7193 278.161 96.6685 277.112C96.5839 274.996 96.3977 272.915 96.5839 270.884C96.6685 266.789 97.5485 262.896 98.547 259.241C99.7655 255.653 101.119 252.235 102.964 249.29C106.501 243.283 111.003 238.714 115.505 235.532C120.006 232.334 124.474 230.523 128.181 229.423C129.111 229.186 130.008 228.949 130.838 228.729C131.667 228.492 132.479 228.458 133.207 228.323C134.679 228.086 135.932 227.9 136.947 227.917C137.929 227.883 138.707 227.866 139.266 227.832C139.841 227.798 140.095 227.798 140.095 227.815Z" fill="#E8505B"/>
<path d="M149.758 267.33H146.627L139.807 257.82V251.575C139.807 251.575 134.967 251.271 135.542 259.444C136.118 267.618 135.492 265.537 135.492 265.537C135.492 265.537 125.219 265.57 124.373 266.467C123.746 267.11 123.476 277.315 123.357 282.849C123.306 285.641 125.016 288.213 127.605 288.873C127.977 288.975 128.35 289.025 128.705 289.025C131.261 289.025 144.343 286.944 144.343 286.944H149.741V267.33H149.758Z" fill="#E8505B"/>
<path d="M158.711 265.621L156.782 287.012H151.434V266.044L158.711 265.621Z" fill="#E8505B"/>
<path d="M222.497 701.098V686.612L196.553 686.442L196.333 708.307L197.94 708.425C205.099 708.882 234.36 709.559 239.15 708.07C244.514 706.428 222.497 701.098 222.497 701.098Z" fill="#E8505B"/>
<path d="M239.776 706.733C239.776 706.97 230.078 707.173 218.096 707.173C206.131 707.173 196.417 706.97 196.417 706.733C196.417 706.496 206.114 706.293 218.096 706.293C230.062 706.293 239.776 706.479 239.776 706.733Z" fill="#263238"/>
<path d="M222.954 704.042C222.734 703.924 222.92 703.162 223.478 702.418C224.037 701.656 224.714 701.267 224.883 701.436C225.052 701.605 224.697 702.248 224.189 702.942C223.681 703.636 223.174 704.161 222.954 704.042Z" fill="#263238"/>
<path d="M224.612 705.007C224.392 704.922 224.511 704.059 225.018 703.162C225.526 702.248 226.203 701.707 226.389 701.859C226.575 702.011 226.254 702.756 225.78 703.585C225.306 704.431 224.832 705.091 224.612 705.007Z" fill="#263238"/>
<path d="M204.236 706.665C204.134 706.733 203.745 706.36 203.187 705.717C202.628 705.091 201.883 704.194 200.919 703.433C199.954 702.688 198.888 702.299 198.109 702.214C197.314 702.113 196.806 702.231 196.756 702.096C196.705 701.994 197.196 701.639 198.126 701.588C199.04 701.52 200.343 701.876 201.443 702.739C202.543 703.585 203.237 704.617 203.677 705.345C204.134 706.09 204.337 706.597 204.236 706.665Z" fill="#263238"/>
<path d="M223.038 701.318C223.174 701.521 222.717 702.028 221.972 702.299C221.227 702.57 220.567 702.485 220.533 702.231C220.5 701.995 221.024 701.707 221.667 701.47C222.31 701.233 222.903 701.115 223.038 701.318Z" fill="#263238"/>
<path d="M222.615 699.93C222.632 700.167 221.955 700.387 221.075 700.387C220.195 700.404 219.501 700.218 219.518 699.964C219.535 699.727 220.229 699.507 221.058 699.507C221.904 699.49 222.598 699.693 222.615 699.93Z" fill="#263238"/>
<path d="M286.384 701.098V686.612L260.44 686.442L260.22 708.087L261.828 708.205C268.986 708.662 298.247 709.559 303.037 708.087C308.402 706.428 286.384 701.098 286.384 701.098Z" fill="#E8505B"/>
<path d="M303.663 706.767C303.663 707.004 293.966 707.207 281.984 707.207C270.019 707.207 260.304 707.004 260.304 706.767C260.304 706.53 270.002 706.327 281.984 706.327C293.966 706.327 303.663 706.513 303.663 706.767Z" fill="#263238"/>
<path d="M286.841 704.042C286.621 703.924 286.807 703.162 287.365 702.418C287.924 701.656 288.601 701.267 288.77 701.436C288.939 701.605 288.584 702.248 288.076 702.942C287.569 703.636 287.061 704.161 286.841 704.042Z" fill="#263238"/>
<path d="M288.499 705.007C288.279 704.922 288.398 704.059 288.906 703.162C289.413 702.248 290.09 701.707 290.276 701.859C290.463 702.011 290.141 702.756 289.667 703.585C289.193 704.431 288.719 705.091 288.499 705.007Z" fill="#263238"/>
<path d="M268.123 706.666C268.022 706.733 267.632 706.361 267.074 705.718C266.515 705.092 265.771 704.195 264.806 703.433C263.841 702.689 262.775 702.299 261.997 702.215C261.201 702.113 260.694 702.232 260.643 702.096C260.592 701.995 261.083 701.639 262.014 701.589C262.927 701.521 264.231 701.876 265.331 702.739C266.431 703.586 267.125 704.618 267.565 705.346C268.022 706.09 268.225 706.598 268.123 706.666Z" fill="#263238"/>
<path d="M286.925 701.318C287.044 701.521 286.604 702.028 285.859 702.299C285.115 702.57 284.455 702.485 284.421 702.231C284.387 701.995 284.912 701.707 285.555 701.47C286.215 701.233 286.79 701.115 286.925 701.318Z" fill="#263238"/>
<path d="M286.519 699.93C286.536 700.167 285.859 700.387 284.979 700.387C284.099 700.404 283.405 700.218 283.422 699.964C283.439 699.727 284.133 699.507 284.962 699.507C285.791 699.49 286.485 699.693 286.519 699.93Z" fill="#263238"/>
<path d="M381.969 271.426C381.292 270.732 379.634 271.054 379.634 271.054C379.634 271.054 379.922 269.074 379.617 268.126C379.312 267.162 377.18 267.348 377.18 267.348C377.18 267.348 377.044 266.434 377.231 264.945C377.281 264.573 377.078 264.302 376.74 264.099C375.724 263.489 373.558 263.523 373.558 263.523C372.255 262.593 377.535 255.197 379.498 252.828C381.428 250.493 381.106 248.614 379.363 248.614C378.178 248.614 372.001 255.722 370.123 258.108C368.244 260.494 363.184 267.128 363.015 261.831C362.845 256.534 360.713 252.523 359.393 251.847C358.056 251.17 356.634 252.76 357.362 254.233C357.954 255.417 358.327 257.719 358.547 259.445C358.716 260.866 358.665 262.322 358.344 263.726C357.464 267.686 356.516 270.276 356.059 271.375L355.924 271.308C355.924 271.308 318.979 306.727 316.322 309.249C313.919 311.517 265.923 306.558 256.31 305.543C253.687 305.255 249.795 304.714 246.41 304.866C242.247 305.052 241.502 305.644 237.322 305.695C224.544 305.864 213.882 307.117 205.962 308.453C196.383 310.078 188.514 316.898 185.552 326.155C175.855 356.447 153.888 428.149 149.978 468.425C146.898 474.213 143.446 480.982 142.058 484.79C139.333 492.202 139.993 492.439 140.907 492.608C143.361 493.065 146.187 479.764 147.237 482.979C148.286 486.194 141.906 498.836 144.495 499.208C147.88 499.699 150.571 485.72 150.875 484.553C151.18 483.419 152.889 483.808 152.551 484.84C152.06 486.33 147.304 502.119 150.605 502.626C152.432 502.914 152.635 499.563 152.635 499.563C152.635 499.563 156.003 484.468 157.56 484.756C159.134 485.043 157.459 493.979 156.68 496.957C155.902 499.902 157.002 501.459 158.576 500.714C159.659 500.206 162.248 491.17 162.959 488.208C163.67 485.247 165.447 477.107 167.833 481.828C170.219 486.55 173.841 489.291 175.33 489.359C176.819 489.41 177.446 487.362 176.159 486.33C175.11 485.5 173.807 483.588 172.893 482.099C172.132 480.88 171.573 479.544 171.268 478.139C170.084 472.724 170.084 469.576 170.084 469.576L169.813 467.833C173.604 449.065 184.52 393.982 200.225 358.799L206.69 372.1L209.499 381.949L192.271 424.493L265.737 423.529L254.787 381.323L268.089 337.324C282.491 337.645 319.487 338.187 325.698 335.412C333.449 331.942 373.558 281.394 373.558 281.394C376.266 279.245 379.025 276.909 381.055 274.895C381.039 274.879 383.425 272.932 381.969 271.426Z" fill="#FFBE9D"/>
<path d="M189.055 393.169C191.188 385.892 202.137 349.914 202.137 349.914C202.137 349.914 207.519 379.241 206.098 382.778C204.473 386.857 201.477 391.511 201.477 391.511C189.055 410.43 190.68 419.89 190.68 419.89L265.72 417.606C265.906 407.113 259.695 382.711 258.392 378.818C257.089 374.926 261.404 362.166 261.404 362.166C261.404 362.166 269.883 353.553 269.562 349.119C268.902 340.184 268.089 337.307 268.089 337.307L313.75 338.982L312.311 307.996L246.681 301.43C244.413 307.895 223.732 304.73 223.732 304.73C201.41 305.458 200.073 309.57 190.765 316.779C181.457 323.988 166.141 385.858 166.141 385.858L189.055 393.169Z" fill="#36829D"/>
<path d="M233.429 385.858C233.429 385.977 231.923 386.078 229.469 386.062C227.032 386.045 223.648 385.892 219.941 385.52C216.235 385.148 212.884 384.623 210.498 384.149C208.095 383.675 206.639 383.286 206.656 383.168C206.673 383.049 208.179 383.219 210.599 383.54C213.019 383.845 216.336 384.268 220.026 384.64C223.715 385.012 227.066 385.266 229.486 385.435C231.94 385.605 233.446 385.723 233.429 385.858Z" fill="#263238"/>
<path d="M238.574 379.479C238.608 379.58 237.051 380.172 234.479 380.883C231.906 381.577 228.285 382.355 224.223 382.846C220.161 383.32 216.455 383.422 213.798 383.354C211.124 383.286 209.482 383.066 209.482 382.948C209.482 382.812 211.141 382.812 213.798 382.728C216.455 382.643 220.11 382.457 224.121 381.966C228.132 381.492 231.737 380.815 234.343 380.274C236.933 379.715 238.54 379.343 238.574 379.479Z" fill="#263238"/>
<path d="M263.808 351.014C263.926 351.031 263.74 352.503 263.3 354.839C262.86 357.174 262.183 360.39 261.32 363.926C260.457 367.463 259.577 370.628 258.883 372.896C258.189 375.18 257.681 376.568 257.563 376.534C257.444 376.5 257.732 375.062 258.273 372.743C258.917 370.103 259.644 367.074 260.457 363.723C261.286 360.373 262.031 357.36 262.691 354.72C263.283 352.402 263.689 350.98 263.808 351.014Z" fill="#263238"/>
<path d="M189.851 388.871C189.783 389.108 184.604 387.906 178.292 386.18C171.962 384.454 166.902 382.863 166.97 382.626C167.037 382.389 172.216 383.608 178.529 385.317C184.841 387.043 189.901 388.634 189.851 388.871Z" fill="#263238"/>
<path d="M268.902 336.917C268.902 336.951 268.208 337.036 266.955 336.9C265.72 336.765 263.892 336.477 261.794 335.665C259.695 334.87 257.292 333.567 255.058 331.57C252.824 329.59 250.827 326.848 249.558 323.633C248.272 320.418 247.832 317.067 248.035 314.088C248.238 311.11 249.016 308.419 250.353 306.541C251.673 304.629 253.416 303.715 254.635 303.393C255.244 303.224 255.752 303.19 256.073 303.207C256.412 303.224 256.581 303.258 256.581 303.275C256.581 303.359 255.887 303.325 254.736 303.715C253.619 304.121 252.029 305.069 250.861 306.896C248.559 310.518 247.916 317.135 250.37 323.311C251.606 326.408 253.484 329.031 255.6 330.961C257.715 332.907 260 334.244 262.014 335.09C266.109 336.782 268.935 336.731 268.902 336.917Z" fill="#263238"/>
<path d="M308.351 338.373C308.114 338.373 307.928 331.384 307.945 322.787C307.962 314.173 308.165 307.184 308.419 307.184C308.655 307.184 308.842 314.173 308.825 322.787C308.808 331.401 308.605 338.373 308.351 338.373Z" fill="#263238"/>
<path d="M246.275 303.343C246.461 299.569 246.85 295.304 246.85 295.304C246.85 295.304 256.192 294.272 256.75 284.626C257.309 274.98 256.75 252.727 256.75 252.727L239.742 244.062L221.024 258.819L223.868 307.049L241.079 308.149C243.804 308.318 246.139 306.169 246.275 303.343Z" fill="#FFBE9D"/>
<path d="M247.95 276.977C247.984 276.977 247.984 277.163 247.798 277.4C247.629 277.62 247.256 277.891 246.732 277.874C245.648 277.823 244.599 276.621 244.227 275.166C244.041 274.421 244.041 273.677 244.176 273.017C244.295 272.374 244.667 271.731 245.192 271.561C245.445 271.46 245.716 271.477 245.902 271.578C246.105 271.68 246.224 271.832 246.292 271.968C246.41 272.255 246.325 272.424 246.292 272.408C246.258 272.408 246.258 272.255 246.122 272.069C245.987 271.883 245.665 271.714 245.327 271.9C244.972 272.069 244.718 272.526 244.633 273.101C244.531 273.677 244.532 274.354 244.718 275.014C245.056 276.317 245.97 277.4 246.765 277.501C247.172 277.552 247.493 277.4 247.679 277.247C247.849 277.112 247.916 276.977 247.95 276.977Z" fill="#EB996E"/>
<path d="M262.555 247.514C261.252 243.08 256.53 240.863 252.232 239.645C245.682 237.783 238.591 236.971 232.211 239.323C225.814 241.676 218.13 245.822 218.13 252.879C214.356 252.574 212.207 255.874 210.701 259.969C209.821 262.389 209.229 265.08 209.093 267.754L209.025 267.737C208.535 276.977 205.962 289.72 199.971 296.556C196.654 300.33 191.899 302.936 189.969 307.641C188.294 311.736 189.157 316.559 187.566 320.688C186.161 324.327 183.064 326.916 180.847 330.081C176.007 336.985 175.686 346.733 179.24 354.433C182.794 362.133 189.834 367.768 197.653 370.357C205.471 372.946 214.001 372.659 221.955 370.577C227.828 369.054 233.548 366.516 238.236 362.505C242.924 358.511 246.512 352.943 247.578 346.733C248.762 339.811 246.833 332.805 245.411 325.935C240.91 304.206 242.196 303.089 247.882 282.934C248.018 282.578 248.085 282.206 248.187 281.851C248.255 281.58 248.339 281.326 248.407 281.055H248.39C248.542 280.26 248.661 279.464 248.661 278.652C247.019 279.295 245.022 278.872 243.77 277.586C242.501 276.317 242.044 274.252 242.619 272.526C243.279 270.529 245.107 269.209 246.985 268.414C248.864 267.618 250.878 267.229 252.723 266.349C256.632 264.488 259.34 260.629 261.184 256.585C262.471 253.759 263.435 250.509 262.555 247.514Z" fill="#263238"/>
<path d="M248.627 277.4C248.678 277.383 249.016 278.009 249.524 279.075C250.032 280.141 250.709 281.647 251.453 283.39L251.589 283.712L251.233 283.746C250.675 283.797 250.099 283.847 249.507 283.898C248.322 283.983 247.341 284.118 246.19 284.101C246.004 284.067 245.801 283.898 245.75 283.712C245.682 283.526 245.699 283.373 245.716 283.238C245.767 282.967 245.818 282.781 245.868 282.544L246.173 281.343C246.545 279.887 246.816 278.99 246.884 279.007C246.952 279.024 246.816 279.955 246.529 281.427L246.292 282.646C246.207 283.052 246.055 283.661 246.275 283.627C247.121 283.594 248.322 283.458 249.439 283.373C250.032 283.323 250.59 283.289 251.166 283.238L250.946 283.593C250.218 281.85 249.609 280.31 249.186 279.21C248.779 278.094 248.559 277.417 248.627 277.4Z" fill="#E8505B"/>
<path d="M190.68 419.89L265.72 417.605L298.349 545.102L292.341 691.35H252.621L257.546 548.216L228.522 459.456L232.989 697.019L192.897 697.611L188.666 474.314C188.497 468.103 186.449 454.108 187.211 447.948L190.68 419.89Z" fill="#263238"/>
<path d="M238.524 461.249C238.507 461.368 237.102 461.3 234.851 461.029C232.6 460.759 229.486 460.285 226.085 459.608C222.683 458.914 219.637 458.153 217.453 457.526C215.27 456.9 213.95 456.426 213.967 456.308C214.035 456.071 219.484 457.391 226.254 458.745C233.023 460.116 238.557 460.996 238.524 461.249Z" fill="#455A64"/>
<path d="M291.986 683.311C291.986 683.548 282.999 683.751 271.897 683.751C260.795 683.751 251.809 683.548 251.809 683.311C251.809 683.074 260.795 682.871 271.897 682.871C282.999 682.871 291.986 683.074 291.986 683.311Z" fill="#455A64"/>
<path d="M232.651 690.842C232.651 691.079 223.935 691.282 213.172 691.282C202.408 691.282 193.692 691.079 193.692 690.842C193.692 690.605 202.408 690.402 213.172 690.402C223.918 690.402 232.651 690.588 232.651 690.842Z" fill="#455A64"/>
<path d="M227.472 690.233C227.235 690.233 226.169 638.33 225.12 574.311C224.071 510.275 223.411 458.355 223.648 458.355C223.884 458.355 224.951 510.258 226 574.294C227.066 638.313 227.726 690.216 227.472 690.233Z" fill="#455A64"/>
<path d="M286.655 683.311C286.638 683.311 286.638 683.074 286.638 682.617C286.655 682.127 286.655 681.45 286.672 680.587C286.722 678.759 286.807 676.136 286.892 672.802C287.128 665.982 287.467 656.218 287.89 644.152C288.821 619.918 290.09 586.529 291.512 549.638C291.529 549.299 291.546 548.961 291.546 548.639L291.562 548.758C282.661 513.152 274.622 480.965 268.8 457.628C265.94 446.002 263.621 436.593 262.014 430.027C261.235 426.794 260.643 424.273 260.22 422.513C260.034 421.684 259.881 421.041 259.78 420.55C259.678 420.11 259.644 419.873 259.661 419.873C259.678 419.873 259.746 420.093 259.864 420.533C260 421.007 260.169 421.65 260.389 422.462C260.846 424.222 261.506 426.727 262.352 429.942C264.028 436.491 266.448 445.883 269.409 457.476C275.299 480.795 283.422 512.966 292.426 548.554L292.443 548.622V548.69C292.426 548.994 292.409 549.35 292.409 549.688C290.902 586.563 289.532 619.969 288.533 644.186C287.992 656.235 287.568 666.016 287.264 672.819C287.095 676.17 286.959 678.776 286.875 680.603C286.824 681.467 286.773 682.127 286.756 682.634C286.705 683.091 286.672 683.311 286.655 683.311Z" fill="#455A64"/>
<path d="M273.708 545.678C273.742 545.915 269.815 546.795 264.941 547.624C261.286 548.25 258.138 548.673 256.767 548.758V548.419C257.224 548.538 257.478 548.639 257.461 548.707C257.444 548.775 257.19 548.792 256.716 548.775L255.684 548.724L256.716 548.419C258.036 548.03 261.15 547.387 264.806 546.761C269.68 545.915 273.674 545.424 273.708 545.678Z" fill="#455A64"/>
<path d="M272.946 550.534C272.913 550.771 269.392 550.501 265.043 550.179C260.694 549.841 257.173 549.553 257.173 549.316C257.173 549.079 260.727 548.961 265.111 549.299C269.494 549.638 272.98 550.298 272.946 550.534Z" fill="#455A64"/>
<path opacity="0.2" d="M190.358 422.581C192.169 425.136 194.759 426.033 197.771 426.524C200.783 427.015 203.847 426.693 206.876 426.355C226.254 424.205 246.765 422.225 265.737 417.605C241.181 418.976 215.253 418.519 190.697 419.89C190.697 419.89 190.494 421.582 190.443 421.988" fill="black"/>
<g opacity="0.2">
<path opacity="0.2" d="M215.659 457.188L229.503 510.884L228.538 459.456L215.659 457.188Z" fill="black"/>
</g>
</svg>
