<svg width="864" height="793" viewBox="0 0 864 793" fill="none" xmlns="http://www.w3.org/2000/svg">
<path fill-rule="evenodd" clip-rule="evenodd" d="M456.645 735.269C377.298 714.483 318.726 665.927 247.789 629.006C166.613 586.757 43.8996 579.973 11.4919 503.582C-20.7993 427.467 62.8905 353.881 99.4731 279.402C132.717 211.72 148.651 135.03 215.234 88.7787C284.071 40.9617 376.021 33.8996 464.314 25.967C564.569 16.9598 682.823 -16.8021 759.04 39.9214C835.62 96.9153 799.253 203.513 817.531 288.845C832.857 360.395 863.086 426.452 857.369 498.969C849.908 593.612 870.887 714.601 779.73 768.355C688.36 822.234 563.017 763.134 456.645 735.269Z" fill="url(#paint0_linear)" fill-opacity="0.5"/>
<path d="M352.11 615.685C352.11 615.685 155.337 624.469 144.697 527.182C143.877 519.702 144.791 512.168 146.847 504.926C152.021 486.681 139.093 462.132 129.134 446.841C118.904 431.141 113.572 412.693 114.036 393.964C114.471 376.539 118.973 356.847 134.027 343.152C161.401 336.512 175.609 362.755 175.609 362.755C175.609 362.755 189.848 382.255 217.533 384.938C228.129 385.965 237.756 391.77 243.123 400.96C243.617 401.804 244.032 402.605 244.383 403.346C246.212 407.234 249.983 409.842 254.277 410.025C267.28 410.589 292.252 412.397 300.56 418.088C313.864 427.203 362.301 446.392 348.582 510.281C334.863 574.176 352.11 615.685 352.11 615.685Z" fill="#E6E6E6"/>
<path d="M352.506 633.49C347.826 631.534 337.749 623.866 311.16 594.57C293.023 574.586 269.435 546.988 241.052 512.549C192.744 453.931 146.649 394.987 146.189 394.399C145.448 393.455 145.616 392.087 146.565 391.35C147.509 390.614 148.878 390.777 149.614 391.726C150.074 392.314 196.139 451.218 244.413 509.792C328.957 612.375 350.064 628.994 355.125 629.775C356.311 629.958 357.127 631.069 356.944 632.255C356.761 633.441 355.649 634.256 354.463 634.073C353.929 633.989 353.292 633.821 352.506 633.49Z" fill="white"/>
<path d="M323.565 565.797C323.565 565.797 173.667 471.208 151.467 323.094C134.032 206.772 186.003 217.369 209.117 227.275C216.04 230.244 221.556 235.738 224.536 242.654C227.733 250.07 231.534 260.944 232.834 272.954C233.876 282.587 240.089 291.011 249.103 294.568C280.436 306.939 301.479 344.975 301.479 344.975L368.839 521.017L323.565 565.797Z" fill="#D7E6E5"/>
<path d="M334.566 559.893C302.793 523.126 270.359 458.688 243.859 397.66L257.48 338.449C257.717 337.426 257.074 336.408 256.056 336.171C255.028 335.934 254.015 336.576 253.778 337.594L241.319 391.771C221.22 344.98 204.768 300.803 194.987 273.438C194.024 270.745 193.495 269.258 193.307 268.794C192.912 267.82 191.805 267.351 190.836 267.746C189.862 268.142 189.393 269.248 189.788 270.217C189.946 270.607 190.53 272.242 191.414 274.712C200.878 301.188 210.52 326.7 220.251 351.032L173.015 326.191C172.086 325.702 170.939 326.058 170.45 326.987C169.961 327.916 170.317 329.062 171.246 329.551L222.436 356.466C228.287 370.971 234.173 385.032 240.069 398.618C240.079 398.638 240.089 398.657 240.093 398.677C240.652 399.967 241.21 401.261 241.774 402.546C274.49 477.408 304.746 531.179 331.695 562.368C332.031 562.758 332.495 562.976 332.97 563.02C333.459 563.06 333.968 562.911 334.373 562.566C335.164 561.884 335.253 560.683 334.566 559.893Z" fill="white"/>
<path d="M699.893 196.639H683.659C683.051 196.639 682.557 196.145 682.557 195.537V127.182C682.557 126.574 683.051 126.08 683.659 126.08H699.893C702.241 126.08 704.148 127.982 704.148 130.334V192.385C704.144 194.732 702.241 196.639 699.893 196.639Z" fill="#084457"/>
<path d="M699.893 259.61H683.659C683.051 259.61 682.557 259.115 682.557 258.508V212.918C682.557 212.31 683.051 211.816 683.659 211.816H699.893C702.241 211.816 704.148 213.718 704.148 216.07V255.361C704.143 257.707 702.241 259.61 699.893 259.61Z" fill="#084457"/>
<path d="M673.735 629.434H351.414C340.581 629.434 331.804 620.655 331.804 609.831V97.159C331.804 86.3345 340.586 77.5554 351.419 77.5554H673.74C684.573 77.5554 693.35 86.3345 693.35 97.159V609.831C693.35 620.66 684.568 629.434 673.735 629.434Z" fill="#076B82"/>
<path d="M673.018 77.5554H502.705C507.706 84.7042 512.386 92.0654 516.469 99.7873C524.302 114.613 529.53 130.467 532.52 146.948C532.664 147.734 532.506 148.411 532.179 148.969C540.447 178.854 546.136 209.376 550.406 240.08C558.506 298.372 561.772 357.183 568.721 415.608C572.19 444.786 577.019 473.653 582.613 502.49C587.19 526.081 590.693 549.691 589.982 573.652C590.629 573.953 591.148 574.536 591.356 575.465C595.349 593.35 595.932 611.407 594.706 629.444H673.023C684.252 629.444 693.355 620.344 693.355 609.119V97.8803C693.35 86.6557 684.247 77.5554 673.018 77.5554Z" fill="#36829D"/>
<path d="M678.143 124.652V582.337C678.143 587.159 674.234 591.067 669.411 591.067H355.738C350.915 591.067 347.005 587.159 347.005 582.337V124.652C347.005 119.83 350.915 115.923 355.738 115.923H669.411C674.234 115.923 678.143 119.83 678.143 124.652Z" fill="#DBF7F5"/>
<path fill-rule="evenodd" clip-rule="evenodd" d="M300.298 377.093C278.36 388.782 287.582 479.769 293.255 510.469C287.992 553.263 292.148 572.13 297.164 595.163C298.815 602.766 299.013 614.924 301.039 623.101C303.53 628.298 316.112 627.285 313.755 623.363C313.641 585.815 316.28 547.433 321.558 509.54C325.863 463.738 338.05 422.737 337.986 373.896C328.438 371.451 309.851 379.528 300.298 377.093Z" fill="#FE9BAC"/>
<path fill-rule="evenodd" clip-rule="evenodd" d="M299.062 616.327C296.161 623.125 296.537 631.351 296.917 633.263C298.894 639.31 320.204 654.68 328.121 657.16C332.391 659.022 338.445 658.568 339.32 656.458C339.454 656.231 339.404 655.905 339.552 655.623C344.979 644.918 326.837 635.091 319.745 626.475C317.417 623.649 315.03 618.383 314.417 618.057C313.809 617.81 310.572 618.58 305.166 617.78C301.158 617.192 299.176 615.428 299.062 616.327Z" fill="#FCDF01"/>
<path fill-rule="evenodd" clip-rule="evenodd" d="M335.431 641.459C330.508 636.05 323.293 630.788 319.547 626.243C317.219 623.417 315.41 618.768 314.897 617.77C314.565 614.811 309.618 614.732 308.185 616.609C307.177 617.898 308.482 620.744 309.144 622.039C310.068 623.871 311.684 627.221 314.605 630.422C317.17 633.253 331.161 647.032 335.431 641.459Z" fill="#E66909"/>
<path fill-rule="evenodd" clip-rule="evenodd" d="M296.67 628.244C296.606 630.615 296.769 632.478 296.917 633.263C298.894 639.31 320.204 654.68 328.121 657.16C332.391 659.023 338.445 658.568 339.32 656.459C339.454 656.231 339.533 655.935 339.552 655.609C323.52 655.12 303.006 635.798 296.67 628.244Z" fill="#E66909"/>
<path fill-rule="evenodd" clip-rule="evenodd" d="M291.871 365.127C279.388 383.436 285.605 479.621 291.278 510.321C285.224 545.595 288.279 572.817 295.089 598.349C296.245 600.8 310.197 602.01 316.315 598.774C317.254 598.265 317.57 598.221 317.649 597.203C317.783 595.568 317.585 591.709 317.896 586.349C318.657 573.094 320.204 551.613 321.03 538.862C321.954 524.411 323.654 510.336 325.468 495.984C330.434 456.9 341.203 410.574 341.134 368.788C338.253 368.052 320.209 372.37 291.871 365.127Z" fill="#FCBE01"/>
<path fill-rule="evenodd" clip-rule="evenodd" d="M251.317 373.886C230.372 385.037 238.354 469.73 244.042 504.091C244.65 507.752 244.803 508.621 244.438 512.297C241.403 543.896 247.175 589.57 254.959 620.744C257.45 625.961 270.033 624.943 267.675 621.006C267.591 594.639 269.538 566.148 271.288 539.143C272.029 527.716 270.991 517.613 272.573 506.334C276.877 460.512 289.064 419.531 288.985 370.67C279.452 368.23 260.85 376.322 251.317 373.886Z" fill="#FE9BAC"/>
<path fill-rule="evenodd" clip-rule="evenodd" d="M252.933 617.424C251.663 619.045 252.108 625.645 252.123 633.085C252.123 640.278 252.454 647.289 254.302 653.519C256.99 662.575 270.645 671.126 273.482 661.038C274.125 658.751 273.927 656.182 273.68 653.845C273.349 650.545 272.672 646.948 272.311 642.828C271.288 630.961 270.794 618.032 268.93 616.589C268.204 616.293 264.147 617.686 260.766 617.814C256.575 617.963 252.997 616.915 252.933 617.424Z" fill="#FCDF01"/>
<path fill-rule="evenodd" clip-rule="evenodd" d="M252.108 632.235C252.122 632.512 252.122 632.808 252.122 633.085C252.122 640.278 252.454 647.289 254.302 653.519C256.99 662.574 270.645 671.126 273.482 661.038C274.125 658.751 273.927 656.182 273.68 653.845C273.383 650.935 272.82 647.778 272.459 644.265C272.706 646.864 273.645 657.901 271.668 661.186C268.965 666.744 257.435 659.21 255.453 651.74C252.963 642.729 252.207 633.085 252.108 632.235Z" fill="#E66909"/>
<path fill-rule="evenodd" clip-rule="evenodd" d="M263.588 647.798C263.588 647.798 261.562 648.094 260.109 645.491C256.877 639.755 256.99 624.519 256.813 617.666C255.444 610.735 264.913 611.698 265.308 614.084C266.281 618.318 265.308 622.078 265.52 630.072C265.669 635.516 266.346 639.503 266.41 642.25C266.454 644.265 267.181 647.452 263.588 647.798Z" fill="#E66909"/>
<path fill-rule="evenodd" clip-rule="evenodd" d="M242.871 361.921C230.387 380.23 236.619 476.415 242.278 507.095C236.308 541.979 240.479 572.19 247.146 597.544C247.309 598.167 247.294 598.557 247.887 598.982C250.857 601.106 264.794 602.203 270.566 599.16C271.886 598.458 271.525 598.295 271.54 596.922C271.688 573.494 274.144 547.458 273.932 524.441C273.882 519.145 273.848 513.849 274.426 508.977C275.034 503.582 275.746 498.187 276.487 492.778C281.829 453.724 292.222 407.368 292.153 365.582C289.247 364.851 271.204 369.164 242.871 361.921Z" fill="#FCBE01"/>
<path fill-rule="evenodd" clip-rule="evenodd" d="M243.182 262.94C242.822 280.809 239.224 300.21 238.814 307.127C242.985 310.59 221.151 368.413 233.451 405.026C234.44 406.103 234.588 415.243 234.46 417.975C234.395 419.333 234.46 419.299 235.631 419.625C245.92 422.451 337.428 424.61 337.675 421.65C340.576 406.775 340.793 382.305 345.196 347.974C346.205 327.817 337.744 316.736 350.262 276.521C341.999 273.221 330.736 268.216 324.781 264.392C299.66 256.171 283.055 257.233 270.29 258.063C264.443 258.464 246.039 259.738 243.182 262.94Z" fill="#F86545"/>
<path fill-rule="evenodd" clip-rule="evenodd" d="M267.893 258.236C265.797 245.994 279.586 229.938 289.811 231.395C296.705 232.378 317.338 235.318 325.057 240.891C327.336 242.526 330.123 247.511 332.53 254.279C334.245 259.135 336.538 265.395 334.709 269.728C333.306 274.372 330.864 274.895 327.222 277.247C311.22 287.543 274.125 278.013 267.893 258.236Z" fill="#DB0F32"/>
<path fill-rule="evenodd" clip-rule="evenodd" d="M348.592 345.168C346.051 354.975 332.263 376.031 318.756 389.972C316.597 392.882 321.677 398.949 325.191 395.679C326.842 393.441 337.215 384.449 344.668 374.835C350.554 367.217 363.897 350.103 362.019 344.269C358.125 340.148 348.626 345.069 348.592 345.168Z" fill="#F47458"/>
<path fill-rule="evenodd" clip-rule="evenodd" d="M368.266 353.226C368.973 341.65 367.307 329.897 365.563 318.994C362.281 298.595 356.558 281.496 350.257 276.526C344.04 276.15 337.838 310.97 338.297 323.504C339.157 331.676 342.073 341.418 341.994 346.521C341.549 349.204 335.792 357.341 330.86 365.142C327.494 370.453 323.965 376.095 324.875 377.923C325.685 380.768 333.681 396.459 342.785 394.024C350.835 390.368 366.472 363.23 368.266 353.226Z" fill="#F47458"/>
<path fill-rule="evenodd" clip-rule="evenodd" d="M319.167 378.303C323.273 386.119 333.4 391.316 340.012 394.226C340.012 394.226 337.487 402.333 334.156 403.203C330.81 404.067 311.744 403.351 311.744 402.19C311.744 401.044 307.82 386.331 307.82 385.319C307.82 384.316 319.167 378.303 319.167 378.303Z" fill="#F83E40"/>
<path fill-rule="evenodd" clip-rule="evenodd" d="M185.064 301.979C191.548 303.268 236.046 262.337 247.344 261.013C258.098 264.758 244.591 301.895 238.819 307.127C236.278 306.425 203.473 329.946 188.859 330.06C190.589 321.449 188.839 310.022 185.064 301.979Z" fill="#F47458"/>
<path fill-rule="evenodd" clip-rule="evenodd" d="M115.213 310.595C115.03 311.43 120.377 312.556 122.339 313.095C122.848 313.979 123.412 314.666 124.237 315.352C126.065 316.889 129.085 318.05 132.119 318.984C150.692 324.754 167.599 331.374 190.391 329.986C196.776 325.752 197.419 310.466 187.569 301.43C183.082 302.769 155.243 303.164 131.111 297.196C127.943 296.757 124.944 295.986 124.944 295.986C123.392 295.314 119.171 297.048 118.776 297.473C117.901 302.27 115.905 309.35 115.213 310.595Z" fill="#F47458"/>
<path fill-rule="evenodd" clip-rule="evenodd" d="M105.877 263.839L124.019 269.575C126.248 270.276 128.077 272.845 128.077 275.281V321.409C128.077 323.845 126.248 325.268 124.019 324.547L105.877 318.811C103.633 318.109 101.82 315.54 101.82 313.105V266.976C101.82 264.545 103.633 263.137 105.877 263.839Z" fill="#000066"/>
<path fill-rule="evenodd" clip-rule="evenodd" d="M94.96 280.745C96.8874 279.421 99.8922 280.419 101.82 279.929V284.717C101.474 287.498 101.508 286.204 101.607 287.464C101.642 287.711 101.671 288.2 101.805 288.397C103.273 290.734 117.723 298.387 116.7 300.101C116.502 300.462 115.909 300.561 115.331 300.511C114.358 300.427 112.643 299.908 110.646 298.777C107.498 296.994 104.676 295.783 101.424 293.99C100.93 293.679 99.2151 292.779 98.6023 293.353C96.1955 294.593 117.338 303.979 115.919 306.82C115.509 307.655 114.12 307.443 112.307 306.672C107.671 304.711 101.024 300.412 99.5067 299.563C97.9253 298.579 95.9929 298.975 98.5331 300.773C101.864 303.125 108.645 307.739 108.976 309.305C109.173 309.552 109.124 310.056 108.63 310.318C107.641 310.842 104.671 309.009 102.497 307.635C101.227 306.835 96.7886 302.892 97.1839 304.711C97.3965 305.709 100.579 308.045 101.785 308.994C103.648 310.446 103.782 311.153 103.584 311.558C102.645 312.768 96.0819 308.011 95.1083 306.198C93.9518 305.328 90.3738 289.178 94.96 280.745Z" fill="#FE9BAC"/>
<path fill-rule="evenodd" clip-rule="evenodd" d="M122.403 272.489C123.476 272.85 124.331 273.976 124.331 275.038C124.331 276.086 123.471 276.659 122.403 276.313C121.346 275.972 120.476 274.841 120.476 273.779C120.476 272.731 121.351 272.143 122.403 272.489Z" fill="white"/>
<path fill-rule="evenodd" clip-rule="evenodd" d="M233.965 406.632C234.494 409.64 234.573 415.801 234.46 417.975C234.395 419.333 234.46 419.299 235.631 419.625C245.92 422.451 337.427 424.61 337.675 421.65C338.549 417.189 339.177 411.873 339.75 405.713C339.468 405.747 339.192 405.797 338.89 405.841C314.007 410.208 252.686 407.56 233.965 406.632Z" fill="#DB0F32"/>
<path fill-rule="evenodd" clip-rule="evenodd" d="M340.59 395.644C340.625 395.224 340.655 394.809 340.689 394.384C329.313 390.378 314.219 377.577 310.997 366.377C310.854 365.878 310.77 365.498 310.701 365.206C310.399 363.858 310.073 363.724 308.694 363.744C308.289 363.749 307.731 363.749 306.974 363.714C305.472 363.64 303.619 363.546 301.533 363.438C291.466 362.919 276.26 362.133 269.187 362.227L268.599 362.232C267.22 362.242 266.934 362.247 266.415 363.032C266.321 363.176 266.193 363.368 265.995 363.615C261.018 369.811 243.741 385.749 230.284 390.076C230.328 390.486 230.382 390.901 230.432 391.311C230.432 391.311 231.603 405.066 235.69 408.726C239.777 412.387 339.548 410.144 339.567 407.59C339.582 405.026 340.551 396.766 340.59 395.644Z" fill="#F47458"/>
<path fill-rule="evenodd" clip-rule="evenodd" d="M292.811 237.882C291.788 241.103 290.32 251.957 286.425 254.981C281.063 259.165 275.721 256.616 272.652 257.925C274.006 270.054 302.304 287.81 326.303 267.307C320.694 265.069 319.572 263.972 315.663 261.7C311.719 259.427 315.712 246.384 317.032 241.953C306.169 245.223 297.15 243.015 292.811 237.882Z" fill="#FE9BAC"/>
<path fill-rule="evenodd" clip-rule="evenodd" d="M292.811 237.882C292.677 238.292 292.529 238.845 292.381 239.483C292.741 241.217 293.369 243.667 294.343 245.564C298.168 252.97 307.523 253.997 314.63 251.206C315.356 247.56 316.458 243.914 317.036 241.953C306.169 245.223 297.15 243.015 292.811 237.882Z" fill="#ED8B9C"/>
<path fill-rule="evenodd" clip-rule="evenodd" d="M327.944 223.283C331.21 219.963 335.149 220.536 334.606 224.118C334.013 228.055 329.426 234.582 326.392 233.124C323.703 231.85 327.944 223.283 327.944 223.283Z" fill="#ED8B9C"/>
<path fill-rule="evenodd" clip-rule="evenodd" d="M313.641 195.493C320.718 196.718 328.601 198.353 331.126 204.746C332.856 209.128 330.815 217.058 329.377 223.298C325.814 238.682 313.543 249.749 302.576 248.049C291.61 246.364 288.13 229.641 291.674 214.262C295.237 198.862 301.766 193.452 313.641 195.493Z" fill="#FE9BAC"/>
<path fill-rule="evenodd" clip-rule="evenodd" d="M299.176 233.598C299.176 233.598 302.823 237.491 309.549 237.457C305.299 245.416 297.496 242.165 299.176 233.598Z" fill="white"/>
<path fill-rule="evenodd" clip-rule="evenodd" d="M289.845 241.987C287.453 248.019 286.727 253.118 288.214 258.286C289.929 264.254 292.85 265.296 294.664 270.513C295.623 273.275 295.025 276.121 295.899 276.086C296.759 275.859 300.614 270.35 301.771 268.764C306.372 262.292 316.498 263.616 315.593 251.226C315.035 243.395 322.028 245.569 324.385 251.176C341.159 275.809 308.339 281.417 297.436 277.608C284.058 278.393 259.817 257.386 276.373 245.599C280.376 242.753 285.852 241.79 289.845 241.987Z" fill="#DB0F32"/>
<path fill-rule="evenodd" clip-rule="evenodd" d="M329.575 222.418C326.95 222.107 336.32 208.145 324.331 201.723C320.259 200.972 317.684 200.102 314.19 199.09C309.109 197.617 306.569 195.641 301.375 199.04C299.196 200.463 297.105 201.703 294.347 208.047C293.987 208.847 293.557 210.369 293.191 211.317C292.944 212.132 292.479 213.066 291.886 213.362C288.387 204.568 293.156 194.238 295.978 189.594C298.336 185.182 310.029 172.693 313.048 177.791C315.786 185.785 322.003 183.152 326.525 184.757C331.818 187.914 330.202 189.169 331.591 190.33C345.869 201.283 338.302 216.124 329.575 222.418Z" fill="#E66909"/>
<path d="M382.929 590.366L384.56 589.896C384.486 589.644 377.29 564.172 377.3 532.657C377.31 503.651 383.601 463.441 413.53 436.566L412.394 435.301C398.961 447.365 389.052 463.041 382.949 481.889C378.076 496.937 375.605 514.031 375.6 532.696C375.6 564.448 382.86 590.109 382.929 590.366Z" fill="white"/>
<path d="M411.613 437.084C411.613 437.084 423.266 412.254 440.01 419.798C440.494 420.015 440.771 420.534 440.677 421.058C437.643 438.285 411.613 437.084 411.613 437.084Z" fill="white"/>
<path d="M398.843 451.733C398.843 451.733 388.257 429.145 398.329 421.251C408.401 413.356 398.843 451.733 398.843 451.733Z" fill="white"/>
<path d="M385.776 476.405C385.776 476.405 369.773 455.117 379.099 445.774C388.425 436.432 385.776 476.405 385.776 476.405Z" fill="white"/>
<path d="M378.57 504.22C378.57 504.22 356.203 488.327 362.874 477.482C369.546 466.643 378.57 504.22 378.57 504.22Z" fill="white"/>
<path d="M376.47 535.177C376.47 535.177 350.42 525.587 354.26 514.338C358.1 503.084 376.47 535.177 376.47 535.177Z" fill="white"/>
<path d="M380.508 575.673C380.508 575.673 346.734 565.11 351.755 553.179C356.776 541.253 380.508 575.673 380.508 575.673Z" fill="white"/>
<path d="M398.843 451.733C398.843 451.733 424.67 463.007 428.218 451.495C431.772 439.984 398.843 451.733 398.843 451.733Z" fill="white"/>
<path d="M385.776 476.405C385.776 476.405 415.497 484.572 414.914 475.239C414.336 465.902 385.776 476.405 385.776 476.405Z" fill="white"/>
<path d="M378.417 505.208C378.417 505.208 405.297 504.393 402.811 493.707C400.325 483.02 378.417 505.208 378.417 505.208Z" fill="white"/>
<path d="M376.47 535.177C376.47 535.177 403.973 531.644 399.045 519.891C394.118 508.143 376.47 535.177 376.47 535.177Z" fill="white"/>
<path d="M380.508 575.673C380.508 575.673 406.473 554.029 396.288 548.59C386.107 543.155 380.508 575.673 380.508 575.673Z" fill="white"/>
<path d="M381.882 590.247L383.008 590.874C383.107 590.701 393.001 573.193 410.017 556.336C425.673 540.823 450.744 522.702 481.257 524.465L481.331 523.176C467.631 522.385 453.873 525.429 440.435 532.222C429.706 537.646 419.16 545.457 409.083 555.442C391.949 572.427 381.981 590.069 381.882 590.247Z" fill="white"/>
<path d="M479.952 523.709C479.952 523.709 499.587 516.709 504.474 529.776C504.618 530.157 504.484 530.582 504.153 530.814C493.231 538.387 479.952 523.709 479.952 523.709Z" fill="white"/>
<path d="M465.215 524.658C465.215 524.658 471.743 506.863 481.39 508.073C491.042 509.278 465.215 524.658 465.215 524.658Z" fill="white"/>
<path d="M444.908 530.813C444.908 530.813 447.838 510.795 457.866 510.824C467.898 510.854 444.908 530.813 444.908 530.813Z" fill="white"/>
<path d="M426.039 541.806C426.039 541.806 422.649 521.239 432.073 519.036C441.493 516.837 426.039 541.806 426.039 541.806Z" fill="white"/>
<path d="M408.208 557.235C408.208 557.235 399.446 538.056 407.571 534.109C415.7 530.161 408.208 557.235 408.208 557.235Z" fill="white"/>
<path d="M388.514 581.082C388.514 581.082 376.144 557.215 385.267 553.54C394.395 549.864 388.514 581.082 388.514 581.082Z" fill="white"/>
<path d="M465.215 524.658C465.215 524.658 472.949 544.617 481.059 540.373C489.169 536.13 465.215 524.658 465.215 524.658Z" fill="white"/>
<path d="M444.908 530.814C444.908 530.814 456.398 551.213 461.128 545.907C465.857 540.596 444.908 530.814 444.908 530.814Z" fill="white"/>
<path d="M425.426 542.256C425.426 542.256 440.247 556.316 444.685 549.256C449.118 542.196 425.426 542.256 425.426 542.256Z" fill="white"/>
<path d="M408.208 557.235C408.208 557.235 424.828 570.179 428.535 561.232C432.241 552.29 408.208 557.235 408.208 557.235Z" fill="white"/>
<path d="M388.514 581.083C388.514 581.083 414.084 583.503 411.574 575.105C409.058 566.701 388.514 581.083 388.514 581.083Z" fill="white"/>
<path fill-rule="evenodd" clip-rule="evenodd" d="M552.699 482.086C558.254 488.01 528.977 564.651 514.947 587.787C511.047 587.446 508.23 586.151 504.311 585.791C508.117 560.896 512.49 514.342 525.073 485.609C530.786 478.253 549.032 477.472 552.699 482.086Z" fill="#FE9BAC"/>
<path fill-rule="evenodd" clip-rule="evenodd" d="M554.903 485.471C554.132 504.956 534.25 555.22 527.974 565.57C524.94 566.864 507.212 559.661 506.614 557.23C510.909 529.184 509.54 517.055 521.653 487.808C522.533 485.703 522.236 485.234 520.833 483.569C503.466 462.696 468.472 379.054 479.418 351.339C492.663 350.731 506.313 348.873 519.923 351.215C523.62 353.754 525.429 367.192 526.437 372.34C534.206 407.575 547.154 440.968 554.201 477.136C554.696 479.75 554.997 482.852 554.903 485.471Z" fill="#4C4C8A"/>
<path fill-rule="evenodd" clip-rule="evenodd" d="M505.053 580.816C503.041 588.064 501.04 597.826 501.875 599.51C505.211 604.579 532.783 615.177 540.695 615.508C544.298 616.051 550.04 615.399 550.826 611.254C553.124 599.328 531.952 595.212 523.254 589.052C520.393 587.011 518.283 583.222 517.64 583.064C515.797 582.861 506.535 581.473 505.053 580.816Z" fill="#04A2B2"/>
<path fill-rule="evenodd" clip-rule="evenodd" d="M543.428 599.288C536.84 603.073 533.781 612.667 533.736 612.795L535.224 613.255C535.263 613.126 538.377 603.349 544.915 600.262C544.441 599.931 543.942 599.605 543.428 599.288Z" fill="white"/>
<path fill-rule="evenodd" clip-rule="evenodd" d="M503.026 589.091C502.918 589.605 502.814 590.114 502.71 590.613C506.105 591.354 514.052 594.155 515.337 604.209L516.884 604.011C515.485 593.019 506.792 589.921 503.026 589.091Z" fill="white"/>
<path fill-rule="evenodd" clip-rule="evenodd" d="M502.003 594.644C501.657 597.045 501.564 598.868 501.88 599.51C505.216 604.579 532.787 615.176 540.7 615.507C544.302 616.051 550.045 615.399 550.831 611.254C550.846 611.209 550.846 611.16 550.861 611.115C545.558 612.331 539.993 610.883 534.769 609.352C533.04 608.838 531.216 608.23 529.343 607.529C518.614 603.547 506.441 597.065 502.003 594.644Z" fill="#17DDBE"/>
<path d="M523.546 596.156C523.407 596.448 523.526 596.798 523.818 596.937C523.902 596.976 523.986 596.996 524.07 596.996C524.287 596.996 524.495 596.872 524.598 596.665C525.246 595.326 526.625 593.37 528.191 591.868C527.816 591.685 527.445 591.497 527.084 591.314C525.498 592.91 524.173 594.847 523.546 596.156Z" fill="#12B59D"/>
<path d="M529.15 598.33C529.007 598.616 529.12 598.972 529.412 599.115C529.496 599.155 529.585 599.18 529.674 599.18C529.886 599.18 530.094 599.061 530.198 598.858C530.213 598.824 531.473 596.368 533.845 594.476C533.45 594.298 533.049 594.12 532.659 593.943C530.396 595.899 529.214 598.191 529.15 598.33Z" fill="#12B59D"/>
<path d="M538.402 596.581C535.936 598.285 534.883 600.578 534.833 600.691C534.7 600.988 534.833 601.334 535.13 601.462C535.209 601.497 535.288 601.512 535.367 601.512C535.59 601.512 535.802 601.383 535.901 601.166C535.911 601.141 537.023 598.715 539.627 597.184C539.222 596.981 538.812 596.779 538.402 596.581Z" fill="#12B59D"/>
<path fill-rule="evenodd" clip-rule="evenodd" d="M459.63 351.008C438.71 363.072 448.763 460.215 454.154 491.938C437.45 550.65 464.271 580.816 472.119 614.865C472.341 617.093 471.694 620.838 471.16 622.241C475.282 625.126 480.99 622.77 485.126 625.655C481.459 618.763 481.43 608.897 481.034 603.596C480.926 564.809 480.846 529.075 485.877 489.932C489.984 442.603 501.84 402.007 501.781 351.526C492.678 348.997 468.733 353.537 459.63 351.008Z" fill="#FE9BAC"/>
<path fill-rule="evenodd" clip-rule="evenodd" d="M459.63 351.008C438.71 363.072 446.593 458.56 452 490.288C440.944 529.139 447.769 559.617 456.719 582.861C457.9 585.544 481.776 586.211 484.672 580.228C484.736 552.399 483.836 531.338 486.668 504.086C486.841 502.417 476.932 502.93 469.648 502.748C464.271 502.624 462.269 500.846 462.398 499.645C463.875 494.764 487.424 496.542 487.484 496.029C489.841 468.807 494.23 441.808 497.536 414.181C499.972 393.757 501.816 372.978 501.781 351.526C497.738 350.405 490.785 350.667 483.486 351.106C474.353 351.635 464.696 352.411 459.63 351.008Z" fill="#4C4C8A"/>
<path fill-rule="evenodd" clip-rule="evenodd" d="M470.058 621.787C467.587 628.382 468.328 636.208 468.783 638.016C470.952 643.673 491.951 657.348 499.597 659.374C503.763 660.964 509.491 660.248 510.232 658.188C510.355 657.971 510.296 657.659 510.435 657.378C515.09 646.948 496.513 638.155 489.371 630.284C487.014 627.681 485.359 623.022 484.746 622.74C484.163 622.523 481.128 623.412 475.939 622.898C472.084 622.523 470.122 620.917 470.058 621.787Z" fill="#04A2B2"/>
<path fill-rule="evenodd" clip-rule="evenodd" d="M505.69 644.157C498.495 646.509 493.483 655.13 493.414 655.248L494.768 656.019C494.832 655.906 499.933 647.136 506.921 645.422C506.53 644.997 506.115 644.572 505.69 644.157Z" fill="white"/>
<path fill-rule="evenodd" clip-rule="evenodd" d="M468.956 625.72C468.847 626.253 468.758 626.787 468.679 627.32C472.084 629.084 478.168 633.575 477.313 642.922L478.865 643.066C479.843 632.424 472.613 627.508 468.956 625.72Z" fill="white"/>
<path fill-rule="evenodd" clip-rule="evenodd" d="M501.45 640.412C498.692 641.553 497.175 643.539 497.101 643.638C496.908 643.895 496.962 644.261 497.219 644.453C497.323 644.532 497.447 644.572 497.57 644.572C497.748 644.572 497.921 644.493 498.04 644.34C498.06 644.315 499.666 642.23 502.493 641.277C502.147 640.985 501.801 640.699 501.45 640.412Z" fill="#12B59D"/>
<path fill-rule="evenodd" clip-rule="evenodd" d="M496.532 636.534C493.849 637.967 492.159 639.992 492.065 640.111C491.862 640.363 491.897 640.728 492.149 640.931C492.258 641.02 492.386 641.064 492.52 641.064C492.688 641.064 492.856 640.99 492.974 640.847C492.999 640.817 494.793 638.658 497.555 637.324C497.214 637.063 496.873 636.796 496.532 636.534Z" fill="#12B59D"/>
<path fill-rule="evenodd" clip-rule="evenodd" d="M491.828 632.676C489.836 633.911 488.012 635.61 487.073 636.796C486.876 637.048 486.915 637.419 487.172 637.616C487.281 637.7 487.41 637.74 487.533 637.74C487.706 637.74 487.879 637.661 487.993 637.517C488.951 636.302 490.824 634.612 492.752 633.476C492.436 633.209 492.124 632.943 491.828 632.676Z" fill="#12B59D"/>
<path fill-rule="evenodd" clip-rule="evenodd" d="M468.328 633.229C468.378 635.507 468.61 637.266 468.783 638.016C470.952 643.673 491.951 657.348 499.597 659.374C503.763 660.965 509.491 660.248 510.232 658.188C510.355 657.971 510.42 657.689 510.42 657.378C495.129 657.63 474.698 640.156 468.328 633.229Z" fill="#17DDBE"/>
<path fill-rule="evenodd" clip-rule="evenodd" d="M465.556 227.754C464.454 217.853 478.815 210.606 488.096 210.092C494.482 209.751 510.509 208.126 517.887 212.854C520.516 214.538 525.201 217.172 527.623 220.23C530.722 224.113 531.023 226.109 530.475 229.409C529.743 233.796 525.187 242.412 521.821 244.581C507.113 254.062 470.73 249.867 464.992 231.672L465.556 227.754Z" fill="#03AECC"/>
<path fill-rule="evenodd" clip-rule="evenodd" d="M470.468 225.012C463.312 228.693 453.324 236.064 446.148 242.521C457.693 254.432 455.207 270.222 455.163 287.434C454.248 295.26 453.21 301.732 452.741 309.884C451.97 323.697 441.572 370.873 446.104 374.816C447.018 375.813 446.385 379.756 446.262 382.266C446.198 383.511 446.277 383.481 447.329 383.777C453.635 385.521 501.959 387.3 525.631 384.321C529.061 383.886 530.569 383.792 530.682 382.483C528.577 354.219 530.163 326.128 534.221 294.558C536.44 284.006 533.672 278.858 535.906 268.29C537.117 257.066 549.951 231.825 538.733 230.506C529.382 229.404 521.357 227.364 512.263 223.748C497.709 224.187 484.998 224.578 470.468 225.012Z" fill="#04A2B2"/>
<path fill-rule="evenodd" clip-rule="evenodd" d="M601.191 275.572C602.653 276.259 605.11 275.731 606.444 272.144C608.001 267.999 606.849 264.15 602.352 259.654C580.137 237.447 559.914 232.339 530.845 229.612C521.312 228.629 529.086 254.744 531.587 256.725C544.52 261.072 581.027 267.618 601.191 275.572Z" fill="#04A2B2"/>
<path fill-rule="evenodd" clip-rule="evenodd" d="M473.107 279.732C473.107 289.366 473.69 289.085 471.234 298.081C470.839 299.578 523.897 300.546 524.257 299.751C525.108 297.893 525.864 279.782 524.164 279.732C520.768 279.609 473.972 279.342 473.107 279.732Z" fill="white"/>
<path fill-rule="evenodd" clip-rule="evenodd" d="M492.88 189.5C491.245 185.291 487.518 184.308 486.604 187.707C485.611 191.462 487.187 199.026 490.459 198.887C493.35 198.759 492.88 189.5 492.88 189.5Z" fill="#ED8B9C"/>
<path fill-rule="evenodd" clip-rule="evenodd" d="M493.775 209.983C492.831 212.947 491.497 222.937 487.909 225.728C482.986 229.562 476.774 231.405 473.942 232.605C474.649 239.013 488.082 249.739 502.508 249.472C513.202 249.284 524.653 241.488 530.85 229.611C526.447 229.315 521.035 228.584 517.447 226.509C513.815 224.404 515.041 219.074 516.266 214.988C506.802 218.668 497.032 214.785 493.775 209.983Z" fill="#FE9BAC"/>
<path fill-rule="evenodd" clip-rule="evenodd" d="M493.775 209.983C493.572 210.62 493.335 211.604 493.083 212.775C494.012 214.518 496.276 218.496 498.92 220.897C505.211 226.306 510.262 226.509 515.436 224.078C514.507 221.519 515.386 217.922 516.271 214.988C506.802 218.668 497.032 214.785 493.775 209.983Z" fill="#ED8B9C"/>
<path fill-rule="evenodd" clip-rule="evenodd" d="M491.922 217.028C484.039 232.195 485.818 235.456 497.254 242.318C500.382 244.22 501.455 246.419 501.959 247.807C502.414 249.037 502.774 250.164 503.565 248.103C504.539 245.515 505.497 242.709 507.766 241.088C511.967 238.065 519.533 235.382 521.544 229.725C522.661 226.593 518.648 225.718 518.648 223.614C519.246 222.349 527.984 222.142 529.748 224.385C532.219 227.176 530.919 232.843 530.069 235.273C528.196 243.148 520.161 248.168 507.529 250.099C495.213 251.972 464.612 250.643 465.659 225.432C466.025 216.643 480.031 217.013 487.884 216.549L491.922 217.028Z" fill="#03AECC"/>
<path fill-rule="evenodd" clip-rule="evenodd" d="M514.823 170.544C504.598 168.548 494.912 170.573 491.324 188.552C489.53 197.499 489.737 205.527 492.144 211.095C495.178 216.317 499.898 219.983 504.712 221.539C506.743 222.211 508.848 221.944 510.706 220.961C513.963 219.232 517.062 215.912 521.342 210.467C522.508 208.985 523.294 207.834 524.03 206.1C525.572 202.498 526.422 198.976 527.065 195.404C528.404 188.107 530.321 180.701 528.325 176.621C526.224 172.332 520.062 171.557 514.823 170.544Z" fill="#FE9BAC"/>
<path fill-rule="evenodd" clip-rule="evenodd" d="M513.217 209.687C513.217 209.687 506.357 212.399 500.57 207.286C500.743 209.657 501.45 211.525 502.567 212.869C504.801 215.566 507.835 215.862 510.603 213.708C511.818 212.76 512.841 211.386 513.217 209.687Z" fill="white"/>
<path fill-rule="evenodd" clip-rule="evenodd" d="M491.136 185.755C496.419 187.924 495.791 170.885 506.189 172.288C511.947 173.33 511.349 177.105 520.22 178.118C522.404 178.365 525.444 177.278 526.857 178.009C527.974 178.602 529.234 179.368 530.539 179.442C533.796 179.629 536.83 176.057 537.082 172.066C536.894 165.613 531.246 159.764 521.935 159.28C518.505 159.107 515.095 160.011 511.537 160.011C509.757 160.011 508.122 159.636 506.362 159.497C486.95 157.896 490.676 174.066 491.136 185.755Z" fill="#000066"/>
<path fill-rule="evenodd" clip-rule="evenodd" d="M410.205 307.063C422.189 285.547 440.074 245.465 446.148 242.521C456.986 241.74 458.558 277.88 454.658 293.733C441.463 308.466 424.443 331.256 415.572 331.646C413.793 323.445 411.999 315.264 410.205 307.063Z" fill="#04A2B2"/>
<path fill-rule="evenodd" clip-rule="evenodd" d="M423.701 318.628C417.41 308.308 410.363 279.871 409.102 257.812C408.332 253.696 399.288 252.244 399.317 257.688C399.93 260.835 399.441 276.304 401.773 290.132C403.612 301.09 407.674 325.752 414.045 329.403C420.543 330.055 423.766 318.737 423.701 318.628Z" fill="#FE9BAC"/>
<path fill-rule="evenodd" clip-rule="evenodd" d="M409.107 257.811C409.107 257.811 412.582 254.116 413.891 245.559C414.188 243.548 414.222 239.621 414.568 237.907C415.181 234.868 416.55 232.358 415.779 231.716C413.674 230.718 411.707 235.021 411.233 236.316C410.743 237.595 410.353 238.855 409.503 238.84C407.852 238.746 406.562 217.685 404.531 217.982C404.136 218.046 403.839 218.51 403.681 219.044C403.399 219.918 403.256 221.618 403.558 223.767C404.012 227.166 404.091 230.081 404.551 233.559C404.66 234.102 404.833 235.93 404.111 236.256C402.144 237.926 401.294 216.035 398.26 216.272C397.365 216.351 397.064 217.631 397.113 219.499C397.207 224.251 398.937 233.218 399.144 234.853C399.475 236.597 398.423 238.144 397.731 235.288C396.802 231.514 394.869 222.319 393.565 221.46C393.441 221.213 392.952 221.07 392.542 221.415C391.741 222.102 392.304 225.358 392.764 227.759C393.016 229.162 396.115 238.845 394.637 237.862C394.089 237.487 393.298 235.179 392.779 233.421C392.339 232.003 392.072 230.955 391.692 229.681C391.064 227.532 390.466 227.171 390.041 227.186C388.282 227.309 391.627 236.899 391.85 237.664C393.817 245.302 396.772 250.263 399.337 257.698C402.579 257.718 405.851 257.767 409.107 257.811Z" fill="#FE9BAC"/>
<path fill-rule="evenodd" clip-rule="evenodd" d="M397.765 259.778C396.95 259.842 397.419 264.985 397.484 266.917C396.821 267.618 396.337 268.32 395.942 269.254C395.047 271.343 394.84 274.397 394.825 277.405C394.775 295.803 397.578 309.943 405.851 326.34C412.018 334.803 419.931 333.326 425.451 321.899C426.41 319.137 415.903 293.807 414.583 270.326C414.094 267.361 411.47 266.21 411.47 266.21C411.628 264.605 411.346 259.506 410.842 259.274C406.182 259.842 399.1 260.045 397.765 259.778Z" fill="#04A2B2"/>
<path fill-rule="evenodd" clip-rule="evenodd" d="M572.784 627.71C583.701 626.885 592.651 623.748 603.943 624.622C603.849 620.319 603.756 616.001 603.662 611.698C602.826 601.333 601.996 590.978 601.161 580.628C596.535 580.801 591.914 580.989 587.289 581.172C589.977 590.978 592.651 600.785 595.344 610.592C587.575 614.816 581.299 619.524 573.53 623.733C573.258 625.033 573.051 626.436 572.784 627.71Z" fill="#FE9BAC"/>
<path fill-rule="evenodd" clip-rule="evenodd" d="M589.018 586.384C592.102 586.087 599.856 584.373 603.078 583.108C603.77 582.876 603.582 582.016 603.647 581.083C605.391 556.217 591.222 512.287 578.403 492.531C569.23 477.033 581.091 416.794 581.091 416.794C573.51 391.914 565.929 367.029 558.348 342.149C547.984 342.584 545.133 340.717 534.769 341.151C517.072 370.537 516.004 404.977 529.812 445.666C536.277 462.256 545.355 483.267 554.132 499.215C559.796 522.46 569.719 550.348 580.918 574.235C582.129 577.106 584.585 582.886 586.345 585.302C587.239 586.522 587.62 586.507 589.018 586.384Z" fill="#E14B4E"/>
<path fill-rule="evenodd" clip-rule="evenodd" d="M571.701 630.176C571.153 628.679 571.118 626.184 571.672 624.672C571.909 624.05 572.284 623.472 572.962 622.987C578.892 618.793 586.236 614.786 591.272 609.999C590.753 608.235 590.249 606.491 589.73 604.747C589.557 604.14 589.572 604.204 590.076 603.982C591.114 603.527 593.96 602.44 594.81 603.295C595.221 603.715 596.224 610.355 597.326 610.187C598.285 610.434 599.545 610.31 600.85 610.014C601.917 609.782 603.004 609.219 603.919 609.298C604.877 609.53 604.769 614.035 605.367 616.486C605.54 617.731 606.108 618.684 606.484 620.038C606.973 621.802 607.24 623.857 606.953 624.168C605.426 625.477 596.98 627.113 594.494 626.742C592.685 626.07 592.577 625.571 590.812 625.996C589.053 626.574 589.285 626.915 588.218 627.666C582.865 629.163 574.34 631.174 571.701 630.176Z" fill="#000066"/>
<path fill-rule="evenodd" clip-rule="evenodd" d="M571.701 630.175C571.42 629.429 571.276 628.432 571.276 627.414C571.276 627.414 582.885 626.495 586.597 624.81C590.135 622.987 591.064 622.938 593.234 623.595C595.28 624.578 602.041 622.958 606.81 621.446C607.062 622.77 607.156 623.941 606.953 624.173C605.426 625.482 596.98 627.117 594.494 626.747C592.685 626.075 592.577 625.576 590.812 626.001C589.053 626.579 589.285 626.92 588.218 627.671C582.865 629.163 574.34 631.173 571.701 630.175Z" fill="#DB0F32"/>
<path d="M578.922 622.043C583.78 621.777 597.494 612.899 600.953 610.014C600.963 610.004 600.968 609.994 600.978 609.984C600.934 609.994 600.889 610.009 600.845 610.019C600.079 610.191 599.327 610.305 598.645 610.32C593.644 613.981 582.628 620.67 578.857 620.878C577.607 620.937 576.96 620.774 576.569 620.542C576.223 620.769 575.877 620.996 575.536 621.223C576.184 621.796 577.049 622.058 578.348 622.058C578.531 622.058 578.724 622.053 578.922 622.043Z" fill="#DB0F32"/>
<path d="M591.331 614.346C591.4 614.346 591.474 614.332 591.544 614.307C591.845 614.188 591.993 613.847 591.875 613.551C591.499 612.593 590.896 611.619 590.269 610.918C589.977 611.175 589.681 611.427 589.379 611.679C589.918 612.271 590.456 613.141 590.783 613.976C590.876 614.203 591.099 614.346 591.331 614.346Z" fill="#DB0F32"/>
<path d="M587.397 616.792C587.471 616.792 587.546 616.777 587.615 616.747C587.916 616.629 588.06 616.288 587.941 615.986C587.541 614.988 587.17 614.297 586.73 613.743C586.419 613.976 586.102 614.203 585.786 614.43C586.093 614.806 586.434 615.369 586.859 616.421C586.948 616.653 587.165 616.792 587.397 616.792Z" fill="#DB0F32"/>
<path d="M583.37 618.882C583.444 618.882 583.513 618.867 583.587 618.842C583.888 618.724 584.032 618.383 583.913 618.081C583.612 617.321 583.3 616.807 582.964 616.377C582.638 616.594 582.312 616.812 581.986 617.024C582.292 617.395 582.554 617.834 582.826 618.516C582.92 618.743 583.137 618.882 583.37 618.882Z" fill="#DB0F32"/>
<path fill-rule="evenodd" clip-rule="evenodd" d="M539.217 237.734C539.217 237.734 539.469 243.331 538.619 248.084C537.818 252.54 535.471 253.741 530.613 256.112C530.613 256.112 536.183 262.1 540.759 263.627C545.335 265.168 550.337 264.733 552.007 264.313C556.598 263.177 561.679 257.955 563.3 251.528C555.971 248.316 556.411 246.212 556.85 238.806C550.529 239.962 544.377 238.855 539.217 237.734Z" fill="#FE9BAC"/>
<path fill-rule="evenodd" clip-rule="evenodd" d="M539.217 237.734C539.86 242.768 542.632 247.18 547.994 247.961C551.078 248.415 554.429 247.57 556.974 246.197C556.455 244.418 556.658 242.161 556.85 238.806C550.529 239.962 544.377 238.855 539.217 237.734Z" fill="#ED8B9C"/>
<path fill-rule="evenodd" clip-rule="evenodd" d="M535.002 218.59C535.002 218.59 531.275 203.813 541.402 191.714C545.38 187.831 554.157 181.611 565.484 188.127C573.98 190.716 577.563 197.045 578.838 203.655C580.77 213.57 575.062 234.364 564.115 231.578C553.989 224.513 545.118 225.669 535.002 218.59Z" fill="#FF697B"/>
<path fill-rule="evenodd" clip-rule="evenodd" d="M568.963 223.658C571.939 220.679 575.477 221.213 574.973 224.439C574.424 227.991 570.253 233.841 567.535 232.531C565.109 231.356 568.963 223.658 568.963 223.658Z" fill="#ED8B9C"/>
<path fill-rule="evenodd" clip-rule="evenodd" d="M556.598 195.172C566.522 197.341 574.657 206.925 571.242 221.376C567.812 235.812 554.523 245.307 546.828 244.7C539.138 244.092 532.437 227.131 535.847 212.696C539.267 198.245 546.675 192.993 556.598 195.172Z" fill="#FE9BAC"/>
<path fill-rule="evenodd" clip-rule="evenodd" d="M542.049 232.057C542.049 232.057 547.54 236.049 553.974 233.287C552.462 236.889 549.477 239.334 546.61 239.147C544.505 239.013 541.53 236.533 542.049 232.057Z" fill="white"/>
<path fill-rule="evenodd" clip-rule="evenodd" d="M535.002 218.59C536.889 217.31 534.626 207.227 545.904 201.861C548.829 200.458 553.421 200.083 556.598 200.661C561.16 201.486 565.613 204.262 568.41 208.645C572.027 215.413 569.29 223.688 570.787 223.081C571.291 223.189 571.84 221.974 572.877 221.692C573.871 221.425 574.009 221.692 574.182 221.475C575.66 219.602 576.431 215.833 576.777 211.09C575.517 195.829 559.05 190.963 551.454 191.511C541.387 193.117 538.288 197.87 536.356 203.61C533.746 211.327 534.502 220.101 535.002 218.59Z" fill="#FF697B"/>
<path fill-rule="evenodd" clip-rule="evenodd" d="M552.808 185.523C554.567 188.033 558.565 189.654 561.649 190.701C566.29 192.292 570.347 192.415 573.51 190.933C575.744 189.871 577.098 187.144 577.661 184.135C578.462 179.723 578.007 175.109 574.123 172.367C571.088 170.248 566.542 168.924 563.601 168.83C560.611 168.736 557.009 169.655 554.463 172.135C551.221 175.252 550.198 181.798 552.808 185.523Z" fill="#FF697B"/>
<path fill-rule="evenodd" clip-rule="evenodd" d="M507.242 276.131C507.242 276.131 492.742 351.26 517.858 362.983C534.562 367.222 528.364 347.035 528.364 347.035C528.76 331.725 530.41 316.464 530.801 301.154C528.918 294.623 513.943 281.214 507.242 276.131Z" fill="#3333A8"/>
<path fill-rule="evenodd" clip-rule="evenodd" d="M525.172 258.563C525.691 257.159 527.42 253.948 528.695 250.332C529.921 246.809 531.918 241.553 534.25 241.054C534.28 241.054 540.26 244.265 548.973 244.25C553.851 244.25 559.465 242.521 563.868 240.57C565.474 239.992 567.58 243.015 568.603 246.118C570.036 250.421 572.581 252.323 573.886 254.847C567.911 265.81 540.601 272.406 525.172 258.563Z" fill="#3F3FCF"/>
<path fill-rule="evenodd" clip-rule="evenodd" d="M540.794 612.795C543.497 626.485 543.67 634.276 544.253 640.402C544.253 640.402 544.302 650.925 536.622 646.825C530.771 642.458 528.349 621.708 530.05 610.36C529.091 601.195 531.369 585.322 532.11 578.321C537.141 577.901 542.553 579.882 547.589 579.443C546.437 586.478 541.658 606.714 540.794 612.795Z" fill="#FE9BAC"/>
<path fill-rule="evenodd" clip-rule="evenodd" d="M546.502 352.974C547.698 360.409 548.592 373.086 547.554 380.304C542.553 415.959 542.365 454.03 537.364 489.68C537.24 493.874 553.737 498.627 564.071 490.722C565.138 486.34 573.085 478.609 578.447 467.883C583.132 458.546 587.758 448.161 591.045 440.32C593.703 433.977 596.846 427.628 599.367 421.443C609.637 396.094 606.365 362.42 584.615 341.092C571.904 345.054 559.213 349.012 546.502 352.974Z" fill="#F86D70"/>
<path fill-rule="evenodd" clip-rule="evenodd" d="M538.273 482.729C535.629 492.13 527.465 552.196 528.789 582.782C532.817 586.631 541.733 589.565 548.592 587.475C565.109 549.172 565.252 519.332 564.071 490.727C565.662 483.677 543.952 479.764 538.273 482.729Z" fill="#F86D70"/>
<path fill-rule="evenodd" clip-rule="evenodd" d="M541.911 612.825C545.009 603.517 540.937 607.524 536.153 606.417C533.148 606.121 533.89 609.91 533.133 611.95C532.283 612.123 530.208 611.98 530.05 610.359C529.343 610.157 527.895 617.345 528.004 620.616C526.511 622.049 526.383 627.567 527.549 629.765C528.666 631.855 528.666 633.352 529.718 634.019C530.85 635.175 530.821 636.188 530.786 637.497C530.677 642.69 533.835 648.939 539.187 650.654C541.357 651.34 545.889 650.589 546.581 648.317C547.979 644.952 544.772 625.902 541.911 612.825Z" fill="#000066"/>
<path fill-rule="evenodd" clip-rule="evenodd" d="M527.959 620.665C526.511 622.147 526.402 627.587 527.549 629.77C528.666 631.86 528.666 633.357 529.718 634.024C530.85 635.18 530.821 636.193 530.786 637.502C530.677 642.695 533.835 648.944 539.187 650.658C541.357 651.345 545.889 650.594 546.581 648.322C545.118 649.522 541.046 650.397 538.748 649.147C533.855 646.479 533.054 636.909 533.054 636.909C532.773 634.775 532.881 633.061 531.216 630.437C530.396 629.158 529.486 627.053 529.298 624.109C529.185 622.271 528.631 621.243 527.959 620.665Z" fill="#F86D70"/>
<path fill-rule="evenodd" clip-rule="evenodd" d="M545.943 634.918C545.558 635.852 544.826 636.489 543.907 636.657C542.622 636.894 541.253 636.148 540.235 634.671C538.585 632.28 535.239 618.323 533.702 611.278C533.662 611.101 533.544 610.967 533.39 610.888C533.326 611.269 533.247 611.634 533.128 611.95C533 611.975 532.837 611.995 532.664 612C533.361 615.152 537.235 632.389 539.271 635.333C540.388 636.959 541.901 637.868 543.428 637.868C543.655 637.868 543.887 637.848 544.115 637.808C544.915 637.66 545.622 637.255 546.18 636.667C546.106 636.099 546.027 635.511 545.943 634.918Z" fill="#F86D70"/>
<path fill-rule="evenodd" clip-rule="evenodd" d="M541.49 631.025C541.579 631.257 541.802 631.401 542.034 631.401C542.103 631.401 542.177 631.386 542.247 631.361C542.963 631.085 544.367 630.64 545.291 630.61C545.227 630.225 545.167 629.835 545.103 629.444C543.798 629.528 542.168 630.136 541.827 630.269C541.52 630.383 541.372 630.724 541.49 631.025Z" fill="#F86D70"/>
<path fill-rule="evenodd" clip-rule="evenodd" d="M539.731 626.688C539.825 626.915 540.042 627.048 540.27 627.048C540.344 627.048 540.418 627.034 540.492 627.004C541.09 626.757 543.136 626.105 544.525 626.095C544.456 625.705 544.386 625.319 544.317 624.929C542.785 624.973 540.779 625.621 540.047 625.922C539.751 626.045 539.608 626.391 539.731 626.688Z" fill="#F86D70"/>
<path fill-rule="evenodd" clip-rule="evenodd" d="M538.921 622.562C539.005 622.562 539.089 622.543 539.168 622.508C539.924 622.152 542.573 621.584 543.695 621.564C543.621 621.174 543.546 620.789 543.472 620.398C542.074 620.463 539.524 621.051 538.674 621.446C538.382 621.584 538.253 621.93 538.392 622.221C538.491 622.434 538.698 622.562 538.921 622.562Z" fill="#F86D70"/>
<path fill-rule="evenodd" clip-rule="evenodd" d="M516.35 405.09C514.541 407.368 589.962 421.957 607.378 405.856C609.093 357.667 595.314 352.727 596.367 314.093C599.308 298.594 597.435 287.073 608.712 272.717C599.273 262.584 586.661 261.398 573.886 254.852C551.933 261.858 548.632 260.207 525.172 258.562C515.955 262.505 509.382 267.401 507.242 276.13C513.123 284.065 523.225 288.961 529.56 301.119C528.493 319.438 521.065 336.305 520.012 354.624C520.452 371.011 515.342 392.556 516.35 405.09Z" fill="#3F3FCF"/>
<path fill-rule="evenodd" clip-rule="evenodd" d="M598.191 258.938C586.364 259.452 558.427 283.368 536.83 288.872C532.896 290.433 533.227 299.504 538.589 298.412C541.594 297.211 557.009 294.687 570.238 289.746C580.73 285.819 604.353 277.089 606.731 270.182C606.118 263.74 598.314 258.918 598.191 258.938Z" fill="#FF99CC"/>
<path fill-rule="evenodd" clip-rule="evenodd" d="M588.499 363.561C589.962 368.427 592.858 372.992 597.212 375.863C599.728 374.351 602.105 371.09 604.635 367.336C602.545 364.702 600.326 361.521 598.25 358.887C595.339 359.989 591.158 361.985 588.499 363.561Z" fill="#FE9BAC"/>
<path fill-rule="evenodd" clip-rule="evenodd" d="M584.205 361.234C584.096 360.706 585.149 360.128 586.315 359.441C587.763 358.581 589.414 357.712 589.76 358.211C591.41 361.061 597.232 372.241 603.632 379.084C603.79 380.161 603.681 382.621 603.508 384.039C603.227 386.188 603.113 387.967 602.693 387.814C596.96 384.543 588.262 371.698 584.205 361.234Z" fill="#3333A8"/>
<path d="M596.204 359.994C596.056 359.994 595.907 359.94 595.794 359.826C595.566 359.599 595.562 359.228 595.789 359.001L599.135 355.627C598.492 354.688 597.469 352.391 599.703 349.12C599.886 348.853 600.247 348.784 600.514 348.967C600.78 349.15 600.85 349.515 600.667 349.777C598.275 353.28 600.291 355.222 600.316 355.241C600.434 355.35 600.499 355.498 600.504 355.656C600.509 355.814 600.444 355.968 600.336 356.081L596.624 359.821C596.505 359.935 596.357 359.994 596.204 359.994Z" fill="#E8C92E"/>
<path fill-rule="evenodd" clip-rule="evenodd" d="M512.856 354.145C512.95 352.771 513.217 351.447 513.627 350.138C514.146 350.311 514.714 350.42 515.312 350.479C519.419 350.914 527.519 344.244 521.826 337.599C521.623 337.441 521.416 337.303 521.198 337.179C522.048 336.058 522.913 334.917 523.793 333.751C523.981 333.874 524.154 333.983 524.341 334.111C524.465 334.176 524.594 334.269 524.702 334.358L524.732 334.373V334.388L524.762 334.403L524.776 334.418L524.806 334.447C524.915 334.556 524.994 334.65 525.073 334.773C527.984 338.217 529.239 341.319 527.529 345.904C524.687 353.502 518.253 355.607 512.856 354.145ZM529.748 324.646C531.745 321.123 533.588 317.675 534.814 315.886C535.866 314.453 537.048 313.065 538.194 312.018C538.812 317.739 534.799 322.541 529.748 324.646ZM559.445 308.604C559.821 308.698 560.216 308.792 560.611 308.871C560.814 309.34 560.72 310.027 560.488 310.817C560.077 310.086 559.732 309.34 559.445 308.604ZM557.448 329.448C556.865 330.836 556.208 332.175 555.625 333.41C555.249 334.393 554.839 335.356 554.414 336.31C553.944 336.918 553.594 337.619 553.44 338.385C552.402 340.475 551.271 342.456 550.075 344.294C550.025 344.2 549.996 344.106 549.966 343.997C546.912 336.404 551.439 331.399 557.448 329.448Z" fill="#E8C92E"/>
<path fill-rule="evenodd" clip-rule="evenodd" d="M608.1 272.079C614.549 278.892 622.871 290.883 628.752 300.828C631.663 305.768 636.269 310.555 635.83 313.954C635.83 313.954 623.464 371.169 609.844 365.651C608.446 367.256 604.699 368.986 603.568 369.317C601.65 369.02 595.374 360.197 595.576 359.653C596.145 358.873 598.141 357.642 599.367 356.225C599.367 356.225 597.197 353.497 599.619 350.069C601.24 344.501 603.395 327.279 603.395 327.279C603.395 327.279 605.614 318.89 607.546 317.24C610.615 314.76 604.087 314.903 602.56 310.788C598.878 305.753 598.813 308.683 595.542 305.299C597.4 293.061 601.522 278.655 608.1 272.079Z" fill="#3333A8"/>
<path fill-rule="evenodd" clip-rule="evenodd" d="M607.274 271.269C606.988 270.998 606.701 270.736 606.414 270.479C606.395 270.499 606.37 270.513 606.355 270.538C606.227 270.731 593.59 290.186 596.609 309.192C596.649 309.454 596.861 309.636 597.108 309.671C597.247 308.713 597.375 307.769 597.499 306.84C595.824 289.623 606.419 272.608 607.274 271.269Z" fill="#3333A8"/>
<path fill-rule="evenodd" clip-rule="evenodd" d="M542.004 300.496C542.271 301.262 544.915 298.501 546.803 297.987C547.653 298.456 548.454 298.767 549.462 298.92C551.725 299.296 554.982 298.046 557.943 297.345C576.001 293.056 590.392 286.866 604.517 275.019C612.454 267.9 603.103 256.532 591.306 256.532C581.946 256.532 568.83 273.897 546.131 280.71C542.499 281.476 541.476 285.043 541.476 285.043C539.889 285.26 536.079 287.271 535.97 287.819C537.601 292.172 541.955 299.143 542.004 300.496Z" fill="#04A2B2"/>
<path fill-rule="evenodd" clip-rule="evenodd" d="M547.742 308.604C547.411 307.483 548.212 302.775 545.681 298.471C545.919 298.284 546.467 298.096 546.769 298.002C547.065 298.032 547.871 298.595 548.404 298.659C551.108 299 550.732 290.083 551.3 287.479C551.365 287.212 552.274 279.762 552.368 278.858C552.605 276.645 554.177 277.317 554.414 278.018C554.587 278.517 554.666 287.183 554.824 287.311C556.742 288.917 556.49 276.615 557.686 275.508C558.155 275.074 558.802 275.242 559.119 275.849C559.687 276.911 559.341 279.698 559.228 282.272C559.213 282.677 558.852 289.332 559.277 289.287C559.593 289.258 559.86 288.339 559.998 287.711C560.092 287.336 561.872 277.657 561.931 277.173C562.104 276.017 562.766 275.676 563.329 275.849C564.323 276.16 563.942 277.549 563.878 278.408C563.626 281.946 562.87 288.759 562.825 289.09C562.776 289.371 562.746 289.603 562.746 289.791C562.731 289.994 562.746 290.152 562.796 290.226C562.86 290.349 562.969 290.29 563.063 290.211C563.186 290.088 563.315 289.87 563.438 289.648C564.16 288.289 565.405 278.127 566.932 280.123C568.79 282.553 560.028 306.752 559.445 313.283C556.504 313.436 550.688 308.451 547.742 308.604Z" fill="#FE9BAC"/>
<path fill-rule="evenodd" clip-rule="evenodd" d="M540.462 310.462C542.365 307.25 544.866 302.557 545.795 302.651C549.808 304.894 553.707 307.438 560.611 308.871C561.476 310.931 556.885 317.368 557.671 319.424C560.863 323.183 545.464 313.732 540.462 310.462Z" fill="#FCDF01"/>
<path d="M522.468 364.51C519.226 364.51 515.955 363.398 512.831 359.693L512.742 359.584L512.708 359.451C510.514 350.237 516.044 342.969 522.449 334.556C523.136 333.657 523.828 332.743 524.529 331.809C526.674 328.949 528.957 324.873 530.969 321.276C532.303 318.895 533.455 316.835 534.329 315.555C535.812 313.544 537.982 310.995 540.047 310.007C540.359 309.483 540.68 308.92 541.011 308.347C543.828 303.471 544.856 301.964 545.844 302.068L545.968 302.083L546.072 302.142C546.526 302.394 546.976 302.656 547.436 302.913C551.004 304.943 554.691 307.048 560.725 308.298L561.026 308.362L561.145 308.643C561.679 309.918 560.7 312.121 559.667 314.458C558.906 316.168 557.967 318.287 558.185 319.137C561.288 322.921 558.684 328.356 556.593 332.728L556.149 333.662C549.729 350.4 536.44 361.733 527.203 363.882C525.651 364.238 524.065 364.51 522.468 364.51Z" fill="#3333A8"/>
<path fill-rule="evenodd" clip-rule="evenodd" d="M536.45 289.04C536.45 289.04 529.071 292.157 523.506 298.832C522.389 300.171 517.749 313.658 518.189 314.345C521.223 316.153 523.047 306.381 523.758 306.83C524.89 307.576 520.111 321.405 519.37 326.834C519.226 327.896 519.434 328.578 519.918 328.672C521.431 328.968 522.216 326.271 522.513 325.322C523.867 320.99 525.36 313.787 526.901 312.556C529.056 312.196 524.386 325.841 524.04 330.609C523.931 332.214 524.668 332.605 525.582 331.73C527.737 329.487 528.997 321.222 529.956 317.373C530.158 316.533 530.697 314.691 531.433 314.177C531.903 313.836 532.298 314.207 532.002 315.906C531.359 321.128 529.106 329.033 529.768 330.421C529.753 330.703 530.099 331.078 530.618 330.984C531.784 330.811 533.133 324.013 533.42 322.457C533.909 319.789 534.507 316.375 534.992 315.284C535.244 314.705 535.446 314.943 535.604 315.377C535.886 316.123 535.634 318.011 535.417 319.71C535.244 320.925 535.056 321.953 534.819 323.154C534.458 325.056 534.063 327.926 534.913 328.173C536.469 328.968 538.387 317.808 538.609 317.027C540.527 310.649 540.64 305.442 541.629 299.351C540.65 297.098 537.991 292.563 536.45 289.04Z" fill="#FE9BAC"/>
<path d="M676.745 329.348L675.296 329.388C675.292 329.161 674.555 306.603 666.406 280.992C658.904 257.421 643.395 226.361 612.127 212.251L612.725 210.932C626.76 217.265 638.864 227.447 648.698 241.192C656.546 252.164 662.976 265.419 667.799 280.587C676.003 306.39 676.74 329.121 676.745 329.348Z" fill="white"/>
<path d="M613.817 212.172C613.817 212.172 597.929 194.999 586.27 205.458C585.934 205.759 585.84 206.253 586.053 206.653C592.972 219.874 613.817 212.172 613.817 212.172Z" fill="white"/>
<path d="M627.981 220.783C627.981 220.783 630.744 199.692 620.519 195.873C610.294 192.059 627.981 220.783 627.981 220.783Z" fill="white"/>
<path d="M644.977 237.462C644.977 237.462 652.479 216.025 642.486 210.843C632.498 205.66 644.977 237.462 644.977 237.462Z" fill="white"/>
<path d="M658.024 258.207C658.024 258.207 672.094 239.512 663.87 232.423C655.647 225.338 658.024 258.207 658.024 258.207Z" fill="white"/>
<path d="M667.735 282.825C667.735 282.825 686.431 268.305 680.402 260.153C674.367 251.996 667.735 282.825 667.735 282.825Z" fill="white"/>
<path d="M674.916 316.785C674.916 316.785 699.636 299.479 692.475 291.075C685.309 282.676 674.916 316.785 674.916 316.785Z" fill="white"/>
<path d="M627.981 220.783C627.981 220.783 609.903 236.617 604.042 228.179C598.186 219.735 627.981 220.783 627.981 220.783Z" fill="white"/>
<path d="M644.977 237.462C644.977 237.462 622.93 251.779 620.993 244.037C619.051 236.301 644.977 237.462 644.977 237.462Z" fill="white"/>
<path d="M658.405 258.972C658.405 258.972 636.343 265.252 635.607 255.924C634.865 246.597 658.405 258.972 658.405 258.972Z" fill="white"/>
<path d="M667.735 282.825C667.735 282.825 644.473 287.059 645.437 276.234C646.4 265.41 667.735 282.825 667.735 282.825Z" fill="white"/>
<path d="M674.916 316.785C674.916 316.785 648.219 305.901 655.088 298.851C661.963 291.801 674.916 316.785 674.916 316.785Z" fill="white"/>
<path fill-rule="evenodd" clip-rule="evenodd" d="M711.467 361.896C711.467 361.896 702.3 371.658 695.776 383.076C687.82 396.993 687.607 410.702 690.291 425.519C696.216 458.234 709.555 507.994 709.555 507.994C703.526 550.388 720.25 577.036 726.872 604.174C728.379 610.29 729.012 617.711 729.447 623.145C729.585 625.003 729.378 626.238 728.923 627.28C725.276 635.639 703.644 656.73 705.591 659.022C709.713 663.454 740.561 651.36 742.439 634.177C742.929 629.558 741.491 624.291 741.337 620.729C739.005 581.71 746.121 560.634 737.744 510.543C737.062 502.673 736.657 491.607 737.132 483.682C738.13 466.984 739.024 459.148 740.077 438.547C740.201 411.858 743.863 388.387 738.728 362.015C729.649 361.965 720.566 361.931 711.467 361.896Z" fill="#FE9BAC"/>
<path fill-rule="evenodd" clip-rule="evenodd" d="M724.391 607.736C724.915 607.563 725.76 607.84 728.424 607.84C735.837 607.84 742.726 606.852 743.937 607.321C744.92 607.894 744.797 616.476 744.604 622.019C744.5 625.166 744.238 626.934 744.886 630.027C745.217 631.608 745.602 632.927 745.676 634.79C745.731 636.163 745.484 639.76 744.886 641.01C744.149 642.536 742.469 643.806 739.958 645.752C738.782 646.153 737.082 646.499 736.42 647.734C736.138 648.252 736.069 648.88 736 649.473C735.773 651.399 734.666 652.338 733.158 653.553C726.724 658.731 710.845 665.144 704.865 661.962C694.279 653.899 723.813 632.72 724.465 629.316C725.231 623.565 722.3 608.729 724.391 607.736Z" fill="#43438C"/>
<path fill-rule="evenodd" clip-rule="evenodd" d="M703.723 660.865C707.109 660.865 714.66 660.307 722.478 655.757C730.386 651.172 730.228 650.421 733.682 644.345C733.944 643.86 734.557 643.356 735.189 642.956C736.469 642.156 737.853 642.018 739.449 641.01C742.168 639.29 743.882 637.067 745.637 634.286C745.657 634.459 745.671 634.617 745.671 634.79C745.726 636.163 745.479 639.76 744.881 641.01C744.144 642.536 742.464 643.806 739.953 645.753C738.777 646.153 737.077 646.499 736.415 647.734C736.133 648.252 736.064 648.88 735.995 649.473C735.768 651.399 734.661 652.338 733.153 653.553C726.719 658.731 710.84 665.144 704.86 661.962C704.405 661.631 704.04 661.25 703.723 660.865Z" fill="#03AECC"/>
<path fill-rule="evenodd" clip-rule="evenodd" d="M773.471 361.392C789.616 388.876 789.335 392.438 789.162 427.307C789.023 455.107 780.592 491.992 778.151 504.778C777.241 509.555 777.676 510.439 778.22 515.133C782.707 554.365 774.291 579.348 767.965 605.305C766.319 611.995 761.516 625.008 763.339 633.016C767.372 648.06 763.27 661.493 760.552 663.019C754.434 665.297 748.404 661.853 749.773 640.832C750.09 636.178 753.717 625.907 753.752 621.391C753.697 616.945 752.052 568.386 750.895 535.893C750.371 521.353 750.371 509.348 749.912 507.154C746.353 484.063 744.248 464.345 743.003 440.024C742.879 413.336 739.692 388.337 744.807 361.965C753.91 361.931 764.392 361.427 773.471 361.392Z" fill="#FE9BAC"/>
<path fill-rule="evenodd" clip-rule="evenodd" d="M750.787 608.517C752.749 608.413 756.608 608.882 760.181 608.986C763.547 609.09 765.86 609.075 767.98 609.075C771.064 609.055 771.207 608.764 770.486 612.34C769.468 617.449 768.38 621.668 768.366 626.361C768.593 629.523 768.682 631.919 768.716 634.128C768.875 642.225 770.011 650.876 767.155 658.588C765.613 662.743 762.998 665.939 758.689 665.554C747.732 664.58 747.243 653.059 748.365 639.335C748.696 635.462 749.467 632.245 749.892 628.599C750.139 626.356 750.189 623.946 750.119 622.103C749.961 617.483 749.596 614.771 749.507 610.705C749.472 609.164 749.017 608.625 750.787 608.517Z" fill="#43438C"/>
<path fill-rule="evenodd" clip-rule="evenodd" d="M673.937 273.794C673.937 273.794 681.86 263.458 683.402 250.287C684.943 237.101 679.354 226.904 682.141 212.187C687.261 185.118 708.087 179.437 725.77 188.557C735.165 193.403 740.917 197.435 748.928 214.637C752.645 223.757 753.45 228.935 756.994 233.925C761.763 240.663 766.146 242.368 773.031 245.619C791.193 254.185 805.881 271.645 797.01 293.101C795.151 307.191 796.115 323.974 783.547 333.928C768.207 336.828 760.216 318.519 760.216 318.519C731.834 314.977 707.998 312.003 679.631 308.461C679.25 297.073 674.323 285.157 673.937 273.794Z" fill="#FCDF01"/>
<path fill-rule="evenodd" clip-rule="evenodd" d="M703.091 253.083C704.86 250.475 705.334 247.071 706.946 243.667C714.324 235.832 726.753 231.642 735.026 236.563C744.95 246.967 745.494 258.612 745.701 265.993C736.712 267.47 703.985 264.446 703.091 253.083Z" fill="#4F4FB2"/>
<path fill-rule="evenodd" clip-rule="evenodd" d="M763.478 305.432C757.552 330.07 755.136 334.655 753.416 355.814L705.611 355.587C705.473 355.587 684.207 278.848 690.834 271.323C706.945 263.646 715.762 261.887 711.206 245.105C719.444 247.501 724.475 245.016 731.715 239.354C732.239 244.408 734.329 253.064 741.11 255.475C751.943 260.01 763.073 265.741 767.842 271.076C770.896 278.744 763.374 300.22 763.478 305.432Z" fill="#FE9BAC"/>
<path fill-rule="evenodd" clip-rule="evenodd" d="M701.741 276.975C714.976 297.34 744.021 288.131 751.523 269.001C753.678 263.478 750.277 355.8 750.277 355.8C736.988 355.731 723.684 355.676 710.4 355.607C707.509 329.388 704.633 303.174 701.741 276.975Z" fill="white"/>
<path fill-rule="evenodd" clip-rule="evenodd" d="M697.887 350.933C718.307 353.384 742.395 347.51 764.832 345.41C770.248 352.03 800.538 363.704 786.058 459.193C745.844 458.289 700.407 466.786 696.271 468.802C687.523 441.195 685.803 420.974 683.332 391.035C682.828 376.945 691.245 359.045 697.887 350.933Z" fill="#F86545"/>
<path fill-rule="evenodd" clip-rule="evenodd" d="M683.09 273.601C686.772 269.238 690.276 268.127 695.238 264.046C699.498 257.999 701.267 256.438 703.738 251.937C707.647 246.325 708.473 247.056 710.415 248.983C711.467 251.552 710.346 263.196 710.257 264.965C708.344 299.192 713.919 312.902 715.797 342.801C716.271 360.765 716.167 382.552 716.78 402.951C717.077 412.995 719.637 431.131 718.357 431.442C717.62 433.127 710.519 434.481 702.982 436.62C695.075 438.863 686.732 441.812 686.12 440.113C674.55 422.861 671.709 386.445 669.994 372.597C673.132 336.132 663.248 308.539 683.09 273.601Z" fill="#43438C"/>
<path fill-rule="evenodd" clip-rule="evenodd" d="M717.571 414.329C718.342 422.841 719.236 431.235 718.362 431.442C717.625 433.127 710.524 434.481 702.987 436.62C695.08 438.863 686.737 441.812 686.125 440.113C683.619 436.358 681.514 431.719 679.759 426.615C688.101 424.358 708.646 418.642 717.571 414.329Z" fill="#424293"/>
<path fill-rule="evenodd" clip-rule="evenodd" d="M707.964 242.901C707.964 242.901 706.229 242.383 703.807 245.614C698.796 252.337 697.323 263.177 690.399 279.441C688.768 283.279 690.805 283.126 696.71 284.01C706.229 285.433 710.084 291.204 710.331 292.281C708.369 265.123 715.624 244.952 707.964 242.901Z" fill="#424293"/>
<path fill-rule="evenodd" clip-rule="evenodd" d="M730.821 238.44C737.883 244.28 738.15 249.264 741.11 255.484C750.767 290.7 746.877 305.817 745.543 323.262C743.087 355.128 747.732 383.896 747.189 416.473C747.05 426.843 747.905 425.405 754.093 425.193C777.513 423.666 788.45 419.615 796.426 412.249C809.172 358.077 792.764 306.563 787.872 284.134C782.945 277.321 776.441 273.448 767.501 266.427C755.6 252.076 747.9 240.905 733.825 234.374C733.208 237.501 731.433 235.313 730.821 238.44Z" fill="#43438C"/>
<path fill-rule="evenodd" clip-rule="evenodd" d="M747.228 409.744C747.248 411.967 747.228 414.21 747.194 416.468C747.055 426.838 747.91 425.4 754.098 425.188C777.518 423.661 788.455 419.61 796.431 412.244C797.642 407.101 798.586 401.978 799.308 396.884C785.336 402.378 760.132 410.945 747.228 409.744Z" fill="#424293"/>
<path fill-rule="evenodd" clip-rule="evenodd" d="M831.495 246.206C833.161 245.564 837.401 246.033 838.612 250.114C839.803 254.195 834.406 257.149 834.406 257.149C824.413 264.881 781.081 278.971 780.819 289.484C765.479 290.547 763.117 266.847 759.89 255.139C774.612 251.33 808.441 253.429 831.495 246.206Z" fill="#FE9BAC"/>
<path fill-rule="evenodd" clip-rule="evenodd" d="M824.043 260.954C823.168 247.525 810.457 216.144 797.45 195.157C795.433 190.864 804.759 184.822 807.65 191.091C809.77 195.71 819.783 208.536 824.898 219.113C830.295 230.269 839.482 246.389 839.729 258.967C834.194 263.666 824.063 261.092 824.043 260.954Z" fill="#FE9BAC"/>
<path fill-rule="evenodd" clip-rule="evenodd" d="M798.804 197.123C798.804 197.123 793.14 196.812 785.411 190.923C783.607 189.535 780.083 185.573 778.467 184.461C775.591 182.48 772.541 181.507 772.665 180.43C773.594 177.999 778.976 180.776 780.36 181.452C781.744 182.114 783.725 182.164 783.725 182.164C782.307 179.802 769.808 162.55 771.667 161.246C772.018 160.984 772.63 161.142 773.174 161.439C774.083 161.943 775.348 163.524 776.787 165.485C779.05 168.578 781.254 170.974 783.587 174.121C783.938 174.644 785.198 176.24 786.058 175.964C787.971 175.86 778.363 160.238 777.8 159.374C776.94 157.343 776.327 155.831 777.063 155.224C778.675 153.919 783.32 161.305 783.933 162.363C785.282 164.675 787.471 168.39 789.295 170.826C789.577 171.206 790.575 172.821 791.242 172.075C791.608 171.695 791.153 170.702 790.98 170.406C788.791 166.671 782.638 157.669 783.024 156.004C782.935 155.693 783.216 155.224 783.814 155.169C784.99 155.1 787.056 158.158 788.564 160.436C789.438 161.775 794.504 171.922 794.929 169.991C795.087 169.279 793.911 166.829 792.967 165.006C792.211 163.529 791.618 162.486 790.936 161.167C789.76 158.959 789.952 158.213 790.323 157.901C791.816 156.651 796.599 166.918 797.02 167.718C801.383 175.361 802.856 181.615 806.573 189.54C803.973 192.069 801.393 194.604 798.804 197.123Z" fill="#FE9BAC"/>
<path fill-rule="evenodd" clip-rule="evenodd" d="M749.314 245.283C749.314 245.283 777.696 245.821 787.773 249.349C790.842 250.115 796.624 249.522 803.163 248.341C807.141 247.63 805.159 245.979 810.823 246.38C812.874 245.406 810.684 230.066 809.928 226.173C809.543 225.6 808.332 226.208 807.773 225.842C805.668 224.503 805.475 220.037 804.774 216.233C804.443 214.41 803.845 214.079 805.579 213.244C807.087 212.513 809.839 211.629 812.75 210.641C819.165 208.452 826.351 205.117 827.245 205.498C829.138 209.163 833.151 215.211 832.607 217.696C832.345 218.911 831.505 218.511 831.698 219.015C835.044 226.657 846 260.988 844.127 268.478C840.307 277.163 823.198 284.618 813.501 289.934C799.935 301.47 794.114 304.721 793.852 325.446L766.631 299.558L749.314 245.283Z" fill="#43438C"/>
<path fill-rule="evenodd" clip-rule="evenodd" d="M809.933 226.173C809.548 225.6 808.337 226.208 807.778 225.842C805.673 224.503 805.48 220.037 804.779 216.233C804.447 214.41 803.849 214.079 805.584 213.244C807.091 212.513 809.844 211.629 812.755 210.641C819.17 208.452 826.356 205.117 827.25 205.498C829.143 209.163 833.156 215.211 832.612 217.696C832.35 218.896 831.525 218.511 831.683 219C828.639 218.822 809.933 226.173 809.933 226.173Z" fill="#424293"/>
<path fill-rule="evenodd" clip-rule="evenodd" d="M731.28 238.49C733.119 241.706 736.415 247.733 739.188 254.561C743.309 264.708 747.006 287.884 747.302 290.838C748.459 290.073 750.159 280.379 755.857 276.59C761.254 273.013 765.707 273.29 766.058 271.902C765.988 264.585 758.308 247.091 733.84 234.374C728.142 231.573 729.541 235.52 731.28 238.49Z" fill="#424293"/>
<path fill-rule="evenodd" clip-rule="evenodd" d="M712.051 248.914C711.927 248.182 711.769 247.436 711.596 246.636C711.472 246.132 711.349 245.628 711.21 245.11C719.449 247.506 724.48 245.021 731.72 239.359C731.947 241.567 732.476 244.448 733.559 247.214C729.615 251.557 722.849 254.027 716.064 251.28C713.909 250.411 712.698 249.61 712.051 248.914Z" fill="#ED8B9C"/>
<path fill-rule="evenodd" clip-rule="evenodd" d="M733.222 218.511C735.15 214.306 739.024 213.526 739.741 217.053C740.546 220.946 738.481 228.574 735.15 228.243C732.209 227.962 733.222 218.511 733.222 218.511Z" fill="#ED8B9C"/>
<path fill-rule="evenodd" clip-rule="evenodd" d="M709.298 195.716C720.427 194.204 732.54 201.051 734.577 217.31C736.608 233.574 730.055 248.741 721.307 250.944C712.56 253.153 696.607 237.986 694.576 221.722C692.539 205.463 698.183 197.227 709.298 195.716Z" fill="#FE9BAC"/>
<path fill-rule="evenodd" clip-rule="evenodd" d="M711.626 241.478C713.607 241.72 717.971 241.202 722.197 238.578C721.777 246.048 715.975 247.94 711.206 241.898C710.929 241.567 711.067 241.409 711.626 241.478Z" fill="white"/>
<path fill-rule="evenodd" clip-rule="evenodd" d="M697.763 171.898C695.416 174.002 694.066 175.494 693.765 179.506C693.469 183.765 694.047 188.142 696.799 191.6C699.518 194.989 704.198 196.985 711.996 196.012C724.302 194.466 727.841 178.083 721.411 171.567C714.062 164.112 704.776 165.574 697.763 171.898Z" fill="#FCDF01"/>
<path fill-rule="evenodd" clip-rule="evenodd" d="M733.682 212.725C730.158 204.944 723.847 209.356 717.452 202.509C711.897 212.622 701.168 201.031 689.302 225.18C683.288 222.522 689.777 214.306 684.133 205.428C689.253 192.746 717.546 185.568 728.869 195.577C734.364 200.443 741.604 211.663 733.682 212.725Z" fill="#FCDF01"/>
<defs>
<linearGradient id="paint0_linear" x1="957.149" y1="584.629" x2="-47.4522" y2="72.9992" gradientUnits="userSpaceOnUse">
<stop stop-color="#E3EBD3"/>
<stop offset="1" stop-color="#B7C49C"/>
</linearGradient>
</defs>
</svg>
