<svg width="92" height="92" viewBox="0 0 92 92" fill="none" xmlns="http://www.w3.org/2000/svg">
<g clip-path="url(#clip0)">
<path d="M27.483 71.2695C28.7076 69.4169 29.4229 67.1996 29.4229 64.8175C29.4229 58.35 24.1591 53.0884 17.6889 53.0884C11.2188 53.0884 5.95517 58.35 5.95517 64.8175C5.95517 67.1998 6.67068 69.4171 7.89525 71.2699C3.24081 73.1979 0.0012207 77.8182 0.0012207 83.0162V90.203C0.0012207 91.1954 0.805682 91.9999 1.7981 91.9999H33.58C34.5724 91.9999 35.3768 91.1954 35.3768 90.203V83.0162C35.3768 77.8175 32.1373 73.1972 27.483 71.2695ZM17.6889 56.6821C22.1774 56.6821 25.8291 60.3316 25.8291 64.8175C25.8291 69.3061 22.1775 72.9579 17.6889 72.9579C13.2005 72.9579 9.54892 69.3061 9.54892 64.8175C9.54892 60.3316 13.2005 56.6821 17.6889 56.6821ZM31.7831 88.4061H3.59497V83.0162C3.59497 78.808 6.55622 75.1271 10.5965 74.1573C12.568 75.6582 15.0256 76.5516 17.6889 76.5516C20.3523 76.5516 22.81 75.6582 24.7816 74.1573C28.8218 75.1263 31.7831 78.8074 31.7831 83.0162V88.4061Z" fill="#36829D"/>
<path d="M84.0998 71.2693C85.3242 69.4168 86.0395 67.1996 86.0395 64.8175C86.0395 58.35 80.7758 53.0884 74.3058 53.0884C67.8384 53.0884 62.577 58.35 62.577 64.8175C62.577 67.1991 63.2918 69.416 64.5155 71.2684C59.8592 73.1956 56.618 77.8168 56.618 83.0162V90.203C56.618 91.1954 57.4225 91.9999 58.4149 91.9999H90.202C91.1944 91.9999 91.9988 91.1954 91.9988 90.203V83.0162C91.9987 77.8175 88.7571 73.1968 84.0998 71.2693ZM74.3058 56.6821C78.7942 56.6821 82.4458 60.3316 82.4458 64.8175C82.4458 69.3061 78.7942 72.9579 74.3058 72.9579C69.82 72.9579 66.1708 69.3061 66.1708 64.8175C66.1708 60.3316 69.82 56.6821 74.3058 56.6821ZM88.4049 88.4061H60.2116V83.0162C60.2116 78.8072 63.1741 75.1256 67.2156 74.1567C69.1865 75.6579 71.6433 76.5516 74.3058 76.5516C76.9691 76.5516 79.4268 75.658 81.3984 74.1571C85.4415 75.1265 88.4047 78.8076 88.4047 83.0162V88.4061H88.4049Z" fill="#36829D"/>
<path d="M74.3557 47.4803C74.6501 47.6688 74.9868 47.7638 75.3246 47.7638C75.6153 47.7638 75.9066 47.6934 76.172 47.5514C76.7456 47.2447 77.1085 46.6517 77.1211 46.0014L77.225 40.5792C81.9849 39.4121 85.5152 35.0601 85.5152 30.0348C85.5152 24.7767 81.7563 20.3814 76.7851 19.3915C77.0408 18.2537 77.1723 17.0917 77.1723 15.9156C77.1721 7.1397 70.0326 0 61.2569 0H48.9973C48.0049 0 47.2004 0.804461 47.2004 1.79688C47.2004 2.78929 48.0049 3.59375 48.9973 3.59375H61.2569C68.051 3.59375 73.5786 9.12148 73.5786 15.9158C73.5786 17.0252 73.4285 18.119 73.1347 19.1818H48.59C43.218 19.1818 38.7478 23.106 37.8887 28.2379H33.0607C32.6544 28.2379 32.2601 28.3755 31.9421 28.6284L21.2997 37.0925L21.1612 29.9437C21.1434 29.0253 20.4358 28.2681 19.5207 28.1883C13.2151 27.639 8.27564 22.2482 8.27564 15.9155C8.27564 9.12148 13.8053 3.59375 20.6024 3.59375H32.8619C33.8543 3.59375 34.6588 2.78929 34.6588 1.79688C34.6588 0.804461 33.8543 0 32.8619 0H20.6024C11.8237 0 4.68188 7.1397 4.68188 15.9158C4.68188 19.909 6.1812 23.734 8.90382 26.6866C11.2365 29.2165 14.2788 30.9068 17.5978 31.5447L17.777 40.7962C17.7903 41.4798 18.1901 42.0965 18.8086 42.3874C19.0524 42.5022 19.3135 42.5584 19.5733 42.5584C19.9724 42.5584 20.3681 42.4257 20.692 42.168L33.6879 31.8318H37.8887C38.7478 36.9637 43.218 40.8879 48.59 40.8879H64.0569L74.3557 47.4803ZM41.331 30.0348C41.331 26.032 44.5874 22.7756 48.59 22.7756H74.6625C78.665 22.7756 81.9215 26.032 81.9215 30.0348C81.9215 33.7654 79.0134 36.9414 75.3009 37.265C74.3856 37.3448 73.6779 38.1022 73.6605 39.0208L73.5895 42.7227L65.5516 37.5773C65.2625 37.3923 64.9263 37.2938 64.5829 37.2938H48.59C44.5872 37.294 41.331 34.0375 41.331 30.0348Z" fill="#36829D"/>
<path d="M51.4319 28.2354C50.4395 28.2354 49.635 29.0423 49.635 30.0347C49.635 31.0272 50.4395 31.8316 51.4319 31.8316C52.4243 31.8316 53.2288 31.0272 53.2288 30.0347V30.0297C53.2288 29.0373 52.4243 28.2354 51.4319 28.2354Z" fill="#36829D"/>
<path d="M61.6287 28.2354C60.6362 28.2354 59.8318 29.0423 59.8318 30.0347C59.8318 31.0272 60.6362 31.8316 61.6287 31.8316C62.6211 31.8316 63.4255 31.0272 63.4255 30.0347V30.0297C63.4255 29.0373 62.6211 28.2354 61.6287 28.2354Z" fill="#36829D"/>
<path d="M71.8203 31.8316C72.8127 31.8316 73.6172 31.0272 73.6172 30.0347V30.0297C73.6172 29.0373 72.8127 28.2354 71.8203 28.2354C70.8279 28.2354 70.0234 29.0423 70.0234 30.0347C70.0234 31.0272 70.8279 31.8316 71.8203 31.8316Z" fill="#36829D"/>
<path d="M40.9295 3.59375H40.9398C41.9322 3.59375 42.7316 2.78929 42.7316 1.79688C42.7316 0.804461 41.9221 0 40.9297 0C39.9373 0 39.1328 0.804461 39.1328 1.79688C39.1328 2.78929 39.9371 3.59375 40.9295 3.59375Z" fill="#36829D"/>
</g>
<defs>
<clipPath id="clip0">
<rect width="92" height="92" fill="white"/>
</clipPath>
</defs>
</svg>
