<svg width="102" height="102" viewBox="0 0 102 102" fill="none" xmlns="http://www.w3.org/2000/svg">
<g clip-path="url(#clip0)">
<path d="M65.8743 92.9414C65.8575 92.9063 65.8509 92.8679 65.8325 92.8345L57.9585 78.6602L64.3823 68.3804C65.5146 66.5748 65.911 64.4035 65.49 62.3141L64.3656 56.7256V39.205L70.5589 33.0117C70.5672 33.0117 70.5706 32.99 70.5789 32.9816C70.5873 32.9733 70.6007 32.9699 70.609 32.9599L86.7212 15.4042C88.596 13.3469 88.5202 10.1787 86.5492 8.2135C84.518 6.17734 81.2207 6.17316 79.1845 8.20432C79.1269 8.26175 79.0707 8.32043 79.016 8.38057L63.2379 25.5754L57.1265 30.1598H55.3672C56.8364 28.8872 57.6814 27.0398 57.6828 25.0959L57.5325 20.3278C59.3389 19.9168 60.9952 19.0108 62.3157 17.7114L63.8761 16.1527C64.5287 15.5005 64.5291 14.4427 63.8769 13.7899C63.8218 13.7348 63.7629 13.6834 63.7007 13.6366L59.2984 10.3186C56.242 7.88312 52.0511 7.43934 48.5524 9.18084L46.6562 10.1315C46.5944 10.1632 46.4323 10.2668 46.3738 10.2985C42.8689 12.6386 41.6518 17.2202 43.5337 20.991L44.2353 22.3944L44.3172 25.1477C44.3235 27.0742 45.1659 28.903 46.6261 30.1598H46.5743L38.7521 23.9014L34.9095 20.0671L44.9989 8.71638C46.8404 6.64117 46.7431 3.48981 44.7767 1.53237C43.7772 0.516588 42.4003 -0.0378752 40.9758 0.00201277C39.5484 0.0281175 38.1949 0.640847 37.2334 1.6961L24.6029 15.4694C22.1769 18.1034 22.2654 22.1837 24.8034 24.71L31.4344 31.341C31.4545 31.3594 31.4795 31.3661 31.4996 31.3844C31.5196 31.4028 31.5263 31.4262 31.5464 31.4429L40.9691 39.2952V61.4403L31.1838 77.7497C30.9032 78.2165 30.8677 78.7906 31.0886 79.2884L36.9361 92.4302C34.3465 93.4119 32.6309 95.8891 32.6223 98.6585V100.329C32.6223 101.252 33.3704 102 34.293 102H47.6586C48.5813 102 49.3293 101.252 49.3293 100.329C49.3293 101.252 50.0774 102 51 102H64.3656C65.2883 102 66.0363 101.252 66.0363 100.329V93.6464C66.0372 93.6364 66.0372 93.6264 66.0363 93.6164C66.0309 93.4311 65.9941 93.2482 65.9277 93.0751C65.9127 93.0293 65.8947 92.9846 65.8743 92.9414ZM81.4769 10.641C81.8179 10.2601 82.3022 10.0385 82.8135 10.0296C83.3262 10.0078 83.8236 10.2066 84.1801 10.5759C84.886 11.2786 84.9152 12.412 84.2469 13.1504L69.3192 29.4147L66.6728 26.7683L81.4769 10.641ZM46.0664 18.1224C45.7413 16.1575 46.5919 14.1835 48.2434 13.0702V13.0669L50.046 12.1664C52.395 11.0011 55.2073 11.3091 57.2484 12.955L60.1538 15.1419L59.9533 15.3424C57.5051 17.7102 53.708 17.9719 50.9582 15.9622L50.0711 15.2939C49.7027 15.0206 49.2389 14.9088 48.7863 14.9849C48.3338 15.0625 47.9332 15.323 47.6787 15.7049L46.0664 18.1224ZM54.3414 25.1477C54.3272 26.9932 52.8196 28.4774 50.9741 28.4632C49.1286 28.449 47.6444 26.9414 47.6586 25.0959L47.5584 21.9216L49.4964 19.0146C50.9094 19.9191 52.5247 20.4587 54.1977 20.585L54.3414 25.1477ZM27.1725 22.3476C25.9071 21.0825 25.8631 19.0453 27.0722 17.7265L39.6944 3.95656C40.0413 3.57501 40.5304 3.35323 41.046 3.34341C41.5656 3.33903 42.0653 3.54223 42.4343 3.90811C43.1394 4.61544 43.1722 5.74901 42.5095 6.49602L31.3726 19.0263C30.7847 19.6879 30.8148 20.6932 31.4411 21.3185L35.272 25.1494L32.6223 27.7975L27.1725 22.3476ZM35.0966 30.0462L37.758 27.3865L44.9421 33.1353C45.2384 33.3724 45.6068 33.5014 45.9862 33.5012H57.6811C58.0424 33.5006 58.3941 33.3832 58.6836 33.1671L64.2069 29.0237L67.0137 31.8305L61.5137 37.3321C61.2005 37.6454 61.0242 38.0702 61.0242 38.5133V55.2203H44.3172V38.5133C44.317 38.0175 44.0967 37.5474 43.7158 37.2302L35.0966 30.0462ZM34.5018 78.7254L44.0783 62.7619C44.2349 62.5029 44.3176 62.2057 44.3172 61.9031V58.5617H61.3249L62.2071 62.969C62.4579 64.2229 62.22 65.5252 61.5421 66.6095L54.5954 77.7247C54.2729 78.2403 54.2564 78.8906 54.5519 79.4221L61.5254 91.9757H56.9945L49.4763 78.4431L52.5855 69.1155C52.877 68.2401 52.4038 67.2941 51.5284 67.0025C50.928 66.8025 50.2662 66.9589 49.8188 67.4064L39.7946 77.4306C39.3057 77.9193 39.1683 78.6584 39.4488 79.2901L45.0874 91.9774H40.3911L34.5018 78.7254ZM45.9879 98.6585H35.9637C35.9637 96.813 37.4596 95.3171 39.3051 95.3171H45.9879V98.6585ZM49.3293 98.6585V93.6464C49.3293 93.6214 49.3159 93.5996 49.3143 93.5746C49.3084 93.3916 49.2723 93.211 49.2073 93.04C49.2073 93.0216 49.1973 93.0015 49.1906 92.9832V92.9681L42.974 78.9794L47.1825 74.7709L46.0781 78.0805C45.9324 78.5241 45.9779 79.0084 46.2034 79.4171L53.4626 92.4819C50.9614 93.514 49.3295 95.9526 49.3293 98.6585ZM62.6949 98.6585H52.6707C52.6707 96.813 54.1666 95.3171 56.0121 95.3171H62.6949V98.6585Z" fill="#36829D"/>
<path d="M23.2196 78.7285L16.7239 76.1306L14.1259 69.6349C13.7845 68.7776 12.8128 68.3595 11.9555 68.7012C11.5293 68.871 11.1916 69.2087 11.0218 69.6349L8.42384 76.1306L1.92816 78.7285C1.07151 79.0712 0.654669 80.0434 0.997371 80.9002C1.16716 81.3248 1.50359 81.6612 1.92816 81.831L8.42384 84.4306L11.0218 90.9246C11.3632 91.7819 12.335 92.2 13.1922 91.8584C13.6185 91.6886 13.9562 91.3509 14.1259 90.9246L16.7239 84.4306L23.2196 81.831C24.0762 81.4883 24.4931 80.5162 24.1504 79.6593C23.9806 79.2347 23.6441 78.8983 23.2196 78.7285ZM14.8176 81.5938C14.3933 81.7636 14.0568 82.1 13.887 82.5244L12.5739 85.8056L11.2607 82.5244C11.0909 82.1 10.7545 81.7636 10.3301 81.5938L7.04718 80.2806L10.3301 78.9674C10.7545 78.7977 11.0909 78.4612 11.2607 78.0369L12.5739 74.7539L13.887 78.0369C14.0568 78.4612 14.3933 78.7977 14.8176 78.9674L18.1005 80.2806L14.8176 81.5938Z" fill="#36829D"/>
<path d="M101.003 37.8922C100.833 37.4677 100.496 37.1312 100.072 36.9614L93.576 34.3635L90.9781 27.8678C90.6367 27.0105 89.6649 26.5924 88.8077 26.9341C88.3814 27.1039 88.0437 27.4416 87.8739 27.8678L85.276 34.3635L78.7803 36.9614C77.9237 37.3041 77.5068 38.2763 77.8495 39.1331C78.0193 39.5577 78.3558 39.8941 78.7803 40.0639L85.276 42.6635L87.8739 49.1575C88.2154 50.0148 89.1871 50.4329 90.0444 50.0913C90.4706 49.9215 90.8083 49.5838 90.9781 49.1575L93.576 42.6635L100.072 40.0639C100.928 39.7212 101.345 38.7489 101.003 37.8922ZM91.6698 39.8267C91.2454 39.9965 90.909 40.3329 90.7392 40.7573L89.426 44.0385L88.1129 40.7573C87.9431 40.3329 87.6066 39.9965 87.1823 39.8267L83.8994 38.5135L87.1823 37.2003C87.6066 37.0306 87.9431 36.6941 88.1129 36.2698L89.426 32.9868L90.7392 36.2698C90.909 36.6941 91.2454 37.0306 91.6698 37.2003L94.9527 38.5135L91.6698 39.8267Z" fill="#36829D"/>
<path d="M92.7674 81.9502H89.426V85.2916H92.7674V81.9502Z" fill="#36829D"/>
<path d="M92.7674 91.9741H89.426V95.3155H92.7674V91.9741Z" fill="#36829D"/>
<path d="M97.7796 86.9619H94.4382V90.3033H97.7796V86.9619Z" fill="#36829D"/>
<path d="M87.7553 86.9619H84.4139V90.3033H87.7553V86.9619Z" fill="#36829D"/>
<path d="M19.2567 36.8408H15.9153V40.1822H19.2567V36.8408Z" fill="#36829D"/>
<path d="M19.2567 43.5239H15.9153V46.8653H19.2567V43.5239Z" fill="#36829D"/>
<path d="M22.5981 40.1826H19.2567V43.524H22.5981V40.1826Z" fill="#36829D"/>
<path d="M15.9153 40.1826H12.5739V43.524H15.9153V40.1826Z" fill="#36829D"/>
<path d="M72.2296 60.722C71.5659 60.0809 70.5083 60.0993 69.8672 60.763C69.2417 61.4104 69.2417 62.437 69.8672 63.0844L72.0274 65.2446L69.8672 67.4048C69.215 68.0572 69.215 69.1148 69.8672 69.7672C70.5196 70.4194 71.5772 70.4194 72.2296 69.7672L75.571 66.4258C76.2232 65.7734 76.2232 64.7158 75.571 64.0634L72.2296 60.722Z" fill="#36829D"/>
<path d="M80.5831 60.722C79.9194 60.0809 78.8619 60.0993 78.2207 60.763C77.5953 61.4104 77.5953 62.437 78.2207 63.0844L80.3809 65.2446L78.2207 67.4048C77.557 68.0459 77.5387 69.1035 78.1798 69.7672C78.8209 70.4309 79.8785 70.4492 80.5422 69.8081C80.5559 69.7947 80.5697 69.781 80.5831 69.7672L83.9245 66.4258C84.5767 65.7734 84.5767 64.7158 83.9245 64.0634L80.5831 60.722Z" fill="#36829D"/>
<path d="M16.4048 22.9874C17.0685 23.6284 18.1262 23.61 18.7671 22.9463C19.3924 22.2989 19.3924 21.2725 18.7671 20.6251L16.6069 18.4649L18.7671 16.3046C19.3957 15.6566 19.3772 14.6085 18.7671 13.9423C18.1147 13.2901 17.0572 13.2901 16.4048 13.9423L13.0634 17.2837C12.4112 17.9361 12.4112 18.9936 13.0634 19.646L16.4048 22.9874Z" fill="#36829D"/>
<path d="M8.05125 22.9874C8.71494 23.6284 9.7727 23.61 10.4136 22.9463C11.0389 22.2989 11.0389 21.2725 10.4136 20.6251L8.25341 18.4649L10.4136 16.3046C11.0658 15.6522 11.0658 14.5947 10.4136 13.9423C9.76121 13.2901 8.70366 13.2901 8.05125 13.9423L4.70985 17.2837C4.05765 17.9361 4.05765 18.9936 4.70985 19.646L8.05125 22.9874Z" fill="#36829D"/>
</g>
<defs>
<clipPath id="clip0">
<rect width="102" height="102" fill="white"/>
</clipPath>
</defs>
</svg>
