<svg width="59" height="46" viewBox="0 0 59 46" fill="none" xmlns="http://www.w3.org/2000/svg">
<path d="M18.6123 6.46659C13.2703 11.7995 12.8071 20.1092 17.2572 25.9714C19.0496 28.3312 20.3094 30.9324 21.0169 33.7292H27.1683V22.1362C27.1683 21.0544 28.0479 20.1794 29.1265 20.1794C30.2074 20.1794 31.0847 21.0561 31.0847 22.1362V33.7292H37.2438C37.9553 30.9376 39.2229 28.3208 41.0271 25.9284C45.3966 20.1379 45.0369 11.7635 39.5819 6.38722C33.7767 0.666941 24.4358 0.650101 18.6123 6.46659Z" fill="#36829D"/>
<path d="M8.48682 17.0069C9.56826 17.0069 10.445 16.1308 10.445 15.0501C10.445 13.9695 9.56826 13.0934 8.48682 13.0934H1.9582C0.876749 13.0934 0 13.9695 0 15.0501C0 16.1308 0.876749 17.0069 1.9582 17.0069H8.48682Z" fill="#36829D"/>
<path d="M55.5317 26.4575L49.9066 23.1461C48.9748 22.5977 47.7744 22.9076 47.2254 23.8388C46.6765 24.7698 46.9868 25.9693 47.9186 26.5178L53.5438 29.8293C54.4762 30.3781 55.6765 30.0671 56.2249 29.1366C56.7737 28.2056 56.4634 27.0061 55.5317 26.4575Z" fill="#36829D"/>
<path d="M8.34649 23.1461L2.72138 26.4575C1.78954 27.0061 1.47923 28.2056 2.02818 29.1366C2.57725 30.0679 3.77763 30.3777 4.70934 29.8293L10.3344 26.5178C11.2663 25.9693 11.5766 24.7698 11.0277 23.8388C10.4786 22.9076 9.2782 22.5977 8.34649 23.1461Z" fill="#36829D"/>
<path d="M49.9066 6.95429L55.5317 3.64285C56.4636 3.09429 56.7739 1.89483 56.2249 0.963777C55.676 0.0325897 54.4753 -0.277328 53.5438 0.271098L47.9186 3.58254C46.9868 4.13109 46.6765 5.33055 47.2254 6.26161C47.7745 7.19306 48.9748 7.50285 49.9066 6.95429Z" fill="#36829D"/>
<path d="M10.3346 3.58254L4.70946 0.271098C3.77762 -0.277328 2.57751 0.0325897 2.0283 0.963777C1.47935 1.89483 1.78966 3.09429 2.7215 3.64285L8.34661 6.95429C9.27897 7.50311 10.479 7.19228 11.0278 6.26161C11.5766 5.33055 11.2664 4.13109 10.3346 3.58254Z" fill="#36829D"/>
<path d="M56.2947 13.0935H49.7661C48.6846 13.0935 47.8079 13.9696 47.8079 15.0503C47.8079 16.1309 48.6846 17.007 49.7661 17.007H56.2947C57.3761 17.007 58.2529 16.1309 58.2529 15.0503C58.2529 13.9696 57.3763 13.0935 56.2947 13.0935Z" fill="#36829D"/>
<path d="M21.4099 37.6426V39.7272C21.4099 42.7575 23.9582 45.2216 27.0939 45.2216H31.1278C34.24 45.2216 36.7909 42.7744 36.8144 39.7662L36.8287 37.6425H21.4099V37.6426Z" fill="#36829D"/>
</svg>
