<svg width="31" height="31" viewBox="0 0 31 31" fill="none" xmlns="http://www.w3.org/2000/svg">
<g clip-path="url(#clip0)">
<path d="M21.7652 0H9.23536C4.14286 0 0 4.14286 0 9.23536V21.7652C0 26.8577 4.14286 31.0006 9.23536 31.0006H21.7652C26.8577 31.0006 31.0006 26.8577 31.0006 21.7652V9.23536C31 4.14286 26.8571 0 21.7652 0ZM27.8816 21.7652C27.8816 25.1429 25.1429 27.8816 21.7652 27.8816H9.23536C5.85761 27.8816 3.11896 25.1429 3.11896 21.7652V9.23536C3.11896 5.85705 5.85761 3.11896 9.23536 3.11896H21.7652C25.1429 3.11896 27.8816 5.85761 27.8816 9.23536V21.7652Z" fill="#36829D"/>
<path d="M15.5003 7.48242C11.079 7.48242 7.48236 11.079 7.48236 15.5004C7.48236 19.9217 11.079 23.5183 15.5003 23.5183C19.9216 23.5183 23.5182 19.9217 23.5182 15.5004C23.5182 11.079 19.9211 7.48242 15.5003 7.48242ZM15.5003 20.3993C12.7943 20.3993 10.6013 18.2058 10.6013 15.5004C10.6013 12.7949 12.7948 10.6014 15.5003 10.6014C18.2063 10.6014 20.3993 12.7949 20.3993 15.5004C20.3993 18.2058 18.2057 20.3993 15.5003 20.3993Z" fill="#36829D"/>
<path d="M23.5334 9.46353C24.5945 9.46353 25.4546 8.60337 25.4546 7.54231C25.4546 6.48125 24.5945 5.62109 23.5334 5.62109C22.4723 5.62109 21.6122 6.48125 21.6122 7.54231C21.6122 8.60337 22.4723 9.46353 23.5334 9.46353Z" fill="#36829D"/>
</g>
<defs>
<clipPath id="clip0">
<rect width="31" height="31" fill="white"/>
</clipPath>
</defs>
</svg>
