<svg width="110" height="108" viewBox="0 0 110 108" fill="none" xmlns="http://www.w3.org/2000/svg">
<path d="M26.9928 32.5564C26.9928 37.2747 23.1609 41.0779 18.4712 41.0779C13.7529 41.0779 9.94971 37.2461 9.94971 32.5564C9.94971 27.8381 13.7815 24.0348 18.4712 24.0348C23.1609 24.0062 26.9928 27.8381 26.9928 32.5564Z" stroke="#36829D" stroke-opacity="0.2" stroke-width="3" stroke-miterlimit="10" stroke-linecap="round" stroke-linejoin="round"/>
<path d="M2 57.6064C2 48.513 9.3777 41.1353 18.4711 41.1353C27.5646 41.1353 34.9423 48.513 34.9423 57.6064H2Z" stroke="#36829D" stroke-opacity="0.2" stroke-width="3" stroke-miterlimit="10" stroke-linecap="round" stroke-linejoin="round"/>
<path d="M97.167 35.9299C97.167 41.6776 95.0795 46.882 91.648 50.914C87.4444 55.9469 81.0962 59.0924 74.033 59.0924C66.9699 59.0924 60.6216 55.9469 56.418 50.914C52.9579 46.9106 50.899 41.6776 50.899 35.9299C50.899 23.1476 61.2507 12.7959 74.033 12.7959C86.8153 12.7959 97.167 23.1476 97.167 35.9299Z" stroke="#36829D" stroke-opacity="0.2" stroke-width="3" stroke-miterlimit="10" stroke-linecap="round" stroke-linejoin="round"/>
<path d="M83.0406 31.1263C83.0406 36.102 79.0086 40.134 74.0329 40.134C69.0573 40.134 65.0253 36.102 65.0253 31.1263C65.0253 26.1507 69.0573 22.1187 74.0329 22.1187C79.0086 22.1187 83.0406 26.1507 83.0406 31.1263Z" stroke="#36829D" stroke-opacity="0.2" stroke-width="3" stroke-miterlimit="10" stroke-linecap="round" stroke-linejoin="round"/>
<path d="M91.6476 50.9146C87.444 55.9474 81.0957 59.093 74.0326 59.093C66.9694 59.093 60.6212 55.9474 56.4176 50.9146C59.6775 44.5092 66.3689 40.1626 74.0326 40.1626C81.6962 40.1626 88.3876 44.5092 91.6476 50.9146Z" stroke="#36829D" stroke-opacity="0.2" stroke-width="3" stroke-miterlimit="10" stroke-linecap="round" stroke-linejoin="round"/>
<path d="M59.7057 75.9531L45.2872 66.8657L26.3501 96.9122L40.7686 106L59.7057 75.9531Z" stroke="#36829D" stroke-opacity="0.2" stroke-width="3" stroke-miterlimit="10" stroke-linecap="round" stroke-linejoin="round"/>
<path d="M89.3028 66.4992C81.7535 70.3024 73.5179 71.0745 65.9687 69.1872C64.0814 68.7582 62.2512 68.1577 60.4783 67.3856C57.6473 66.1846 54.9879 64.5832 52.5573 62.6387C51.1847 61.5521 49.8693 60.3225 48.6682 58.9499C46.6379 56.7194 44.9222 54.2316 43.521 51.4578C42.1484 48.7126 41.1476 45.7958 40.5471 42.8791C39.1745 36.0733 39.8894 29.0673 42.5488 22.8621C45.4941 15.7131 51.0131 9.50784 58.5624 5.67601C75.3481 -2.81692 95.794 3.90308 104.287 20.7174C112.837 37.5317 106.117 58.0062 89.3028 66.4992Z" stroke="#36829D" stroke-opacity="0.2" stroke-width="3" stroke-miterlimit="10" stroke-linecap="round" stroke-linejoin="round"/>
<path d="M60.4786 67.4144L56.418 73.877L48.6113 68.9585L52.5861 62.6675C54.9596 64.612 57.619 66.1848 60.4786 67.4144Z" stroke="#36829D" stroke-opacity="0.2" stroke-width="3" stroke-miterlimit="10" stroke-linecap="round" stroke-linejoin="round"/>
</svg>
