<svg width="47" height="47" viewBox="0 0 47 47" fill="none" xmlns="http://www.w3.org/2000/svg">
<path d="M40.1458 17.625H37.2083V13.7083C37.2083 6.14947 31.0589 0 23.5 0C15.9411 0 9.7917 6.14947 9.7917 13.7083V17.625H6.8542C6.31296 17.625 5.875 18.063 5.875 18.6042V43.0834C5.875 45.2435 7.63153 47 9.7917 47H37.2084C39.3685 47 41.125 45.2435 41.125 43.0833V18.6042C41.125 18.063 40.687 17.625 40.1458 17.625ZM26.4318 38.0795C26.4624 38.3558 26.3735 38.6331 26.188 38.8406C26.0025 39.0481 25.7366 39.1667 25.4584 39.1667H21.5417C21.2635 39.1667 20.9976 39.0481 20.8121 38.8406C20.6266 38.6332 20.5376 38.3559 20.5683 38.0795L21.186 32.5248C20.1829 31.7952 19.5834 30.6411 19.5834 29.375C19.5834 27.2149 21.3399 25.4583 23.5001 25.4583C25.6603 25.4583 27.4168 27.2148 27.4168 29.375C27.4168 30.6411 26.8173 31.7952 25.8142 32.5248L26.4318 38.0795ZM31.3333 17.625H15.6667V13.7083C15.6667 9.38908 19.1808 5.875 23.5 5.875C27.8192 5.875 31.3333 9.38908 31.3333 13.7083V17.625Z" fill="#36829D"/>
</svg>
