<svg width="45" height="45" viewBox="0 0 45 45" fill="none" xmlns="http://www.w3.org/2000/svg">
<g clip-path="url(#clip0)">
<path d="M16.4062 33.0225V41.7187C16.4062 42.3262 16.7962 42.8643 17.3737 43.0556C17.5181 43.1025 17.6662 43.125 17.8125 43.125C18.2512 43.125 18.675 42.9187 18.945 42.5512L24.0319 35.6287L16.4062 33.0225Z" fill="#36829D"/>
<path d="M44.409 0.259937C43.9777 -0.0456883 43.4115 -0.0869383 42.9427 0.158687L0.75522 22.1899C0.25647 22.4506 -0.0379049 22.9831 0.00334512 23.5437C0.0464701 24.1062 0.419595 24.5862 0.95022 24.7681L12.6783 28.7768L37.6552 7.42056L18.3277 30.7062L37.9833 37.4243C38.1296 37.4731 38.2833 37.4993 38.4371 37.4993C38.6921 37.4993 38.9452 37.4299 39.1683 37.2949C39.5246 37.0774 39.7665 36.7118 39.8283 36.3012L44.9846 1.61369C45.0615 1.08869 44.8402 0.567437 44.409 0.259937Z" fill="#36829D"/>
</g>
<defs>
<clipPath id="clip0">
<rect width="45" height="45" fill="white"/>
</clipPath>
</defs>
</svg>
