<svg width="98" height="102" viewBox="0 0 98 102" fill="none" xmlns="http://www.w3.org/2000/svg">
<path d="M80.0395 42.5H85.1395C86.0783 42.5 86.8395 41.7388 86.8395 40.8V35.7C86.8395 34.7612 86.0783 34 85.1395 34C84.2007 34 83.4395 34.7612 83.4395 35.7V39.1H80.0395C79.1007 39.1 78.3395 39.8612 78.3395 40.8C78.3395 41.7388 79.1007 42.5 80.0395 42.5Z" fill="#36829D"/>
<path d="M40.0455 35.7001C43.8008 35.7001 46.8455 32.6554 46.8455 28.9001C46.8455 25.1448 43.8008 22.1001 40.0455 22.1001C36.2894 22.1001 33.2455 25.1448 33.2455 28.9001C33.2455 32.6554 36.2894 35.7001 40.0455 35.7001ZM40.0455 25.5001C41.9231 25.5001 43.4455 27.0225 43.4455 28.9001C43.4455 30.7777 41.9231 32.3001 40.0455 32.3001C38.167 32.3001 36.6455 30.7777 36.6455 28.9001C36.6455 27.0225 38.167 25.5001 40.0455 25.5001Z" fill="#36829D"/>
<path d="M2.9103 35.1355C3.62998 35.5074 4.42935 35.7008 5.2395 35.7C7.40352 35.7 9.32847 34.3262 10.0332 32.2792L23.4024 32.0726L21.0699 34C20.4274 34.5279 20.2614 35.4427 20.6773 36.1624L23.854 41.65L23.9237 49.3H15.4395C15.3399 49.31 15.2411 49.3299 15.1448 49.3598C14.3421 46.9965 11.9474 45.5613 9.48452 45.9681C7.02251 46.3748 5.21626 48.504 5.21626 51C5.21626 53.496 7.02251 55.6252 9.48452 56.0319C11.9474 56.4387 14.3421 55.0035 15.1448 52.6402C15.2411 52.6701 15.3399 52.69 15.4395 52.7H25.6395C26.0927 52.7 26.5277 52.519 26.8464 52.197C27.166 51.8749 27.3437 51.4383 27.3395 50.9851L27.2615 42.3689L32.701 40.3293C33.0704 40.5684 33.4456 40.7867 33.8249 40.9851L34.9721 47.8772C35.109 48.6965 35.8187 49.2975 36.6505 49.2967H37.5395V57.7967H32.4395C31.5007 57.7967 30.7395 58.5579 30.7395 59.4967V84.2961L15.9375 99.0981C15.4511 99.5845 15.3059 100.316 15.569 100.951C15.8321 101.586 16.4522 102 17.1395 102H71.5395C72.2268 102 72.8469 101.586 73.1092 100.951C73.3723 100.316 73.2271 99.5845 72.7415 99.0981L61.3395 87.6961V78.6707L65.1454 72.3314C71.5669 76.2062 75.4492 78.2 76.6395 78.2H86.8395C87.7783 78.2 88.5395 77.4388 88.5395 76.5V67.0039L91.4398 64.1036C91.7577 63.784 91.9378 63.3516 91.9395 62.9V57.8H94.4231C95.5736 57.8 96.6469 57.2181 97.2744 56.2527C97.9011 55.2882 97.9982 54.0713 97.5309 53.0196L92.245 41.1196C94.2513 38.7306 95.347 35.71 95.3395 32.5905C95.3777 21.3388 89.0151 11.045 78.9347 6.04712L74.004 3.57847C73.2561 3.20576 72.348 3.43154 71.8624 4.11221L71.1502 5.1H59.6395V1.7C59.6395 0.761182 58.8783 0 57.9395 0H40.9395C40.0007 0 39.2395 0.761182 39.2395 1.7V8.5H36.6455C35.8138 8.49917 35.1032 9.10098 34.9671 9.92109L33.8199 16.8116C33.4406 17.01 33.0645 17.2274 32.696 17.4673L26.1492 15.0145C25.3714 14.7223 24.4965 15.036 24.0806 15.7557L22.3665 18.7257C22.3225 18.7257 22.2868 18.7 22.2428 18.7H12.0395V13.2871C14.3812 12.4595 15.7856 10.0647 15.3656 7.6168C14.9456 5.16807 12.8231 3.37925 10.3395 3.37925C7.85508 3.37925 5.73257 5.16807 5.31255 7.6168C4.89253 10.0647 6.29785 12.4595 8.6395 13.2871V20.4C8.6395 21.3388 9.40068 22.1 10.3395 22.1H20.5138C20.3577 22.7267 20.5735 23.3866 21.0699 23.8L26.4621 28.2401C26.4621 28.3646 26.4621 28.4916 26.4521 28.6178L10.0266 28.8709C9.25459 26.7161 7.14038 25.339 4.85684 25.505C2.57329 25.6702 0.679882 27.337 0.226659 29.5807C-0.227393 31.8252 0.86997 34.0963 2.9103 35.1355ZM10.3395 52.7C9.40068 52.7 8.6395 51.9388 8.6395 51C8.6395 50.0612 9.40068 49.3 10.3395 49.3C11.2783 49.3 12.0395 50.0612 12.0395 51C12.0395 51.9388 11.2783 52.7 10.3395 52.7ZM10.3395 6.8C11.2783 6.8 12.0395 7.56118 12.0395 8.5C12.0395 9.43882 11.2783 10.2 10.3395 10.2C9.40068 10.2 8.6395 9.43882 8.6395 8.5C8.6395 7.56118 9.40068 6.8 10.3395 6.8ZM40.9395 49.3H43.4455C44.2756 49.3 44.9845 48.6999 45.1214 47.8806L46.2703 40.9884C46.6479 40.7917 47.024 40.5726 47.3925 40.3327L53.9427 42.7855C54.7205 43.0777 55.5954 42.764 56.0112 42.0443L56.7309 40.8H64.7395C64.8648 40.79 64.9885 40.7651 65.1081 40.7253L68.1395 44.7661V47.6H61.3395V51H65.2616L60.7086 52.8204C60.0628 53.0785 59.6387 53.7044 59.6395 54.4V57.8H40.9395V49.3ZM59.4112 21.6443L58.694 20.4H63.0395V27.2H54.8981L59.0203 23.8C59.6586 23.2721 59.8229 22.3623 59.4112 21.6443ZM63.0395 30.6V37.4H58.694L59.4112 36.1557C59.8229 35.4377 59.6586 34.5279 59.0203 34L54.8981 30.6H63.0395ZM51.6376 72.602L57.9395 78.9039V79.9H47.7395V61.2H51.1395V71.4C51.1395 71.8507 51.3188 72.2832 51.6376 72.602ZM40.8615 95.2H40.9395V95.112L47.3195 87.8206C47.5909 87.5102 47.7395 87.1117 47.7395 86.7V83.3H51.1395V98.6H37.879L40.8615 95.2ZM21.2434 98.6L33.6415 86.202C33.9602 85.8832 34.1395 85.4507 34.1395 85V61.2H44.3395V86.0608L40.9395 89.9473V81.6H37.5395V93.8403L33.3675 98.6H21.2434ZM67.4356 98.6H54.5395V83.3H57.9395V88.4C57.9395 88.8507 58.1188 89.2832 58.4375 89.602L67.4356 98.6ZM59.2992 75.4599L54.5395 70.6994V61.2H59.6395V68C59.6395 68.586 59.9417 69.1306 60.438 69.4418C61.0722 69.8395 61.645 70.1898 62.2435 70.5583L59.2992 75.4599ZM73.7782 7.26899L77.4131 9.08853C86.339 13.5128 91.9727 22.6279 91.9395 32.5905C91.947 35.2202 90.9019 37.7437 89.0376 39.598C88.5403 40.0953 88.4 40.8473 88.6856 41.4898L94.4231 54.4H90.2395C89.3007 54.4 88.5395 55.1612 88.5395 56.1V61.2H88.2473C85.6176 61.2075 83.095 60.1624 81.2415 58.298C80.5741 57.6539 79.5141 57.663 78.8583 58.3188C78.2025 58.9746 78.1934 60.0346 78.8375 60.702C80.8521 62.7232 83.4686 64.0355 86.2933 64.4423L85.6376 65.098C85.3188 65.4168 85.1395 65.8493 85.1395 66.3V74.8L76.8005 74.81C72.8734 72.9938 69.0808 70.897 65.4534 68.5371L65.4451 68.5288H65.4343C64.6341 68.0423 63.8314 67.5493 63.0395 67.0579V55.5505L70.4704 52.5796C71.1162 52.3215 71.5395 51.6956 71.5395 51V44.2C71.5395 43.8323 71.42 43.4745 71.1992 43.1798L66.4395 36.8339V17.5437L73.7782 7.26899ZM42.6395 3.4H56.2395V6.8C56.2395 7.73882 57.0007 8.5 57.9395 8.5H68.7222L63.3574 16.0122C63.1499 16.3002 63.0387 16.6456 63.0395 17H56.7309L56.0112 15.7557C55.5954 15.036 54.7205 14.7223 53.9427 15.0145L47.3992 17.4673C47.0306 17.2274 46.6546 17.0083 46.2769 16.8116L45.1214 9.91943C44.9845 9.10015 44.2756 8.5 43.4455 8.5H42.6395V3.4ZM24.3421 22.1L26.3019 18.7L32.3391 20.9628C32.8811 21.1653 33.4887 21.079 33.9519 20.7329C34.5919 20.2506 35.2867 19.8455 36.0213 19.5259C36.5534 19.2977 36.9327 18.8137 37.0273 18.2426L38.0849 11.9H42.0053L43.0628 18.2443C43.1575 18.8154 43.5368 19.2993 44.0689 19.5276C44.8035 19.848 45.4975 20.2531 46.1383 20.7345C46.6015 21.0807 47.2083 21.167 47.7495 20.9645L53.7883 18.7L55.7464 22.1L50.7734 26.1923C50.3269 26.56 50.0978 27.1311 50.1666 27.7063C50.2712 28.4999 50.2712 29.3034 50.1666 30.097C50.0978 30.6722 50.3269 31.2433 50.7734 31.6119L55.7464 35.7L53.7883 39.1L47.7495 36.8372C47.2083 36.6347 46.6015 36.721 46.1383 37.0671C45.4975 37.5486 44.8035 37.9537 44.0689 38.2741C43.5368 38.5023 43.1575 38.9863 43.0628 39.5574L42.0053 45.9H38.0832L37.029 39.5557C36.9344 38.9846 36.555 38.5007 36.0229 38.2724C35.2883 37.9528 34.5936 37.5478 33.9544 37.0655C33.4904 36.7193 32.8828 36.6322 32.3407 36.8355L26.3019 39.1L24.3421 35.7L29.3151 31.6077C29.345 31.5787 29.374 31.5471 29.4014 31.5147C29.4346 31.4832 29.4653 31.4508 29.4952 31.416C29.623 31.2782 29.726 31.1196 29.8007 30.947L29.8115 30.9279C29.882 30.7411 29.9194 30.5419 29.9202 30.3418C29.926 30.3178 29.931 30.2929 29.9335 30.2688C29.9335 30.248 29.9235 30.2314 29.9219 30.2107C29.9202 30.1899 29.9219 30.1327 29.9219 30.0937C29.8173 29.3001 29.8173 28.4966 29.9219 27.703C29.9899 27.1278 29.7608 26.5567 29.3134 26.1881L24.3421 22.1ZM3.72793 29.823C3.93047 29.4171 4.28906 29.1108 4.7207 28.973C5.59062 28.7514 6.48296 29.2445 6.75854 30.0995C7.03413 30.9536 6.59668 31.875 5.76162 32.2029C4.86763 32.4901 3.90972 31.9987 3.62251 31.1047C3.48721 30.6805 3.52456 30.2198 3.72793 29.823Z" fill="#36829D"/>
<path d="M37.5396 68H40.9395V71.4H37.5396V68Z" fill="#36829D"/>
<path d="M37.5396 74.7998H40.9395V78.1998H37.5396V74.7998Z" fill="#36829D"/>
<path d="M47.7395 47.6001H51.1395V51.0001H47.7395V47.6001Z" fill="#36829D"/>
<path d="M54.5396 47.6001H57.9395V51.0001H54.5396V47.6001Z" fill="#36829D"/>
<path d="M69.8395 17H73.2395V23.8H69.8395V17Z" fill="#36829D"/>
<path d="M69.8395 27.2002H73.2395V30.6002H69.8395V27.2002Z" fill="#36829D"/>
<path d="M69.8395 34H73.2395V37.4H69.8395V34Z" fill="#36829D"/>
</svg>
