<svg width="42" height="42" viewBox="0 0 42 42" fill="none" xmlns="http://www.w3.org/2000/svg">
<path d="M39.849 14.0692L28.3798 12.3211L23.2544 1.46098C22.7937 0.490547 21.8949 0 20.9962 0C20.1029 0 19.2104 0.483984 18.7481 1.46098L13.6212 12.3203L2.15126 14.0667C0.0943777 14.3784 -0.729941 17.0272 0.761198 18.5448L9.05845 26.994L7.09482 38.9279C6.81587 40.6325 8.11582 42 9.57169 42C9.958 42 10.3553 41.904 10.7369 41.6924L20.9978 36.0585L31.2579 41.694C31.6387 41.9032 32.0352 41.9984 32.4199 41.9984C33.8773 41.9984 35.1796 40.6358 34.9007 38.9304L32.9394 26.9957L41.2382 18.5481C42.7302 17.0305 41.9058 14.3809 39.849 14.0692ZM30.3097 24.1754L28.8899 25.6208L29.2253 27.6618L30.7548 36.9682L22.7522 32.5721L20.9985 31.6091L21.0009 5.58961L24.9995 14.0626L25.8755 15.919L27.8352 16.2176L36.786 17.5818L30.3097 24.1754Z" fill="white"/>
</svg>
