<svg width="98" height="98" viewBox="0 0 98 98" fill="none" xmlns="http://www.w3.org/2000/svg">
<g clip-path="url(#clip0)">
<path d="M93.2455 23.4314H73.8773V13.7416C73.8773 12.2204 72.644 10.9871 71.1228 10.9871H60.0614C58.5402 10.9871 57.3069 12.2204 57.3069 13.7416V16.5179H51.7545V6.82828C51.7545 5.30703 50.5212 4.07373 48.9999 4.07373H37.9386C36.4173 4.07373 35.184 5.30703 35.184 6.82828V10.9871H26.8772C25.356 10.9871 24.1227 12.2204 24.1227 13.7416V23.4314H4.75455C3.2333 23.4314 2 24.6647 2 26.1859V80.1104C2 81.6317 3.2333 82.865 4.75455 82.865H29.6534V88.4168H21.3466C19.8254 88.4168 18.5921 89.6501 18.5921 91.1714C18.5921 92.6926 19.8254 93.9259 21.3466 93.9259H76.6535C78.1748 93.9259 79.4081 92.6926 79.4081 91.1714C79.4081 89.6501 78.1748 88.4168 76.6535 88.4168H68.3467V82.865H93.2456C94.7669 82.865 96.0002 81.6317 96.0002 80.1104V26.1859C96 24.6647 94.7667 23.4314 93.2455 23.4314ZM62.816 16.4962H68.3682V41.4059H62.816C62.816 39.2043 62.816 19.6077 62.816 16.4962ZM57.3069 22.0269V41.4061H51.7545V22.0269H57.3069ZM40.6931 9.58282H46.2454V41.4059H40.6931C40.6931 37.4181 40.6931 12.1383 40.6931 9.58282ZM35.184 16.4962V41.4059H29.6318C29.6318 34.4944 29.6318 23.7987 29.6318 16.4962H35.184ZM21.3356 60.7526C21.3356 59.2218 22.5811 57.9763 24.1118 57.9763C25.6426 57.9763 26.8879 59.2218 26.8879 60.7526C26.8879 62.2834 25.6426 63.5288 24.1118 63.5288C22.5811 63.5288 21.3356 62.2834 21.3356 60.7526ZM29.6534 74.5793V77.3555H18.5702V74.5793C18.5702 71.5238 21.0561 69.0377 24.1118 69.0377C27.1676 69.0377 29.6534 71.5238 29.6534 74.5793ZM62.8375 88.417H35.1625V82.8651H62.8375V88.417ZM90.4909 77.3559C74.7048 77.3559 70.3377 77.3555 35.1625 77.3555V74.5793C35.1625 70.9651 33.4184 67.7509 30.7279 65.7335C34.8032 60.3337 30.9686 52.4673 24.112 52.4673C17.2593 52.4673 13.4174 60.3296 17.496 65.7335C14.8053 67.7509 13.0613 70.9651 13.0613 74.5793V77.3559H7.50909V28.9405H24.1227V41.4059H15.8157C14.2945 41.4059 13.0612 42.6392 13.0612 44.1605C13.0612 45.6817 14.2945 46.915 15.8157 46.915H82.1841C83.7054 46.915 84.9387 45.6817 84.9387 44.1605C84.9387 42.6392 83.7054 41.4059 82.1841 41.4059H73.8773V28.9405H90.4909V77.3559Z" fill="#36829D"/>
<path d="M82.1842 52.4673H40.704C39.1828 52.4673 37.9495 53.7006 37.9495 55.2218C37.9495 56.7431 39.1828 57.9764 40.704 57.9764H82.1843C83.7056 57.9764 84.9389 56.7431 84.9389 55.2218C84.9389 53.7006 83.7056 52.4673 82.1842 52.4673Z" fill="#36829D"/>
<path d="M82.1841 63.5288H51.7653C50.244 63.5288 49.0107 64.7621 49.0107 66.2834C49.0107 67.8046 50.244 69.0379 51.7653 69.0379H82.1841C83.7054 69.0379 84.9387 67.8046 84.9387 66.2834C84.9387 64.7621 83.7056 63.5288 82.1841 63.5288Z" fill="#36829D"/>
</g>
<rect x="2" y="2" width="94" height="94" stroke="white" stroke-width="4"/>
<defs>
<clipPath id="clip0">
<rect x="2" y="2" width="94" height="94" fill="white"/>
</clipPath>
</defs>
</svg>
