<svg width="41" height="32" viewBox="0 0 41 32" fill="none" xmlns="http://www.w3.org/2000/svg">
<path d="M40.5377 3.6884C39.0301 4.31374 37.4236 4.72864 35.7491 4.9301C37.4719 3.95726 38.7871 2.42798 39.4054 0.584901C37.7989 1.49109 36.0254 2.13066 34.1354 2.48789C32.6097 0.95112 30.4363 0 28.0642 0C23.4632 0 19.7585 3.53262 19.7585 7.86284C19.7585 8.48593 19.814 9.08506 19.9509 9.65574C13.0428 9.3367 6.92875 6.20475 2.82186 1.43342C2.10452 2.60996 1.68409 3.95726 1.68409 5.40715C1.68409 8.12945 3.16627 10.5432 5.3753 11.9399C4.04038 11.916 2.73001 11.549 1.62075 10.9716C1.62075 10.9955 1.62075 11.027 1.62075 11.0577C1.62075 14.8779 4.50119 18.0511 8.2795 18.782C7.60333 18.9572 6.86541 19.0411 6.10056 19.0411C5.56849 19.0411 5.03168 19.0127 4.52732 18.9071C5.60412 22.0203 8.65955 24.309 12.293 24.3831C9.46557 26.4756 5.87491 27.736 1.98892 27.736C1.30721 27.736 0.653999 27.7075 0 27.6282C3.68092 29.8726 8.04356 31.1548 12.7482 31.1548C28.0412 31.1548 36.4023 19.1722 36.4023 8.7855C36.4023 8.438 36.3896 8.10249 36.3722 7.76922C38.0214 6.66233 39.4078 5.27984 40.5377 3.6884Z" fill="#36829D"/>
</svg>
