<svg width="45" height="45" viewBox="0 0 45 45" fill="none" xmlns="http://www.w3.org/2000/svg">
<path d="M22.5031 0C16.0745 0 10.8195 5.25508 10.8195 11.6837C10.8195 18.1123 16.0745 23.3674 22.5031 23.3674C28.9318 23.3674 34.1868 18.1123 34.1868 11.6837C34.1868 5.25508 28.9318 0 22.5031 0Z" fill="#36829D"/>
<path d="M42.5542 32.7041C42.2481 31.9387 41.84 31.2245 41.3808 30.5612C39.0338 27.0917 35.4114 24.7958 31.3298 24.2346C30.8197 24.1836 30.2584 24.2856 29.8502 24.5917C27.7073 26.1734 25.1564 26.9897 22.5033 26.9897C19.8501 26.9897 17.2991 26.1734 15.1563 24.5917C14.7481 24.2856 14.1868 24.1326 13.6767 24.2346C9.59505 24.7958 5.92161 27.0917 3.62571 30.5612C3.16653 31.2245 2.75833 31.9898 2.45227 32.7041C2.29925 33.0102 2.35022 33.3673 2.50325 33.6735C2.91145 34.3877 3.42161 35.1021 3.88079 35.7143C4.59505 36.6837 5.36038 37.551 6.22776 38.3673C6.94202 39.0816 7.75833 39.7449 8.57473 40.4081C12.6053 43.4184 17.4523 44.9999 22.4523 44.9999C27.4523 44.9999 32.2992 43.4183 36.3298 40.4081C37.1461 39.7959 37.9624 39.0816 38.6768 38.3673C39.4931 37.551 40.3094 36.6836 41.0238 35.7143C41.5339 35.051 41.9932 34.3877 42.4013 33.6735C42.6563 33.3673 42.7073 33.0101 42.5542 32.7041Z" fill="#36829D"/>
</svg>
