<svg width="410" height="262" viewBox="0 0 410 262" fill="none" xmlns="http://www.w3.org/2000/svg">
<path opacity="0.1" d="M179.074 20.9553C204.752 30.9373 232.586 31.4015 258.44 22.0044C295.082 8.69009 342.936 5.28225 360.668 66.2951C390.932 170.534 329.017 207.741 329.017 207.741C329.017 207.741 285.79 217.493 261.856 235.113C227.857 260.142 186.221 268.509 146.999 256.772C121.917 249.266 100.42 236.951 94.2744 216.802C77.0858 160.45 87.9974 126.579 56.8899 111.722C25.7824 96.8637 43.091 41.8212 65.2143 40.5721C87.3375 39.3229 139.458 52.0901 155.582 26.6954C161.33 17.6795 170.123 17.472 179.074 20.9553Z" fill="#637C8A"/>
<path d="M0 235.186C0 235.674 0.601184 236.069 1.34187 236.069H395.936C396.677 236.069 397.278 235.674 397.278 235.186C397.278 234.699 396.677 234.303 395.936 234.303H1.34187C0.601184 234.303 0 234.699 0 235.186Z" fill="#184655"/>
<path d="M340.634 46.6871L343.149 41.4314L340.244 36.3787C339.913 35.8038 340.386 35.099 341.043 35.1862L346.82 35.9551L350.729 31.632C351.174 31.139 351.99 31.3722 352.11 32.0236L353.163 37.7544L358.483 40.134C359.088 40.4045 359.12 41.2535 358.536 41.5685L353.412 44.3431L352.793 50.1381C352.722 50.7984 351.926 51.0903 351.444 50.6329L347.222 46.6159L341.52 47.8173C340.872 47.9525 340.347 47.2851 340.634 46.6871Z" fill="#F7CC7F"/>
<path d="M231.324 21.8212L230.153 24.6297L232.244 26.9238L230.708 29.9797L233.689 31.7346L232.103 35.2674L234.65 37.2216L233.68 40.8701L232.299 40.5035L233.025 37.7751L230.338 35.7123L231.861 32.3165L228.83 30.5314L230.526 27.1606L228.483 24.9198L229.569 22.316L227.919 21.1271L228.756 19.9685L231.324 21.8212Z" fill="#9BC1F9"/>
<path d="M339.124 85.5608L340.84 88.0738L343.903 87.5684L345.629 90.5228L348.726 88.978L350.823 92.2331L353.85 91.1635L356.381 93.9649L355.32 94.9224L353.428 92.8276L350.235 93.9577L348.217 90.8289L345.069 92.3987L343.166 89.1399L340.174 89.6329L338.583 87.3032L336.688 88.0382L336.17 86.7052L339.124 85.5608Z" fill="#50BFA5"/>
<path d="M170.31 80.8975C172.666 84.3503 171.778 89.0596 168.325 91.416C164.873 93.7724 160.161 92.8825 157.805 89.4297C155.449 85.977 156.337 81.2677 159.79 78.9113C163.242 76.5549 167.953 77.4448 170.31 80.8975Z" fill="#F7CC7F"/>
<path d="M161.391 88.4353C162.651 90.281 165.17 90.7561 167.015 89.4978C168.861 88.2378 169.336 85.7194 168.076 83.8738L161.391 88.4353Z" fill="#EFEFEF"/>
<path d="M404.826 63.9646L403.483 66.3459L399.412 64.6089L397.019 67.8498L393.76 67.0472L393.352 68.697L397.713 69.7702L399.98 66.7001L404.216 68.5066L406.238 64.9221L404.826 63.9646Z" fill="#466EB6"/>
<path d="M380.867 125.383L383.458 126.2C383.458 126.2 387.531 124.82 387.922 123.982C388.314 123.144 388.401 121.118 388.983 121.056C389.565 120.994 390.691 121.168 390.978 122.548C391.186 123.55 389.752 126.474 389.987 126.78C390.133 126.972 391.608 127.483 392.694 127.841C393.407 128.076 393.927 128.693 394.046 129.444V129.446C394.126 129.955 393.845 130.453 393.37 130.644L392.631 130.939L392.879 131.703C393.062 132.27 392.758 132.888 392.197 133.084L391.626 133.283L391.816 133.748C392.06 134.346 391.736 135.033 391.122 135.219L390.622 135.373L390.645 135.506C390.738 136.063 390.396 136.604 389.857 136.754L389.36 136.891L382.46 134.714C381.814 134.509 381.216 134.173 380.705 133.726L378.407 132.552C378.16 132.425 378.044 132.133 378.133 131.866L380.168 125.748C380.262 125.454 380.575 125.29 380.867 125.383Z" fill="#FAE0B2"/>
<path d="M156.007 50.6506L155.956 46.3916L159.435 43.9338C159.832 43.6543 159.734 43.0403 159.271 42.8962L155.205 41.629L153.943 37.5604C153.799 37.0977 153.186 36.9998 152.905 37.3949L150.444 40.8726L146.185 40.8156C145.699 40.8085 145.418 41.362 145.708 41.75L148.255 45.1654L146.884 49.1983C146.728 49.6575 147.167 50.0971 147.626 49.9405L151.661 48.5754L155.075 51.124C155.461 51.4177 156.014 51.1347 156.007 50.6506Z" fill="#F7CC7F"/>
<path d="M126.848 72.7551L128.75 70.3346L127.836 67.3944C127.732 67.0598 128.056 66.7501 128.385 66.8711L131.276 67.9337L133.789 66.1557C134.075 65.9528 134.469 66.1664 134.456 66.517L134.339 69.5942L136.807 71.4345C137.089 71.6445 137.007 72.0859 136.67 72.1802L133.709 73.0185L132.721 75.9337C132.609 76.2665 132.164 76.3253 131.968 76.0334L130.254 73.4759L127.175 73.4367C126.825 73.4367 126.631 73.0309 126.848 72.7551Z" fill="#466EB6"/>
<path d="M408.386 153.037L404.696 152.242L403.728 155.624L400.058 155.001L398.736 158.119L395.913 158.101L395.904 159.53L399.679 159.553L400.934 156.599L404.752 157.247L405.702 153.92L409.046 154.641L408.386 153.037Z" fill="#F48C7F"/>
<path d="M219.848 42.8033L220.116 39.0373L216.63 38.5568L216.731 34.8353L213.457 33.9667L213.076 31.1689L211.661 31.3612L212.17 35.1022L215.272 35.9263L215.167 39.7973L218.595 40.2707L218.353 43.6825L219.848 42.8033Z" fill="#F48C7F"/>
<path d="M124.379 142.321L127.054 143.772L129.548 141.921L132.433 143.759L134.479 140.969L137.834 142.903L140.036 140.568L143.569 141.901L143.063 143.238L140.422 142.241L138.099 144.706L134.874 142.846L132.792 145.683L129.61 143.654L127.175 145.461L124.694 144.117L123.343 145.637L122.276 144.688L124.379 142.321Z" fill="#F7CC7F"/>
<path d="M305.466 13.905L304.981 16.1529L301.28 15.7738L300.165 18.9738L297.348 19.1429L297.433 20.5685L301.203 20.3425L302.257 17.3115L306.11 17.7048L306.838 14.3233L305.466 13.905Z" fill="#50BFA5"/>
<path d="M264.527 1.12481L266.444 2.39557L264.741 5.70594L267.314 7.9093L266.444 10.5932L267.802 11.0346L268.966 7.443L266.528 5.35533L268.3 1.91147L265.415 0L264.527 1.12481Z" fill="#F7CC7F"/>
<path d="M247.098 18.0133L249.264 17.2444L250.887 20.5939L254.194 19.8607L255.817 22.1708L256.986 21.3485L254.815 18.2606L251.681 18.9548L249.992 15.47L246.731 16.6268L247.098 18.0133Z" fill="#F7CC7F"/>
<path d="M136.772 113.624L139.071 113.599L139.518 117.294L142.885 117.673L143.672 120.383L145.044 119.985L143.99 116.359L140.801 116.002L140.335 112.157L136.875 112.193L136.772 113.624Z" fill="#50BFA5"/>
<path d="M387.272 64.3299C387.931 58.419 383.673 53.093 377.762 52.434C371.851 51.775 366.525 56.0325 365.866 61.9434C365.207 67.8543 369.465 73.1802 375.376 73.8392C381.287 74.4983 386.613 70.2408 387.272 64.3299Z" fill="#FFF3D9"/>
<path d="M383.624 65.298L378.895 66.0918L376.868 70.4362C376.704 70.7868 376.209 70.7975 376.03 70.454L373.814 66.2022L369.055 65.6166C368.67 65.5686 368.506 65.1023 368.779 64.8246L372.137 61.4039L371.222 56.6982C371.148 56.3173 371.543 56.0183 371.89 56.191L376.181 58.3285L380.374 56.0041C380.712 55.8154 381.12 56.0984 381.063 56.4811L380.356 61.2224L383.862 64.4918C384.149 64.7605 384.006 65.234 383.624 65.298Z" fill="#FED333"/>
<path d="M393.188 104.193L389.807 106.464C389.44 106.709 389.529 107.316 389.958 107.491L393.909 109.1L395.134 113.385C395.267 113.85 395.833 113.989 396.091 113.62L398.485 110.223L402.625 110.6C403.073 110.641 403.335 110.119 403.066 109.717L400.594 106.008L401.929 101.956C402.073 101.516 401.669 101.055 401.244 101.174L397.321 102.279L394.007 99.398C393.647 99.0866 393.137 99.3215 393.142 99.7985L393.188 104.193Z" fill="#F47458"/>
<path d="M225.792 199.268C225.792 199.268 226.103 204.78 226.105 204.792C226.219 205.492 226.671 207.222 226.671 207.857C226.671 210.247 216.037 205.828 218.42 204.769C218.635 204.673 220.102 203.408 220.171 202.594C220.28 201.341 220.223 199.346 220.223 199.346L225.792 199.268Z" fill="#F7A491"/>
<path d="M218.447 204.746C218.447 204.746 220.944 205.478 222.222 205.659C223.502 205.843 225.187 204.303 226.091 204.718C227.086 205.175 227.155 210.445 227.155 210.445C227.155 210.445 214.065 211.445 210.716 210.475C209.21 210.043 213.343 206.448 218.447 204.746Z" fill="#184655"/>
<path d="M205.289 199.268C205.289 199.268 205.601 204.78 205.602 204.792C205.716 205.492 206.168 207.222 206.168 207.857C206.168 210.247 195.534 205.828 197.917 204.769C198.133 204.673 199.599 203.408 199.669 202.594C199.777 201.341 199.72 199.346 199.72 199.346L205.289 199.268Z" fill="#F7A491"/>
<path d="M197.944 204.746C197.944 204.746 200.441 205.478 201.719 205.659C202.997 205.843 204.684 204.303 205.588 204.718C206.583 205.175 206.652 210.445 206.652 210.445C206.652 210.445 193.562 211.445 190.213 210.475C188.707 210.043 192.839 206.448 197.944 204.746Z" fill="#184655"/>
<path d="M196.291 54.6742C195.947 57.3652 195.524 57.1962 195.49 57.5414C195.449 57.9508 197.91 62.8914 197.91 62.8914C197.91 62.8914 205.072 77.498 205.485 78.274L218.223 89.0167L214.921 96.9509C214.921 96.9509 201.361 84.8894 200.758 84.133C200.155 83.3766 192.696 62.5052 191.982 60.6898C191.982 60.6898 190.357 58.8335 189.373 57.6358C188.389 56.4362 187.969 54.8575 187.743 54.4767C187.709 54.4197 187.023 53.108 186.596 51.2695C186.228 49.6838 187.282 51.0257 187.282 51.0257C187.282 51.0257 188.476 53.8448 188.675 53.7131C188.828 53.6117 188.088 52.1096 187.662 50.3601C187.552 49.9098 187.447 49.4648 187.353 49.0573C187.104 47.9841 187.673 47.5302 188.106 48.6141C188.259 48.9968 188.499 49.6393 188.606 50.1198C188.723 50.6395 188.992 51.0809 189.156 51.5045C189.48 52.3427 189.704 52.9603 189.731 52.9283C189.764 52.8873 189.942 53.0084 189.841 52.5278C189.718 51.9494 189.195 50.7765 189.079 49.9116C189.013 49.4221 188.816 48.4059 188.816 48.4059C188.816 48.4059 188.794 46.8165 188.885 46.7863C189.373 46.6172 189.684 47.7029 189.69 48.3792C189.908 48.8117 190.086 49.8849 190.086 49.8849C190.086 49.8849 190.921 51.9814 191.211 51.8693C191.334 51.8213 190.971 50.474 190.816 49.1C190.672 47.8239 190.729 46.5122 190.969 46.4481C191.379 46.3396 191.685 47.742 191.685 47.742C191.685 47.742 191.848 48.7351 191.929 49.0608C192.021 49.4435 192.382 50.5665 192.382 50.5665C192.382 50.5665 193.82 54.4197 194.084 54.2898C194.347 54.1599 194.892 53.5441 194.883 53.2735C194.874 53.0048 194.605 52.5154 194.596 52.2466C194.588 51.9779 194.801 51.6219 195.121 51.5899C195.442 51.5578 195.97 52.8482 195.97 52.8482C195.97 52.8482 196.389 53.8982 196.291 54.6742Z" fill="#F8A492"/>
<path d="M260.398 59.8716C260.247 62.5804 260.695 62.4897 260.667 62.8367C260.633 63.2479 257.317 67.6599 257.317 67.6599C257.317 67.6599 247.626 80.727 247.08 81.414L232.605 89.6685L234.413 98.069C234.413 98.069 249.935 88.6647 250.666 88.0311C251.398 87.3958 262.514 68.2241 263.546 66.5671C263.546 66.5671 265.481 65.0365 266.666 64.0363C267.852 63.0361 268.551 61.5589 268.843 61.226C268.886 61.1762 269.797 60.0105 270.551 58.2805C271.201 56.7891 269.921 57.9157 269.921 57.9157C269.921 57.9157 268.236 60.4714 268.063 60.3059C267.932 60.1778 268.932 58.8358 269.667 57.1931C269.856 56.7695 270.041 56.353 270.208 55.9668C270.648 54.9559 270.171 54.406 269.548 55.3937C269.327 55.7426 268.976 56.3299 268.782 56.7837C268.574 57.2732 268.227 57.6594 267.99 58.0456C267.521 58.8127 267.188 59.3769 267.166 59.3413C267.141 59.295 266.944 59.3822 267.131 58.9266C267.357 58.3802 268.085 57.3212 268.355 56.4919C268.508 56.022 268.887 55.0591 268.887 55.0591C268.887 55.0591 269.195 53.5001 269.113 53.4538C268.665 53.1993 268.161 54.2102 268.033 54.874C267.739 55.2603 267.369 56.2836 267.369 56.2836C267.369 56.2836 266.168 58.1933 265.904 58.0314C265.792 57.9619 266.394 56.7036 266.796 55.3795C267.17 54.1497 267.351 52.8504 267.125 52.7437C266.743 52.5621 266.187 53.8863 266.187 53.8863C266.187 53.8863 265.846 54.8331 265.709 55.1392C265.549 55.4987 264.988 56.5381 264.988 56.5381C264.988 56.5381 262.875 60.0674 262.64 59.8912C262.404 59.715 261.982 59.0102 262.039 58.7468C262.096 58.4834 262.448 58.0527 262.507 57.7893C262.564 57.5259 262.42 57.1379 262.11 57.0471C261.8 56.9582 261.046 58.131 261.046 58.131C261.046 58.131 260.441 59.0885 260.398 59.8716Z" fill="#F8A492"/>
<path d="M222.715 129.121C222.715 129.121 206.603 167.455 206.006 170.91C205.57 173.43 206.134 202.107 206.134 202.107L198.517 201.984L195.842 169.224L205.867 127.907L222.715 129.121Z" fill="#F7CC7F"/>
<path d="M229.793 130.925L222.453 173.503L227.251 201.986H218.575L211.76 171.356L210.824 137.79L214.339 126.987L229.793 130.925Z" fill="#FAE0B2"/>
<path d="M208.754 80.385C208.754 80.385 206.852 88.9599 205.513 90.2965C205.513 90.2965 212.321 94.8456 212.006 96.6485C211.691 98.4514 204.463 132.153 204.463 132.153C204.463 132.153 219.34 139.904 228.591 138.655C228.591 138.655 235.558 100.269 237.36 98.4657C239.163 96.6628 244.759 93.808 244.759 93.808C244.759 93.808 240.575 85.7742 240.575 84.3521C240.575 84.3521 230.644 88.9706 228.967 90.6472C227.29 92.3237 224.039 90.1987 223.258 89.8676C223.258 89.8694 209.948 81.1147 208.754 80.385Z" fill="#184655"/>
<path d="M227.657 82.8394L228.919 90.7167C228.919 90.7167 225.614 96.2197 222.968 95.3993C220.748 94.7105 220.939 90.3661 220.939 90.3661C220.939 90.3661 222.149 85.8704 221.786 83.6207C221.423 81.3711 227.657 82.8394 227.657 82.8394Z" fill="#F7A491"/>
<path d="M221.786 83.6207C221.423 81.3711 227.657 82.8394 227.657 82.8394L227.757 83.4979C227.575 83.9393 227.351 84.3166 227.08 84.6049C225.687 86.0928 223.512 86.9881 221.629 87.0557C221.818 85.8437 221.935 84.5427 221.786 83.6207Z" fill="#F47458"/>
<path d="M231.234 71.6963C231.411 71.6322 230.092 80.6485 227.746 83.1562C225.4 85.6639 220.83 86.4844 219.191 84.5088C217.377 82.325 217.468 72.5292 221.115 69.9503C224.763 67.3714 231.234 71.6963 231.234 71.6963Z" fill="#F7A491"/>
<path d="M228.469 66.5828C229.748 66.7323 231.986 68.5031 233.781 71.4593C235.99 75.0918 233.214 79.5537 230.642 81.5293C228.07 83.5048 228.124 85.79 228.124 85.79L227.7 84.6047C227.401 83.7113 227.278 82.7626 227.378 81.8247C227.438 81.2623 227.559 80.6536 227.794 80.1535C228.412 78.8347 228.732 78.4592 228.188 77.3628C227.768 76.5174 229.825 73.9866 229.163 72.5895L224.026 71.6195C224.026 71.6195 221.791 71.8135 220.417 70.6068C216.466 67.1452 222.498 62.5605 228.469 66.5828Z" fill="#F7CC7F"/>
<path d="M227.748 78.4825C227.73 79.5948 228.238 80.5043 228.885 80.515C229.531 80.5256 230.071 79.634 230.089 78.5216C230.106 77.4093 229.599 76.4998 228.953 76.4891C228.305 76.4784 227.766 77.3719 227.748 78.4825Z" fill="#F7A491"/>
<path d="M220.693 103.844L220.632 103.83L218.034 104.506C217.372 104.679 216.724 104.182 216.719 103.497C216.715 103.015 217.041 102.591 217.509 102.47L221.611 101.418L223.898 101.979L219.355 120.506C219.178 121.222 218.456 121.66 217.74 121.485C217.025 121.309 216.587 120.587 216.761 119.871L220.693 103.844Z" fill="white"/>
<path d="M284.489 84.8166C284.489 84.8166 280.294 66.3426 279.39 62.614C278.486 58.8871 278.676 46.338 278.659 45.7969C278.641 45.2559 284.315 40.7904 283.558 40.3099C282.802 39.8294 280.778 42.7375 280.031 42.0487C279.283 41.36 279.392 32.7156 278.758 32.9274C277.571 33.3243 278.482 38.2187 277.893 38.3041C277.304 38.3895 277.432 33.1054 276.402 32.9078C275.371 32.7103 276.763 37.9161 276.361 38.1937C275.957 38.4714 274.373 33.472 273.545 34.1359C273.095 34.4954 275.067 38.5479 274.391 38.6298C273.716 38.7117 271.709 35.8444 271.232 36.3072C270.755 36.7699 273.25 38.491 273.552 40.2868C273.857 42.0843 275.037 43.2216 274.654 46.2241C274.272 49.2248 271.193 60.2344 272.438 66.3212C273.684 72.408 276.856 85.2882 276.856 85.2882L284.489 84.8166Z" fill="#F48C7F"/>
<path d="M282.223 68.0603L272.474 71.5682L275.777 93.285L284.181 89.0028L282.223 68.0603Z" fill="#3C8F7C"/>
<path d="M304.581 63.3956C301.19 59.9731 296.025 59.368 292.153 62.1355C289.928 60.6441 287.079 60.103 284.507 60.7046C279.434 61.8917 274.67 68.0728 277.025 72.9245C276.697 77.0856 277.325 80.6398 281.191 81.8625C282.209 86.7675 288.974 90.1562 294.297 87.4563C297.556 89.6846 302.03 88.7894 305.4 86.6839C306.193 86.1873 307.016 85.2743 307.283 85.2013C307.286 85.1996 317.091 86.303 318.97 77.05C320.935 67.3645 313.113 57.9068 304.581 63.3956Z" fill="#B75742"/>
<path d="M265.428 179.18C265.67 183.435 266.49 187.26 266.609 187.712C266.666 187.929 267.368 188.789 267.432 189.013C266.405 194.032 262.952 196.645 259.791 198.417C260.726 195.94 262.477 193.187 262.365 192.594C262.185 191.651 261.553 187.372 259.781 181.862C262.233 181.891 263.278 180.467 265.428 179.18Z" fill="#F7A491"/>
<path d="M276.993 117.982L292.135 130.129C292.135 130.129 284.567 137.66 281.729 140.457C278.89 143.255 264.589 153.359 264.34 154.001C264.29 154.13 265.052 155.658 265.294 157.564C265.947 162.717 266.704 172.739 266.955 181.333C265.339 183.042 261.825 183.462 259.727 184.007C254.511 173.467 254.29 153.336 254.302 150.899C254.322 146.934 276.993 117.982 276.993 117.982Z" fill="#13375B"/>
<path d="M296.205 136.222C293.511 127.412 288.335 121.67 287.114 116.6C287.104 116.557 286.974 116.018 287.027 115.993C287.025 115.994 273.725 121.528 273.725 121.528C273.725 121.528 273.243 127.013 274.398 129.398C274.389 129.396 277.731 140.354 281.764 151.043C287.223 150.027 292.58 148.584 298.024 147.204C297.652 143.364 297.074 139.06 296.205 136.222Z" fill="#355389"/>
<path d="M272.305 102.995C272.146 100.856 271.491 97.6681 271.169 95.1159C270.991 93.717 271.506 92.3181 272.554 91.3748L280.485 84.2451C280.52 84.2362 280.378 84.2362 280.737 84.2344C283.062 84.2291 291.073 85.5265 292.585 86.007L293.529 95.0572C292.888 96.6056 290.142 123.021 292.144 125.433C293.123 126.611 271.91 128.682 270.982 126.241C270.58 125.183 272.734 108.799 272.305 102.995Z" fill="#50BFA5"/>
<path d="M285.948 80.9458C285.948 80.9458 285.669 85.5126 285.827 87.3084C285.986 89.1042 284.56 94.8618 280.926 94.8618C277.29 94.8618 279.988 87.4793 280.34 85.7209C280.691 83.9643 281.086 78.5466 281.086 78.5466L285.948 80.9458Z" fill="#F7A491"/>
<path d="M280.867 81.2092C281.923 82.528 283.597 83.2363 285.859 82.6454C285.902 81.6648 285.947 80.944 285.947 80.944L281.084 78.5466C281.086 78.5466 280.997 79.7515 280.867 81.2092Z" fill="#F47458"/>
<path d="M287.944 67.5228C287.944 67.5228 289.939 68.6939 290.656 71.2105C291.375 73.7288 290.508 80.2108 285.333 81.7485C280.157 83.2862 277.945 78.1391 279.031 74.1293C280.116 70.1177 282.457 65.0453 287.944 67.5228Z" fill="#F7A491"/>
<path d="M278.509 72.9884C278.598 74.0011 279.13 74.7788 279.694 74.7237C280.258 74.6685 280.645 73.8035 280.554 72.7891C280.465 71.7764 279.933 70.9986 279.369 71.0538C278.804 71.109 278.418 71.9739 278.509 72.9884Z" fill="#F7A491"/>
<path d="M266.632 187.842C267.031 187.084 269.8 190.026 270.463 190.634C271.208 191.32 271.19 191.982 271.153 192.128C271.055 192.512 262.042 201.557 259.593 202.651C259.362 202.755 258.908 202.7 258.78 202.628C257.572 201.954 260.617 193.991 262.477 192.582C263.678 191.67 264.837 191.257 266.632 187.842Z" fill="#184655"/>
<path d="M286.824 66.1113C286.824 66.1113 287.805 74.0046 290.238 75.4409C292.671 76.8772 291.631 80.3708 291.631 80.3708C291.631 80.3708 293.886 72.2569 291.971 69.6371C290.054 67.0172 286.824 66.1113 286.824 66.1113Z" fill="#B75742"/>
<path d="M288.917 77.0904C288.342 77.9731 288.338 79.0161 288.91 79.4219C289.481 79.8276 290.408 79.4414 290.983 78.5587C291.558 77.6759 291.562 76.633 290.99 76.2272C290.421 75.8214 289.492 76.2094 288.917 77.0904Z" fill="#F7A491"/>
<path d="M288.712 85.4858C288.712 85.4858 295.353 68.4712 297.036 64.8155C298.72 61.1617 302.465 47.0481 302.591 46.4946C302.717 45.9411 297.779 40.1996 298.654 39.8561C299.53 39.5143 301.027 42.9155 301.934 42.3584C302.842 41.8013 304.478 32.8794 305.086 33.2264C306.227 33.8743 304.301 38.7277 304.891 38.9359C305.48 39.1424 306.414 33.6785 307.516 33.682C308.616 33.6856 306.133 38.7633 306.491 39.1317C306.85 39.5001 309.491 34.6734 310.208 35.5223C310.598 35.9833 307.752 39.7564 308.43 39.9789C309.109 40.1996 311.753 37.6527 312.152 38.2258C312.549 38.7989 309.634 40.0661 308.959 41.8547C308.285 43.6434 306.839 44.576 306.626 47.744C306.414 50.9102 307.008 62.1797 304.497 68.1936C301.986 74.2074 296.474 87.5112 296.474 87.5112L288.712 85.4858Z" fill="#F48C7F"/>
<path d="M285.658 84.8468C287.778 81.4065 293.112 72.1802 293.112 72.1802C293.112 72.1802 300.3 75.7522 301.327 78.0036C301.327 78.0036 291.798 97.6451 292.729 97.8818C292.729 97.8818 284.943 86.0108 285.658 84.8468Z" fill="#50BFA5"/>
<path d="M271.799 146.344H331.811C338.911 146.344 344.668 152.099 344.668 159.201V188.631H258.944V159.201C258.944 152.099 264.7 146.344 271.799 146.344Z" fill="#355389"/>
<path d="M194.926 146.344H313.706C321.022 146.344 326.954 152.275 326.954 159.592V190.831H181.677V159.592C181.677 152.275 187.609 146.344 194.926 146.344Z" fill="#466EB6"/>
<path d="M359.252 229.304L325.561 234.303L326.361 158.93L365.605 159.088L359.252 229.304Z" fill="#355389"/>
<path d="M389.149 171.308C389.149 164.661 379.541 159.245 367.539 159.028V159.019C354.422 158.923 343.704 165.298 343.704 173.196V207.583H366.38L366.864 182.773C379.137 182.723 389.149 178.064 389.149 171.308Z" fill="#9BC1F9"/>
<path d="M181.677 160.601L153.817 160.597L153.43 214.434L192.694 214.384L181.677 160.601Z" fill="#355389"/>
<path d="M179.321 160.601C169.859 160.806 162.285 165.814 162.285 172.059C162.285 178.404 170.107 183.553 179.782 183.599L180.232 206.127H198.108V173.83C198.11 166.412 189.661 160.51 179.321 160.601Z" fill="#355389"/>
<path d="M137.857 172.057C137.857 165.814 144.904 160.727 153.703 160.523V160.514C163.321 160.423 171.18 166.412 171.18 173.828V206.126L153.014 206.168V191.982L152.92 183.54C143.921 183.498 137.857 178.404 137.857 172.057Z" fill="#9BC1F9"/>
<path d="M366.691 200.829L152.971 200.11L152.953 217.945C152.95 226.977 160.272 234.303 169.304 234.303H351.09C359.56 234.303 366.426 227.437 366.426 218.967L366.691 200.829Z" fill="#355389"/>
<path d="M353.701 214.464H165.923C158.748 214.464 152.932 210.331 152.932 205.234L153.048 190.747L366.693 190.768V205.234C366.691 210.331 360.875 214.464 353.701 214.464Z" fill="#9BC1F9"/>
<path d="M241.459 155.423L241.965 146.927L239.859 145.919C239.859 145.919 238.724 145.919 237.517 148.103C236.574 149.808 232.687 162.03 231.236 169.601L219.367 163.76C219.118 163.646 218.826 163.439 218.855 163.167C219.079 161.042 217.486 159.937 216.838 159.533C215.92 158.96 213.086 159.679 212.697 160.239C212.407 160.656 211.563 164.614 211.607 165.76C211.652 166.906 215.542 167.656 215.542 167.656C215.542 167.656 231.569 181.908 233.184 181.321C236.088 180.264 241.319 167.031 244.037 160.998C242.718 159.807 242.243 157.39 241.459 155.423Z" fill="#F48C7F"/>
<path d="M239.879 145.874C239.879 145.874 238.744 145.434 236.841 149.02C234.937 152.605 232.157 163.435 232.157 163.435L240.575 166.273L241.527 164.257L243.284 146.856L239.879 145.874Z" fill="#96D9C9"/>
<path d="M250.698 144.297C248.324 144.3 242.449 144.991 239.722 145.858C239.722 145.858 237.72 163.016 241.525 176.055C242.378 178.974 245.525 188.031 245.525 188.031L266.554 187.479C266.554 187.479 262.511 165.638 263.607 162.053C264.705 158.469 264.732 145.975 264.732 145.975C264.732 145.975 264.563 145.948 259.204 145.025C256.705 144.592 253.233 144.293 250.698 144.297Z" fill="#50BFA5"/>
<path d="M247.564 186.808C247.564 186.808 225.755 183.66 221.693 185.789C217.63 187.917 230.544 198.012 230.544 198.012C230.544 198.012 241.732 197.329 245.033 197.346C248.31 197.366 258.325 198.124 264.144 197.339C269.964 196.554 269.306 187.369 268.208 186.249C267.109 185.128 247.564 186.808 247.564 186.808Z" fill="#B75742"/>
<path d="M234.022 226.689C234.022 226.689 234.718 228.706 233.509 230.05C232.301 231.393 227.25 232.739 226.591 233.467C225.933 234.195 225.988 234.811 225.988 234.811L240.189 234.355L240.004 230.381L239.327 227.528L234.022 226.689Z" fill="#F7A491"/>
<path d="M232.632 230.722C232.632 230.722 236.293 232.066 238.049 231.246C239.806 230.425 239.751 230.199 240.263 230.498C240.776 230.797 240.989 234.561 240.989 234.561L225.023 235.188C223.911 235.172 223.459 234.396 224.358 233.741C224.973 233.292 225.566 232.885 225.972 232.666C227.214 231.991 232.632 230.722 232.632 230.722Z" fill="#3C8F7C"/>
<path d="M229.154 188.974C227.828 186.949 224.494 184.007 220.308 186.095C216.316 188.084 217.368 194.426 219.125 198.309C220.882 202.193 232.137 224.933 232.795 228.145L239.713 227.529C239.713 227.529 236.401 208.99 235.595 204.508C234.821 200.198 231.45 192.48 229.154 188.974Z" fill="#F47458"/>
<path d="M254.994 221.909C254.994 221.909 254.427 227.976 253.384 229.658C252.341 231.34 253.439 234.194 253.494 234.588C253.549 234.981 255.69 235.54 259.095 235.204C262.5 234.867 262.445 234.139 262.17 232.963C261.896 231.786 260.085 230.274 259.974 229.154C259.864 228.035 261.017 224.002 261.017 224.002L254.994 221.909Z" fill="#F7A491"/>
<path d="M259.46 236.024C262.865 235.688 262.443 234.137 262.169 232.963C261.996 232.226 261.222 231.357 260.64 230.537C260.336 230.761 259.64 231.158 258.161 231.562C256.625 231.982 254.274 231.229 252.932 230.71C252.453 232.358 252.679 234.379 252.725 234.7C252.781 235.09 256.057 236.36 259.46 236.024Z" fill="#3C8F7C"/>
<path d="M257.412 196.966C256.705 201.926 253.202 226.615 253.202 226.615L261.329 227.549C261.329 227.549 271.32 195.323 270.808 190.395C270.295 185.465 266.556 185.05 266.556 185.05C266.556 185.05 259.282 183.836 257.412 196.966Z" fill="#F47458"/>
<path d="M247.534 142.442L247.42 146.571C247.42 146.571 248.331 152.229 249.841 153.218C251.35 154.208 253.564 145.724 253.564 145.724L252.51 135.739L247.534 142.442Z" fill="#F7A491"/>
<path d="M247.456 145.31C249.705 144.42 252.432 141.131 252.505 135.79L247.534 142.442L247.456 145.31Z" fill="#F48C7F"/>
<path d="M244.437 127.702C242.961 128.005 241.141 127.261 240.936 128.873C240.767 130.212 240.963 133.326 241.055 135.522C241.226 139.568 244.503 143.613 246.455 143.505C248.407 143.396 252.65 141.175 252.492 135.426C252.424 132.963 252.337 129.729 250.088 128.491C248.338 127.526 246.133 127.355 244.437 127.702Z" fill="#F7A491"/>
<path d="M252.935 139.799C252.935 139.799 256.226 132.301 255.525 127.483C254.824 122.665 251.937 121.01 248.24 121.64C246.571 121.925 245.464 122.234 243.798 122.811C240.221 124.05 241.269 129.763 241.269 129.763C241.269 129.763 248.559 127.949 250.387 128.91C251.896 129.702 250.34 132.687 251.794 133.401C253.161 134.07 252.524 133.924 252.497 135.745C252.473 137.564 252.935 139.799 252.935 139.799Z" fill="#13375B"/>
<path d="M253.912 134.036C253.863 135.211 253.259 136.133 252.563 136.097C251.868 136.062 251.342 135.079 251.392 133.905C251.442 132.73 252.045 131.808 252.741 131.844C253.437 131.881 253.961 132.862 253.912 134.036Z" fill="#F7A491"/>
<path d="M265 147.879C262.053 146.777 261.307 178.742 261.307 178.742C258.575 180.588 250.079 186.415 248.24 187.331C247.495 187.703 245.489 188.082 244.723 188.413C243.939 188.752 243.25 189.095 242.928 189.371C242.81 189.472 240.046 193.132 239.929 193.642C239.783 194.278 239.343 195.92 239.783 196.257C240.222 196.593 241.064 193.829 241.064 193.829L241.662 192.793C241.192 194.546 239.914 197.246 240.532 197.585C241.134 197.916 242.191 195.317 242.97 193.511C242.424 195.267 242.091 198.029 242.604 198.124C243.063 198.209 243.419 195.031 244.82 193.343C245.337 192.719 246.379 192.975 246.943 192.745C247.357 192.576 248.018 192.35 248.327 192.023L249.926 190.336C250.614 190.005 251.392 189.665 252.136 189.412C253.001 189.118 254.22 188.533 255.338 188.189C261.781 186.21 263.391 185.762 265.367 185.425C267.344 185.089 268.288 179.844 268.569 171.671C268.88 162.573 270.436 149.912 265 147.879Z" fill="#F7A491"/>
<path d="M269.366 167.273C269.797 158.565 269.735 147.829 264.835 145.998C262.902 145.275 261.208 158.415 260.108 167.449C262.722 167.665 266.561 167.839 269.366 167.273Z" fill="#96D9C9"/>
<path d="M239.591 128.724C239.591 128.724 241.144 122.443 242.611 121.512C243.476 120.962 243.734 120.838 244.145 120.701C246.119 120.042 251.98 120.79 252.875 120.993C253.92 121.229 255.073 122.046 255.329 122.746C256.057 124.725 256.789 128.936 255.254 132.38C255.253 132.381 250.823 126.889 239.591 128.724Z" fill="#F47458"/>
<path d="M242.91 126.864L243.129 125.72L242.755 125.698C242.639 125.691 242.55 125.593 242.557 125.476C242.565 125.36 242.662 125.271 242.78 125.278L243.218 125.303L243.412 124.28L243.009 124.257C242.894 124.25 242.805 124.152 242.812 124.034C242.819 123.919 242.917 123.83 243.034 123.837L243.499 123.864L243.727 122.692C243.746 122.591 243.837 122.522 243.94 122.527C244.063 122.534 244.154 122.648 244.131 122.771L243.919 123.888L244.658 123.931L244.885 122.764C244.905 122.66 244.997 122.589 245.102 122.595C245.229 122.602 245.32 122.717 245.295 122.842L245.085 123.956L245.458 123.977C245.574 123.985 245.663 124.082 245.656 124.2C245.649 124.316 245.551 124.405 245.434 124.397L244.996 124.373L244.809 125.396L245.209 125.419C245.325 125.426 245.414 125.524 245.407 125.641C245.4 125.757 245.302 125.846 245.184 125.839L244.718 125.812L244.488 127.012C244.469 127.117 244.375 127.19 244.268 127.183C244.14 127.176 244.047 127.056 244.072 126.932L244.291 125.787L243.552 125.745L243.323 126.944C243.303 127.049 243.209 127.122 243.102 127.115C242.977 127.108 242.885 126.989 242.91 126.864ZM244.382 125.369L244.576 124.346L243.837 124.303L243.643 125.326L244.382 125.369Z" fill="white"/>
<path d="M247.642 123.324H247.628L247.076 123.582C246.936 123.648 246.77 123.564 246.742 123.411C246.721 123.304 246.776 123.196 246.875 123.15L247.746 122.746L248.28 122.776L248.032 127.094C248.023 127.261 247.879 127.387 247.714 127.378C247.546 127.369 247.42 127.225 247.429 127.06L247.642 123.324Z" fill="white"/>
<path d="M240.491 129.228L240.87 130.534C240.87 130.534 250.132 131.23 251.131 132.228L253.615 130.975L250.211 129.132L240.491 129.228Z" fill="#F48C7F"/>
<path d="M250.94 129.524C251.248 130.261 251.04 131.361 251.131 132.226L253.615 130.973L250.94 129.524Z" fill="#13375B"/>
<path d="M241.271 129.763C241.271 129.763 242.419 129.477 243.919 129.194L241.198 129.221C241.233 129.56 241.271 129.763 241.271 129.763Z" fill="#13375B"/>
<path d="M240.87 130.534C240.87 130.534 236.213 129.631 235.727 127.537C235.239 125.442 246.685 125.634 248.424 126.681C252.079 128.879 253.615 130.975 253.615 130.975C253.615 130.975 245.743 128.473 240.87 130.534Z" fill="#B75742"/>
<path d="M215.797 161.623C216.107 161.955 217.061 163.046 216.847 163.447C216.796 163.55 216.634 163.598 216.47 163.639C216.4 163.655 215.859 163.532 215.63 163.523C215.767 163.609 215.795 163.666 215.988 163.787C217.361 164.869 216.361 165.086 215.096 164.522C215.204 164.71 215.817 165.319 215.813 165.689C215.804 166.241 214.282 165.947 213.766 165.862C215.226 166.681 216.742 166.198 215.779 165.081C216.395 165.349 217.269 165.127 217.043 164.395C216.965 164.166 216.966 164.013 216.765 163.879C217.965 163.712 216.885 162.135 215.797 161.623Z" fill="#F47458"/>
<path d="M214.596 158.364C214.316 158.476 213.816 159.143 214.158 159.485C214.499 159.827 216.838 159.533 216.838 159.533L218.869 162.548C218.869 162.548 218.883 160.75 218.397 159.581C217.908 158.412 215.519 157.988 214.596 158.364Z" fill="#F48C7F"/>
<path d="M165.086 146.009C165.086 146.009 165.143 146.63 165.887 146.664C166.209 146.678 167.074 147.815 167.074 147.815H169.117C169.117 147.815 168.708 147.184 168.222 146.746C167.937 146.49 167.069 145.774 166.912 145.731C166.166 145.532 165.086 146.009 165.086 146.009Z" fill="#F7A491"/>
<path d="M213.588 139.198C214.662 134.113 212.191 129.071 207.47 127.179C207.502 124.285 206.323 121.382 204.289 119.401C200.276 115.493 192.007 113.804 189.056 118.786C185.158 120.928 185.404 123.587 186.568 127.813C182.789 131.612 184.171 137.834 189.679 141.081C189.592 145.345 189.478 151.775 193.317 153.598C194.239 154.036 195.68 154.644 195.862 154.835C195.622 154.614 198.706 162.954 208.285 159.136C218.059 155.241 219.96 144.277 213.588 139.198Z" fill="#355389"/>
<path d="M190.717 141.483C186.57 146.399 182.111 151.635 180.46 153.99L170.014 149.181C169.765 149.067 169.582 148.85 169.502 148.588C169.322 147.997 168.658 146.965 168.009 146.561C167.09 145.988 165.625 146.922 165.086 147.013C164.586 147.097 163.822 150.035 163.867 151.181C163.911 152.327 168.186 152.532 168.186 152.532C168.186 152.532 180.332 160.605 181.946 160.016C184.85 158.959 191.962 152.452 194.68 146.418C192.503 144.446 193.504 142.572 190.717 141.483Z" fill="#F7A491"/>
<path d="M193.637 140.078C193.637 140.078 193.42 139.231 191.421 140.078C189.423 140.926 182.526 150.647 182.526 150.647L187.403 156.931L195.979 147.557L193.637 140.078Z" fill="#B75742"/>
<path d="M189.923 145.315C191.081 143.241 192.274 141.595 192.274 141.595C193.475 139.52 196.577 138.471 196.577 138.471C196.577 138.471 197.615 138.493 198.807 138.548C198.88 138.74 198.957 138.877 199.032 138.932C199.48 139.258 202.047 138.838 203.703 139.931C209.26 144.558 207.724 166.992 207.286 174.077L193.413 174.134C193.413 174.134 192.496 158.987 189.058 155.07C186.664 152.343 188.203 148.39 189.923 145.315Z" fill="#F47458"/>
<path d="M186.119 224.239C185.97 223.974 184.042 219.471 182.467 217.465C180.18 214.552 160.403 188.181 161.217 181.761C161.573 178.958 170.141 176.582 171.159 176.413C176.612 177.121 170.883 181.667 174.98 185.404C172.315 186.287 170.746 187.389 171.321 188.113C173.625 191.018 185.867 214.414 186.399 214.717C188.769 216.063 189.7 215.44 189.7 215.44C189.7 215.44 189.154 228.601 188.024 228.185C186.894 227.768 187.796 227.231 186.119 224.239Z" fill="#F48C7F"/>
<path d="M190.702 215.522L188.415 228.781C187.901 230.497 187.036 230.479 186.815 230.247C186.36 229.774 186.151 226.234 186.096 224.221C187.129 221.149 187.031 215.369 186.394 214.715C187.947 214.744 190.701 215.228 190.702 215.522Z" fill="#B75742"/>
<path d="M185.762 184.002C182.693 179.076 181.236 179.741 175.895 177.515C173.3 177.88 169.865 178.209 164.072 182.488L175.462 190.488C175.09 189.594 182.291 186.118 185.762 184.002Z" fill="#F7A491"/>
<path d="M197.551 130.881C197.551 130.881 198.482 137.336 199.131 138.904C199.781 140.472 195.559 143.827 192.046 144.845C188.533 145.863 193.119 141.38 192.973 139.703C192.827 138.027 192.188 130.087 192.188 130.087L197.551 130.881Z" fill="#F7A491"/>
<path d="M192.366 132.365C192.263 131.051 192.188 130.089 192.188 130.089L197.549 130.882C197.549 130.882 197.684 131.641 197.834 132.714C195.661 133.938 193.707 133.55 192.366 132.365Z" fill="#F47458"/>
<path d="M195.869 119.091C195.869 119.091 197.983 119.554 199.288 121.489C200.593 123.423 201.488 129.12 197.19 131.778C192.891 134.437 189.549 130.676 189.494 127.008C189.439 123.34 190.247 118.444 195.869 119.091Z" fill="#F7A491"/>
<path d="M199.356 126.588C199.044 127.542 199.329 128.48 199.993 128.685C200.657 128.889 201.447 128.282 201.758 127.328C202.07 126.374 201.785 125.437 201.121 125.232C200.457 125.027 199.667 125.634 199.356 126.588Z" fill="#F7A491"/>
<path d="M183.152 174.514C185.525 174.302 193.379 173.531 193.379 173.531L207.309 171.718C207.309 171.718 209.771 177.413 209.867 180.987C210.036 187.239 204.093 192.507 199.012 192.205C195.986 192.025 178.865 191.662 175.523 190.462C174.832 185.369 174.038 179.85 170.493 176.185C176.17 175.429 179.931 174.8 183.152 174.514Z" fill="#3C8F7C"/>
<path d="M182.974 221.667C182.594 221.284 179.536 201.039 177.692 192.543C177.249 190.498 175.905 188.741 174.01 187.739L164.072 182.487C160.629 185.536 176.694 219.78 178.164 223.37C179.176 225.842 179.52 229.081 179.595 229.391C180.422 232.892 180.02 232.817 181.049 233.55C182.077 234.284 186.301 223.74 186.301 223.74C186.301 223.74 184.991 223.689 182.974 221.667Z" fill="#F7A491"/>
<path d="M197.969 152.051C198.304 156.947 197.038 162.607 196.305 165.389L184.308 164.458C184.343 164.084 183.791 162.975 182.834 162.778C181.775 162.559 180.319 161.923 179.837 162.084C179.356 162.242 178.771 166.14 179.209 167.199C179.646 168.258 182.985 167.854 182.985 167.854C182.985 167.854 198.476 171.634 199.788 170.523C202.146 168.525 205.316 160.279 205.773 153.678C203.05 152.589 200.961 152.106 197.969 152.051Z" fill="#F7A491"/>
<path d="M181.41 161.719C181.41 161.719 180.947 161.902 181.647 162.157C181.949 162.267 182.177 162.943 182.177 162.943L184.309 164.46C184.309 164.46 183.893 163.226 183.56 162.664C183.366 162.335 183.138 162.045 182.999 161.957C182.348 161.541 181.41 161.719 181.41 161.719Z" fill="#F7A491"/>
<path d="M197.015 144.841C197.207 142.752 198.357 140.203 200.557 139.301C201.92 138.742 202.926 139.128 204.161 139.895C205.631 140.808 205.948 142.737 206.137 144.353C206.564 148.025 206.763 151.861 206.507 155.552C203.782 154.461 200.075 155.037 197.085 154.982C196.415 151.748 196.766 147.564 197.015 144.841Z" fill="#B75742"/>
<path d="M179.593 229.393C179.593 229.393 179.472 230.742 178.915 231.865C178.358 232.99 176.477 233.723 176.991 234.303C177.505 234.883 181.65 234.303 181.65 234.303L186.547 224.197C186.741 223.833 186.63 223.404 186.274 223.139C185.703 222.715 184.653 222.112 182.999 221.693C182.998 221.692 183.067 227.869 179.593 229.393Z" fill="#F47458"/>
<path d="M167.103 148.034C167.103 148.034 167.738 148.388 167.738 149.118C167.738 149.849 168.076 150.018 168.01 150.373C167.936 150.77 167.53 151.713 167.103 151.713C166.675 151.713 165.711 151.75 165.711 151.75L166.457 147.491L167.103 148.034Z" fill="#F47458"/>
<path d="M152.806 137.317C151.341 138.445 145.615 134.401 145.615 134.401C145.615 134.401 150.074 133.563 151.383 131.833C152.692 130.102 155.605 135.16 152.806 137.317Z" fill="#B75742"/>
<path d="M150.276 127.042C150.276 127.042 151.077 134.972 151.408 135.222C151.565 135.341 152.69 135.024 154.217 134.684C155.888 134.314 158.045 133.917 159.95 134.04C163.596 134.273 167.736 136.877 167.736 136.877L169.731 123.009C169.733 123.011 153.019 121.793 150.276 127.042Z" fill="#F47458"/>
<path d="M170.639 122.326C170.578 122.765 170.173 123.073 169.733 123.013C169.293 122.952 168.985 122.546 169.046 122.107C169.106 121.667 169.512 121.359 169.952 121.42C170.393 121.48 170.701 121.886 170.639 122.326Z" fill="#184655"/>
<path d="M165.086 155.498L169.299 122.162L170.39 122.268L167.102 146.496L165.882 155.498H165.086Z" fill="#184655"/>
<path d="M165.086 147.01C165.086 147.01 167.48 148.376 167.48 149.251C167.48 150.129 167.074 150.372 167.074 150.762C167.074 151.152 167.074 151.152 167.074 151.152C167.074 151.152 166.985 151.59 166.282 151.59C165.579 151.59 163.94 151.449 163.94 151.449L165.086 147.01Z" fill="#F7A491"/>
<path d="M275.839 207.329C275.839 207.329 273.908 212.956 272.152 213.382C270.395 213.805 265.47 212.054 264.515 212.282C263.559 212.51 263.256 213.049 263.256 213.049L274.86 220.882L277.318 217.333L279.689 212.398L275.839 207.329Z" fill="#F7A491"/>
<path d="M271.046 213.439C271.046 213.439 273.303 216.619 275.216 216.936C277.13 217.253 277.211 217.037 277.464 217.573C277.717 218.109 275.341 221.948 275.341 221.948L261.88 213.343C260.973 212.7 261.405 211.271 262.518 211.241C263.279 211.219 263.998 211.219 264.456 211.267C265.864 211.419 271.046 213.439 271.046 213.439Z" fill="#13375B"/>
<path d="M299.096 222.932C299.096 222.932 300.719 228.656 299.518 230.007C298.316 231.358 293.272 232.728 292.617 233.458C291.962 234.189 292.021 234.805 292.021 234.805L306.021 234.622L306.015 230.304L305.147 224.897L299.096 222.932Z" fill="#F7A491"/>
<path d="M298.643 230.683C298.643 230.683 302.31 232.009 304.063 231.178C305.816 230.347 305.759 230.124 306.273 230.42C306.788 230.715 307.023 235.223 307.023 235.223L291.058 235.83C289.946 235.82 289.487 234.399 290.382 233.741C290.996 233.289 291.587 232.879 291.991 232.659C293.233 231.981 298.643 230.683 298.643 230.683Z" fill="#13375B"/>
<path d="M310.689 184.023C309.555 178.29 312.883 146.815 320.821 139.086C323.614 139.557 327.04 139.924 327.506 140.047C327.921 143.446 326.55 155.426 326.83 166.857C327.017 174.473 326.824 182.46 327.762 186.67C328.343 189.279 311.581 188.535 310.689 184.023Z" fill="#FAE0B2"/>
<path d="M309.892 185.473C308.108 185.473 307.45 185.228 306.261 184.87C306.261 184.87 301.806 176.366 311.338 146.742C313.649 139.564 313.232 131.443 315.453 133.664C316.194 134.405 320.214 139.071 321.093 139.219C313.319 161.217 310.562 175.603 311.527 181.778C311.915 184.274 310.493 185.489 309.892 185.473Z" fill="#F47458"/>
<path d="M314.535 193.33L292.743 187.517L279.445 214.213L273.219 209.394C273.219 209.394 282.956 174.736 285.948 172.99C294.11 168.226 316.493 184.295 316.493 184.295L314.535 193.33Z" fill="#3C8F7C"/>
<path d="M292.742 189.574C288.54 195.723 299.019 226.69 299.019 226.69L306.019 226.307C306.019 226.307 304.834 208.226 303.783 201.444C303.605 200.294 302.789 196.902 302.789 196.902C302.789 196.902 305.581 197.733 310.771 198.064C317.901 198.519 328.277 198.398 330.517 197.233C334.388 195.22 336.01 189.761 334.306 186.202C332.603 182.642 298.357 181.355 292.742 189.574Z" fill="#50BFA5"/>
<path d="M373.618 118.849C373.618 118.849 371.988 121.539 371.806 121.375C371.666 121.248 372.641 119.832 373.332 118.114C373.51 117.673 373.684 117.237 373.841 116.835C374.252 115.779 373.744 115.233 373.143 116.27C372.931 116.637 372.593 117.255 372.411 117.728C372.216 118.241 371.876 118.648 371.648 119.054C371.196 119.86 370.875 120.453 370.854 120.416C370.826 120.368 370.628 120.465 370.803 119.992C371.013 119.422 371.719 118.307 371.965 117.443C372.104 116.956 372.456 115.95 372.456 115.95C372.456 115.95 372.714 114.336 372.627 114.291C372.159 114.048 371.68 115.105 371.575 115.792C371.29 116.199 370.948 117.265 370.948 117.265C370.948 117.265 369.79 119.275 369.514 119.116C369.396 119.049 369.966 117.733 370.327 116.358C370.664 115.08 370.801 113.738 370.566 113.638C370.167 113.467 369.647 114.847 369.647 114.847C369.647 114.847 369.334 115.833 369.204 116.153C369.053 116.529 368.519 117.618 368.519 117.618C368.519 117.618 366.431 121.302 366.184 121.129C365.935 120.957 365.533 120.271 365.582 119.999C365.632 119.727 365.976 119.269 366.026 118.997C366.075 118.725 365.912 118.33 365.591 118.25C365.271 118.169 364.543 119.405 364.543 119.405C364.543 119.405 363.959 120.414 363.943 121.218C363.89 124.007 364.346 123.897 364.33 124.255C364.31 124.678 361.08 129.336 361.08 129.336C361.08 129.336 361.058 129.361 361.017 129.407L364.851 132.198C366.131 130.119 367.124 128.489 367.416 127.978C367.416 127.978 369.34 126.332 370.514 125.258C371.691 124.185 372.351 122.64 372.637 122.288C372.68 122.236 373.57 121.003 374.277 119.196C374.885 117.643 373.618 118.849 373.618 118.849Z" fill="#F8A492"/>
<path d="M308.293 93.883C308.293 93.883 307.371 96.8908 307.615 96.9175C307.802 96.9388 308.211 95.2676 309.032 93.6089C309.244 93.1817 309.452 92.7617 309.648 92.3773C310.162 91.3681 310.908 91.3842 310.532 92.5232C310.401 92.9254 310.164 93.5893 309.931 94.0396C309.68 94.5255 309.6 95.0523 309.448 95.4919C309.148 96.3657 308.92 96.9993 308.961 96.9922C309.014 96.9815 309.075 97.1951 309.311 96.7484C309.598 96.2127 309.961 94.9419 310.44 94.1855C310.712 93.7566 311.226 92.8258 311.226 92.8258C311.226 92.8258 312.259 91.5604 312.349 91.5942C312.844 91.781 312.373 92.8418 311.929 93.3793C311.815 93.8634 311.248 94.828 311.248 94.828C311.248 94.828 310.52 97.0296 310.821 97.131C310.949 97.1737 311.552 95.8745 312.339 94.6874C313.068 93.5857 313.978 92.5908 314.209 92.6994C314.603 92.8827 313.917 94.1891 313.917 94.1891C313.917 94.1891 313.391 95.079 313.237 95.3886C313.058 95.7499 312.6 96.8747 312.6 96.8747C312.6 96.8747 311.241 100.885 311.534 100.954C311.828 101.025 312.607 100.869 312.778 100.651C312.949 100.434 313.061 99.8719 313.232 99.6547C313.403 99.4358 313.805 99.2952 314.079 99.4821C314.353 99.6672 313.916 101.032 313.916 101.032C313.916 101.032 313.552 102.139 312.962 102.687C310.915 104.585 310.694 104.17 310.438 104.421C310.135 104.716 308.808 110.228 308.808 110.228C308.808 110.228 308.802 110.26 308.795 110.323L304.161 109.319C304.862 106.98 305.417 105.154 305.604 104.597C305.604 104.597 305.552 102.066 305.57 100.475C305.588 98.8841 306.302 97.3624 306.375 96.9139C306.385 96.8481 306.713 95.3637 307.59 93.632C308.352 92.1334 308.293 93.883 308.293 93.883Z" fill="#F8A492"/>
<path d="M318.589 140.625C318.589 140.625 315.368 149.793 312.716 148.472C310.064 147.152 300.991 128.259 300.843 127.524C300.695 126.791 304.166 106.331 304.166 106.331L310.114 107.792L309.858 124.089C309.858 124.089 318.226 137.665 320.435 138.692C322.644 139.721 318.589 140.625 318.589 140.625Z" fill="#F47458"/>
<path d="M323.966 116.734C323.966 116.734 327.095 114.205 328.835 118.017C328.821 117.987 330.007 117.898 330.17 117.937C330.873 118.109 331.594 118.764 332.237 119.103C334.525 120.306 335.755 122.918 336.084 125.385C336.485 128.381 335.429 130.685 333.639 133.026C333.11 133.716 332.541 134.393 331.813 134.868C330.934 135.439 330.174 135.11 329.327 135.395C328.613 135.633 328.423 136.425 327.54 136.22C326.303 135.934 324.909 134.535 323.436 134.886C321.964 135.236 318.406 134.188 318.395 134.186C313.823 132.839 316.08 124.022 316.667 120.911C317.222 117.983 321.14 115.933 323.966 116.734Z" fill="#9BC1F9"/>
<path d="M321.633 136.528L320.752 139.762L320.282 141.567C320.282 141.567 320.508 144.706 321.307 145.457C322.685 146.748 327.419 141.122 327.419 141.122L328.214 131.119L321.633 136.528Z" fill="#F7A491"/>
<path d="M327.956 134.362C326.248 137.584 322.976 139.267 320.741 139.792L321.631 136.528L328.214 131.119L327.956 134.362Z" fill="#F47458"/>
<path d="M326.006 121.105C323.231 119.718 319.876 121.238 319.036 124.175C318.671 125.451 318.278 127.067 318.007 128.852C317.358 133.148 319.029 137.635 320.985 137.895C322.941 138.155 328.714 136.085 329.724 129.996C330.345 126.239 328.916 122.56 326.006 121.105Z" fill="#F7A491"/>
<path d="M328.218 130.29C328.092 131.24 328.618 132.093 329.396 132.196C330.172 132.299 330.905 131.612 331.032 130.662C331.158 129.712 330.631 128.859 329.854 128.756C329.076 128.653 328.344 129.34 328.218 130.29Z" fill="#F7A491"/>
<path d="M322.439 132.543C322.439 132.543 325.039 133.153 325.324 134.065C325.611 134.976 325.415 136.345 324.265 137.484C323.115 138.623 320.41 138.212 319.639 137.706C318.869 137.201 318.112 134.837 318.719 133.435C319.328 132.029 322.439 132.543 322.439 132.543Z" fill="#9BC1F9"/>
<path d="M323.432 134.417C323.432 134.417 323.505 135.453 323.176 135.67C322.855 135.88 322.444 136.069 322.054 136.138C321.423 136.254 320.825 136.031 320.449 135.569C320.412 135.522 320.378 135.476 320.348 135.426C320.045 134.932 319.915 134.024 319.915 134.024C319.915 134.024 320.96 133.675 321.588 133.725C322.215 133.775 323.432 134.417 323.432 134.417Z" fill="#F7A491"/>
<path d="M366.599 130.634L362.311 126.391C362.311 126.391 354.165 138.08 350.032 140.109C346.016 142.081 332.642 141.364 332.172 141.257C330.569 140.892 327.504 140.049 327.504 140.049C327.504 140.049 321.506 175.017 326.89 187.353C328.647 191.375 339.571 188.709 339.571 188.709C339.571 188.709 336.198 173.937 336.02 172.004C335.849 170.155 334.912 155.506 335.061 155.355C335.454 154.961 350.367 151.71 354.455 148.604C358.775 145.324 366.599 130.634 366.599 130.634Z" fill="#F47458"/>
<path d="M281.559 45.0837L274.437 45.7387C269.918 46.1551 265.917 42.8287 265.502 38.3081L265.043 33.3266C264.954 32.353 265.669 31.4916 266.643 31.4008L286.605 29.5641C287.578 29.4751 288.44 30.1906 288.531 31.1641L288.99 36.1457C289.404 40.6681 286.078 44.669 281.559 45.0837Z" fill="#F47458"/>
<path d="M281.323 44.8237L274.2 45.4787C269.681 45.8951 265.68 42.5687 265.266 38.0481L264.808 33.0665C264.719 32.093 265.435 31.2316 266.408 31.1408L286.37 29.3041C287.344 29.2151 288.205 29.9306 288.296 30.9041L288.755 35.8857C289.168 40.4081 285.842 44.4072 281.323 44.8237Z" fill="#F47458"/>
<path d="M271.144 32.4632L264.851 33.5595L263.587 24.1944C263.356 22.4395 264.591 20.8288 266.348 20.5974C268.103 20.3661 269.713 21.6012 269.945 23.3579L271.144 32.4632Z" fill="#F47458"/>
<path d="M276.615 31.0288L270.258 31.8671L269.058 22.76C268.827 21.0052 270.062 19.3945 271.819 19.1631C273.574 18.9317 275.184 20.1669 275.416 21.9235L276.615 31.0288Z" fill="#F47458"/>
<path d="M282.017 30.2757L275.66 31.1139L274.46 22.0069C274.229 20.252 275.464 18.6413 277.22 18.4099C278.975 18.1786 280.586 19.4137 280.817 21.1704L282.017 30.2757Z" fill="#F47458"/>
<path d="M287.404 31.9345L281.047 32.7727L278.594 14.1546C278.363 12.3997 279.598 10.789 281.355 10.5576C283.11 10.3263 284.72 11.5614 284.952 13.3181L287.404 31.9345Z" fill="#F47458"/>
<path d="M265.974 37.9834C265.962 37.841 266.067 37.7146 266.209 37.7022C266.351 37.6897 266.478 37.7947 266.49 37.9371C266.809 41.3988 269.631 44.104 273.093 44.2749C273.958 44.3176 273.915 44.2482 281.211 43.5986C283.069 43.4277 284.749 42.5431 285.943 41.1087C286.034 40.9983 286.198 40.9841 286.308 41.0748C286.418 41.1656 286.432 41.3293 286.342 41.4397C285.06 42.981 283.256 43.9314 281.259 44.1147L274.136 44.7696C269.989 45.1505 266.353 42.0911 265.974 37.9834Z" fill="#B75742"/>
<path d="M265.075 30.0303L264.294 24.1019C264.114 22.7368 265.075 21.4838 266.44 21.3041C267.818 21.1225 269.058 22.0925 269.238 23.4505L270.019 29.3789C270.199 30.7422 269.236 31.9969 267.873 32.1767C266.513 32.3547 265.255 31.3954 265.075 30.0303ZM266.508 21.8167C265.428 21.959 264.664 22.9521 264.806 24.0325L265.588 29.9609C265.73 31.0412 266.725 31.8029 267.804 31.6606C268.884 31.5182 269.646 30.5233 269.503 29.4447L268.722 23.5163C268.583 22.4378 267.595 21.6743 266.508 21.8167Z" fill="#B75742"/>
<path d="M270.545 28.5939L269.763 22.6655C269.56 21.1188 270.806 19.7715 272.362 19.8481C273.563 19.9068 274.549 20.8181 274.708 22.0141L275.489 27.9425C275.653 29.1794 274.868 30.3541 273.665 30.6762C272.202 31.0677 270.74 30.0782 270.545 28.5939ZM271.979 20.382C270.897 20.5244 270.135 21.5157 270.279 22.5978L271.061 28.5262C271.216 29.6991 272.371 30.4875 273.533 30.1761C274.485 29.9216 275.106 28.9908 274.978 28.0101L274.197 22.0817C274.053 21.0014 273.067 20.2396 271.979 20.382Z" fill="#B75742"/>
<path d="M278.297 30.005C277.117 29.9463 276.108 29.051 275.949 27.839L275.168 21.9106C275.081 21.2503 275.257 20.5971 275.663 20.0685C277.008 18.3155 279.822 19.0523 280.112 21.261L280.894 27.1894C281.073 28.5527 280.111 29.8074 278.747 29.9872C278.594 30.0068 278.443 30.0139 278.297 30.005ZM277.38 19.6289C276.3 19.7713 275.538 20.7644 275.681 21.8447L276.462 27.7732C276.604 28.8535 277.599 29.6152 278.678 29.4728C279.758 29.3305 280.52 28.3356 280.378 27.257L279.596 21.3286C279.456 20.2483 278.468 19.4848 277.38 19.6289Z" fill="#B75742"/>
<path d="M285.961 28.7697C285.838 28.7644 285.733 28.6701 285.717 28.5455L283.733 13.478C283.503 11.732 281.269 11.1482 280.207 12.5329C279.887 12.9511 279.748 13.4708 279.815 13.9941L281.526 26.9739C281.545 27.1163 281.444 27.2463 281.303 27.264C281.161 27.2818 281.031 27.1822 281.013 27.0416L279.303 14.0617C279.216 13.4014 279.392 12.7465 279.798 12.2179C281.14 10.4684 283.959 11.207 284.249 13.4103L286.233 28.4761C286.251 28.6185 286.151 28.7484 286.011 28.7662C285.991 28.7697 285.975 28.7697 285.961 28.7697Z" fill="#B75742"/>
<path d="M281.723 37.6284L281.825 31.6342L278.628 31.4758C277.251 31.4081 276.188 30.2353 276.256 28.8577C276.325 27.4588 277.53 26.3892 278.929 26.4889L285.824 26.9534C287.257 27.0495 288.382 28.217 288.426 29.6515L288.684 37.9719L281.723 37.6284Z" fill="#F47458"/>
<path d="M287.664 37.2079C287.531 37.2008 287.422 37.0923 287.418 36.957L287.194 29.6902C287.169 28.884 286.545 28.2361 285.74 28.1827L278.842 27.7182C278.831 27.7182 278.822 27.7164 278.811 27.7164C278.114 27.6826 277.518 28.2219 277.484 28.9213C277.45 29.619 277.989 30.2152 278.687 30.2508L282.823 30.4555C282.962 30.4626 283.072 30.5783 283.069 30.7189L282.967 36.7132C282.965 36.8556 282.846 36.9695 282.704 36.9677C282.561 36.9659 282.448 36.8467 282.449 36.7043L282.545 30.961L278.66 30.7687C277.676 30.7207 276.916 29.8806 276.964 28.8964C277.014 27.8998 277.875 27.1309 278.876 27.2021L285.772 27.6666C286.844 27.7396 287.677 28.6028 287.71 29.676L287.935 36.9428C287.938 37.0851 287.826 37.2062 287.684 37.2097C287.678 37.2079 287.671 37.2079 287.664 37.2079Z" fill="#B75742"/>
<path d="M272.511 40.6851L272.371 38.5886L271.71 38.7221C271.506 38.763 271.306 38.6313 271.265 38.4266C271.224 38.2219 271.356 38.0226 271.561 37.9817L272.333 37.8251L272.205 35.9545L271.495 36.0969C271.29 36.1378 271.091 36.0061 271.05 35.8015C271.009 35.5968 271.141 35.3975 271.345 35.3565L272.169 35.191L272.032 33.0464C272.02 32.8613 272.146 32.6975 272.328 32.6602C272.547 32.6157 272.755 32.7741 272.769 32.9965L272.91 35.0415L274.218 34.7781L274.083 32.6388C274.07 32.4519 274.2 32.2829 274.383 32.2455C274.606 32.201 274.818 32.3612 274.834 32.589L274.974 34.6268L275.635 34.4933C275.839 34.4524 276.039 34.5841 276.08 34.7888C276.121 34.9934 275.989 35.1928 275.784 35.2337L275.012 35.3903L275.152 37.2591L275.862 37.1167C276.067 37.0758 276.266 37.2075 276.307 37.4122C276.348 37.6168 276.217 37.8162 276.012 37.8571L275.188 38.0226L275.336 40.2188C275.348 40.4093 275.218 40.5801 275.03 40.6175C274.803 40.6638 274.59 40.4983 274.574 40.2687L274.433 38.1721L273.125 38.4355L273.273 40.6318C273.285 40.8222 273.155 40.993 272.969 41.0304C272.743 41.0803 272.527 40.9147 272.511 40.6851ZM274.398 37.4086L274.27 35.5381L272.961 35.8015L273.09 37.672L274.398 37.4086Z" fill="white"/>
<path d="M279.15 32.3562L279.125 32.3615L278.281 33.0628C278.066 33.2407 277.74 33.1695 277.619 32.9186C277.534 32.7406 277.58 32.527 277.733 32.4025L279.066 31.3008L280.009 31.1104L281.549 38.7491C281.608 39.0446 281.417 39.3311 281.122 39.3916C280.826 39.4504 280.54 39.2599 280.479 38.9645L279.15 32.3562Z" fill="white"/>
<path d="M158.901 49.1292C160.019 48.6131 161.434 48.1236 162.685 48.2535C163.684 48.3585 163.545 49.4015 163.477 50.1437C163.399 50.9997 163.29 51.9644 163.815 52.7119C164.438 53.6017 165.627 53.753 166.618 53.5199C167.88 53.2227 169.268 52.1833 169.941 52.808C170.618 53.4362 170.329 54.7159 170.498 55.7802C170.673 56.8819 171.447 57.6596 172.499 57.9693C173.46 58.2523 174.48 58.1669 175.467 58.1918C175.985 58.206 175.822 58.2523 176.176 59.418C176.56 60.6781 177.162 62.0325 177.911 63.2196C178.288 63.8176 178.667 64.5527 179.386 64.752C179.655 64.8268 179.977 64.6114 179.96 64.316C179.897 63.3175 179.301 63.3762 178.126 60.913C176.784 58.0974 177.551 56.9192 175.175 56.9264C174.14 56.9299 173.07 56.9762 172.392 56.59C171.07 55.8371 171.967 53.6961 170.918 52.3096C170.048 51.1563 168.686 51.6048 167.563 52.0854C166.764 52.4253 165.289 53.0874 164.618 52.1441C164.125 51.4536 164.449 50.343 164.467 49.5652C164.493 48.4547 164.015 47.4722 162.804 47.3459C161.76 47.2355 159.955 47.5932 158.512 48.4635C158.084 48.727 158.46 49.3339 158.901 49.1292Z" fill="#F7CC7F"/>
<path d="M339.93 41.5736C339.203 40.7371 338.911 40.1516 337.305 38.9555C333.386 36.0385 329.289 38.8488 328.513 42.7055C328.106 44.7273 328.592 45.6653 328.319 46.7438C328.223 47.1265 327.974 47.6123 327.545 47.6853C327.045 47.7707 326.447 47.2422 326.034 46.993C324.874 46.2882 323.614 45.6493 322.252 45.4731C320.942 45.304 319.62 45.7187 318.707 46.6904C316.858 48.6588 317.146 51.3321 315.783 54.3488C315.599 54.7546 316.019 55.3739 316.477 55.0429C318.582 53.5212 318.064 50.8248 319.271 48.6268C319.755 47.744 320.513 47.0642 321.567 47.0446C324.402 46.9894 326.55 50.3496 328.64 48.8706C329.811 48.0413 329.992 46.6477 329.933 45.3147C329.88 44.1098 329.923 42.9102 330.462 41.8032C331.528 39.6176 333.837 38.6049 336.148 40.059C337.097 40.6552 337.134 40.9453 339.258 42.4457C339.801 42.8283 340.32 42.0221 339.93 41.5736Z" fill="#F7CC7F"/>
<path d="M290.876 0.726318L289.784 5.51746L294.363 2.18751L290.876 0.726318Z" fill="#F7CC7F"/>
<path d="M115.067 125.12L113.031 187.995H21.179L17.292 125.12H115.067Z" fill="#355389"/>
<path d="M79.0695 185.224H73.3778V196.442H79.0695V185.224Z" fill="#13375B"/>
<path d="M49.6037 185.224H43.912V196.442H49.6037V185.224Z" fill="#13375B"/>
<path d="M110.21 199.58L107.071 196.44H34.3688L31.2292 199.58H110.21Z" fill="#13375B"/>
<path d="M62.5462 206.578H16.338V215.542H62.5462V206.578Z" fill="#355389"/>
<path d="M112.97 235.198H137.079V199.578H112.97V235.198Z" fill="#F47458"/>
<path d="M12.9589 235.198H37.0676L37.0676 199.578H12.9589L12.9589 235.198Z" fill="#F47458"/>
<path d="M11.8289 217.389H112.971V215.525H11.8289V217.389Z" fill="#B75742"/>
<path d="M9.25488 202.003H112.971V199.579H9.25488V202.003Z" fill="#B75742"/>
<path d="M9.25528 235.198H12.959L12.959 199.578H9.25528L9.25528 235.198Z" fill="#B75742"/>
<path d="M12.9591 235.2H112.971V232.144H12.9591V235.2Z" fill="#B75742"/>
<path d="M16.3381 215.542H48.2797V206.577H16.3381V215.542Z" fill="#184655"/>
<path d="M113.031 187.995L115.067 125.119H17.292L118.34 123.019L115.067 188.075L113.031 187.995Z" fill="#466EB6"/>
<path d="M112.971 235.198H115.752V199.578H112.971V235.198Z" fill="#B75742"/>
<path d="M31.9358 209.94C32.1316 208.393 31.902 206.751 31.8308 205.195C31.7614 203.688 31.7027 202.178 31.6706 200.669C31.6048 197.574 31.6315 194.477 31.724 191.384C31.8184 188.291 31.9999 185.198 32.2722 182.115C32.5107 179.428 32.8364 176.578 34.4186 174.305C35.1554 173.246 36.2144 172.323 37.4407 171.883C38.9268 171.349 40.5036 171.682 42.0396 171.673C42.9223 171.668 42.9223 170.281 42.0396 170.303C40.5517 170.34 39.0389 170.089 37.5795 170.491C36.3924 170.821 35.3174 171.511 34.4542 172.383C32.5071 174.35 31.7009 177.025 31.3343 179.703C30.9018 182.854 30.7487 186.059 30.6117 189.232C30.4711 192.514 30.4426 195.798 30.5245 199.082C30.569 200.893 30.6437 202.705 30.7505 204.513C30.8039 205.419 30.8769 206.323 30.9587 207.226C31.0424 208.169 31.0922 209.103 31.3716 210.013C31.4695 210.348 31.8967 210.25 31.9358 209.94Z" fill="#184655"/>
<path d="M84.4266 150.064V187.995H42.9063L41.4006 150.064H84.4266Z" fill="#13375B"/>
<path d="M60.1577 182.749C59.6006 184.077 59.4849 185.552 59.3301 186.974C59.1699 188.439 59.0987 189.907 59.0471 191.379C58.9457 194.252 58.9314 197.128 58.7339 199.997C58.426 204.476 57.6126 210.191 53.1436 212.459C51.177 213.457 48.5554 213.646 46.7774 212.154C46.0352 211.533 44.9602 212.606 45.7095 213.222C47.5071 214.699 49.8599 215.014 52.074 214.406C54.4197 213.761 56.3116 212.192 57.5663 210.131C58.9421 207.872 59.5205 205.234 59.8266 202.638C60.1844 199.602 60.1933 196.533 60.2342 193.479C60.2591 191.712 60.3107 189.948 60.3891 188.184C60.4691 186.405 60.7931 184.607 60.7343 182.829C60.7237 182.473 60.2805 182.453 60.1577 182.749Z" fill="#184655"/>
<path d="M73.3814 183.627H51.1538C48.7262 183.627 46.7578 181.659 46.7578 179.231V177.233H77.7792V179.231C77.7792 181.659 75.8108 183.627 73.3814 183.627Z" fill="#184655"/>
<path d="M73.3814 182.581H51.1538C48.7262 182.581 46.7578 180.612 46.7578 178.185V176.186H77.7792V178.185C77.7792 180.612 75.8108 182.581 73.3814 182.581Z" fill="#355389"/>
</svg>
