<svg width="394" height="294" viewBox="0 0 394 294" fill="none" xmlns="http://www.w3.org/2000/svg">
<path opacity="0.1" d="M177.26 274.708C204.265 264.243 233.537 263.757 260.727 273.608C299.263 287.567 349.589 291.14 368.237 227.175C400.065 117.892 334.951 78.8842 334.951 78.8842C334.951 78.8842 289.491 68.6605 264.32 50.1876C228.564 23.9479 184.776 15.1763 143.528 27.4811C117.15 35.3507 94.5422 48.2608 88.0788 69.3846C70.0021 128.463 81.4775 163.973 48.7627 179.55C16.0478 195.127 34.2508 252.833 57.5171 254.142C80.7835 255.452 135.597 242.067 152.554 268.69C158.6 278.142 167.847 278.36 177.26 274.708Z" fill="#637C8A"/>
<path d="M394 258.367H0V258.565H394V258.367Z" fill="#EBEBEB"/>
<path d="M354.521 271.063H328.423V271.26H354.521V271.063Z" fill="#EBEBEB"/>
<path d="M261.001 273.209H254.154V273.406H261.001V273.209Z" fill="#EBEBEB"/>
<path d="M327.635 263.741H312.513V263.938H327.635V263.741Z" fill="#EBEBEB"/>
<path d="M75.3722 265.066H41.3385V265.264H75.3722V265.066Z" fill="#EBEBEB"/>
<path d="M87.3813 265.066H82.3932V265.264H87.3813V265.066Z" fill="#EBEBEB"/>
<path d="M177.418 268.396H103.598V268.593H177.418V268.396Z" fill="#EBEBEB"/>
<path d="M186.764 223.177H34.609C32.1268 223.177 30.1095 221.157 30.1095 218.671V4.50535C30.1095 2.01991 32.1268 0 34.609 0H186.772C189.254 0 191.271 2.01991 191.271 4.50535V218.671C191.263 221.157 189.246 223.177 186.764 223.177ZM34.609 0.197257C32.2371 0.197257 30.3065 2.13038 30.3065 4.50535V218.671C30.3065 221.046 32.2371 222.98 34.609 222.98H186.772C189.144 222.98 191.074 221.046 191.074 218.671V4.50535C191.074 2.13038 189.144 0.197257 186.772 0.197257H34.609Z" fill="#EBEBEB"/>
<path d="M357.208 223.177H205.045C202.563 223.177 200.546 221.157 200.546 218.671V4.50535C200.546 2.01991 202.563 0 205.045 0H357.208C359.691 0 361.708 2.01991 361.708 4.50535V218.671C361.708 221.157 359.691 223.177 357.208 223.177ZM205.045 0.197257C202.674 0.197257 200.743 2.13038 200.743 4.50535V218.671C200.743 221.046 202.674 222.98 205.045 222.98H357.208C359.58 222.98 361.511 221.046 361.511 218.671V4.50535C361.511 2.13038 359.58 0.197257 357.208 0.197257H205.045Z" fill="#EBEBEB"/>
<path d="M115.726 185.927H59.6201V256.15H115.726C121.155 256.15 125.591 251.708 125.591 246.272V195.805C125.591 190.369 121.155 185.927 115.726 185.927Z" fill="#F0F0F0"/>
<path d="M60.085 185.927H59.1551C53.7258 185.927 49.2894 190.369 49.2894 195.805V246.272C49.2894 251.708 53.7258 256.15 59.1551 256.15H60.085C65.5143 256.15 69.9507 251.708 69.9507 246.272V195.805C69.9507 190.369 65.5064 185.927 60.085 185.927Z" fill="#F5F5F5"/>
<path d="M67.1319 256.145H140.361V211.826H67.1319V256.145Z" fill="#F0F0F0"/>
<path d="M61.1173 258.367H193.099C194.218 258.367 195.125 257.46 195.125 256.34V256.15H115.757L59.0921 256.34C59.0921 257.46 59.9983 258.367 61.1173 258.367Z" fill="#E0E0E0"/>
<path d="M118.925 156.788H187.063C194.66 156.788 200.286 162.958 199.616 170.564L195.124 221.843H99.4692L103.961 170.564C104.623 162.958 111.321 156.788 118.925 156.788Z" fill="#E0E0E0"/>
<path d="M108.161 156.788H177.623C184.857 156.788 190.207 162.658 189.569 169.901L185.022 221.843H89.3671L93.9138 169.901C94.5442 162.666 100.927 156.788 108.161 156.788Z" fill="#F5F5F5"/>
<path d="M73.0003 207.783H131.005C134.433 207.783 137.214 210.568 137.214 214V219.61C137.214 223.043 134.433 225.828 131.005 225.828H73.0003C68.0201 225.828 63.9855 221.788 63.9855 216.801C63.9855 211.823 68.0201 207.783 73.0003 207.783Z" fill="#E0E0E0"/>
<path d="M196.787 185.927H140.682V256.15H196.787C202.217 256.15 206.653 251.708 206.653 246.272V195.805C206.653 190.369 202.217 185.927 196.787 185.927Z" fill="#F0F0F0"/>
<path d="M141.147 185.927H140.217C134.787 185.927 130.351 190.369 130.351 195.805V246.272C130.351 251.708 134.787 256.15 140.217 256.15H141.147C146.576 256.15 151.012 251.708 151.012 246.272V195.805C151.012 190.369 146.568 185.927 141.147 185.927Z" fill="#F5F5F5"/>
<path d="M295.508 147.319H241.569V258.359H295.508V147.319Z" fill="#BED6D0"/>
<path d="M249.634 249.716L249.634 155.971H248.389L248.389 249.716H249.634Z" fill="#BED6D0"/>
<path d="M287.549 155.975H248.385V157.553H287.549V155.975Z" fill="#BED6D0"/>
<path d="M350.692 147.319H296.753V258.359H350.692V147.319Z" fill="#BED6D0"/>
<path d="M350.696 258.367H357.835V147.327H350.696V258.367Z" fill="#BED6D0"/>
<path d="M304.82 249.714V155.969H303.575V249.714H304.82Z" fill="#BED6D0"/>
<path d="M296.755 258.364V148.586H295.51V258.364H296.755Z" fill="#BED6D0"/>
<path d="M342.741 155.975H303.577V157.553H342.741V155.975Z" fill="#BED6D0"/>
<path d="M293.144 171.89H290.465V196.428H293.144V171.89Z" fill="#BED6D0"/>
<path d="M301.796 171.89H299.117V196.428H301.796V171.89Z" fill="#BED6D0"/>
<path d="M335.775 31.5374H83.3146V129.764H335.775V31.5374Z" fill="#3C8F7C"/>
<path d="M333.46 31.5374H80.9999V129.764H333.46V31.5374Z" fill="#3C8F7C"/>
<path d="M325.887 121.503V39.7988L88.5737 39.7988V121.503L325.887 121.503Z" fill="#FAFAFA"/>
<path d="M127.098 121.495L142.824 39.7986H177.537L161.811 121.495H127.098Z" fill="white"/>
<path d="M176.459 121.495L192.184 39.7986H209.545L193.819 121.495H176.459Z" fill="white"/>
<path d="M282.436 121.495L298.168 39.7986H315.521L299.796 121.495H282.436Z" fill="white"/>
<path d="M197 294C281.381 294 349.785 290.001 349.785 285.068C349.785 280.135 281.381 276.136 197 276.136C112.619 276.136 44.2147 280.135 44.2147 285.068C44.2147 290.001 112.619 294 197 294Z" fill="#F5F5F5"/>
<path d="M130.816 47.8862C132.802 43.3256 115.214 39.1832 109.895 53.2279C105.072 65.9629 97.0659 69.2058 100.833 78.0192C104.906 87.5665 127.963 88.7106 137.971 78.1297C146.087 69.5529 137.27 65.9471 138.412 57.8753C139.539 49.8193 137.151 47.184 130.816 47.8862Z" fill="#263238"/>
<path d="M98.768 75.1944C97.8539 70.2235 99.6978 68.1721 102.022 65.5762C104.15 63.2091 106.798 60.2581 108.248 53.9301C109.422 48.7935 112.928 45.4323 118.121 44.4696C123.322 43.507 128.83 45.2034 130.28 47.3733C130.761 48.0834 130.784 48.8409 130.359 49.5115L129.697 49.0855C129.949 48.683 129.926 48.2728 129.626 47.8151C128.334 45.8899 123.086 44.3513 118.263 45.2508C114.82 45.8899 110.423 47.9493 109.012 54.1116C107.515 60.6447 104.796 63.6746 102.606 66.1127C100.336 68.6455 98.6892 70.4681 99.5402 75.0603L98.768 75.1944Z" fill="#263238"/>
<path d="M87.9329 71.4228L87.4444 69.8527C87.1134 68.7796 86.4988 67.817 85.6793 67.0516L84.1269 65.6156C83.1025 64.6609 81.5423 64.582 80.4233 65.4183L78.7291 66.6808C77.4368 67.6513 77.1768 69.4897 78.1618 70.7758L79.2492 72.1961C79.2492 72.1961 81.7944 76.5121 85.4901 78.0191L86.3412 77.2932C86.357 77.2853 86.3727 77.2695 86.3806 77.2538C88.0354 75.8256 88.587 73.498 87.9329 71.4228Z" fill="#FFC3BD"/>
<path d="M118.563 98.8102L118.058 99.1968L117.648 99.4966L116.853 100.049C116.325 100.396 115.797 100.728 115.261 101.035C114.189 101.659 113.086 102.211 111.951 102.716C109.674 103.702 107.239 104.475 104.662 104.886C102.093 105.328 99.359 105.359 96.6482 104.933C95.2929 104.712 93.9533 104.381 92.661 103.899C92.3379 103.789 92.0148 103.663 91.6996 103.529L91.2268 103.331L90.9904 103.229L90.7304 103.11L90.3994 102.953C89.572 102.527 88.9574 102.037 88.5082 101.619C88.0354 101.177 87.7044 100.783 87.3971 100.404C86.2624 98.9049 85.7581 97.6819 85.2538 96.4983C84.781 95.3227 84.4185 94.2102 84.0954 93.1134C83.4886 90.912 83.0237 88.7895 82.6691 86.667C81.952 82.4142 81.5423 78.256 81.4635 73.9637C81.432 72.2041 82.8346 70.7444 84.5918 70.7129C85.9866 70.6892 87.1922 71.565 87.6493 72.8117L87.6808 72.8985C89.0519 76.6779 90.3679 80.5442 91.7626 84.2289C92.4718 86.0595 93.1732 87.8821 93.9612 89.5391C94.3394 90.3676 94.7334 91.1645 95.1274 91.8431C95.5056 92.5137 95.9784 93.1134 96.1282 93.2081C96.1518 93.216 96.1597 93.2002 96.0809 93.1055C96.01 93.0345 95.8208 92.8451 95.4505 92.6479L95.3008 92.569C95.2614 92.5453 95.1589 92.5137 95.2141 92.5295L95.3402 92.5611L95.5923 92.6242C95.7578 92.6715 95.9233 92.7189 96.0888 92.7426C96.7507 92.9004 97.4284 92.9319 98.106 92.9872C99.4614 93.0582 100.872 92.8846 102.322 92.5453C103.764 92.1902 105.253 91.6774 106.719 90.983C107.452 90.6516 108.177 90.265 108.886 89.8784C109.24 89.6811 109.587 89.476 109.918 89.2708L110.738 88.758L111.352 88.3792C114.331 86.525 118.239 87.4482 120.091 90.4307C121.825 93.216 121.108 96.8455 118.563 98.8102Z" fill="#FFC3BD"/>
<path d="M132.416 281.62C137.404 279.979 141.611 276.602 140.76 270.676C140.398 268.136 148.53 267.142 148.53 267.142C147.6 275.213 148.617 276.571 149.586 278.433C150.563 280.303 150.5 282.48 148.814 282.685C146.797 282.922 146.347 282.701 143.842 283.033C140.918 283.419 139.019 284.958 133.156 284.958C129.949 284.958 130.816 282.149 132.416 281.62Z" fill="#F47458"/>
<path d="M147.553 195.411C148.128 154.981 144.385 132.944 144.385 132.944L114.512 134.435C114.512 134.435 118.933 171.425 126.773 198.67C128.87 213.29 133.59 238.019 136.86 254.628C142.021 254.107 147.198 253.215 151.178 251.913C152.344 237.316 152.549 216.21 147.553 195.411Z" fill="#2E4661"/>
<path d="M148.199 271.103C148.199 271.103 149.365 263.465 150.153 251.913C146.749 253.215 142.321 254.107 137.9 254.628C139.602 264.719 140.816 271.134 140.816 271.134C142.297 271.86 146.064 272.112 148.199 271.103Z" fill="#FFC3BD"/>
<path d="M135.252 249.791C135.52 251.18 136.237 254.659 136.954 255.882C137.041 256.024 137.183 256.127 137.356 256.143C142.927 256.845 148.491 255.724 150.792 254.714C150.918 254.659 151.02 254.557 151.067 254.423C151.69 252.758 151.926 249.231 151.989 247.747C152.005 247.4 151.698 247.132 151.359 247.203C149.531 247.566 143.968 248.568 135.733 249.16C135.418 249.183 135.189 249.475 135.252 249.791Z" fill="#263238"/>
<path d="M114.922 86.8958C110.493 87.7163 103.74 91.4327 103.74 91.4327C103.74 91.4327 100.186 99.9542 104.442 106.093C108.634 107.079 110.769 106.274 110.769 106.274L114.922 86.8958Z" fill="#F47458"/>
<path opacity="0.2" d="M104.442 106.093C108.634 107.079 110.769 106.274 110.769 106.274L110.619 94.7703C107.751 98.6128 105.379 102.416 104.442 106.093Z" fill="#F47458"/>
<path opacity="0.2" d="M147.395 171.559C144.054 163.376 140.461 156.638 139.082 150.484C136.734 167.219 138.578 182.613 147.569 193.644C147.671 185.501 147.585 178.131 147.395 171.559Z" fill="black"/>
<path d="M193.036 235.722L181.114 244.212C171.382 231.517 156.788 212.123 153.258 203.68C144.291 182.258 126.261 135.058 126.261 135.058L149.665 129.614C149.665 129.614 164.432 143.343 173.959 195.15C181.957 206.473 188.671 223.169 193.036 235.722Z" fill="#2E4661"/>
<path d="M192.374 275.963C195.345 270.148 195.385 263.741 192.177 258.691C190.798 256.529 197.804 252.26 197.804 252.26C200.278 260.001 202.295 260.451 204.013 261.642C205.786 262.873 205.904 265.429 204.454 266.305C202.713 267.355 202.043 268.041 200.507 270.045C198.71 272.389 197.701 275.663 195.125 277.691C193.486 278.985 191.066 278.511 192.374 275.963Z" fill="#F47458"/>
<path d="M199.104 255.803C199.104 255.803 197.047 248.56 193.005 237.711C190.444 240.299 186.772 242.934 182.958 245.238C188.655 253.728 192.824 259.827 192.824 259.827C195.361 259.03 197.575 257.602 199.104 255.803Z" fill="#2E4661"/>
<path d="M178.561 241.932C179.372 243.084 181.461 245.964 182.619 246.777C182.761 246.871 182.934 246.903 183.092 246.856C188.458 245.199 193.06 241.877 194.746 240.007C194.841 239.904 194.888 239.77 194.88 239.628C194.762 237.853 193.525 234.547 192.973 233.166C192.847 232.843 192.453 232.724 192.178 232.929C190.665 234.01 186.007 237.222 178.75 241.159C178.466 241.309 178.372 241.672 178.561 241.932Z" fill="#2E4661"/>
<path d="M108.161 98.6998C109.233 105.675 105.072 111.095 111.463 114.315C110.399 119.617 111.975 130.229 114.512 134.435C118.058 136.368 135.449 133.512 149.657 129.614C149.452 123.538 144.456 111.585 145.843 91.6853C146.166 87.0695 142.423 83.1954 137.805 83.3611C136.568 83.4084 135.268 83.4794 133.944 83.5978C128.783 84.0554 124.559 84.4657 120.107 85.4994C118.633 85.8386 117.113 86.241 115.663 86.6513C110.446 88.1268 107.341 93.3344 108.161 98.6998Z" fill="#F47458"/>
<path d="M118.208 93.3579C118.208 93.3579 122.652 91.7246 124.993 95.7329C128.87 93.5472 134.338 84.3077 133.944 83.6055C127.443 85.3808 118.208 93.3579 118.208 93.3579Z" fill="white"/>
<path d="M118.208 93.3578C118.208 93.3578 114.827 92.9554 113.874 95.9458C113.905 90.0281 117.861 86.3118 119.603 85.6174C119.02 87.156 118.208 93.3578 118.208 93.3578Z" fill="white"/>
<path d="M132.242 67.9355C131.746 72.5435 131.667 79.9682 133.952 83.5978C133.952 83.5978 125.324 89.547 118.208 93.3581C115.978 88.1899 119.603 85.6177 119.603 85.6177C122.983 84.3158 122.952 79.9919 122.495 76.6701L132.242 67.9355Z" fill="#FFC3BD"/>
<path opacity="0.2" d="M122.495 76.6701L128.034 71.6992C128.239 72.4488 128.152 73.5455 127.861 74.4845C126.994 77.2145 124.709 79.408 122.676 80.5995C122.778 79.2976 122.668 77.9168 122.495 76.6701Z" fill="black"/>
<path d="M134.023 59.3586C133.275 66.8465 133.117 70.0342 129.256 73.7426C123.44 79.3211 114.599 76.7646 113.133 69.1978C111.817 62.3885 113.259 51.2869 120.572 48.5805C127.774 45.9136 134.764 51.8708 134.023 59.3586Z" fill="#FFC3BD"/>
<path d="M132.353 64.8424C129.658 62.4358 130.122 58.2856 132.092 56.2814C134.062 54.2852 136.836 58.4118 136.836 58.4118L132.353 64.8424Z" fill="#263238"/>
<path d="M123.251 61.4339C123.227 62.0415 122.881 62.5307 122.487 62.5149C122.085 62.4991 121.785 61.9942 121.809 61.3787C121.833 60.7712 122.179 60.282 122.573 60.2977C122.967 60.3135 123.275 60.8185 123.251 61.4339Z" fill="#263238"/>
<path d="M115.734 61.2445C115.71 61.852 115.363 62.3412 114.969 62.3254C114.567 62.3097 114.268 61.8047 114.292 61.1893C114.315 60.5817 114.662 60.0925 115.056 60.1083C115.458 60.1241 115.757 60.6369 115.734 61.2445Z" fill="#263238"/>
<path d="M115.229 60.1556L113.779 59.6743C113.779 59.6743 114.489 60.85 115.229 60.1556Z" fill="#263238"/>
<path d="M117.585 61.489C117.585 61.489 116.443 64.077 115.253 65.3079C116.033 66.0891 117.412 65.805 117.412 65.805L117.585 61.489Z" fill="#ED847E"/>
<path d="M120.84 68.1959C120.525 68.2432 120.178 68.259 119.815 68.2432C119.713 68.2432 119.642 68.1564 119.642 68.0539C119.65 67.9592 119.729 67.8803 119.831 67.8803C122.51 67.9907 123.834 66.1602 123.85 66.1444C123.905 66.0655 124.023 66.0418 124.102 66.105C124.181 66.1602 124.205 66.2786 124.142 66.3575C124.086 66.4285 123.015 67.8961 120.84 68.1959Z" fill="#263238"/>
<path d="M135.268 65.6394C134.559 67.0597 133.361 67.9276 132.242 68.2116C130.564 68.6298 129.784 66.7835 130.304 64.9372C130.769 63.2723 132.203 61.0552 133.865 61.4655C135.504 61.86 136.08 64.014 135.268 65.6394Z" fill="#FFC3BD"/>
<path d="M130.146 48.6909C124.205 52.4388 117.869 54.2773 112.7 54.9401C112.653 49.551 123.212 43.4991 130.146 48.6909Z" fill="#263238"/>
<path d="M126.088 49.3538C124.859 54.0879 137.073 62.7436 134.78 71.1152C138.783 64.8661 135.898 50.8293 135.898 50.8293C135.898 50.8293 125.544 44.2882 126.088 49.3538Z" fill="#263238"/>
<path d="M124.819 57.4097C124.725 57.394 124.638 57.3387 124.583 57.2598C123.685 55.9343 122.361 55.9421 122.345 55.9421C122.148 55.9421 121.982 55.7922 121.982 55.5871C121.982 55.3898 122.132 55.2241 122.337 55.2241C122.408 55.2241 124.063 55.2083 125.182 56.8574C125.292 57.0231 125.253 57.244 125.087 57.3545C125 57.4097 124.906 57.4255 124.819 57.4097Z" fill="#263238"/>
<path d="M112.408 57.1415C112.322 57.1415 112.227 57.1021 112.164 57.039C112.022 56.8969 112.022 56.6681 112.164 56.534C113.567 55.1295 115.19 55.453 115.261 55.4609C115.458 55.5004 115.576 55.6897 115.537 55.887C115.497 56.0842 115.308 56.2026 115.111 56.1631C115.048 56.1474 113.787 55.9185 112.668 57.039C112.597 57.11 112.503 57.1494 112.408 57.1415Z" fill="#263238"/>
<path d="M122.747 60.337L121.297 59.8557C121.297 59.8557 121.998 61.0314 122.747 60.337Z" fill="#263238"/>
<path opacity="0.2" d="M145.662 95.5357C145.512 100.207 145.709 104.404 146.079 108.144C142.116 103.978 137.191 96.1116 136.868 92.1665L145.662 95.5357Z" fill="black"/>
<path d="M171.39 80.6939L172.257 75.6836L180.027 78.6898C180.027 78.6898 178.23 83.353 174.905 85.4123L173.983 84.8284C172.477 83.8737 171.524 82.3509 171.39 80.6939Z" fill="#FFC3BD"/>
<path d="M177.103 72.8906L179.656 74.2793C180.822 74.9105 181.256 76.3702 180.633 77.538L180.026 78.6821L172.257 75.6759L174.101 73.4587C174.834 72.5829 176.094 72.3383 177.103 72.8906Z" fill="#FFC3BD"/>
<path d="M144.275 86.4145L145.26 87.4403L146.339 88.537C147.072 89.255 147.805 89.9888 148.562 90.6832C150.059 92.0955 151.611 93.4053 153.156 94.6283C154.708 95.8198 156.292 96.8928 157.805 97.7055C159.326 98.5103 160.76 99.0074 161.816 99.1416L159.696 99.5361C159.176 99.7886 159.208 99.899 159.318 99.8122C159.436 99.7412 159.657 99.5598 159.901 99.3152C160.39 98.826 160.949 98.1316 161.477 97.382C162.549 95.8592 163.636 94.1312 164.653 92.3401C165.701 90.5569 166.709 88.7027 167.718 86.8406L170.752 81.2227L170.775 81.1754C171.611 79.621 173.549 79.045 175.101 79.8814C176.323 80.5442 176.945 81.9013 176.733 83.2032C176.37 85.4756 175.874 87.6217 175.322 89.8074C174.763 91.9851 174.109 94.1391 173.368 96.309C172.588 98.463 171.768 100.641 170.626 102.85C170.05 103.963 169.42 105.083 168.553 106.29C168.12 106.898 167.615 107.521 166.938 108.184C166.252 108.831 165.401 109.596 163.872 110.259C163.297 110.511 162.698 110.638 162.099 110.646L161.753 110.654C158.262 110.717 155.283 109.849 152.714 108.76C151.422 108.208 150.201 107.6 149.042 106.953C147.892 106.29 146.797 105.588 145.741 104.862C143.629 103.41 141.698 101.824 139.862 100.167C138.956 99.3309 138.058 98.4867 137.199 97.603C136.765 97.1611 136.34 96.7114 135.922 96.2537C135.489 95.7724 135.118 95.3542 134.622 94.7703C132.352 92.0877 132.683 88.0636 135.363 85.7912C137.932 83.6135 141.73 83.8265 144.039 86.2173L144.275 86.4145Z" fill="#FFC3BD"/>
<path d="M138.16 83.3767C143.936 83.5503 149.681 90.5016 149.681 90.5016C149.681 90.5016 147.451 99.6938 141.123 103.655C137.569 100.877 134.543 98.6523 134.543 98.6523C129.516 91.2354 131.194 86.3198 138.16 83.3767Z" fill="#F47458"/>
<path d="M113.362 133.883C113.787 136.36 114.299 138.293 114.465 138.893C114.496 139.019 114.583 139.122 114.701 139.185C115.544 139.658 119.39 141.52 126.442 141.142C134.362 140.708 145.882 136.423 151.887 131.815C152.068 131.681 152.131 131.437 152.045 131.224C151.54 130.04 150.784 128.817 150.429 128.257C150.311 128.067 150.082 127.989 149.87 128.052C147.285 128.833 131.013 133.504 113.874 133.299C113.551 133.299 113.307 133.575 113.362 133.883Z" fill="#E8684C"/>
<path opacity="0.3" d="M113.362 133.883C113.787 136.36 114.299 138.293 114.465 138.893C114.496 139.019 114.583 139.122 114.701 139.185C115.544 139.658 119.39 141.52 126.442 141.142C134.362 140.708 145.882 136.423 151.887 131.815C152.068 131.681 152.131 131.437 152.045 131.224C151.54 130.04 150.784 128.817 150.429 128.257C150.311 128.067 150.082 127.989 149.87 128.052C147.285 128.833 131.013 133.504 113.874 133.299C113.551 133.299 113.307 133.575 113.362 133.883Z" fill="#E8684C"/>
<path d="M271.285 261.531H167.537C159.357 261.531 153.053 254.832 153.534 246.634L166.181 30.7089C166.662 22.5188 173.746 15.812 181.926 15.812H285.674C293.853 15.812 300.157 22.5109 299.676 30.7089L287.029 246.634C286.548 254.825 279.464 261.531 271.285 261.531Z" fill="#3C8F7C"/>
<path opacity="0.8" d="M271.285 261.531H167.537C159.357 261.531 153.053 254.832 153.534 246.634L166.181 30.7089C166.662 22.5188 173.746 15.812 181.926 15.812H285.674C293.853 15.812 300.157 22.5109 299.676 30.7089L287.029 246.634C286.548 254.825 279.464 261.531 271.285 261.531Z" fill="white"/>
<path d="M270.67 257.208H169.814C164.062 257.208 159.633 252.497 159.972 246.737L172.564 31.7585C172.903 25.9986 177.883 21.2881 183.628 21.2881H284.484C290.236 21.2881 294.665 25.9986 294.326 31.7585L281.734 246.737C281.395 252.497 276.415 257.208 270.67 257.208Z" fill="#3C8F7C"/>
<path d="M269.583 256.056H168.727C162.974 256.056 158.546 251.345 158.884 245.585L171.477 30.6064C171.816 24.8465 176.796 20.136 182.54 20.136H283.396C289.149 20.136 293.577 24.8465 293.238 30.6064L280.646 245.585C280.307 251.345 275.327 256.056 269.583 256.056Z" fill="white"/>
<path opacity="0.1" d="M266.636 248.063H172.603C169.05 248.063 166.315 245.151 166.52 241.593L171.776 151.919C171.981 148.361 175.062 145.449 178.616 145.449H272.648C276.202 145.449 278.936 148.361 278.731 151.919L273.475 241.593C273.27 245.151 270.189 248.063 266.636 248.063Z" fill="#3C8F7C"/>
<path opacity="0.1" d="M245.746 36.0824H218.339C217.07 36.0824 216.085 35.0408 216.164 33.7626C216.235 32.4844 217.338 31.4429 218.615 31.4429H246.021C247.29 31.4429 248.275 32.4844 248.196 33.7626C248.118 35.0408 247.014 36.0824 245.746 36.0824Z" fill="#3C8F7C"/>
<path opacity="0.1" d="M256.66 122.622C273.541 106.206 274.693 79.9764 259.233 64.0359C243.772 48.0954 217.554 48.4806 200.673 64.8962C183.791 81.3119 182.639 107.542 198.1 123.482C213.56 139.423 239.778 139.038 256.66 122.622Z" fill="#3C8F7C"/>
<path d="M199.679 121.211C192.729 113.833 189.238 104.026 189.845 93.6025L190.633 93.6499C190.034 103.852 193.454 113.447 200.254 120.666L199.679 121.211Z" fill="#3C8F7C"/>
<path d="M267.463 93.9259L266.675 93.8786C266.88 90.3516 266.612 86.8641 265.863 83.5107L266.636 83.3372C267.4 86.7694 267.676 90.3279 267.463 93.9259Z" fill="#3C8F7C"/>
<path d="M263.602 76.6541C261.986 73.0561 259.788 69.758 257.061 66.8622C253.287 62.854 248.764 59.8556 243.626 57.9541L243.902 57.2124C249.158 59.1534 253.775 62.2227 257.637 66.3178C260.426 69.2767 262.672 72.6458 264.327 76.3306L263.602 76.6541Z" fill="#3C8F7C"/>
<path d="M253.058 118.908C267.769 104.602 268.775 81.7455 255.303 67.8558C241.832 53.9661 218.985 54.3032 204.274 68.6088C189.562 82.9145 188.557 105.771 202.028 119.661C215.5 133.551 238.346 133.214 253.058 118.908Z" fill="#3C8F7C"/>
<path d="M224.651 98.6602C224.659 98.6602 224.667 98.6524 224.675 98.6524C226.408 98.2736 227.22 96.7824 227.582 95.0938C227.622 94.9202 227.653 94.7467 227.685 94.5652C227.693 94.51 227.7 94.4626 227.708 94.4074C227.811 93.6973 227.858 92.9635 227.866 92.2849C224.58 91.9219 221.822 89.3655 221.672 85.5466C221.554 82.6587 222.216 78.903 223.776 75.8968C223.461 75.9362 223.091 76.0625 222.712 76.3386C222.649 76.386 222.571 76.4017 222.5 76.386C222.437 76.3702 222.374 76.3386 222.326 76.2755C222.24 76.1571 222.263 75.9836 222.381 75.8968C223.004 75.4312 223.626 75.3287 224.084 75.3287C224.194 75.1393 224.304 74.942 224.422 74.7606C223.926 74.7685 223.437 74.7763 222.965 74.7606C223.485 71.1153 230.49 68.0538 235.265 70.847C237.393 71.2731 240.899 74.3108 240.899 74.3108C240.899 74.3108 241.033 76.9462 240.734 80.1338C240.419 83.4241 239.639 87.3061 237.747 89.4602C238.244 88.3397 238.37 87.1641 238.252 85.9569C237.747 86.4461 237.172 86.7459 236.613 86.8879C236.384 87.385 236.132 87.8427 235.84 88.2766C235.1 91.6616 234.572 96.1748 235.699 98.7628C236.715 98.8259 237.7 98.9206 238.638 99.0232C238.717 99.0311 238.788 99.0469 238.866 99.0627C239.481 98.6997 240.08 98.2973 240.647 97.8475C247.731 92.3165 240.206 85.8464 241.987 79.905C243.76 73.9636 242.263 71.707 237.416 71.5098C239.434 68.3063 226.66 63.1697 221.05 73.1431C215.967 82.1774 214.328 86.6828 216.156 93.7525C216.731 95.9854 218.323 97.8475 220.498 99.1889C220.853 99.0942 221.215 99.0153 221.586 98.968C222.586 98.8575 223.626 98.747 224.651 98.6602Z" fill="#263238"/>
<path d="M213.627 112.555C213.28 111.963 213.004 111.427 212.807 110.985C212.271 112.579 211.743 114.173 211.223 115.743C210.743 117.163 210.27 118.583 209.781 119.94L209.049 121.858L208.725 122.615C208.615 122.828 208.725 122.71 208.71 122.765C208.568 122.978 208.079 123.428 207.599 123.846C207.504 123.925 207.402 124.004 207.307 124.091C209.466 125.542 211.799 126.765 214.297 127.696C214.352 124.091 214.793 120.343 215.266 119.341C212.492 117.352 212.918 115.206 213.627 112.555Z" fill="#FFC3BD"/>
<path d="M216.385 101.911C216.314 101.998 216.251 102.092 216.18 102.187C216.251 102.092 216.322 102.006 216.385 101.911Z" fill="#263238"/>
<path d="M214.565 107.198C214.565 105.399 215.116 103.718 216.07 102.337C214.068 105.122 212.366 109.904 212.366 109.904C212.366 109.904 212.508 110.33 212.807 110.977C213.004 111.411 213.28 111.955 213.627 112.547C214.044 110.969 214.565 109.21 214.565 107.198Z" fill="#E8684C"/>
<path d="M242.034 118.646C241.199 117.447 240.332 115.932 239.552 114.33C239.316 114.457 239.071 114.583 238.819 114.693C236.455 112.192 234.438 110.172 234.438 110.172C231.491 104.018 233.311 100.506 238.898 99.0862C239.749 99.244 240.568 99.5991 241.341 100.073C240.624 99.5675 239.788 99.2204 238.866 99.0783C238.788 99.0626 238.717 99.0468 238.638 99.0389C237.7 98.9284 236.715 98.8416 235.699 98.7785C235.911 99.3545 230.852 106.629 227.685 107.829C226.384 104.546 222.736 104.325 222.736 104.325C222.736 104.325 219.332 103.623 218.276 105.769C218.969 101.335 223.232 98.9994 224.651 98.6602C223.634 98.7469 222.594 98.8574 221.593 98.9837C221.215 99.031 220.861 99.1099 220.506 99.2046C218.843 99.6543 217.433 100.625 216.401 101.919C216.33 102.006 216.259 102.092 216.196 102.187C216.156 102.234 216.117 102.29 216.085 102.337C215.124 103.718 214.572 105.398 214.58 107.197C214.588 109.209 214.06 110.969 213.643 112.555C212.933 115.206 212.508 117.36 215.289 119.333C214.825 120.335 214.375 124.083 214.32 127.689C218.095 129.101 222.216 129.866 226.558 129.866C232.027 129.866 237.275 128.643 242.05 126.458C241.94 123.933 241.908 120.99 242.121 117.644C242.081 117.976 242.05 118.323 242.034 118.646Z" fill="#F47458"/>
<path d="M222.736 104.325C222.736 104.325 226.385 104.554 227.685 107.829C230.852 106.629 235.911 99.3546 235.699 98.7786C235.699 98.7786 228.528 102.266 222.736 104.325Z" fill="white"/>
<path d="M224.667 98.6523C224.659 98.6523 224.651 98.6602 224.643 98.6602C223.233 98.9995 218.969 101.335 218.268 105.769C219.324 103.623 222.728 104.325 222.728 104.325C221.649 100.175 224.667 98.6523 224.667 98.6523Z" fill="white"/>
<path d="M227.685 94.565C227.693 94.5098 227.701 94.4625 227.708 94.4072C227.701 94.4625 227.693 94.5177 227.685 94.565Z" fill="#FFC3BD"/>
<path d="M235.841 88.2925C235.218 89.2156 234.422 90.0205 233.287 90.8174C232.854 91.1251 232.405 91.3697 231.948 91.5827C230.931 93.3502 229.111 94.6126 227.551 95.2359C227.559 95.1886 227.567 95.1412 227.574 95.1018C227.204 96.7903 226.392 98.2816 224.667 98.6603C224.667 98.6603 221.641 100.183 222.736 104.326C228.528 102.274 235.699 98.7787 235.699 98.7787C234.572 96.1907 235.1 91.6695 235.841 88.2925Z" fill="#FFC3BD"/>
<path d="M227.582 95.0936C227.622 94.92 227.653 94.7464 227.685 94.5649C227.653 94.7464 227.622 94.92 227.582 95.0936Z" fill="#263238"/>
<path opacity="0.2" d="M227.582 95.0936C227.622 94.92 227.653 94.7464 227.685 94.5649C227.653 94.7464 227.622 94.92 227.582 95.0936Z" fill="black"/>
<path d="M227.866 92.2849C227.858 92.9714 227.811 93.6973 227.708 94.4074C227.811 93.6973 227.858 92.9714 227.866 92.2849C227.866 92.2928 227.866 92.2928 227.866 92.2849Z" fill="#263238"/>
<path opacity="0.2" d="M227.866 92.2849C227.858 92.9714 227.811 93.6973 227.708 94.4074C227.811 93.6973 227.858 92.9714 227.866 92.2849C227.866 92.2928 227.866 92.2928 227.866 92.2849Z" fill="black"/>
<path d="M231.948 91.5825C230.592 92.2216 229.19 92.4347 227.866 92.2926C227.858 92.9712 227.811 93.705 227.708 94.4151C227.7 94.4704 227.693 94.5177 227.685 94.5729C227.653 94.7465 227.622 94.928 227.582 95.1016C227.574 95.1489 227.566 95.1963 227.559 95.2357C229.119 94.6045 230.931 93.3421 231.948 91.5825Z" fill="#FFC3BD"/>
<path opacity="0.2" d="M231.948 91.5825C230.592 92.2216 229.19 92.4347 227.866 92.2926C227.858 92.9712 227.811 93.705 227.708 94.4151C227.7 94.4704 227.693 94.5177 227.685 94.5729C227.653 94.7465 227.622 94.928 227.582 95.1016C227.574 95.1489 227.566 95.1963 227.559 95.2357C229.119 94.6045 230.931 93.3421 231.948 91.5825Z" fill="black"/>
<path d="M231.948 91.5826C232.397 91.3695 232.846 91.1249 233.287 90.8172C234.414 90.0203 235.218 89.2155 235.841 88.2923C236.132 87.8583 236.384 87.4007 236.613 86.9036C236.463 86.9431 236.313 86.9825 236.172 86.9983C234.856 87.1245 234.485 85.6412 235.084 84.3077C235.265 83.9053 235.541 83.4635 235.872 83.0768C235.502 81.9327 235.644 80.694 236.109 79.6682C234.911 77.2065 233.642 74.9498 233.524 73.2771C230.317 74.2713 227.18 74.7052 224.43 74.7684C224.312 74.9498 224.202 75.1471 224.091 75.3365C224.525 75.3365 224.816 75.4469 224.84 75.4548C224.982 75.51 225.053 75.6679 224.998 75.8099C224.943 75.9519 224.785 76.0229 224.643 75.9677C224.612 75.9598 224.257 75.8335 223.768 75.9046C222.2 78.9186 221.546 82.6665 221.664 85.5544C221.822 89.3733 224.572 91.9297 227.858 92.2927C229.19 92.4347 230.593 92.2138 231.948 91.5826ZM230.191 76.0781C230.246 76.086 231.491 76.2675 232.145 77.6325C232.208 77.7667 232.153 77.9324 232.019 77.9955C231.956 78.027 231.885 78.0271 231.814 78.0113C231.743 77.9876 231.688 77.9403 231.648 77.8692C231.12 76.7725 230.128 76.6226 230.12 76.6226C229.97 76.5989 229.868 76.4648 229.883 76.3149C229.907 76.1649 230.041 76.0624 230.191 76.0781ZM229.915 79.9838C229.907 79.9917 229.907 79.9838 229.899 79.9917C230.128 80.1259 230.246 80.473 230.175 80.8675C230.088 81.3252 229.773 81.6487 229.474 81.5935C229.174 81.5382 229.001 81.12 229.095 80.6624C229.143 80.402 229.277 80.189 229.426 80.0627C229.087 79.9365 228.883 79.4631 228.883 79.4631L229.915 79.9838ZM223.453 79.6524C223.501 79.3921 223.634 79.179 223.784 79.0528C223.445 78.9265 223.24 78.4531 223.24 78.4531L224.281 78.9818C224.273 78.9818 224.273 78.9818 224.265 78.9897C224.493 79.1238 224.612 79.471 224.541 79.8655C224.454 80.3231 224.139 80.6466 223.839 80.5914C223.54 80.5283 223.367 80.1101 223.453 79.6524ZM225.281 83.4792C225.281 83.4792 224.21 83.5424 223.713 82.8559C224.746 82.0669 225.904 80.2521 225.904 80.2521L225.281 83.4792ZM226.802 85.5938C226.731 85.5781 226.676 85.507 226.692 85.436C226.708 85.365 226.779 85.3177 226.849 85.3256C228.851 85.7122 230.057 84.4892 230.072 84.4734C230.128 84.4182 230.214 84.4182 230.269 84.4734C230.325 84.5286 230.325 84.6154 230.269 84.6707C230.222 84.718 229.253 85.7043 227.574 85.6806C227.338 85.6727 227.078 85.6491 226.802 85.5938Z" fill="#FFC3BD"/>
<path d="M237.204 82.0826C236.873 81.2621 236.495 80.4572 236.116 79.6682C235.651 80.694 235.51 81.9327 235.88 83.0768C236.258 82.6192 236.723 82.2404 237.204 82.0826Z" fill="#263238"/>
<path d="M229.426 80.0549C229.269 80.1811 229.142 80.3942 229.095 80.6546C229.009 81.1122 229.182 81.5304 229.473 81.5856C229.773 81.6408 230.088 81.3173 230.175 80.8597C230.254 80.4652 230.127 80.118 229.899 79.9839C229.718 80.1022 229.56 80.1101 229.426 80.0549Z" fill="#263238"/>
<path d="M224.541 79.8656C224.619 79.4711 224.493 79.1239 224.265 78.9897C224.084 79.1081 223.926 79.1081 223.784 79.0608C223.627 79.187 223.5 79.4 223.453 79.6604C223.366 80.1181 223.54 80.5362 223.831 80.5915C224.139 80.6467 224.446 80.3232 224.541 79.8656Z" fill="#263238"/>
<path d="M224.265 78.9897C224.273 78.9897 224.273 78.9897 224.281 78.9818L223.24 78.4531C223.24 78.4531 223.445 78.9265 223.784 79.0528C223.926 79.108 224.084 79.108 224.265 78.9897Z" fill="#263238"/>
<path d="M223.713 82.8638C224.21 83.5424 225.281 83.4872 225.281 83.4872L225.896 80.26C225.904 80.2521 224.746 82.0748 223.713 82.8638Z" fill="#ED847E"/>
<path d="M230.277 84.4733C230.222 84.4181 230.135 84.4181 230.08 84.4733C230.065 84.4891 228.859 85.7121 226.857 85.3255C226.779 85.3097 226.708 85.357 226.7 85.4359C226.684 85.5069 226.731 85.5858 226.81 85.5937C227.086 85.649 227.346 85.6726 227.59 85.6726C229.269 85.6963 230.238 84.71 230.285 84.6627C230.332 84.6153 230.325 84.5285 230.277 84.4733Z" fill="#263238"/>
<path d="M237.204 82.0828C236.723 82.2406 236.258 82.6193 235.872 83.0691C235.541 83.4557 235.265 83.8975 235.084 84.2999C234.485 85.6334 234.856 87.1168 236.171 86.9905C236.313 86.9748 236.463 86.9353 236.613 86.8958C237.172 86.7538 237.748 86.454 238.252 85.9648C238.126 84.6787 237.724 83.3689 237.204 82.0828Z" fill="#FFC3BD"/>
<path d="M233.689 72.0936C233.737 70.9574 234.383 70.6812 235.265 70.8627C230.49 68.0695 223.485 71.131 222.965 74.7763C223.437 74.7842 223.926 74.7842 224.422 74.7763C227.18 74.7132 230.317 74.2792 233.516 73.285C233.492 72.8353 233.54 72.4408 233.689 72.0936Z" fill="#263238"/>
<path d="M233.689 72.0935C233.54 72.4407 233.492 72.8431 233.524 73.2771C233.642 74.9498 234.911 77.1985 236.108 79.6682C236.495 80.4572 236.873 81.2699 237.196 82.0826C237.716 83.3687 238.118 84.6864 238.244 85.9725C238.362 87.1798 238.236 88.3554 237.74 89.4758C239.639 87.3218 240.419 83.4398 240.726 80.1495C241.026 76.9697 240.892 74.3265 240.892 74.3265C240.892 74.3265 237.377 71.2887 235.257 70.8626C234.383 70.6812 233.737 70.9494 233.689 72.0935Z" fill="#263238"/>
<path d="M230.12 76.6227C230.128 76.6227 231.128 76.7647 231.648 77.8694C231.68 77.9404 231.743 77.9877 231.814 78.0114C231.877 78.035 231.948 78.0272 232.019 77.9956C232.153 77.9325 232.216 77.7668 232.145 77.6326C231.491 76.2676 230.246 76.0862 230.191 76.0783C230.041 76.0625 229.907 76.1651 229.883 76.315C229.867 76.4649 229.97 76.6069 230.12 76.6227Z" fill="#263238"/>
<path d="M224.651 75.9676C224.793 76.0229 224.95 75.9519 225.006 75.8098C225.061 75.6678 224.99 75.51 224.848 75.4548C224.824 75.4469 224.533 75.3443 224.099 75.3364C223.642 75.3364 223.028 75.439 222.397 75.9045C222.279 75.9913 222.248 76.1649 222.342 76.2833C222.389 76.3385 222.445 76.3779 222.515 76.3937C222.586 76.4095 222.665 76.3937 222.728 76.3464C223.106 76.0623 223.477 75.944 223.792 75.9045C224.265 75.8335 224.619 75.9519 224.651 75.9676Z" fill="#263238"/>
<path d="M229.426 80.0548C229.56 80.1101 229.726 80.1022 229.907 79.9838C229.915 79.9838 229.915 79.9838 229.923 79.9759L228.883 79.4473C228.883 79.4552 229.08 79.9286 229.426 80.0548Z" fill="#263238"/>
<path d="M242.034 118.646C242.05 118.323 242.082 117.984 242.097 117.652C241.656 116.95 241.199 116.24 240.742 115.53C240.442 115.08 240.135 114.63 239.836 114.18C239.741 114.236 239.647 114.275 239.552 114.33C240.332 115.924 241.199 117.447 242.034 118.646Z" fill="#263238"/>
<path opacity="0.2" d="M242.034 118.646C242.05 118.323 242.082 117.984 242.097 117.652C241.656 116.95 241.199 116.24 240.742 115.53C240.442 115.08 240.135 114.63 239.836 114.18C239.741 114.236 239.647 114.275 239.552 114.33C240.332 115.924 241.199 117.447 242.034 118.646Z" fill="#F47458"/>
<path d="M244.375 125.179L244.351 125.306C247.495 123.601 250.395 121.479 252.956 118.993C252.507 117.66 251.994 116.445 251.443 115.261C250.663 113.565 249.804 111.987 248.89 110.44C248.11 109.083 247.266 107.789 246.408 106.511C245.604 108.16 243.382 112.129 239.828 114.172C240.135 114.622 240.435 115.072 240.734 115.522C241.199 116.232 241.656 116.934 242.089 117.644C242.475 118.268 242.854 118.883 243.208 119.498C243.807 120.564 244.382 121.637 244.816 122.615L244.737 123.152C244.635 123.814 244.516 124.493 244.375 125.179Z" fill="#FFC3BD"/>
<path d="M234.438 110.172C234.438 110.172 236.455 112.192 238.819 114.693C239.071 114.583 239.308 114.456 239.552 114.33C239.647 114.283 239.741 114.236 239.836 114.18C243.39 112.137 245.612 108.168 246.415 106.519C246.644 106.053 246.762 105.769 246.762 105.769C246.762 105.769 244.485 101.982 241.349 100.072C240.576 99.6069 239.757 99.244 238.906 99.0862C233.311 100.506 231.491 104.018 234.438 110.172Z" fill="#E8684C"/>
<path d="M272.222 31.0247H283.325C283.948 31.0247 284.484 30.5197 284.515 29.8964C284.555 29.273 284.074 28.7681 283.459 28.7681H272.356C271.734 28.7681 271.198 29.273 271.167 29.8964C271.119 30.5197 271.6 31.0247 272.222 31.0247Z" fill="#3C8F7C"/>
<path d="M271.994 34.8909H283.097C283.719 34.8909 284.255 34.3859 284.287 33.7626C284.326 33.1393 283.845 32.6343 283.223 32.6343H272.12C271.498 32.6343 270.962 33.1393 270.93 33.7626C270.899 34.3859 271.371 34.8909 271.994 34.8909Z" fill="#3C8F7C"/>
<path d="M182.17 34.8909H193.273C193.895 34.8909 194.431 34.3859 194.463 33.7626C194.502 33.1393 194.021 32.6343 193.399 32.6343H182.296C181.673 32.6343 181.138 33.1393 181.106 33.7626C181.074 34.3859 181.555 34.8909 182.17 34.8909Z" fill="#3C8F7C"/>
<path d="M271.765 38.7649H282.868C283.491 38.7649 284.027 38.2599 284.058 37.6366C284.098 37.0133 283.617 36.5083 282.994 36.5083H271.892C271.269 36.5083 270.733 37.0133 270.702 37.6366C270.67 38.2599 271.143 38.7649 271.765 38.7649Z" fill="#3C8F7C"/>
<path d="M257.172 180.325H190.003C184.652 180.325 180.531 175.945 180.846 170.588C181.161 165.23 185.795 160.851 191.145 160.851H258.314C263.665 160.851 267.786 165.23 267.471 170.588C267.156 175.945 262.522 180.325 257.172 180.325Z" fill="white"/>
<path d="M255.643 206.497H188.474C183.123 206.497 179.002 202.118 179.317 196.76C179.632 191.403 184.266 187.023 189.616 187.023H256.786C262.136 187.023 266.257 191.403 265.942 196.76C265.627 202.11 260.993 206.497 255.643 206.497Z" fill="white"/>
<path d="M254.106 232.661H186.937C181.587 232.661 177.466 228.282 177.781 222.924C178.096 217.567 182.729 213.188 188.08 213.188H255.249C260.6 213.188 264.721 217.567 264.406 222.924C264.09 228.274 259.457 232.661 254.106 232.661Z" fill="white"/>
<path d="M195.226 174.074C197.271 172.086 197.413 168.91 195.542 166.981C193.671 165.052 190.497 165.101 188.452 167.089C186.407 169.078 186.266 172.254 188.136 174.182C190.007 176.111 193.181 176.063 195.226 174.074Z" fill="#3C8F7C"/>
<path d="M191.24 192.002L191.902 194.504C191.98 194.788 192.233 194.985 192.532 194.985H195.156C195.826 194.985 196.054 195.845 195.487 196.239L193.273 197.786C193.021 197.959 192.902 198.275 192.973 198.567L193.635 201.068C193.809 201.707 193.044 202.244 192.524 201.849L190.491 200.303C190.255 200.129 189.932 200.129 189.672 200.303L187.457 201.849C186.89 202.244 186.189 201.715 186.433 201.068L187.394 198.567C187.505 198.283 187.418 197.967 187.189 197.786L185.156 196.239C184.636 195.845 184.967 194.985 185.637 194.985H188.261C188.561 194.985 188.836 194.788 188.947 194.504L189.908 192.002C190.16 191.363 191.066 191.363 191.24 192.002Z" fill="#3C8F7C"/>
<path d="M193.084 220.273L192.674 227.296C192.642 227.895 192.122 228.392 191.516 228.392H185.377C184.778 228.392 184.313 227.903 184.353 227.296L184.865 218.553C184.896 217.945 185.416 217.456 186.023 217.456H190.436L193.084 220.273Z" fill="#3C8F7C"/>
<path d="M190.428 217.456L193.076 220.273H191.35C190.743 220.273 190.286 219.784 190.326 219.176L190.428 217.456ZM189.727 215.523L189.616 217.409L189.514 219.137C189.482 219.658 189.664 220.147 190.01 220.518C190.357 220.889 190.838 221.094 191.358 221.094H193.084H194.967L193.675 219.721L191.027 216.904L189.727 215.523Z" fill="white"/>
<path opacity="0.2" d="M254.918 169.554H204.659C203.785 169.554 203.115 168.844 203.17 167.969C203.217 167.093 203.974 166.383 204.848 166.383H255.107C255.982 166.383 256.652 167.093 256.596 167.969C256.541 168.844 255.785 169.554 254.918 169.554Z" fill="#3C8F7C"/>
<path opacity="0.2" d="M245.391 174.786H204.352C203.477 174.786 202.808 174.076 202.863 173.2C202.91 172.324 203.666 171.614 204.541 171.614H245.58C246.455 171.614 247.125 172.324 247.069 173.2C247.014 174.076 246.258 174.786 245.391 174.786Z" fill="#3C8F7C"/>
<path opacity="0.2" d="M253.263 197.786H239.394C238.52 197.786 237.771 198.496 237.716 199.372C237.669 200.248 238.338 200.958 239.205 200.958H253.074C253.949 200.958 254.697 200.248 254.753 199.372C254.8 198.496 254.13 197.786 253.263 197.786Z" fill="#3C8F7C"/>
<path opacity="0.2" d="M231.286 197.786H202.997C202.122 197.786 201.373 198.496 201.318 199.372C201.271 200.248 201.941 200.958 202.808 200.958H231.097C231.971 200.958 232.72 200.248 232.775 199.372C232.83 198.496 232.161 197.786 231.286 197.786Z" fill="#3C8F7C"/>
<path opacity="0.2" d="M244.351 192.547H203.312C202.437 192.547 201.689 193.257 201.633 194.133C201.586 195.008 202.256 195.719 203.123 195.719H244.162C245.036 195.719 245.785 195.008 245.84 194.133C245.888 193.265 245.218 192.547 244.351 192.547Z" fill="#3C8F7C"/>
<path opacity="0.2" d="M251.727 223.95H201.468C200.593 223.95 199.845 224.66 199.789 225.536C199.742 226.412 200.412 227.122 201.279 227.122H251.537C252.412 227.122 253.161 226.412 253.216 225.536C253.271 224.668 252.601 223.95 251.727 223.95Z" fill="#3C8F7C"/>
<path opacity="0.2" d="M242.814 218.719H201.775C200.901 218.719 200.152 219.429 200.097 220.305C200.05 221.18 200.719 221.891 201.586 221.891H242.625C243.5 221.891 244.248 221.18 244.304 220.305C244.359 219.429 243.689 218.719 242.814 218.719Z" fill="#3C8F7C"/>
</svg>
