<svg width="369" height="278" viewBox="0 0 369 278" fill="none" xmlns="http://www.w3.org/2000/svg">
<path opacity="0.1" d="M2.21341 157.545C5.75626 171.802 13.1685 184.679 21.1252 196.875C28.1196 207.598 35.6014 217.959 43.5704 227.96C45.7789 230.736 48.0226 233.477 50.3015 236.184L51.8848 238.053C53.2886 239.715 54.7163 241.361 56.1679 242.992L56.3421 243.19C57.7501 244.793 59.1706 246.381 60.6035 247.953C65.291 253.106 70.246 258.222 75.7235 262.459C77.5898 263.906 79.5152 265.254 81.509 266.462C82.5873 267.118 83.6885 267.732 84.8124 268.305C86.6538 269.241 88.545 270.059 90.5201 270.73C90.8499 270.845 91.1827 270.954 91.5155 271.058C93.5373 271.693 95.584 272.156 97.6525 272.474C105.233 273.635 113.062 272.786 120.655 270.798C124.449 269.804 128.185 268.523 131.799 267.066C132.244 266.889 132.686 266.707 133.131 266.545C145.439 261.392 156.994 254.397 169.39 249.478C173.661 247.781 178.016 246.341 182.454 245.158C184.619 244.581 186.796 244.061 188.986 243.596C194.14 242.524 199.359 241.805 204.6 241.441C211.667 240.921 218.965 241.144 225.689 243.211C226.585 243.485 227.47 243.794 228.343 244.137C229.45 244.571 230.537 245.066 231.602 245.621C234.476 247.174 237.272 249.101 239.967 251.383C240.498 251.82 241.024 252.262 241.55 252.71C243.198 254.115 244.825 255.552 246.477 256.947C249.449 259.551 252.543 261.747 255.727 263.516C257.472 264.438 259.245 265.195 261.04 265.785C265.79 267.378 270.844 268.008 275.921 268.049C278.369 268.049 280.82 267.961 283.243 267.748H283.317C284.145 267.675 284.975 267.591 285.806 267.487C289.588 267.055 293.358 266.389 297.072 265.478C309.797 262.355 321.866 256.453 331.573 247.448C344.759 235.226 353.132 217.003 351.876 198.796C350.974 185.679 345.372 173.499 340.056 161.574C330.168 139.369 320.905 116.659 316.03 92.721C312.077 73.2904 310.898 52.7459 301.8 35.2827C298.885 29.6925 295.159 24.5915 290.82 20.1203C287.577 16.7974 284.177 13.9217 280.655 11.5215C276.674 8.79307 272.579 6.55753 268.403 4.83293C264.783 3.33027 261.115 2.17632 257.416 1.37675C255.407 0.939523 253.373 0.601196 251.326 0.372171C249.75 0.188258 248.167 0.0720038 246.576 0.0234229H246.331C245.358 -0.00780765 244.386 -0.00780765 243.413 0.0234229C236.321 0.207143 229.249 1.31923 222.262 3.34949C217.888 4.57269 213.552 6.07175 209.306 7.72177C206.772 8.7038 204.261 9.73267 201.773 10.8084C201.014 11.1363 200.255 11.4694 199.505 11.8078C181.8 19.7455 166.223 30.7075 149.165 39.7019C149.078 39.7487 148.994 39.7956 148.907 39.832C145.406 41.6337 141.851 43.1279 138.257 44.3084C135.616 45.1933 132.916 45.9584 130.169 46.6299C125.964 47.6709 121.669 48.4933 117.342 49.2012L116.387 49.3573C110.038 50.3984 103.634 51.1739 97.413 52.0796C95.2045 52.4023 93.0147 52.7355 90.8561 53.1206C89.4875 53.3497 88.1313 53.5926 86.7875 53.8493C85.8233 54.0367 84.8559 54.2241 83.8886 54.4219C82.9212 54.6197 81.8979 54.8279 80.9025 55.0413C80.2555 55.1766 79.6116 55.3172 78.9647 55.4681C75.0454 56.3374 71.1356 57.3107 67.2693 58.4246C64.9177 59.1013 62.5786 59.83 60.2675 60.616C58.5941 61.1851 56.9352 61.7854 55.2907 62.4169C54.0714 62.8784 52.8625 63.3643 51.6639 63.8744C41.925 67.9708 32.8112 73.3424 24.9573 80.5931C4.56183 99.3783 -4.56433 130.281 2.21341 157.545Z" fill="#36829D"/>
<path fill-rule="evenodd" clip-rule="evenodd" d="M251.396 160.467C252.179 159.095 253.107 157.811 254.163 156.637L251.329 152.556C251.11 152.24 251.172 151.806 251.47 151.565L255.1 148.613C255.399 148.371 255.832 148.398 256.098 148.676L259.536 152.283C260.894 151.496 262.335 150.853 263.826 150.366L263.412 145.408C263.379 145.024 263.648 144.68 264.029 144.62L268.65 143.879C269.029 143.819 269.392 144.06 269.482 144.432L270.655 149.269C272.227 149.265 273.795 149.43 275.332 149.758L277.451 145.26C277.616 144.911 278.019 144.748 278.38 144.886L282.751 146.556C283.111 146.694 283.303 147.082 283.196 147.452L281.793 152.231C283.156 153.012 284.436 153.936 285.602 154.988L289.683 152.153C289.999 151.934 290.433 151.996 290.674 152.294L293.624 155.925C293.867 156.224 293.839 156.657 293.561 156.923L289.955 160.362C290.742 161.72 291.386 163.161 291.872 164.653L296.829 164.239C297.213 164.207 297.557 164.475 297.618 164.856L298.358 169.478C298.418 169.856 298.177 170.22 297.804 170.31L292.969 171.484C292.973 173.056 292.808 174.625 292.48 176.162L296.977 178.281C297.326 178.444 297.49 178.85 297.352 179.21L295.682 183.583C295.545 183.942 295.157 184.134 294.787 184.027L290.009 182.624C289.232 183.981 288.313 185.254 287.267 186.418L290.089 190.517C290.307 190.833 290.244 191.264 289.948 191.507L286.317 194.458C286.017 194.702 285.583 194.673 285.318 194.392L281.899 190.779C280.541 191.567 279.103 192.212 277.611 192.7L278.006 197.667C278.037 198.052 277.769 198.392 277.389 198.453L272.768 199.192C272.39 199.253 272.025 199.01 271.936 198.636L270.784 193.802C269.212 193.808 267.643 193.645 266.107 193.317L263.968 197.814C263.803 198.162 263.4 198.323 263.04 198.187L258.668 196.516C258.308 196.379 258.115 195.988 258.225 195.618L259.645 190.852C258.28 190.072 257.001 189.149 255.833 188.099L251.736 190.922C251.42 191.14 250.988 191.077 250.746 190.78L247.795 187.149C247.552 186.85 247.58 186.414 247.861 186.15L251.475 182.73C250.687 181.372 250.042 179.934 249.554 178.44L244.588 178.836C244.204 178.867 243.863 178.599 243.803 178.219L243.062 173.597C243.002 173.218 243.244 172.854 243.618 172.765L248.449 171.612C248.444 170.04 248.607 168.471 248.934 166.934L244.438 164.795C244.091 164.63 243.93 164.227 244.068 163.867L245.736 159.494C245.874 159.134 246.264 158.941 246.634 159.051L251.396 160.467ZM279.99 170.048C279.169 164.922 274.348 161.431 269.223 162.253C264.098 163.073 260.607 167.895 261.429 173.022C262.249 178.148 267.07 181.64 272.196 180.817C277.321 179.997 280.81 175.176 279.99 170.048Z" fill="#F5F5F5"/>
<path fill-rule="evenodd" clip-rule="evenodd" d="M267.676 247.804C268.035 247.175 268.461 246.584 268.948 246.045L267.646 244.17C267.545 244.024 267.574 243.825 267.71 243.715L269.377 242.359C269.515 242.248 269.713 242.261 269.836 242.388L271.416 244.045C272.04 243.684 272.7 243.389 273.387 243.164L273.197 240.887C273.183 240.71 273.306 240.553 273.48 240.525L275.602 240.186C275.777 240.158 275.943 240.269 275.985 240.44L276.524 242.662C277.246 242.661 277.966 242.736 278.672 242.886L279.645 240.82C279.721 240.66 279.906 240.585 280.072 240.648L282.08 241.415C282.245 241.478 282.333 241.657 282.283 241.827L281.64 244.022C282.266 244.381 282.854 244.806 283.39 245.288L285.264 243.986C285.41 243.885 285.609 243.914 285.719 244.051L287.074 245.72C287.186 245.857 287.173 246.055 287.046 246.177L285.39 247.757C285.752 248.381 286.047 249.043 286.271 249.729L288.548 249.539C288.725 249.524 288.882 249.648 288.909 249.822L289.249 251.945C289.277 252.119 289.166 252.286 288.995 252.327L286.773 252.866C286.774 253.589 286.699 254.309 286.549 255.015L288.615 255.988C288.774 256.064 288.849 256.249 288.786 256.415L288.019 258.424C287.957 258.589 287.778 258.678 287.608 258.629L285.414 257.985C285.057 258.609 284.635 259.194 284.154 259.727L285.45 261.61C285.55 261.755 285.521 261.953 285.385 262.065L283.716 263.421C283.579 263.532 283.379 263.519 283.257 263.39L281.687 261.731C281.063 262.092 280.403 262.389 279.717 262.613L279.899 264.894C279.914 265.07 279.79 265.227 279.616 265.255L277.494 265.594C277.32 265.622 277.152 265.51 277.111 265.339L276.582 263.119C275.859 263.122 275.14 263.047 274.433 262.896L273.45 264.962C273.374 265.122 273.189 265.196 273.024 265.133L271.016 264.366C270.851 264.303 270.762 264.123 270.813 263.953L271.464 261.763C270.838 261.405 270.25 260.981 269.713 260.498L267.831 261.795C267.687 261.894 267.487 261.866 267.376 261.729L266.021 260.06C265.909 259.923 265.922 259.723 266.051 259.601L267.71 258.031C267.348 257.407 267.052 256.746 266.828 256.06L264.547 256.242C264.372 256.257 264.214 256.134 264.187 255.959L263.847 253.837C263.82 253.662 263.931 253.494 264.103 253.454L266.322 252.924C266.319 252.202 266.394 251.482 266.545 250.775L264.479 249.792C264.319 249.716 264.246 249.531 264.309 249.366L265.076 247.357C265.138 247.192 265.318 247.103 265.488 247.154L267.676 247.804ZM280.81 252.206C280.433 249.851 278.219 248.247 275.865 248.625C273.51 249.003 271.907 251.217 272.285 253.572C272.662 255.926 274.876 257.53 277.23 257.152C279.585 256.776 281.188 254.56 280.81 252.206Z" fill="#F5F5F5"/>
<path fill-rule="evenodd" clip-rule="evenodd" d="M102.089 43.4531C102.536 42.6704 103.065 41.9361 103.669 41.2662L102.051 38.9351C101.925 38.7555 101.96 38.5077 102.131 38.3687L104.204 36.6827C104.375 36.5437 104.622 36.5594 104.773 36.7194L106.737 38.7791C107.513 38.3294 108.335 37.9623 109.187 37.6843L108.949 34.8524C108.931 34.6334 109.084 34.4368 109.302 34.4027L111.941 33.9805C112.157 33.9464 112.364 34.0841 112.415 34.2965L113.085 37.0589C113.983 37.0563 114.878 37.1507 115.755 37.3382L116.965 34.7698C117.059 34.5705 117.29 34.4774 117.496 34.5561L119.991 35.5092C120.196 35.5879 120.306 35.8095 120.244 36.0206L119.443 38.7489C120.222 39.1947 120.952 39.723 121.619 40.3235L123.95 38.7043C124.129 38.5798 124.377 38.6139 124.516 38.7843L126.202 40.8584C126.341 41.0289 126.325 41.2767 126.165 41.4288L124.106 43.3928C124.556 44.1689 124.923 44.991 125.2 45.8432L128.032 45.6059C128.251 45.5875 128.447 45.7409 128.481 45.9585L128.903 48.5977C128.937 48.8141 128.8 49.0212 128.587 49.0737L125.83 49.7436C125.832 50.6417 125.738 51.5372 125.55 52.4156L128.118 53.6257C128.317 53.7201 128.411 53.9509 128.332 54.1567L127.379 56.653C127.3 56.8589 127.079 56.969 126.868 56.9061L124.139 56.105C123.694 56.8798 123.17 57.6075 122.572 58.2709L124.185 60.6112C124.309 60.7908 124.272 61.0386 124.103 61.1762L122.03 62.8623C121.858 63.0013 121.61 62.9855 121.459 62.8243L119.506 60.7606C118.732 61.2103 117.91 61.5787 117.058 61.858L117.283 64.6952C117.3 64.9141 117.147 65.1095 116.931 65.1436L114.292 65.5657C114.076 65.5998 113.867 65.4608 113.816 65.2485L113.158 62.4886C112.26 62.4912 111.365 62.3982 110.487 62.212L109.265 64.7804C109.171 64.9784 108.94 65.0715 108.736 64.9928L106.24 64.0396C106.034 63.961 105.924 63.7381 105.987 63.527L106.797 60.8052C106.018 60.3594 105.287 59.8324 104.62 59.2332L102.28 60.8458C102.1 60.9704 101.853 60.935 101.715 60.7646L100.029 58.6904C99.8905 58.52 99.9062 58.2709 100.066 58.1201L102.129 56.1666C101.68 55.3918 101.311 54.5697 101.032 53.7175L98.1956 53.943C97.9767 53.9601 97.7814 53.808 97.7474 53.5903L97.3253 50.9511C97.2899 50.7348 97.4301 50.5263 97.6425 50.4752L100.402 49.817C100.399 48.919 100.492 48.0235 100.678 47.1451L98.1104 45.9231C97.9125 45.8287 97.8194 45.598 97.8981 45.3935L98.851 42.8972C98.9297 42.6913 99.1525 42.5812 99.3636 42.6441L102.089 43.4531ZM118.417 48.9242C117.948 45.9966 115.195 44.0037 112.268 44.4718C109.341 44.9411 107.349 47.6944 107.817 50.622C108.286 53.5497 111.039 55.5425 113.966 55.0745C116.893 54.6064 118.885 51.8532 118.417 48.9242Z" fill="#F5F5F5"/>
<path fill-rule="evenodd" clip-rule="evenodd" d="M11.4323 121.252C12.0222 119.927 12.751 118.666 13.6095 117.495L10.6406 114.026C10.4112 113.757 10.4269 113.356 10.6773 113.107L13.7249 110.073C13.9752 109.824 14.3737 109.808 14.6424 110.039L18.1199 113.019C19.2892 112.173 20.5462 111.452 21.8661 110.87L21.0299 106.374C20.9643 106.026 21.1793 105.687 21.5214 105.597L25.6779 104.493C26.0187 104.402 26.3726 104.59 26.4893 104.923L28.0085 109.236C29.4451 109.088 30.8948 109.093 32.3301 109.252L33.852 104.943C33.9699 104.608 34.3251 104.422 34.6673 104.515L38.8185 105.639C39.1593 105.731 39.3717 106.069 39.3074 106.416L38.4659 110.915C39.7846 111.503 41.039 112.23 42.2043 113.084L45.6726 110.116C45.9413 109.887 46.3437 109.902 46.5928 110.153L49.6259 113.2C49.875 113.45 49.8907 113.849 49.66 114.118L46.6806 117.595C47.526 118.764 48.247 120.021 48.829 121.342L53.3236 120.505C53.6723 120.441 54.0105 120.655 54.1022 120.997L55.2059 125.154C55.2964 125.494 55.1089 125.849 54.7773 125.966L50.4648 127.485C50.6129 128.922 50.6077 130.372 50.4491 131.808L54.7563 133.33C55.0906 133.448 55.2767 133.802 55.185 134.146L54.0616 138.298C53.9699 138.639 53.6317 138.851 53.2843 138.787L48.7857 137.945C48.1998 139.259 47.4775 140.507 46.6282 141.667L49.5866 145.155C49.8147 145.423 49.7976 145.825 49.5486 146.072L46.501 149.106C46.2493 149.357 45.8496 149.37 45.5808 149.139L42.1217 146.15C40.9538 146.997 39.6967 147.719 38.3781 148.303L39.1986 152.809C39.2616 153.156 39.0479 153.493 38.7071 153.585L34.5506 154.689C34.2098 154.779 33.8533 154.591 33.7379 154.258L32.2384 149.944C30.8018 150.095 29.352 150.09 27.9167 149.934L26.3752 154.243C26.256 154.576 25.9021 154.761 25.5612 154.669L21.41 153.546C21.0679 153.453 20.8555 153.114 20.9224 152.766L21.7796 148.276C20.4597 147.689 19.2053 146.964 18.04 146.11L14.5533 149.07C14.2846 149.298 13.8835 149.281 13.6357 149.032L10.6026 145.983C10.3522 145.732 10.3378 145.332 10.5698 145.063L13.5584 141.603C12.713 140.435 11.9894 139.178 11.4061 137.859L6.90094 138.679C6.55358 138.742 6.21671 138.529 6.12626 138.188L5.02258 134.03C4.93214 133.689 5.12089 133.333 5.45383 133.217L9.76631 131.717C9.61557 130.281 9.62081 128.83 9.77811 127.395L5.46694 125.849C5.134 125.73 4.94918 125.376 5.04225 125.035L6.16428 120.883C6.25734 120.541 6.59684 120.328 6.94419 120.395L11.4323 121.252ZM38.4607 127.373C37.2364 122.76 32.5071 120.015 27.8958 121.238C23.2844 122.463 20.5396 127.193 21.7626 131.805C22.9869 136.418 27.7162 139.163 32.3275 137.94C36.9388 136.715 39.6849 131.985 38.4607 127.373Z" fill="#F5F5F5"/>
<path d="M189.454 277.272C288.528 277.272 368.844 275.801 368.844 273.985C368.844 272.17 288.528 270.698 189.454 270.698C90.3794 270.698 10.0638 272.17 10.0638 273.985C10.0638 275.801 90.3794 277.272 189.454 277.272Z" fill="#F5F5F5"/>
<path fill-rule="evenodd" clip-rule="evenodd" d="M117.058 52.7959C116.353 52.7959 115.776 53.3859 115.776 54.107V94.011C115.776 94.7321 116.353 95.3221 117.058 95.3221C117.763 95.3221 118.34 94.7321 118.34 94.011V54.107C118.34 53.3859 117.763 52.7959 117.058 52.7959Z" fill="#360E94"/>
<path fill-rule="evenodd" clip-rule="evenodd" d="M117.058 116.927C116.353 116.927 115.776 116.337 115.776 115.616V101.285C115.776 100.564 116.353 99.9736 117.058 99.9736C117.763 99.9736 118.34 100.564 118.34 101.285V115.616C118.34 116.337 117.763 116.927 117.058 116.927Z" fill="#360E94"/>
<path fill-rule="evenodd" clip-rule="evenodd" d="M248.603 15H131.263C123.271 15 116.734 21.6878 116.734 29.8637V260.075C116.734 268.252 123.271 274.939 131.263 274.939H248.603C256.595 274.939 263.132 268.251 263.132 260.075V29.8637C263.132 21.6878 256.595 15 248.603 15Z" fill="#7BBFF3"/>
<path fill-rule="evenodd" clip-rule="evenodd" d="M248.603 15.7029H131.263C123.65 15.7029 117.422 22.076 117.422 29.8639V260.075C117.422 267.864 123.651 274.236 131.263 274.236H248.603C256.216 274.236 262.443 267.864 262.443 260.075V29.8639C262.445 22.076 256.216 15.7029 248.603 15.7029Z" fill="#3C8F7C"/>
<path fill-rule="evenodd" clip-rule="evenodd" d="M131.263 21.145C126.574 21.145 122.74 25.0678 122.74 29.865V260.076C122.74 264.873 126.574 268.796 131.263 268.796H248.603C253.292 268.796 257.126 264.873 257.126 260.076V29.865C257.126 25.0678 253.292 21.145 248.603 21.145C205.359 21.145 174.508 21.145 131.263 21.145Z" fill="#1369B1"/>
<path fill-rule="evenodd" clip-rule="evenodd" d="M248.603 22.5403C252.539 22.5403 255.761 25.8376 255.761 29.864V260.075C255.761 264.101 252.538 267.399 248.603 267.399H131.263C127.327 267.399 124.105 264.101 124.105 260.075V29.8653C124.105 25.839 127.328 22.5416 131.263 22.5416C174.186 22.5403 205.68 22.5403 248.603 22.5403Z" fill="#EBF3F5"/>
<path fill-rule="evenodd" clip-rule="evenodd" d="M234.236 22.5403L138.862 267.4H131.264C127.328 267.4 124.106 264.103 124.106 260.076V29.8653C124.106 25.839 127.329 22.5416 131.264 22.5416H234.236V22.5403Z" fill="#EBF5FF"/>
<path fill-rule="evenodd" clip-rule="evenodd" d="M190.013 160.628C191.459 160.628 192.773 161.219 193.724 162.17C194.676 163.122 195.266 164.436 195.266 165.88V169.979C195.266 170.56 194.795 171.029 194.216 171.029H185.812C185.232 171.029 184.762 170.558 184.762 169.979V165.88C184.762 164.434 185.354 163.121 186.304 162.17C187.254 161.219 188.568 160.628 190.013 160.628ZM190.013 162.73C189.147 162.73 188.361 163.085 187.789 163.657C187.218 164.228 186.862 165.016 186.862 165.882V168.93H193.165V165.882C193.165 165.016 192.809 164.228 192.238 163.657C191.666 163.085 190.88 162.73 190.013 162.73Z" fill="white"/>
<path fill-rule="evenodd" clip-rule="evenodd" d="M182.452 168.683H196.457C197.228 168.683 197.857 169.314 197.857 170.085V183.221C197.857 183.992 197.227 184.621 196.457 184.621H182.452C181.681 184.621 181.052 183.99 181.052 183.221V170.085C181.05 169.314 181.681 168.683 182.452 168.683Z" fill="#3C8F7C"/>
<path fill-rule="evenodd" clip-rule="evenodd" d="M189.454 173.146C190.509 173.146 191.364 174.001 191.364 175.057C191.364 175.834 190.898 176.504 190.232 176.802L190.28 176.938L191.105 179.306H189.454H187.802L188.628 176.938L188.675 176.802C188.008 176.504 187.544 175.834 187.544 175.057C187.544 174.001 188.399 173.146 189.454 173.146Z" fill="#844BF0"/>
<path fill-rule="evenodd" clip-rule="evenodd" d="M189.986 173.223C190.782 173.453 191.364 174.187 191.364 175.058C191.364 175.835 190.898 176.505 190.232 176.803L190.28 176.939L191.105 179.307H189.454H188.208L189.011 177.009L189.058 176.873C188.391 176.575 187.927 175.905 187.927 175.127C187.927 174.072 188.781 173.217 189.836 173.217C189.886 173.216 189.936 173.217 189.986 173.223Z" fill="#B6D6CE"/>
<path fill-rule="evenodd" clip-rule="evenodd" d="M147.522 139.971V69.8123C147.522 63.8967 152.36 59.0562 158.275 59.0562H228.417C234.331 59.0562 239.17 63.8953 239.17 69.8123V139.969C239.17 145.885 234.332 150.724 228.417 150.724H158.275C152.36 150.726 147.522 145.886 147.522 139.971Z" fill="#A8D3F7"/>
<path fill-rule="evenodd" clip-rule="evenodd" d="M138.202 87.1628L137.794 87.2546C137.49 87.3228 137.227 87.6427 137.208 87.9665L135.85 111.514L135.907 111.5C137.122 111.228 138.177 109.947 138.252 108.653L139.427 88.2602C139.473 87.4959 138.922 87.0016 138.202 87.1628Z" fill="#3EA5EC"/>
<path fill-rule="evenodd" clip-rule="evenodd" d="M137.516 87.3623L137.37 87.395C137.244 87.4239 137.135 87.5563 137.127 87.69L135.683 111.318C135.675 111.452 135.771 111.539 135.896 111.51L136.043 111.477C136.055 111.474 136.065 111.461 136.067 111.448L137.537 87.3806C137.537 87.3688 137.528 87.3596 137.516 87.3623Z" fill="#217DC5"/>
<path fill-rule="evenodd" clip-rule="evenodd" d="M129.227 114.702C124.008 119.193 117.476 125.012 108.935 128.922C106.008 125.887 104.004 123.363 99.8275 120.491L90.6193 130.962C94.3065 134.564 100.638 137.208 104.816 141.139C118.509 141.098 127.211 122.653 133 119.236C137.893 116.348 139.64 114.516 140.852 109.181C141.914 104.508 139.323 100.018 138.171 99.3206C136.126 100.322 140.395 104.242 137.176 108.573C136.992 108.821 136.052 109.711 135.655 108.962C135.06 107.844 136.702 105.386 136.432 105.171C133.925 103.175 130.032 113.277 129.227 114.702Z" fill="#FDDDB6"/>
<path fill-rule="evenodd" clip-rule="evenodd" d="M97.7001 118.133L106.368 125.137C104.612 129.281 101.526 133.301 98.2926 136.404L86.8101 129.595C67.4905 117.534 73.6014 93.1269 97.7001 118.133Z" fill="#F47458"/>
<path fill-rule="evenodd" clip-rule="evenodd" d="M91.7609 258.92L91.2457 267.245L82.7361 267.346L82.2433 258.3L91.7609 258.92Z" fill="#332A7C"/>
<path fill-rule="evenodd" clip-rule="evenodd" d="M69.7267 258.69L69.1107 266.614L60.3402 266.588L60.0558 258.398L69.7267 258.69Z" fill="#332A7C"/>
<path fill-rule="evenodd" clip-rule="evenodd" d="M92.9827 260.655C92.9827 260.655 80.6666 262.3 80.9143 259.907C82.212 247.39 79.9457 231.281 81.613 223.964C82.7153 219.12 78.3714 213.796 77.8235 208.405L69.9313 165.866L94.2725 166.738C95.6213 176.298 99.3308 201.455 97.0828 222.836C96.1155 232.035 93.4611 249.32 92.9827 260.655Z" fill="#2E4661"/>
<path fill-rule="evenodd" clip-rule="evenodd" d="M85.4259 261.206C82.9328 261.206 80.8106 260.914 80.9142 259.907C82.2118 247.39 79.9455 231.281 81.6128 223.964C82.7152 219.122 78.3712 213.796 77.8233 208.405L72.7152 180.874L83.7533 179.303C83.7533 179.303 83.1097 205.275 86.329 218.799C86.329 218.799 87.0198 244.382 85.4259 261.206Z" fill="#2E4661"/>
<path fill-rule="evenodd" clip-rule="evenodd" d="M60.7833 165.55C58.8184 170.946 57.8641 180.344 60.7046 190.88C60.3913 199.121 63.0444 211.762 63.0155 219.764C62.9945 225.699 58.6637 245.379 58.1145 259.832C61.845 261.087 67.0252 261.101 71.2603 260.056C73.1951 244.791 75.9438 235.365 78.4867 221.904C79.943 214.195 81.0807 203.651 82.4898 196.384C83.7744 189.763 83.3182 187.463 87.7775 182.209C91.1803 178.2 95.0432 170.949 94.7601 166.237L60.7833 165.55Z" fill="#2E4661"/>
<path fill-rule="evenodd" clip-rule="evenodd" d="M60.7819 165.55C58.8171 170.946 57.8628 180.344 60.7046 190.88C60.3913 199.121 63.0444 211.762 63.0155 219.764C62.9945 225.699 58.6637 245.377 58.1145 259.832C59.4803 260.292 61.0402 260.584 62.6773 260.721C64.46 248.336 69.8762 220.936 69.8762 220.936C70.0911 217.287 67.9454 189.811 67.9454 189.811C66.1981 184.239 66.6739 172.966 67.5626 165.682L60.7819 165.55Z" fill="#2E4661"/>
<path fill-rule="evenodd" clip-rule="evenodd" d="M86.189 275.254C90.1174 275.299 92.6171 274.802 96.8352 275.208C108.398 276.32 110.3 275.139 109.871 271.845C109.872 270.878 96.9217 266.593 92.2789 261.905C91.6943 261.315 89.5367 262.057 89.1029 262.845C88.745 263.496 88.7804 264.468 88.9311 264.979C87.0436 265.679 84.1796 264.864 82.4546 264.467C81.5934 264.269 81.4426 265.845 81.3994 267.711C81.2762 273.021 80.8253 275.194 86.189 275.254Z" fill="#1A1840"/>
<path fill-rule="evenodd" clip-rule="evenodd" d="M71.6522 275.724C77.1274 275.744 78.5194 274.66 77.923 271.79C77.6491 270.289 71.1725 266.326 69.9758 262.657C69.7241 262.552 69.2234 262.484 68.6007 262.444C66.6097 262.314 63.3615 262.47 62.9264 262.666C62.3234 263.414 61.9144 264.46 61.8214 265.304C60.9536 265.506 60.6154 265.08 60.2773 264.857C59.2195 264.161 59.4973 271.266 59.8237 273.025C60.466 276.479 67.0645 275.706 71.6522 275.724Z" fill="#1A1840"/>
<path fill-rule="evenodd" clip-rule="evenodd" d="M80.8736 107.175C91.4569 108.355 97.2873 118.815 93.0482 151.25C93.0482 151.25 98.8392 170.306 94.1466 172.155L79.1932 174.04C71.4766 175.332 56.9217 176.235 59.2064 164.195C62.0809 149.042 57.4722 122.34 56.9597 113.9C57.1327 109.656 66.8142 104.641 69.8644 105.34C75.0787 104.519 75.7354 107.259 80.8736 107.175Z" fill="#F47458"/>
<path fill-rule="evenodd" clip-rule="evenodd" d="M66.1483 142.761C69.998 147.618 76.9583 155.346 92.1555 159.723C81.6784 157.906 72.6065 153.374 65.3382 147.605L59.7556 141.604C59.3833 136.123 58.8 130.701 58.2587 125.991L60.8095 108.772C77.5534 111.317 57.2441 134.627 66.1483 142.761Z" fill="#ED6A4D"/>
<path fill-rule="evenodd" clip-rule="evenodd" d="M85.4797 104.879C85.4797 104.879 83.001 107.993 85.0183 110.942C85.0183 110.942 85.384 115.312 79.4908 115.114C76.3357 114.959 68.644 109.97 68.8079 105.871C68.8079 105.871 70.1554 105.772 70.4673 104.895C70.4673 104.895 71.5946 100.249 70.31 95.2495L85.4797 104.879Z" fill="#FDCB90"/>
<path fill-rule="evenodd" clip-rule="evenodd" d="M51.4177 138.03C56.4262 140.115 59.8657 148.664 67.7422 158.399C67.7422 158.399 73.3353 157.83 74.0379 159.538C74.0379 159.538 75.9543 163.098 74.983 164.326C74.983 164.326 74.4023 165.033 73.7731 164.948C73.7731 164.948 71.9223 167.057 70.6875 167.212C70.3192 167.646 67.5259 167.209 66.3357 165.12C65.4103 165.198 63.0299 164.05 62.7075 161.26C59.8722 157.047 40.0296 143.316 41.4217 136.794C45.7289 130.423 51.0363 118.651 59.3506 110.213C65.679 110.037 69.1434 114.361 65.2399 123.092C60.8422 128.733 56.7041 133.748 51.4177 138.03Z" fill="#FDDDB6"/>
<path fill-rule="evenodd" clip-rule="evenodd" d="M61.1568 108.523C55.8901 110.502 50.8344 119.017 46.6097 126.909C47.9441 130.093 52.0429 133.707 55.6437 135.142C58.8105 131.185 63.6748 125.554 65.9871 123.069C65.9871 123.068 71.6365 109.117 61.1568 108.523Z" fill="#F47458"/>
<path fill-rule="evenodd" clip-rule="evenodd" d="M92.187 91.3388C92.187 91.3388 91.7715 98.1629 91.2419 101.345C91.2419 101.345 90.6704 104.169 85.5741 107.498C85.3342 107.654 84.9882 107.869 84.768 107.929C83.7102 108.222 81.6562 108.658 75.3107 104.282C75.3107 104.282 72.6812 102.049 71.4189 99.7415C71.4189 99.7415 64.5308 89.0418 66.4013 84.921C66.4013 84.921 69.846 77.3627 78.6794 77.4702C78.6794 77.4702 88.8563 75.9414 90.4319 80.9629C93.6865 85.6736 92.731 87.5039 92.187 91.3388Z" fill="#FDDDB6"/>
<path fill-rule="evenodd" clip-rule="evenodd" d="M99.6296 82.6476C99.6296 82.6476 95.7314 83.3425 93.254 82.0773C93.254 82.0773 95.131 81.7718 96.7157 78.9635C90.3126 82.1796 82.2172 65.4528 69.4121 76.7032C69.1159 75.8707 68.9153 74.6776 69.2273 73.7979C67.9729 75.4406 67.0147 77.2172 66.9767 78.7446L64.5308 77.3863L65.4719 80.744C60.1056 84.571 66.4498 93.6882 68.6951 97.1154C69.4501 100.084 71.339 101.531 72.7337 102.753L72.052 99.4413C69.7411 98.083 66.7368 92.1018 71.2997 93.5021C72.0822 95.8253 71.9472 95.7283 73.1216 97.9506L73.6315 97.7932C73.237 96.4153 73.3327 95.1357 73.3995 94.1025C73.8334 93.822 75.447 91.875 74.3682 89.1165C78.1511 89.6632 97.5048 90.1431 99.6296 82.6476Z" fill="#221E54"/>
<path fill-rule="evenodd" clip-rule="evenodd" d="M297.917 259.22L298.423 267.397L306.782 267.497L307.266 258.61L297.917 259.22Z" fill="#332A7C"/>
<path fill-rule="evenodd" clip-rule="evenodd" d="M319.56 258.995L320.164 266.777L328.778 266.752L329.059 258.708L319.56 258.995Z" fill="#332A7C"/>
<path fill-rule="evenodd" clip-rule="evenodd" d="M296.718 260.924C296.718 260.924 308.815 262.538 308.571 260.189C307.297 247.895 309.523 232.071 307.886 224.884C306.803 220.127 311.068 214.897 311.607 209.602L319.359 167.819L295.45 168.675C294.126 178.065 290.482 202.775 292.691 223.776C293.641 232.812 296.247 249.79 296.718 260.924Z" fill="#2B2468"/>
<path fill-rule="evenodd" clip-rule="evenodd" d="M304.14 261.466C306.588 261.466 308.674 261.179 308.571 260.189C307.297 247.895 309.522 232.072 307.886 224.884C306.803 220.128 311.07 214.898 311.608 209.602L316.625 182.561L305.783 181.018C305.783 181.018 306.415 206.529 303.254 219.812C303.252 219.813 302.575 244.941 304.14 261.466Z" fill="#221E54"/>
<path fill-rule="evenodd" clip-rule="evenodd" d="M328.344 167.51C330.275 172.811 331.211 182.042 328.422 192.389C328.73 200.485 326.124 212.901 326.151 220.76C326.172 226.59 330.426 245.918 330.966 260.114C327.302 261.347 322.214 261.361 318.055 260.335C316.154 245.341 313.455 236.082 310.957 222.861C309.525 215.289 308.409 204.934 307.024 197.795C305.764 191.292 306.212 189.033 301.831 183.873C298.489 179.934 294.695 172.811 294.973 168.183L328.344 167.51Z" fill="#2B2468"/>
<path fill-rule="evenodd" clip-rule="evenodd" d="M328.345 167.51C330.275 172.811 331.211 182.042 328.421 192.389C328.729 200.485 326.123 212.901 326.15 220.76C326.171 226.59 330.425 245.918 330.965 260.114C329.624 260.565 328.092 260.854 326.483 260.986C324.733 248.822 319.413 221.908 319.413 221.908C319.202 218.324 321.31 191.338 321.31 191.338C323.027 185.864 322.559 174.792 321.684 167.637L328.345 167.51Z" fill="#221E54"/>
<path fill-rule="evenodd" clip-rule="evenodd" d="M303.391 275.264C299.532 275.307 297.077 274.819 292.935 275.218C281.578 276.31 279.709 275.15 280.131 271.914C280.13 270.963 292.85 266.755 297.41 262.15C297.984 261.571 300.104 262.3 300.53 263.073C300.881 263.713 300.845 264.667 300.697 265.17C302.551 265.857 305.364 265.056 307.059 264.666C307.904 264.472 308.052 266.021 308.095 267.853C308.216 273.071 308.659 275.205 303.391 275.264Z" fill="#1A1840"/>
<path fill-rule="evenodd" clip-rule="evenodd" d="M317.668 275.725C312.291 275.745 310.923 274.68 311.509 271.861C311.778 270.386 318.139 266.494 319.315 262.891C319.562 262.789 320.053 262.72 320.665 262.681C322.62 262.554 325.811 262.707 326.238 262.9C326.831 263.634 327.233 264.662 327.323 265.491C328.176 265.689 328.508 265.27 328.84 265.052C329.878 264.368 329.606 271.346 329.286 273.074C328.655 276.466 322.175 275.708 317.668 275.725Z" fill="#1A1840"/>
<path fill-rule="evenodd" clip-rule="evenodd" d="M284.765 129.229C283.825 126.741 287.424 125.039 286.081 121.852C288.671 119.677 286.896 115.56 283.345 114.785C284.339 114.674 285.479 114.97 286.445 115.299C287.095 115.681 287.464 116.104 288.109 116.681C288.465 116.943 289.18 116.6 288.903 116.017C288.33 115.32 287.975 114.621 287.402 113.922C286.354 113.509 285.338 113.218 284.289 112.804C284.289 112.804 281.837 111.598 279.146 116.016C278.355 117.184 277.482 118.092 277.941 119.439C278.404 120.796 279.481 123.523 279.537 124.654C279.537 124.654 279.471 129.157 278.862 130.337C278.864 130.337 280.631 130.452 284.765 129.229Z" fill="#FDCB90"/>
<path fill-rule="evenodd" clip-rule="evenodd" d="M304.997 114.44C308.708 122.084 294.429 150.836 287.784 153.255C279.966 148.617 278.438 132.917 278.204 129.663C279.538 130.451 284.397 129.384 284.631 127.225C285.964 130.603 289.29 134.361 288.75 139.886C288.936 135.018 296.723 102.96 304.997 114.44Z" fill="#FF7C11"/>
<path fill-rule="evenodd" clip-rule="evenodd" d="M308.387 108.07C297.989 109.229 292.263 119.504 296.427 151.365C296.427 151.365 290.738 170.086 295.347 171.902L310.035 173.755C317.616 175.023 331.914 175.91 329.67 164.083C326.846 149.198 329.469 123.854 329.974 115.561C329.805 111.392 322.323 106.34 319.326 107.026C314.206 106.222 313.434 108.152 308.387 108.07Z" fill="#FFA000"/>
<path fill-rule="evenodd" clip-rule="evenodd" d="M301.954 109.171C301.954 109.171 304.906 111.749 303.472 114.963C303.472 114.963 303.995 119.138 309.67 117.904C312.699 117.196 318.755 111.165 317.87 107.222C317.87 107.222 316.547 107.364 316.09 106.57C316.09 106.57 314.176 102.268 314.537 97.197L301.954 109.171Z" fill="#FDCB90"/>
<path fill-rule="evenodd" clip-rule="evenodd" d="M317.967 147.184C314.547 151.5 309.267 157.328 295.765 161.217C305.074 159.603 313.134 155.575 319.592 150.45L328.456 140.923C328.731 130.336 329.689 120.239 329.974 115.562C329.949 114.949 324.268 110.878 323.964 110.247C312.65 114.807 312.602 128.57 311.874 136.734C311.771 137.891 302.774 128.149 302.948 129.405C303.298 131.929 313.11 145.661 313.479 147.292C313.957 149.416 318.997 146.824 317.967 147.184Z" fill="#FF7C11"/>
<path fill-rule="evenodd" clip-rule="evenodd" d="M291.414 113.115L293.96 126.737C294.081 127.382 293.93 128.081 293.571 128.603C293.202 129.138 292.682 129.441 292.076 129.441H286.588C285.735 129.441 284.885 128.414 284.693 127.539L281.699 113.919C281.58 113.377 281.823 112.517 282.137 112.088C282.506 111.584 283.01 111.302 283.594 111.302C285.722 111.302 287.403 111.302 289.531 111.302C290.455 111.303 291.234 112.126 291.414 113.115Z" fill="#217DC5"/>
<path fill-rule="evenodd" clip-rule="evenodd" d="M290.948 113.178L293.494 127.05C293.594 127.598 293.473 128.204 293.155 128.664C292.847 129.112 292.404 129.393 291.854 129.393H286.217C285.443 129.393 284.713 128.404 284.563 127.716L281.569 113.845C281.475 113.408 281.69 112.645 281.953 112.285C282.263 111.861 282.693 111.6 283.223 111.6C285.251 111.6 287.28 111.6 289.308 111.6C290.163 111.6 290.804 112.39 290.948 113.178Z" fill="#6BB9F1"/>
<path fill-rule="evenodd" clip-rule="evenodd" d="M290.788 113.208L293.333 127.08C293.425 127.579 293.318 128.141 293.022 128.572C292.725 129.004 292.322 129.231 291.854 129.231H286.216C285.458 129.231 284.829 128.184 284.722 127.682L281.728 113.811C281.664 113.512 281.787 112.787 282.084 112.382C282.382 111.975 282.771 111.764 283.223 111.764C285.178 111.764 287.355 111.764 289.308 111.764C290.034 111.763 290.646 112.437 290.788 113.208Z" fill="#F5F5F5"/>
<path fill-rule="evenodd" clip-rule="evenodd" d="M329.006 112.505C333.674 119.605 322.243 147.141 315.965 150.401C304.345 150.229 297.428 138.851 294.93 134.571L298.436 126.109C300.366 126.102 309.11 135.659 312.475 139.002C312.475 139.002 314.204 120.955 316.322 117.542C316.322 117.544 322.657 105.171 329.006 112.505Z" fill="#FFA000"/>
<path fill-rule="evenodd" clip-rule="evenodd" d="M298.662 126.401C297.046 124.886 296.162 121.609 294.366 120.096C293.75 119.576 292.965 119.964 292.61 120.101C292.572 120.139 293.339 121.648 292.18 122.939C292.18 122.939 286.077 124.067 283.584 122.375C283.584 122.375 283.168 120.781 283.117 120.581C282.741 121.125 281.069 122.783 284.394 126.745C285.247 127.867 285.871 128.616 287.025 128.912C288.41 129.267 291.568 129.674 292.657 129.983C292.657 129.983 296.883 131.647 297.806 132.601C297.806 132.601 298.499 130.711 298.662 126.401Z" fill="#FDDDB6"/>
<path fill-rule="evenodd" clip-rule="evenodd" d="M295.011 98.0345C295.011 98.0345 296.723 104.624 297.85 107.633C297.85 107.633 298.949 110.283 304.568 112.561C304.832 112.669 305.213 112.812 305.438 112.829C306.528 112.911 306.827 113.082 312.189 107.59C312.189 107.59 314.332 104.905 315.124 102.407C315.124 102.407 319.359 90.6663 316.743 86.9966C316.743 86.9966 314.172 80.099 305.56 81.8951C305.56 81.8951 295.322 82.3488 294.742 87.559C292.463 92.785 293.746 94.391 295.011 98.0345Z" fill="#FDDDB6"/>
<path fill-rule="evenodd" clip-rule="evenodd" d="M295.462 99.1961C295.678 99.9067 295.83 102.566 297.593 102.268C297.659 101.414 298.873 101.108 299.632 101.625C299.532 101.344 301.194 100.059 303.252 101.557C304.807 99.6169 306.854 100.843 306.841 101.077C307.631 100.171 310.391 99.9316 310.869 101.088C313.615 100.093 313.13 97.0983 313.124 96.1845L313.664 96.0757C313.994 98.1105 314.576 99.4806 314.576 99.4806C316.824 100.451 316.298 104.097 314.818 104.246C315.766 106.23 313.793 109.287 312.177 109.378C311.56 111.858 310.263 112.228 310.263 112.228C309.107 113.756 307.481 113.821 306.412 113.564C305.395 113.98 303.778 114.161 302.403 112.826C302.403 112.826 300.236 113.094 299.25 110.735C298.406 110.681 296.208 108.204 297.159 105.816C297.159 105.816 295.516 104.693 295.402 102.067C295.402 102.067 295.147 101.084 295.166 99.023L295.462 99.1961ZM299.05 104.334C299.05 104.334 298.895 105.392 299.942 105.657C299.942 105.657 301.381 105.822 303.037 105.749C304.685 105.571 305.529 105.202 305.529 105.202C306.709 104.367 306.757 103.201 306.757 103.201C305.576 104.236 300.374 105.177 299.05 104.334Z" fill="#221E54"/>
<path fill-rule="evenodd" clip-rule="evenodd" d="M295.379 91.7138C295.379 91.7138 299.49 94.5077 302.184 89.797C302.184 89.797 305.539 91.643 307.766 88.2054C307.603 89.1389 309.516 91.3506 311.506 91.0491C311.506 91.0491 312.722 94.4802 313.053 95.2275L313.496 95.1803L313.274 91.3467C313.255 91.0032 316.036 89.8744 316.191 92.4008C316.191 92.4008 316.199 95.8752 315.391 97.5534C315.225 97.9703 314.341 98.4239 313.725 97.9375C313.695 97.7094 314.957 104.301 314.437 105.211C314.437 105.211 316.979 103.348 316.977 101.504C317.263 101.698 319.318 100.499 318.878 98.4724C319.196 98.4174 320.54 95.4871 319.278 94.7411C319.278 94.7411 320.87 93.4864 320.625 91.4595C320.625 91.4595 320.661 87.9956 318.676 88.288C318.912 88.267 320.596 84.3849 317.238 82.8614C317.976 81.2055 315.462 77.8295 312.785 80.0085C313.167 78.5322 310.169 77.1687 309.168 79.1825C309.01 77.1884 304.782 76.7085 305.141 78.8862C304.718 77.3614 301.805 76.5564 300.377 79.0789C299.334 77.7954 294.757 79.1025 295.14 83.1354C294.906 82.3737 292.995 81.671 292.59 83.4081C292.026 82.1941 288.785 82.3816 288.508 85.2738C287.689 85.4154 285.718 89.5335 289.761 90.4604C289.634 92.4729 294.018 94.5405 295.379 91.7138Z" fill="#221E54"/>
<path fill-rule="evenodd" clip-rule="evenodd" d="M228.769 267.399C217.871 256.931 211.159 242.598 210.369 227.135L210.11 222.09L215.123 221.469C224.172 220.345 233.183 216.44 239.448 209.686L243.428 205.396L247.407 209.686C249.581 212.029 252.084 214.029 254.804 215.688V261.159C254.804 264.59 252.058 267.4 248.704 267.4H228.769V267.399Z" fill="#F5F5F5"/>
<path fill-rule="evenodd" clip-rule="evenodd" d="M279.703 225.312C278.659 245.691 267.266 264.091 249.536 274.17L246.871 275.685L244.208 274.17C226.479 264.091 215.085 245.691 214.041 225.312L213.785 220.302L218.762 219.685C227.748 218.569 236.697 214.691 242.919 207.985L246.871 203.725L250.823 207.985C257.046 214.691 265.993 218.569 274.981 219.685L279.958 220.302L279.703 225.312Z" fill="#A67DF5"/>
<path fill-rule="evenodd" clip-rule="evenodd" d="M246.873 275.273L244.385 273.858C226.764 263.84 215.436 245.551 214.399 225.293L214.16 220.615L218.806 220.039C227.878 218.912 236.902 214.995 243.182 208.226L246.871 204.249V275.273H246.873Z" fill="white"/>
<path fill-rule="evenodd" clip-rule="evenodd" d="M279.345 225.293C278.308 245.552 266.98 263.84 249.359 273.858L246.871 275.273V204.249L250.561 208.226C256.841 214.994 265.864 218.912 274.936 220.039L279.583 220.615L279.345 225.293Z" fill="#E8DFFD"/>
<path fill-rule="evenodd" clip-rule="evenodd" d="M246.873 211.652C240.329 218.704 230.59 223.651 219.427 225.035C220.404 244.103 231.207 260.575 246.873 269.481V211.652Z" fill="#CBE3CB"/>
<path fill-rule="evenodd" clip-rule="evenodd" d="M246.873 211.652C253.416 218.704 263.155 223.651 274.318 225.035C273.341 244.103 262.538 260.575 246.873 269.481V211.652Z" fill="#D8FDF4"/>
<path fill-rule="evenodd" clip-rule="evenodd" d="M246.872 222.405C248.683 222.405 250.326 223.144 251.517 224.335C252.707 225.525 253.446 227.171 253.446 228.98V234.11C253.446 234.837 252.858 235.425 252.131 235.425H241.614C240.887 235.425 240.299 234.837 240.299 234.11V228.98C240.299 227.171 241.038 225.527 242.228 224.335C243.419 223.144 245.064 222.405 246.872 222.405ZM246.872 225.035C245.788 225.035 244.803 225.48 244.087 226.195C243.371 226.911 242.927 227.897 242.927 228.98V232.795H250.815V228.98C250.815 227.897 250.371 226.911 249.655 226.195C248.941 225.48 247.955 225.035 246.872 225.035Z" fill="#3C8F7C"/>
<path fill-rule="evenodd" clip-rule="evenodd" d="M246.873 232.487H255.638C256.601 232.487 257.39 233.277 257.39 234.24V250.682C257.39 251.647 256.601 252.437 255.638 252.437H246.873V232.487Z" fill="#3C8F7C"/>
<path fill-rule="evenodd" clip-rule="evenodd" d="M238.107 232.487H246.872V252.437H238.107C237.142 252.437 236.354 251.647 236.354 250.682V234.24C236.354 233.277 237.142 232.487 238.107 232.487Z" fill="#3C8F7C"/>
<path fill-rule="evenodd" clip-rule="evenodd" d="M246.872 238.074C248.192 238.074 249.263 239.145 249.263 240.465C249.263 241.439 248.681 242.276 247.848 242.649L247.907 242.82L248.941 245.783H246.872H244.804L245.838 242.82L245.897 242.649C245.062 242.276 244.482 241.439 244.482 240.465C244.482 239.144 245.552 238.074 246.872 238.074Z" fill="#B6D6CE"/>
<path fill-rule="evenodd" clip-rule="evenodd" d="M247.54 238.168C248.536 238.457 249.263 239.376 249.263 240.465C249.263 241.438 248.681 242.276 247.848 242.65L247.907 242.82L248.941 245.783H246.873H245.313L246.317 242.907L246.376 242.736C245.541 242.362 244.96 241.525 244.96 240.552C244.96 239.232 246.031 238.16 247.351 238.16C247.414 238.16 247.477 238.163 247.54 238.168Z" fill="white"/>
<path fill-rule="evenodd" clip-rule="evenodd" d="M142.663 136.747V65.1096C142.663 59.0695 147.603 54.1267 153.643 54.1267H225.264C231.303 54.1267 236.245 59.0682 236.245 65.1096V136.747C236.245 142.787 231.304 147.73 225.264 147.73H153.643C147.603 147.729 142.663 142.787 142.663 136.747Z" fill="#3C8F7C"/>
<path fill-rule="evenodd" clip-rule="evenodd" d="M165.137 118.414L189.594 107.946L213.77 118.414V147.728H165.137V118.414Z" fill="#F47458"/>
<path fill-rule="evenodd" clip-rule="evenodd" d="M165.138 118.414C159.15 118.414 154.251 123.314 154.251 129.303V147.729H165.138V118.414Z" fill="#ED6A4D"/>
<path fill-rule="evenodd" clip-rule="evenodd" d="M213.77 118.414C219.758 118.414 224.656 123.314 224.656 129.303V147.729H213.77V118.414Z" fill="#ED6A4D"/>
<path fill-rule="evenodd" clip-rule="evenodd" d="M173.306 86.8788C175.229 86.0109 177.794 87.5383 179.034 90.289C180.276 93.0409 179.724 95.9738 177.801 96.8417C175.878 97.7097 173.313 96.1823 172.073 93.4316C170.832 90.6797 171.383 87.7455 173.306 86.8788Z" fill="#FDCB90"/>
<path fill-rule="evenodd" clip-rule="evenodd" d="M206.341 86.8788C204.418 86.0109 201.853 87.5383 200.611 90.289C199.37 93.0409 199.923 95.9738 201.845 96.8417C203.768 97.7097 206.333 96.1823 207.573 93.4316C208.817 90.6797 208.264 87.7455 206.341 86.8788Z" fill="#FDCB90"/>
<path fill-rule="evenodd" clip-rule="evenodd" d="M179.607 102.091C179.607 102.091 182.13 108.987 178.937 112.003C179.249 123.252 200.017 123.456 199.97 112.003C196.777 108.987 199.3 102.091 199.3 102.091L189.688 99.1291V98.9849H189.218V99.1291L179.607 102.091Z" fill="#FDCB90"/>
<path fill-rule="evenodd" clip-rule="evenodd" d="M174.131 89.8783C174.131 89.8783 175.548 99.1384 177.599 103.247C178.733 105.995 186.523 111.708 189.409 111.49C193.302 111.196 199.973 107.288 201.64 103.247C203.691 99.1384 205.108 89.8783 205.108 89.8783C208.789 82.0354 205.225 67.9859 193.857 66.5411C190.728 65.5381 188.513 65.5381 185.382 66.5411C177.066 67.2661 169.133 79.2257 174.131 89.8783Z" fill="#FDDDB6"/>
<path fill-rule="evenodd" clip-rule="evenodd" d="M163.195 84.4334C163.195 84.4334 168.724 83.7464 171.53 80.9866C171.53 80.9866 168.881 81.355 165.59 78.194C175.527 79.8945 177.686 54.9984 199.547 64.9652C199.601 63.7079 199.376 61.9969 198.595 60.9297C200.961 62.6433 202.982 64.6623 203.663 66.726L206.389 63.8521L206.519 69.1869C206.519 69.1869 210.295 71.7762 210.585 80.4871C210.835 87.9851 205.557 91.5382 204.334 98.0608H203.912C204.047 95.6405 204.089 93.0288 204.367 90.6951C204.367 90.6951 201.723 89.1258 202.263 84.0021C200.013 85.6265 170.27 95.516 163.195 84.4334Z" fill="#221E54"/>
<path fill-rule="evenodd" clip-rule="evenodd" d="M159.718 76.5486C159.718 77.5385 158.915 78.3395 157.927 78.3395C156.937 78.3395 156.136 77.5372 156.136 76.5486V60.6413C156.136 59.6514 156.939 58.8503 157.927 58.8503H173.831C174.82 58.8503 175.621 59.6527 175.621 60.6413C175.621 61.6311 174.819 62.4322 173.831 62.4322H159.719V76.5486H159.718ZM205.077 62.4335C204.088 62.4335 203.287 61.6311 203.287 60.6426C203.287 59.6527 204.089 58.8517 205.077 58.8517H220.981C221.971 58.8517 222.771 59.654 222.771 60.6426V76.5499C222.771 77.5398 221.969 78.3408 220.981 78.3408C219.991 78.3408 219.19 77.5385 219.19 76.5499V62.4335H205.077ZM219.189 107.802C219.189 106.812 219.991 106.011 220.98 106.011C221.969 106.011 222.77 106.814 222.77 107.802V123.709C222.77 124.699 221.968 125.5 220.98 125.5H205.076C204.086 125.5 203.285 124.698 203.285 123.709C203.285 122.72 204.088 121.918 205.076 121.918H219.188V107.802H219.189ZM173.831 121.918C174.82 121.918 175.621 122.721 175.621 123.709C175.621 124.699 174.819 125.5 173.831 125.5H157.927C156.937 125.5 156.136 124.698 156.136 123.709V107.802C156.136 106.812 156.939 106.011 157.927 106.011C158.917 106.011 159.718 106.814 159.718 107.802V121.918H173.831Z" fill="white"/>
<path fill-rule="evenodd" clip-rule="evenodd" d="M152.591 82.5191H226.318C226.503 82.215 226.751 81.9528 227.043 81.7509C227.45 81.4703 227.941 81.3064 228.467 81.3064C229.16 81.3064 229.789 81.5883 230.243 82.0432C230.698 82.4982 230.978 83.1262 230.978 83.8197C230.978 84.5133 230.696 85.1426 230.243 85.5976C229.788 86.0525 229.16 86.3331 228.467 86.3331C227.94 86.3331 227.45 86.1692 227.043 85.8886C226.751 85.6867 226.503 85.4245 226.318 85.1216H152.591C152.406 85.4258 152.158 85.688 151.866 85.8886C151.46 86.1692 150.968 86.3331 150.442 86.3331C149.749 86.3331 149.12 86.0512 148.666 85.5976C148.211 85.1426 147.931 84.5146 147.931 83.8197C147.931 83.1262 148.213 82.4969 148.666 82.0432C149.121 81.5883 149.749 81.3064 150.442 81.3064C150.969 81.3064 151.46 81.4703 151.866 81.7509C152.158 81.9541 152.406 82.215 152.591 82.5191Z" fill="#F61D2D"/>
<path fill-rule="evenodd" clip-rule="evenodd" d="M330.446 61.2009H364.447C365.282 61.2009 365.965 61.884 365.965 62.7192V84.9957C365.965 85.8309 365.282 86.5139 364.447 86.5139H346.099L333.417 93.0562C333.319 93.1061 333.206 93.0916 333.125 93.0182C333.044 92.9448 333.017 92.8334 333.058 92.7311L335.524 86.5139H330.444C329.609 86.5139 328.927 85.8309 328.927 84.9957V62.7192C328.928 61.884 329.611 61.2009 330.446 61.2009Z" fill="#F5F5F5"/>
<path fill-rule="evenodd" clip-rule="evenodd" d="M343.809 85.0271L330.752 91.7634C330.606 91.8395 330.433 91.8172 330.309 91.7058C330.186 91.5943 330.147 91.4239 330.208 91.2705L332.684 85.0271H327.629C326.698 85.0271 325.937 84.2654 325.937 83.3345V60.3513C325.937 59.4204 326.698 58.6587 327.629 58.6587H362.708C363.639 58.6587 364.4 59.4204 364.4 60.3513V83.3345C364.4 84.2654 363.639 85.0271 362.708 85.0271H343.809Z" fill="#631AEC"/>
<path fill-rule="evenodd" clip-rule="evenodd" d="M327.628 58.7844H362.707C363.568 58.7844 364.274 59.4898 364.274 60.3512V83.3344C364.274 84.1958 363.568 84.9011 362.707 84.9011H343.777L330.693 91.6505C330.592 91.703 330.475 91.6873 330.391 91.6112C330.307 91.5352 330.281 91.4211 330.322 91.3149L332.866 84.9011H327.625C326.764 84.9011 326.059 84.1958 326.059 83.3344V60.3512C326.062 59.4898 326.767 58.7844 327.628 58.7844Z" fill="white"/>
<path fill-rule="evenodd" clip-rule="evenodd" d="M350.381 67.7002H349.078V65.6143C349.078 64.5379 348.639 63.5599 347.93 62.8519C347.222 62.1439 346.245 61.7034 345.168 61.7034C344.092 61.7034 343.114 62.1426 342.407 62.8519C341.699 63.5599 341.258 64.5379 341.258 65.6143V67.7002H339.955C339.383 67.7002 338.913 68.1696 338.913 68.7426V78.5206C338.913 79.0948 339.383 79.5629 339.955 79.5629H350.381C350.954 79.5629 351.423 79.0935 351.423 78.5206V68.7426C351.425 68.1683 350.956 67.7002 350.381 67.7002ZM347.515 67.7002H342.823V65.6143C342.823 64.9693 343.088 64.3832 343.513 63.9584C343.939 63.5323 344.525 63.2688 345.168 63.2688C345.813 63.2688 346.399 63.5336 346.825 63.9584C347.251 64.3845 347.515 64.9706 347.515 65.6143V67.7002ZM345.168 70.2713C346.21 70.2713 347.056 71.1169 347.056 72.1592C347.056 72.9275 346.597 73.5896 345.938 73.8846L345.985 74.0197L346.802 76.3599H345.168H343.535L344.352 74.0197L344.399 73.8846C343.74 73.5896 343.281 72.9288 343.281 72.1592C343.281 71.1156 344.126 70.2713 345.168 70.2713Z" fill="#F47458"/>
<path fill-rule="evenodd" clip-rule="evenodd" d="M58.5787 61.4553H26.53C25.7435 61.4553 25.0986 62.0991 25.0986 62.887V83.884C25.0986 84.6706 25.7422 85.3157 26.53 85.3157H43.8245L55.7775 91.483C55.8693 91.5302 55.9768 91.5171 56.0528 91.4463C56.1301 91.3768 56.1537 91.2719 56.1157 91.1762L53.7917 85.3157H58.5787C59.3664 85.3157 60.01 84.6719 60.01 83.884V62.887C60.01 62.1004 59.3664 61.4553 58.5787 61.4553Z" fill="#F5F5F5"/>
<path fill-rule="evenodd" clip-rule="evenodd" d="M41.6669 83.82L53.9739 90.1696C54.1128 90.2417 54.2754 90.2194 54.392 90.1145C54.5074 90.0096 54.5454 89.8497 54.4877 89.7041L52.1532 83.82H56.9179C57.7948 83.82 58.5118 83.1029 58.5118 82.2257V60.5628C58.5118 59.6857 57.7948 58.9685 56.9179 58.9685H23.8534C22.9765 58.9685 22.2582 59.6857 22.2582 60.5628V82.2257C22.2582 83.1029 22.9752 83.82 23.8534 83.82H41.6669Z" fill="#631AEC"/>
<path fill-rule="evenodd" clip-rule="evenodd" d="M56.9173 59.0862H23.8528C23.0401 59.0862 22.3768 59.7509 22.3768 60.5625V82.2254C22.3768 83.0383 23.0414 83.7017 23.8528 83.7017H41.6952L54.027 90.0644C54.1214 90.1129 54.2315 90.0984 54.3115 90.0276C54.3901 89.9555 54.4163 89.848 54.377 89.7484L51.9783 83.7017H56.9173C57.73 83.7017 58.3932 83.037 58.3932 82.2254V60.5625C58.3945 59.7496 57.73 59.0862 56.9173 59.0862Z" fill="white"/>
<path fill-rule="evenodd" clip-rule="evenodd" d="M30.2368 71.3646C29.6351 70.5347 29.8213 69.3731 30.651 68.7726C31.4807 68.1708 32.6421 68.357 33.2424 69.1869L36.3634 73.503L46.7408 63.2176C47.467 62.4952 48.6402 62.4991 49.3611 63.2254C50.0833 63.9518 50.0794 65.1252 49.3532 65.8476L37.5064 77.5896C37.4212 77.684 37.3242 77.7719 37.2167 77.8492C36.387 78.451 35.2256 78.2648 34.6253 77.4349L30.2368 71.3646Z" fill="#3C8F7C"/>
</svg>
