<svg width="392" height="289" viewBox="0 0 392 289" fill="none" xmlns="http://www.w3.org/2000/svg">
<path opacity="0.1" d="M389.686 179.735C385.982 193.104 378.233 205.179 369.915 216.615C362.602 226.67 354.78 236.387 346.449 245.765C344.14 248.368 341.795 250.938 339.412 253.477L337.757 255.229C336.289 256.787 334.797 258.331 333.279 259.861L333.097 260.046C331.625 261.55 330.14 263.038 328.642 264.512C323.741 269.345 318.561 274.143 312.834 278.116C310.883 279.473 308.87 280.737 306.786 281.869C305.659 282.484 304.508 283.06 303.332 283.597C301.407 284.476 299.43 285.242 297.365 285.871C297.021 285.979 296.673 286.081 296.325 286.179C294.211 286.774 292.071 287.209 289.909 287.507C281.984 288.595 273.799 287.799 265.861 285.935C261.894 285.003 257.988 283.802 254.21 282.435C253.745 282.269 253.283 282.098 252.818 281.947C239.95 277.115 227.87 270.555 214.911 265.942C210.445 264.351 205.892 263.001 201.253 261.891C198.99 261.351 196.713 260.863 194.424 260.427C189.036 259.422 183.579 258.748 178.1 258.406C170.711 257.918 163.083 258.128 156.052 260.066C155.115 260.323 154.191 260.612 153.278 260.935C152.12 261.341 150.984 261.805 149.87 262.326C146.866 263.783 143.943 265.589 141.126 267.729C140.57 268.139 140.02 268.554 139.471 268.974C137.747 270.291 136.046 271.639 134.32 272.947C131.212 275.388 127.978 277.448 124.649 279.106C122.825 279.971 120.971 280.681 119.094 281.235C114.129 282.728 108.845 283.319 103.537 283.358C100.978 283.358 98.4158 283.275 95.8826 283.075H95.8045C94.9395 283.006 94.0713 282.928 93.203 282.831C89.2488 282.426 85.3075 281.801 81.4247 280.947C68.1213 278.018 55.5041 272.483 45.355 264.039C31.5703 252.578 22.8163 235.49 24.13 218.416C25.0731 206.116 30.9297 194.695 36.4871 183.513C46.8248 162.69 56.5089 141.395 61.6046 118.947C65.7377 100.727 66.9702 81.4613 76.4819 65.0857C79.5289 59.8435 83.4247 55.0601 87.961 50.8674C91.3518 47.7514 94.9059 45.0548 98.5881 42.804C102.75 40.2455 107.031 38.1492 111.397 36.532C115.181 35.1229 119.016 34.0408 122.883 33.291C124.984 32.881 127.11 32.5638 129.25 32.349C130.898 32.1765 132.553 32.0675 134.216 32.022H134.473C135.489 31.9927 136.506 31.9927 137.523 32.022C144.937 32.1942 152.33 33.2371 159.636 35.1409C164.208 36.2879 168.741 37.6937 173.18 39.2409C175.829 40.1618 178.454 41.1266 181.056 42.1353C181.849 42.4428 182.643 42.7552 183.426 43.0725C201.936 50.516 218.221 60.7953 236.055 69.2296C236.146 69.2735 236.233 69.3175 236.324 69.3516C239.985 71.0411 243.701 72.4422 247.459 73.5493C250.22 74.379 253.042 75.0965 255.914 75.7262C260.31 76.7024 264.801 77.4736 269.324 78.1374L270.323 78.2838C276.96 79.26 283.655 79.9873 290.159 80.8366C292.468 81.1392 294.757 81.4516 297.014 81.8128C298.445 82.0275 299.863 82.2553 301.268 82.4961C302.276 82.6718 303.287 82.8475 304.298 83.033C305.31 83.2185 306.38 83.4137 307.42 83.6138C308.096 83.7407 308.77 83.8725 309.446 84.0141C313.543 84.8292 317.631 85.7419 321.673 86.7865C324.131 87.421 326.577 88.1043 328.993 88.8413C330.743 89.375 332.477 89.9379 334.196 90.5302C335.471 90.9629 336.735 91.4185 337.988 91.8968C348.169 95.7382 357.697 100.775 365.908 107.575C387.231 125.19 396.772 154.168 389.686 179.735Z" fill="#36829D"/>
<path d="M114.447 34.5086C113.766 34.1207 113.25 33.6466 112.793 33.1451C112.343 32.6396 111.96 32.1067 111.647 31.5464C111.002 30.4297 110.658 29.2189 110.345 28.0042C110.06 26.7856 109.86 25.5396 109.794 24.2857C109.747 23.6588 109.759 23.028 109.747 22.405L109.798 20.5438C109.903 18.1771 109.829 15.8026 109.778 13.4085C109.723 11.0144 109.626 8.6125 109.543 6.17139C110.521 8.41266 111.268 10.7362 111.921 13.0872C112.582 15.4382 113.051 17.8362 113.532 20.2538C113.653 20.869 113.774 21.4058 113.895 21.9818L114.279 23.6706C114.525 24.7951 114.752 25.9158 114.94 27.0482C115.123 28.1806 115.342 29.3012 115.35 30.4963C115.362 31.0919 115.331 31.7031 115.252 32.3379C115.17 32.9766 115.049 33.6348 114.814 34.3597L114.447 34.5086Z" fill="#51846F"/>
<path d="M116.445 33.2586C115.585 31.997 115.022 30.6412 114.56 29.262C114.114 27.8788 113.79 26.4604 113.618 25.0184C113.438 23.5765 113.379 22.1189 113.465 20.6534C113.477 20.289 113.528 19.9207 113.555 19.5563C113.586 19.1919 113.626 18.8236 113.676 18.4553C113.723 18.0909 113.774 17.7147 113.833 17.362L113.989 16.3864C114.392 13.7729 114.681 11.0653 114.998 8.33425C115.33 5.59535 115.632 2.82902 116.163 0C116.676 1.3479 117.051 2.72715 117.368 4.11423C117.684 5.50131 117.923 6.90015 118.111 8.30683C118.466 11.1241 118.599 13.9805 118.38 16.8879L118.283 17.9811C118.259 18.3181 118.224 18.6316 118.193 18.9568C118.118 19.5994 118.103 20.2577 118.056 20.9081C117.982 22.2168 117.919 23.5373 117.825 24.8695C117.637 27.5457 117.442 30.2611 116.832 33.1724L116.445 33.2586Z" fill="#5E9B84"/>
<path d="M115.694 33.7916L115.647 33.674L115.624 33.6113L115.585 33.4977L115.53 33.3096C115.495 33.1803 115.479 33.0863 115.456 32.9726C115.42 32.765 115.385 32.5573 115.374 32.3692C115.354 32.1733 115.346 31.9852 115.346 31.8011C115.342 31.613 115.342 31.4327 115.35 31.2564C115.366 30.5354 115.475 29.8576 115.593 29.1954C115.855 27.8749 116.234 26.6211 116.695 25.4142C116.938 24.8186 117.157 24.2113 117.43 23.6392L117.829 22.7694L118.134 22.0327C118.365 21.5586 118.494 21.0139 118.67 20.4967C118.768 20.242 118.807 19.9599 118.877 19.6896L119.073 18.8667C119.503 16.6294 119.632 14.2588 119.675 11.8568C119.698 9.44708 119.597 7.00989 119.468 4.51001C120.042 5.62673 120.48 6.80222 120.879 7.99339C121.075 8.58897 121.239 9.19631 121.415 9.79973C121.556 10.411 121.72 11.0222 121.833 11.6453C122.334 14.1256 122.557 16.696 122.318 19.3291C122.158 20.6456 121.943 21.9779 121.458 23.2866L121.098 24.2661L120.754 25.0812C120.519 25.6219 120.308 26.1665 120.089 26.7073C119.686 27.7965 119.303 28.8819 119.026 29.9555C118.944 30.2259 118.897 30.4845 118.83 30.751C118.783 31.0096 118.728 31.276 118.689 31.5229C118.666 31.6522 118.65 31.7736 118.639 31.8951C118.623 32.0205 118.615 32.1341 118.607 32.2478C118.596 32.3653 118.596 32.4633 118.592 32.5612V32.6788C118.592 32.6905 118.592 32.7101 118.588 32.7179L118.58 32.714C118.576 32.7101 118.58 32.7179 118.572 32.7062L118.545 32.6435L115.694 33.7916Z" fill="#51846F"/>
<path d="M117.301 34.6887C118.236 32.326 118.873 30.2179 119.487 28.0981C119.616 27.5574 119.792 27.0441 119.921 26.5073C119.988 26.2408 120.066 25.9783 120.14 25.7158L120.339 24.9165C120.625 23.8585 120.883 22.781 121.118 21.6917L121.524 19.9128C121.681 19.3093 121.841 18.7098 122.029 18.1143C122.408 16.927 122.83 15.7554 123.35 14.6191C123.863 13.4828 124.445 12.3778 125.122 11.3199C125.798 10.2698 126.545 9.24711 127.468 8.36157C127.346 9.62719 127.214 10.834 127.073 12.0291C126.936 13.2242 126.795 14.3997 126.647 15.5595L126.228 19.0272L126.025 20.7474L125.927 21.6055L125.872 22.0326L125.802 22.5028C125.618 23.7684 125.372 25.034 124.973 26.2683L124.664 27.1891C124.543 27.4908 124.418 27.7925 124.285 28.0903C124.042 28.6898 123.71 29.2658 123.397 29.8339C122.721 30.9585 121.907 32.0125 120.946 32.9216C119.972 33.8149 118.881 34.6182 117.544 34.9983L117.301 34.6887Z" fill="#5E9B84"/>
<path d="M250.415 155.122L264.198 165.153C266.842 167.077 267.952 170.486 266.947 173.601L252.988 216.969H233.046L250.415 155.122Z" fill="#CEB291"/>
<path d="M174.933 155.122L192.967 166.423H171.461L174.933 155.122Z" fill="#CEB291"/>
<path d="M155.12 230.502H79.6384L101.688 161.458C102.908 157.634 107.096 154.534 111.041 154.534H172.235C176.181 154.534 178.39 157.634 177.17 161.458L155.12 230.502Z" fill="#EBCFA8"/>
<path d="M230.602 230.502H155.12L177.17 161.458C178.39 157.634 182.578 154.534 186.523 154.534H247.717C251.663 154.534 253.872 157.634 252.652 161.458L230.602 230.502Z" fill="#EBCFA8"/>
<path d="M35.5396 166.423H91.2478C94.8569 166.423 98.0163 168.848 98.9547 172.343L114.568 230.503H207.892L218.704 201.687H249.711C254.079 201.687 257.219 205.9 255.979 210.096L249.172 233.167C245.559 245.404 234.344 253.801 221.609 253.801H185.944L52.2673 232.642L35.5396 166.423Z" fill="#CEB291"/>
<path d="M295.022 288H0.977543C0.437939 288 0 287.561 0 287.02C0 286.48 0.437939 286.041 0.977543 286.041H295.022C295.562 286.041 296 286.48 296 287.02C296 287.561 295.562 288 295.022 288Z" fill="#27242D"/>
<path d="M226.747 212.337L222.974 225.718C218.293 242.328 203.165 253.797 185.944 253.797H70.563C53.3387 253.797 38.2142 242.328 33.5337 225.722L19.8207 177.077C18.3153 171.732 22.3232 166.423 27.8639 166.423H35.5435C39.919 166.423 43.7588 169.334 44.9475 173.554L57.8432 219.304C59.7123 225.93 65.7457 230.503 72.6159 230.503H183.899C190.77 230.503 196.803 225.93 198.672 219.304L201.628 208.819C202.817 204.603 206.657 201.687 211.032 201.687H218.708C224.248 201.687 228.256 206.993 226.747 212.337Z" fill="#EBCFA8"/>
<path d="M176.349 229.625C167.574 229.758 158.796 229.895 150.022 230.029C149.267 230.04 149.267 231.216 150.022 231.204C158.796 231.071 167.574 230.934 176.349 230.801C177.103 230.789 177.107 229.613 176.349 229.625Z" fill="#CEB291"/>
<path d="M241.844 193.588L253.317 198.944L253.152 205.343L236.534 199.857L241.844 193.588Z" fill="#FFA580"/>
<path d="M218.16 200.845C212.193 201.75 203.634 200.371 200.709 207.259C199.481 210.151 199.673 213.427 198.895 216.436C197.933 220.162 195.986 223.508 193.331 226.275C192.807 226.819 193.636 227.654 194.16 227.105C196.236 224.942 197.909 222.462 199.047 219.676C200.256 216.73 200.471 213.736 201.006 210.641C201.671 206.793 203.689 204.238 207.485 203.149C211.04 202.13 214.844 202.53 218.473 201.977C219.216 201.868 218.899 200.735 218.16 200.845Z" fill="#CEB291"/>
<path d="M66.1796 147.419C66.1796 147.419 68.1347 151.533 67.7437 155.451C67.3527 159.37 71.1182 168.284 66.9891 172.104C65.6909 173.378 64.2246 173.28 64.2246 173.28L70.5786 184.349L55.8177 186.406C55.8177 186.406 51.1255 173.182 49.7569 169.165C48.3884 165.149 38.7107 156.725 38.7107 156.725L57.3818 142.717L66.1796 147.419Z" fill="#FFA580"/>
<path d="M228.241 287.804H173.498C173.256 287.804 173.029 287.691 172.88 287.499C172.732 287.307 172.681 287.056 172.744 286.821L179.242 261.72C180.568 256.595 185.186 253.013 190.472 253.013H211.271C216.553 253.013 221.171 256.595 222.501 261.72L228.999 286.821C229.062 287.056 229.011 287.307 228.862 287.499C228.714 287.691 228.483 287.804 228.241 287.804ZM174.511 286.237H227.232L220.987 262.116C219.838 257.68 215.845 254.585 211.271 254.585H190.472C185.901 254.585 181.905 257.68 180.759 262.116L174.511 286.237Z" fill="#27242D"/>
<path d="M58.5548 147.321C58.5548 147.321 62.3672 148.986 66.1796 147.419C69.992 145.852 77.9101 136.154 66.7661 135.468C66.7661 135.468 68.6899 123.842 46.922 134.422C36.1026 140.037 37.4086 146.831 38.7106 148.657C33.2364 150.746 34.6714 156.69 38.3196 159.758C41.9678 162.826 47.356 165.337 49.9759 169.796C49.6591 166.94 49.7921 164.558 49.7921 164.558C49.7921 164.558 46.402 163.547 45.2289 160.608C44.0559 157.669 44.7714 155.643 45.9445 155.252C47.1175 154.86 49.6591 155.969 49.9211 159.432C52.0717 159.17 53.4403 156.231 53.1783 153.751C60.2831 152.709 58.5548 147.321 58.5548 147.321Z" fill="#774837"/>
<path d="M182.312 276.135L185.733 259.189H176.153L175.273 278.29L182.312 276.135Z" fill="#FFA580"/>
<path d="M199.798 173.252C199.047 172.406 198.218 171.658 197.331 170.991C197.968 170.404 198.609 169.816 199.247 169.228C199.806 168.715 198.973 167.888 198.418 168.398C197.726 169.032 197.034 169.671 196.342 170.306C195.387 169.695 194.371 169.169 193.292 168.75C192.588 168.476 192.283 169.612 192.979 169.883C193.847 170.223 194.676 170.635 195.454 171.117C194.652 171.853 193.847 172.594 193.045 173.331C192.486 173.844 193.319 174.671 193.874 174.161C194.734 173.374 195.591 172.582 196.451 171.795C197.362 172.461 198.203 173.221 198.965 174.079C199.47 174.647 200.299 173.817 199.798 173.252Z" fill="#CEB291"/>
<path d="M123.284 199.238L179.309 166.983C182.468 165.165 186.328 165.043 189.593 166.669L244.484 193.949L239.205 205.312L230.016 201.002C230.016 201.002 226.106 199.532 220.631 199.336C215.157 199.14 211.345 197.867 207.923 195.32C204.502 192.773 200.201 196.496 194.238 193.459C188.275 190.422 187.2 188.169 187.2 188.169L166.573 204.689H190.308C194.418 204.689 197.499 208.454 196.697 212.49L186.515 263.793H174.394L175.176 255.564C175.176 255.564 175.696 250.796 174.132 246.485C172.568 242.175 174.914 236.69 175.567 234.076C176.22 231.463 174.785 224.151 174.785 224.151C174.785 224.151 136.074 234.601 127.472 234.601C118.869 234.601 114.31 234.362 114.31 234.362L102.548 213.932L123.284 199.238Z" fill="#3D3542"/>
<path d="M53.3074 179.306C53.3074 179.306 59.6302 182.781 66.7662 182.684C67.3527 180.822 66.7662 177.707 66.7662 177.707L80.315 181.359C83.4978 182.217 86.2741 184.176 88.1549 186.888L92.5773 193.267L104.308 188.663L113.497 190.916L117.016 199.242H123.288C123.288 199.242 110.114 211.55 114.443 235.111C114.576 235.839 114.04 236.533 113.301 236.564C109.078 236.733 103.354 235.287 97.6292 235.522C91.2439 235.785 68.9559 238.657 62.1757 228.469C58.594 231.02 53.6046 230.021 51.2741 226.287L35.2776 200.649C31.5199 194.627 34.1789 186.661 40.7988 184.118L53.3074 179.306Z" fill="#5E9B84"/>
<path d="M170.315 287.02L174.812 276.135H183.317L198.86 287.02H170.315Z" fill="#3D3542"/>
<path d="M251.815 196.79V208.642L257.094 212.561L268.042 193.459L271.17 184.251L263.252 190.912L251.815 196.79Z" fill="#3D3542"/>
<path d="M92.3035 192.072L102.016 191.249C102.56 191.249 103.189 190.806 103.416 190.262L112.026 171.646C111.78 171.164 111.268 170.501 110.724 170.501H100.538C99.9948 170.501 99.3653 170.944 99.1385 171.489L91.2595 190.258C91.0249 190.806 91.7522 191.888 92.3035 192.072Z" fill="#D1D3D4"/>
<path d="M92.5381 192.072H102.724C103.268 192.072 103.897 191.629 104.124 191.084L112.003 172.316C112.234 171.771 111.976 171.328 111.432 171.328H101.246C100.703 171.328 100.073 171.771 99.8462 172.316L91.9672 191.084C91.7365 191.629 91.9946 192.072 92.5381 192.072Z" fill="#F4F2F2"/>
<path d="M100.738 173.601C100.953 173.084 101.547 172.668 102.059 172.668C102.572 172.668 102.814 173.088 102.599 173.601C102.384 174.118 101.79 174.534 101.277 174.534C100.765 174.538 100.523 174.118 100.738 173.601Z" fill="#3D3542"/>
<path d="M99.6155 176.281C99.8306 175.764 100.425 175.348 100.937 175.348C101.453 175.348 101.692 175.768 101.477 176.281C101.262 176.798 100.667 177.214 100.155 177.214C99.639 177.214 99.4004 176.794 99.6155 176.281Z" fill="#3D3542"/>
<path d="M82.1801 196.594L84.2642 194.634L89.1128 184.976C89.453 184.298 90.1607 183.883 90.9154 183.918L96.6242 184.18C97.594 184.223 98.4972 184.674 99.1228 185.419L99.6624 186.061C100.218 186.719 100.386 187.625 100.108 188.44L99.2362 191.014C98.681 192.648 97.2968 193.859 95.6076 194.184L94.3016 194.439C94.3016 194.439 93.977 197.965 90.5205 199.924C88.2369 201.221 86.2505 201.879 86.2505 201.879L82.1801 196.594Z" fill="#FFA580"/>
<path d="M236.581 173.252C235.83 172.406 235.001 171.658 234.114 170.991C234.751 170.404 235.392 169.816 236.03 169.228C236.589 168.715 235.756 167.888 235.201 168.398C234.509 169.032 233.817 169.671 233.125 170.306C232.17 169.695 231.154 169.169 230.075 168.75C229.371 168.476 229.066 169.612 229.762 169.883C230.63 170.223 231.459 170.635 232.237 171.117C231.435 171.853 230.63 172.594 229.828 173.331C229.269 173.844 230.102 174.671 230.657 174.161C231.517 173.374 232.374 172.582 233.234 171.795C234.145 172.461 234.986 173.221 235.748 174.079C236.257 174.647 237.082 173.817 236.581 173.252Z" fill="#CEB291"/>
<path d="M114.474 193.228L113.677 183.898C113.54 182.276 112.789 180.767 111.581 179.678L109.563 177.86C108.875 177.241 107.815 177.304 107.201 177.997L104.797 180.736C104.28 181.324 103.901 182.021 103.69 182.774L102.634 186.516C102.368 187.452 102.755 188.451 103.577 188.965L105.837 190.379C105.837 190.379 104.664 194.168 109.16 195.277C112.026 196.006 113.923 194.764 114.474 193.228Z" fill="#FFA580"/>
<path d="M112.144 287.804H57.4013C57.1588 287.804 56.932 287.691 56.7834 287.499C56.6349 287.307 56.584 287.056 56.6466 286.821L63.1453 261.72C64.4708 256.595 69.0888 253.013 74.3753 253.013H95.1735C100.456 253.013 105.074 256.595 106.404 261.72L112.898 286.821C112.961 287.056 112.91 287.307 112.761 287.499C112.613 287.691 112.382 287.804 112.144 287.804ZM58.4101 286.237H111.131L104.886 262.116C103.737 257.68 99.7445 254.585 95.1696 254.585H74.3714C69.8004 254.585 65.8042 257.68 64.6546 262.116L58.4101 286.237Z" fill="#27242D"/>
<path d="M34.9296 179.408C34.1788 178.561 33.3499 177.813 32.4623 177.147C33.0996 176.559 33.7409 175.971 34.3783 175.384C34.9374 174.87 34.1046 174.044 33.5493 174.553C32.8572 175.188 32.1651 175.827 31.473 176.461C30.5189 175.85 29.5023 175.325 28.4231 174.906C27.7192 174.631 27.4142 175.768 28.1103 176.038C28.9783 176.379 29.8073 176.79 30.5854 177.272C29.7838 178.009 28.9783 178.746 28.1767 179.486C27.6176 179.999 28.4504 180.826 29.0057 180.317C29.8659 179.529 30.7223 178.738 31.5825 177.95C32.4936 178.616 33.3342 179.376 34.0967 180.235C34.6011 180.807 35.4301 179.972 34.9296 179.408Z" fill="#CEB291"/>
<path d="M218.188 214.532C217.437 213.685 216.608 212.937 215.72 212.271C216.358 211.683 216.999 211.095 217.636 210.508C218.195 209.994 217.362 209.167 216.807 209.677C216.115 210.312 215.423 210.95 214.731 211.585C213.777 210.974 212.76 210.449 211.681 210.029C210.977 209.755 210.672 210.892 211.368 211.162C212.236 211.503 213.065 211.914 213.843 212.396C213.042 213.133 212.236 213.873 211.435 214.61C210.876 215.123 211.708 215.95 212.264 215.441C213.124 214.653 213.98 213.862 214.84 213.074C215.751 213.74 216.592 214.5 217.355 215.358C217.863 215.927 218.688 215.092 218.188 214.532Z" fill="#CEB291"/>
<path d="M125.544 173.252C124.793 172.406 123.964 171.658 123.077 170.991C123.714 170.404 124.355 169.816 124.993 169.228C125.552 168.715 124.719 167.888 124.164 168.398C123.472 169.032 122.779 169.671 122.087 170.306C121.133 169.695 120.117 169.169 119.037 168.75C118.334 168.476 118.029 169.612 118.725 169.883C119.593 170.223 120.422 170.635 121.2 171.117C120.398 171.853 119.593 172.594 118.791 173.331C118.232 173.844 119.065 174.671 119.62 174.161C120.48 173.374 121.337 172.582 122.197 171.795C123.108 172.461 123.949 173.221 124.711 174.079C125.219 174.647 126.044 173.817 125.544 173.252Z" fill="#CEB291"/>
<path d="M162.331 173.252C161.58 172.406 160.751 171.658 159.863 170.991C160.501 170.404 161.142 169.816 161.779 169.228C162.339 168.715 161.506 167.888 160.95 168.398C160.258 169.032 159.566 169.671 158.874 170.306C157.92 169.695 156.903 169.169 155.824 168.75C155.12 168.476 154.815 169.612 155.511 169.883C156.379 170.223 157.208 170.635 157.987 171.117C157.185 171.853 156.379 172.594 155.578 173.331C155.019 173.844 155.852 174.671 156.407 174.161C157.267 173.374 158.123 172.582 158.984 171.795C159.895 172.461 160.735 173.221 161.498 174.079C162.002 174.647 162.831 173.817 162.331 173.252Z" fill="#CEB291"/>
<path d="M204.111 46.3262H79.7675V51.0281H204.111V46.3262Z" fill="#F47458"/>
<path d="M109.289 82.1789C109.07 82.1789 108.855 82.0848 108.707 81.9164L81.7264 51.5494C81.5231 51.3182 81.4722 50.9891 81.5974 50.707C81.7225 50.4249 82.004 50.2446 82.3129 50.2446H109.293C109.723 50.2446 110.075 50.5973 110.075 51.0283V81.3952C110.075 81.7204 109.876 82.0104 109.571 82.1279C109.477 82.1593 109.383 82.1789 109.289 82.1789ZM84.053 51.812L108.507 79.3381V51.812H84.053Z" fill="#27242D"/>
<path d="M204.111 82.1789C203.892 82.1789 203.677 82.0848 203.528 81.9164L176.548 51.5494C176.345 51.3182 176.294 50.9891 176.419 50.707C176.544 50.4249 176.826 50.2446 177.135 50.2446H204.115C204.545 50.2446 204.897 50.5973 204.897 51.0283V81.3952C204.897 81.7204 204.697 82.0104 204.392 82.1279C204.299 82.1593 204.205 82.1789 204.111 82.1789ZM178.875 51.812L203.329 79.3342V51.808H178.875V51.812Z" fill="#27242D"/>
<path d="M171.379 31.9343H160.81L168.9 46.3263H179.469L171.379 31.9343Z" fill="#59555E"/>
<path d="M176.396 22.2285H145.544C144.7 22.2285 143.781 22.9142 143.488 23.7606L136.238 44.7941C135.945 45.6404 136.395 46.3261 137.239 46.3261H168.09C168.935 46.3261 169.854 45.6404 170.147 44.7941L177.397 23.7606C177.69 22.9142 177.24 22.2285 176.396 22.2285Z" fill="#68626E"/>
<path d="M175.133 24.219L168.204 44.3317H138.506L145.435 24.219H175.133Z" fill="#F4F2F2"/>
<path d="M153.392 42.0474C153.118 42.8467 152.747 43.6147 152.313 44.3278H141.939C141.994 43.6147 142.158 42.8428 142.432 42.0474C143.773 38.1525 147.316 34.9944 150.338 34.9944C153.369 34.9983 154.733 38.1565 153.392 42.0474Z" fill="#D1D3D4"/>
<path d="M154.237 30.7235C153.775 32.0636 152.317 33.149 150.979 33.149C149.642 33.149 148.931 32.0636 149.392 30.7235C149.853 29.3835 151.312 28.2981 152.649 28.2981C153.99 28.2942 154.698 29.3796 154.237 30.7235Z" fill="#D1D3D4"/>
<path d="M164.998 44.3318H154.045C155.422 40.5036 158.913 37.4238 161.901 37.4238C164.888 37.4238 166.257 40.5036 164.998 44.3318Z" fill="#D1D3D4"/>
<path d="M165.795 33.1491C165.334 34.4891 163.875 35.5745 162.538 35.5745C161.201 35.5745 160.489 34.4891 160.95 33.1491C161.412 31.809 162.87 30.7236 164.208 30.7236C165.549 30.7236 166.256 31.809 165.795 33.1491Z" fill="#D1D3D4"/>
<path d="M123.272 46.3264H110.462L107.921 30.7236H125.81L123.272 46.3264Z" fill="#F4F2F2"/>
<path d="M133.192 120.641C137.537 120.641 141.059 118.185 141.059 115.155C141.059 112.126 137.537 109.67 133.192 109.67C128.847 109.67 125.325 112.126 125.325 115.155C125.325 118.185 128.847 120.641 133.192 120.641Z" fill="#3D3542"/>
<path d="M122.983 108.698C122.983 108.698 125.622 108.502 127.131 110.014C128.641 111.527 128.445 114.172 128.445 114.172C128.445 114.172 125.806 114.368 124.297 112.855C122.787 111.343 122.983 108.698 122.983 108.698Z" fill="#3D3542"/>
<path d="M143.402 108.698C143.402 108.698 140.762 108.502 139.253 110.014C137.744 111.527 137.939 114.172 137.939 114.172C137.939 114.172 140.579 114.368 142.088 112.855C143.593 111.343 143.402 108.698 143.402 108.698Z" fill="#3D3542"/>
<path d="M130.49 120.308C130.897 126.323 127.085 128.086 129.137 136.706C131.19 145.326 131.484 146.6 131.484 154.534C156.02 154.534 156.02 154.534 156.02 154.534C156.02 154.534 161.201 150.518 156.704 142.681C152.207 134.845 138.972 130.633 137.935 125.147C136.899 119.661 137.056 117.115 137.056 117.115L130.49 120.308Z" fill="#3D3542"/>
<path d="M161.471 154.534H154.334C153.795 154.534 153.357 154.096 153.357 153.555C153.357 153.014 153.795 152.575 154.334 152.575H161.471C165.166 152.575 168.501 150.675 170.394 147.497C172.286 144.315 172.368 140.472 170.609 137.215L167.535 131.514C165.674 128.066 165.385 123.979 166.738 120.3C168.09 116.621 170.961 113.702 174.609 112.287C175.109 112.091 175.676 112.342 175.872 112.847C176.067 113.353 175.817 113.921 175.313 114.113C172.188 115.324 169.729 117.828 168.571 120.978C167.414 124.128 167.66 127.631 169.256 130.586L172.329 136.287C174.417 140.158 174.319 144.723 172.071 148.504C169.827 152.277 165.862 154.534 161.471 154.534Z" fill="#3D3542"/>
<path d="M151.535 140.546C148.598 137.972 144.364 136.067 141.795 140.256C139.761 143.575 140.555 147.893 142.561 151.094C140.008 150.357 137.099 150.263 135.793 153.061C135.476 153.743 136.485 154.338 136.805 153.653C138.178 150.71 141.705 151.909 143.996 152.838C144.587 153.077 144.911 152.25 144.567 151.854C142.369 149.331 141.2 145.726 142.143 142.419C142.659 140.613 144.016 138.834 146.072 138.849C147.879 138.865 149.439 140.26 150.71 141.373C151.269 141.874 152.106 141.048 151.535 140.546Z" fill="#27242D"/>
<path d="M134.436 120.022C133.771 120.312 133.012 120.277 132.367 119.959C131.691 119.626 131.096 120.641 131.777 120.974C132.836 121.495 133.951 121.507 135.026 121.037C135.718 120.739 135.12 119.724 134.436 120.022Z" fill="#322F3A"/>
<path d="M84.5066 203.032C77.6443 211.107 70.5082 218.94 63.1024 226.518C62.5745 227.059 63.4034 227.889 63.9313 227.349C71.3372 219.771 78.4772 211.938 85.3395 203.862C85.8205 203.29 84.9954 202.456 84.5066 203.032Z" fill="#51846F"/>
<path d="M78.8604 196.935C73.9765 200.128 69.0928 203.321 64.2089 206.515C62.1639 207.855 60.0524 209.273 58.4102 211.052C55.5596 206.993 52.541 203.055 49.3581 199.25C48.8732 198.67 48.0482 199.505 48.5291 200.081C51.7238 203.897 54.7463 207.843 57.5968 211.922C57.6086 211.938 57.6203 211.95 57.6359 211.965C56.6506 213.243 55.9194 214.7 55.6066 216.432C55.4736 217.173 56.6037 217.49 56.7366 216.746C57.675 211.534 62.7035 208.897 66.7506 206.252C70.9814 203.486 75.2161 200.716 79.4469 197.949C80.0803 197.538 79.4938 196.519 78.8604 196.935Z" fill="#51846F"/>
<path d="M114.822 199.191C111.303 199.164 107.784 199.14 104.265 199.113C103.51 199.109 103.51 200.285 104.265 200.288C107.784 200.316 111.303 200.339 114.822 200.367C115.577 200.375 115.581 199.199 114.822 199.191Z" fill="#51846F"/>
<path d="M93.7503 190.168C93.1833 188.412 92.3426 186.786 91.2204 185.325C90.7668 184.733 89.7463 185.317 90.2077 185.916C91.2712 187.303 92.0806 188.816 92.6202 190.481C92.8509 191.198 93.981 190.889 93.7503 190.168Z" fill="#ED9070"/>
<path d="M110.634 181.943C108.984 183.424 107.698 185.215 106.826 187.256C106.533 187.946 107.541 188.545 107.839 187.848C108.671 185.889 109.88 184.192 111.463 182.774C112.026 182.272 111.193 181.442 110.634 181.943Z" fill="#ED9070"/>
<path d="M62.3087 172.555C59.6889 171.689 57.3584 170.314 55.3329 168.441C54.7777 167.927 53.9487 168.758 54.504 169.271C56.678 171.281 59.1883 172.763 61.9998 173.687C62.7153 173.926 63.0242 172.794 62.3087 172.555Z" fill="#ED9070"/>
<path d="M47.9895 151.423C45.9328 150.138 43.7431 149.147 41.4361 148.445C41.6629 145.843 43.3443 143.571 45.7959 142.638C46.4959 142.372 46.1909 141.236 45.4831 141.506C42.5974 142.603 40.6267 145.146 40.2826 148.187C39.7626 148.3 39.6179 149.162 40.2474 149.327C42.7929 150.009 45.1625 151.039 47.3952 152.434C48.0404 152.842 48.6308 151.823 47.9895 151.423Z" fill="#6B4032"/>
<path d="M60.596 142.274C57.507 141.941 54.414 142.058 51.3719 142.717C49.3777 143.148 47.2545 143.763 46.3082 145.738C45.9837 146.415 46.9925 147.015 47.321 146.329C48.3454 144.194 51.3211 143.849 53.4013 143.539C55.7943 143.187 58.1913 143.187 60.596 143.445C61.3429 143.528 61.3389 142.352 60.596 142.274Z" fill="#6B4032"/>
<path d="M55.6731 136.404C53.4325 138.563 50.7971 140.064 47.798 140.891C47.0707 141.091 47.3796 142.227 48.1108 142.023C51.2937 141.146 54.1246 139.527 56.502 137.235C57.0455 136.71 56.2166 135.879 55.6731 136.404Z" fill="#6B4032"/>
<path d="M65.597 140.04C64.119 139.139 62.3907 139.077 60.8305 139.801C60.1463 140.119 60.7406 141.13 61.421 140.816C62.5979 140.272 63.9039 140.385 65.0027 141.055C65.6518 141.451 66.2422 140.432 65.597 140.04Z" fill="#6B4032"/>
<path d="M112.136 202.757C106.415 211.499 104.675 222.372 107.346 232.473C107.538 233.202 108.672 232.893 108.476 232.16C105.88 222.349 107.596 211.836 113.149 203.349C113.563 202.718 112.55 202.126 112.136 202.757Z" fill="#51846F"/>
<path d="M162.479 204.975C149.885 204.497 137.274 204.548 124.684 205.132C123.933 205.167 123.929 206.342 124.684 206.307C137.274 205.723 149.885 205.672 162.479 206.15C163.234 206.178 163.234 205.002 162.479 204.975Z" fill="#322F3A"/>
<path d="M178.503 215.433C168.564 216.855 158.624 218.277 148.68 219.7C141.204 220.769 133.685 222.086 126.13 222.564C124.848 219.5 122.541 217.067 119.495 215.711C118.811 215.405 118.212 216.42 118.904 216.726C121.571 217.909 123.698 219.966 124.895 222.631C122.748 222.74 120.598 222.78 118.443 222.717C117.688 222.693 117.688 223.869 118.443 223.892C128.445 224.182 138.393 222.349 148.258 220.938L178.816 216.565C179.559 216.459 179.242 215.327 178.503 215.433Z" fill="#322F3A"/>
<path d="M175.805 216.894C174.742 218.524 174.374 220.374 174.644 222.294C174.75 223.038 175.88 222.721 175.774 221.98C175.551 220.378 175.942 218.834 176.818 217.486C177.233 216.855 176.216 216.264 175.805 216.894Z" fill="#322F3A"/>
<path d="M186.539 186.406C185.088 184.004 184.533 181.371 184.861 178.581C184.951 177.833 183.774 177.837 183.688 178.581C183.422 180.846 183.731 183.06 184.576 185.117C183.305 184.231 182.034 183.346 180.763 182.46C180.775 182.158 180.591 181.869 180.204 181.908C180.083 181.919 179.962 181.931 179.84 181.943C179.258 182.002 179.051 182.691 179.543 183.04C181.502 184.404 183.461 185.767 185.416 187.135C185.542 187.221 185.667 187.248 185.78 187.233C186.234 187.429 186.859 186.939 186.539 186.406Z" fill="#322F3A"/>
<path d="M231.463 193.537C218.149 188.577 204.623 184.204 190.926 180.431C190.199 180.231 189.886 181.363 190.613 181.563C204.31 185.336 217.836 189.709 231.15 194.67C231.862 194.932 232.167 193.8 231.463 193.537Z" fill="#322F3A"/>
<path d="M239.815 194.885C238.638 196.876 237.461 198.866 236.288 200.857C236.284 200.864 236.276 200.872 236.272 200.88C236.217 200.974 236.163 201.072 236.104 201.166C235.725 201.821 236.733 202.412 237.117 201.758L240.827 195.481C241.215 194.822 240.202 194.231 239.815 194.885Z" fill="#322F3A"/>
<path d="M180.681 221.161C180.67 226.964 179.958 232.767 179.45 238.543C178.945 244.283 178.445 250.02 177.944 255.76C177.878 256.512 179.051 256.509 179.117 255.76C179.622 250.02 180.122 244.283 180.623 238.543C181.127 232.767 181.843 226.964 181.854 221.161C181.854 220.405 180.681 220.401 180.681 221.161Z" fill="#322F3A"/>
<path d="M185.417 259.823C182.769 260.145 180.122 260.47 177.471 260.791C176.732 260.881 176.72 262.057 177.471 261.967C180.118 261.645 182.765 261.32 185.417 260.999C186.159 260.909 186.167 259.733 185.417 259.823Z" fill="#322F3A"/>
<path d="M325.701 108.116C303.442 108.116 285.403 126.256 285.403 148.64V278.895C285.403 284.479 289.898 289 295.452 289H355.951C361.505 289 366 284.479 366 278.895V148.64C366 126.268 347.96 108.116 325.701 108.116ZM325.701 172.758C311.617 172.758 300.2 161.277 300.2 147.114C300.2 132.95 311.617 121.47 325.701 121.47C339.786 121.47 351.203 132.95 351.203 147.114C351.203 161.277 339.786 172.758 325.701 172.758Z" fill="#CCCCCC"/>
<path d="M324.299 106C302.04 106 284 124.14 284 146.524V276.779C284 282.364 288.496 286.884 294.049 286.884H354.549C360.102 286.884 364.597 282.364 364.597 276.779V146.524C364.586 124.14 346.546 106 324.299 106ZM324.299 170.642C310.214 170.642 298.797 159.161 298.797 144.998C298.797 130.835 310.214 119.354 324.299 119.354C338.383 119.354 349.8 130.835 349.8 144.998C349.8 159.161 338.383 170.642 324.299 170.642Z" fill="#F47458"/>
<path d="M293.865 217.513H296.647V198.968H293.865V193.326H307.535C318.377 193.326 324.563 199.697 324.563 207.859C324.563 217.606 318.377 223.202 307.363 223.202H293.865V217.513ZM307.535 217.513C312.284 217.433 314.261 213.201 314.261 207.859C314.261 203.292 312.295 198.968 307.535 198.968H305.834V217.513H307.535Z" fill="white"/>
<path d="M325.69 208.114C325.69 198.887 332.14 192.517 341.418 192.517C352.399 192.517 357.503 198.795 357.503 208.414C357.503 218.068 351.858 223.965 341.729 223.965C332.358 223.965 325.69 218.797 325.69 208.114ZM346.293 208.414C346.293 203.246 344.81 199.095 341.361 199.095C338.625 199.049 336.751 202.818 336.751 208.114C336.751 213.71 338.855 217.259 341.729 217.259C344.546 217.259 346.293 213.71 346.293 208.414Z" fill="white"/>
<path d="M313.411 233.411V248.892H307.282L300.016 238.544V245.389H302.212V248.892H293.462V245.389H295.141V233.411H293.485V229.908H301.66L308.639 239.874V233.411H306.696V229.908H315.273V233.411H313.411Z" fill="white"/>
<path d="M316.423 239.307C316.423 233.434 320.527 229.387 326.426 229.387C333.405 229.387 336.658 233.376 336.658 239.492C336.658 245.632 333.071 249.378 326.633 249.378C320.665 249.378 316.423 246.094 316.423 239.307ZM329.53 239.492C329.53 236.209 328.587 233.573 326.391 233.573C324.655 233.55 323.459 235.931 323.459 239.307C323.459 242.868 324.805 245.123 326.621 245.123C328.415 245.123 329.53 242.868 329.53 239.492Z" fill="white"/>
<path d="M356.63 236.972H352.444V233.492H350.053V245.285H352.421V248.904H341.821V245.285H344.155V233.492H341.706V236.972H337.521V229.908H356.641V236.972H356.63Z" fill="white"/>
<path d="M292.428 264.512H293.278V258.488H292.428V256.662H296.636C299.97 256.662 301.879 258.731 301.879 261.379C301.879 264.535 299.981 266.362 296.578 266.362H292.428V264.512ZM296.636 264.512C298.096 264.489 298.705 263.113 298.705 261.379C298.705 259.899 298.096 258.5 296.636 258.5H296.107V264.524H296.636V264.512Z" fill="white"/>
<path d="M306.937 256.673V258.5H306.087V264.524H306.937V266.374H302.361V264.524H303.235V258.5H302.361V256.673H306.937Z" fill="white"/>
<path d="M307.639 262.87H310.203C310.203 264.038 311.364 264.235 311.939 264.258C312.422 264.258 313.112 264.142 313.112 263.564C313.112 262.477 307.811 262.94 307.811 259.402C307.811 257.344 309.743 256.419 311.088 256.419C312.249 256.419 313.422 256.789 313.974 257.829L314.112 256.662H316.48V260.142H313.985C313.985 259.113 313.181 258.535 312.215 258.535C311.812 258.535 311.261 258.789 311.261 259.275C311.261 260.708 316.722 260.373 316.722 263.633C316.722 265.796 314.71 266.57 313.066 266.57C311.674 266.57 310.709 265.923 310.18 265.298L310.03 266.362H307.616V262.87H307.639Z" fill="white"/>
<path d="M326.541 260.269H324.517V258.488H323.356V264.512H324.506V266.362H319.378V264.512H320.504V258.488H319.32V260.269H317.297V256.662H326.541V260.269Z" fill="white"/>
<path d="M331.347 256.673V258.465H330.599V261.46C330.599 263.691 331.094 264.165 331.979 264.165C332.818 264.165 333.37 263.83 333.37 261.448V258.512H332.634V256.685H336.716V258.477H335.969V261.841C335.969 265.125 334.6 266.616 332.013 266.616C329.231 266.536 327.736 265.067 327.736 261.911V258.489H326.966V256.685H331.347V256.673Z" fill="white"/>
<path d="M341.752 256.673C344.948 256.673 345.569 257.945 345.569 259.529C345.569 260.616 344.718 261.367 343.568 261.541C344.523 261.68 345.374 262.512 345.374 263.506C345.374 264.108 345.454 264.454 345.707 264.454C345.914 264.454 346.029 264.293 346.029 264.015V263.553H346.949V264.316C346.949 265.472 346.466 266.536 344.937 266.536C343.132 266.536 342.258 265.576 342.258 263.957C342.258 262.697 342.108 262.396 340.878 262.396V264.547H341.717V266.374H337.268V264.547H338.038V258.5H337.268V256.685H341.752V256.673ZM340.878 260.824H341.499C342.304 260.824 342.821 260.431 342.821 259.703C342.821 258.882 342.361 258.465 341.568 258.465H340.878V260.824Z" fill="white"/>
<path d="M347.443 264.558H348.248V258.454H347.443V256.662H352.583C354.871 256.662 355.963 257.517 355.963 259.032C355.963 260.2 355.641 260.766 354.606 261.182C355.595 261.46 356.423 262.2 356.423 263.541C356.423 265.495 355.33 266.35 352.674 266.35H347.432V264.558H347.443ZM351.099 260.581H351.939C352.674 260.581 352.881 260.176 352.881 259.517C352.881 258.881 352.491 258.5 351.973 258.5H351.111V260.581H351.099ZM352.192 264.558C352.766 264.558 353.307 264.119 353.307 263.367C353.307 262.662 352.904 262.142 352.146 262.142H351.088V264.558H352.192Z" fill="white"/>
</svg>
