<svg width="396" height="336" viewBox="0 0 396 336" fill="none" xmlns="http://www.w3.org/2000/svg">
<path opacity="0.1" d="M192.11 291.504C169.145 274.683 141.484 266.775 113.166 269.23C73.0317 272.705 24.3527 263.303 22.9525 197.725C20.5919 85.6951 92.3373 65.1572 92.3373 65.1572C92.3373 65.1572 138.092 66.9957 166.692 55.8285C207.317 39.9665 251.114 42.7609 287.131 64.9543C310.163 79.1474 328.331 97.1756 329.083 118.91C331.186 179.695 311.244 210.548 338.327 233.683C365.409 256.818 333.426 307.071 311.008 302.399C288.591 297.727 239.974 271.056 217.094 292.064C208.947 299.516 200.114 297.371 192.11 291.504Z" fill="#637C8A"/>
<g clip-path="url(#clip0)">
<path opacity="0.1" d="M328.177 239.815H70.464C62.3116 239.815 55.6415 244.079 55.6415 249.292C55.6415 252.9 58.8401 256.054 63.5138 257.653H40.819C32.6701 257.649 26 261.916 26 267.126C26 272.339 32.6701 276.603 40.8225 276.603H48.7302C46.521 278.258 45.1806 280.402 45.1806 282.734V286.523C45.1806 291.736 51.8508 296 60.0032 296H313.883C322.036 296 328.706 291.736 328.706 286.523V282.734C328.706 277.521 322.036 273.257 313.883 273.257L296.621 273.466C297.937 273.466 300.071 272.804 301.504 271.471C304.015 269.132 304.128 265.574 302.898 262.629C302.103 260.718 300.827 259.205 297.667 258.634L328.181 258.762C336.333 258.762 343.004 254.498 343.004 249.285C343 244.079 336.33 239.815 328.177 239.815Z" fill="#EFF2F3"/>
<path d="M183.821 78.4023C183.821 85.689 196.661 102.998 197.019 102.998C197.505 102.998 210.218 85.689 210.218 78.4023C210.218 71.1157 204.307 65.2112 197.019 65.2112C189.732 65.2076 183.821 71.1157 183.821 78.4023ZM190.8 77.4561C190.8 74.0218 193.583 71.2397 197.019 71.2397C200.455 71.2397 203.239 74.0218 203.239 77.4561C203.239 80.8903 200.455 83.6724 197.019 83.6724C193.587 83.6724 190.8 80.8868 190.8 77.4561Z" fill="#B22B48"/>
<path d="M233.764 281.193L140.098 281.327C138.08 281.331 136.442 279.697 136.438 277.681L136.215 124.309C136.211 122.293 137.846 120.655 139.864 120.652L233.529 120.517C235.547 120.514 237.185 122.147 237.189 124.164L237.412 277.532C237.416 279.552 235.781 281.189 233.764 281.193Z" fill="#334C60"/>
<path d="M231.774 129.046L141.435 129.177L141.634 266.394L231.973 266.264L231.774 129.046Z" fill="white"/>
<path d="M192.326 272.768L181.507 272.784L181.511 275.279L192.33 275.263L192.326 272.768Z" fill="white"/>
<path d="M231.873 129.601H141.534V266.818H231.873V129.601Z" fill="#F4EBE1"/>
<path d="M140.914 142.033L192.799 150.5L179.101 183.014L136.999 176.067L140.914 142.033Z" fill="#A6CAA2"/>
<path d="M146.584 242.58C150.853 244.423 155.445 245.387 159.871 246.818C167.913 249.416 175.371 253.531 182.658 257.812C186.956 260.339 191.214 262.933 195.431 265.595C197.48 266.889 199.569 268.221 201.927 268.792C206.53 269.908 211.264 267.966 215.604 266.063C216.452 264.698 215.973 262.831 214.916 261.622C213.86 260.414 212.349 259.719 210.884 259.063C199.172 253.836 187.239 249.101 175.129 244.876C163.137 240.694 150.14 235.506 137.559 233.673C134.694 238.181 143.637 241.307 146.584 242.58Z" fill="#A3CEDF"/>
<path d="M135.236 137.27C135.279 139.17 135.385 141.073 135.499 142.98L240.664 160.332L241.576 154.817L135.236 137.27Z" fill="white"/>
<path d="M134.428 173.239C134.368 174.175 134.307 175.107 134.25 176.043L238.838 193.299L239.292 190.542L134.428 173.239Z" fill="white"/>
<path d="M202.686 124.862L147.381 253.754L150.204 256.108L207.625 122.98L202.686 124.862Z" fill="white"/>
<path d="M157.264 179.193L141.435 223.179L141.58 229.293L160.087 179.193H157.264Z" fill="white"/>
<path d="M150.835 204.243L166.477 209.247L167.612 206.607L152.179 200.6L150.835 204.243Z" fill="white"/>
<path d="M212.569 150.029L220.806 129.533H225.749L216.037 150.599L212.569 150.029Z" fill="white"/>
<path d="M156.417 140.764L160.087 129.533L163.147 129.632L159.222 142.033L156.417 140.764Z" fill="white"/>
<path d="M174.835 144.256L178.509 126.039L181.566 126.198L177.64 146.315L174.835 144.256Z" fill="white"/>
<path d="M171.073 207.723L231.973 233.673L231.934 238.465L169.544 211.271L171.073 207.723Z" fill="white"/>
<path d="M188.339 219.461L181.566 238.465L231.962 257.989L231.955 254.459L186.704 236.583L209.746 187.192L206.764 186.016L188.339 219.461Z" fill="white"/>
<path d="M186.704 169.787L234.927 180.809V175.298L186.704 164.967V169.787Z" fill="white"/>
<path d="M136.999 150.6L163.147 158.025L156.417 170.255L137.825 168.855L136.999 150.6Z" fill="#F4EBE1"/>
<path d="M242.179 158.755L177.075 271.452L185.259 276.175L250.363 163.477L242.179 158.755Z" fill="#F7CC7F"/>
<path d="M277.458 287.324V289.39L273.324 291.456L271.253 289.39L273.324 287.324L277.458 285.258V287.324Z" fill="#A16652"/>
<path d="M275.529 232.259L283.944 289.798H287.77L290.185 258.411L295.419 227.028L275.529 232.259Z" fill="#2E4661"/>
<path d="M283.905 224.937V231.214L275.529 258.411L277.625 286.658L273.522 287.476L264.015 253.18L264.338 243.026L268.203 222.311L283.905 224.937Z" fill="#2E4661"/>
<path d="M287.798 289.39V291.456L283.66 293.523L281.593 291.456L283.66 289.39H287.798Z" fill="#A16652"/>
<path d="M280.075 194.532C281.33 194.362 282.586 194.188 283.837 194.018C283.813 193.008 283.706 192.002 283.522 191.009C284.557 190.602 285.749 190.003 285.894 188.901C285.94 188.553 285.866 188.202 285.795 187.859C285.497 186.441 285.196 185.023 284.898 183.606C284.795 183.117 284.685 182.61 284.401 182.199C283.901 181.476 282.976 181.185 282.103 181.065C279.88 180.763 277.486 181.33 275.827 182.84C275.384 183.241 274.99 183.719 274.809 184.29C274.533 185.169 274.798 186.115 275.064 186.997C275.309 187.813 275.557 188.624 275.802 189.439C276.086 190.375 276.483 191.435 277.408 191.757C277.898 191.927 278.469 191.853 278.915 192.115C279.706 192.572 279.642 193.724 280.075 194.532Z" fill="#EACDB0"/>
<path d="M266.795 180.774C266.565 180.427 266.32 180.09 266.043 179.778C265.451 179.101 264.731 178.527 264.245 177.769C263.76 177.01 263.561 175.965 264.082 175.231C264.419 174.756 264.983 174.505 265.533 174.32C267.348 173.714 269.327 173.604 271.199 174.008C272.983 174.391 274.589 175.079 276.345 174.349C277.993 173.665 279.206 173.874 280.976 174.43C282.891 175.033 285.433 175.1 287.178 175.99C287.908 176.362 288.5 176.961 288.969 177.63C290.596 179.948 290.724 183.223 289.284 185.665C288.961 186.211 288.568 186.718 288.156 187.2C287.302 188.199 286.277 189.432 285.064 189.833C284.993 188.738 285.866 185.243 284.99 184.375C283.6 183 280.596 183.606 278.951 184.02C277.157 184.471 275.589 185.81 273.809 186.15C272.525 186.395 270.855 185.824 269.735 185.197C268.352 184.421 267.635 182.046 266.795 180.774Z" fill="#3A3029"/>
<path d="M260.6 184.956L260.047 182.794L261.075 181.114L260.831 180.714L260.327 180.997L260.785 179.356L260.221 178.098L258.416 177.733L256.717 178.577L256.543 180.405L257.455 182.387L258.086 185.385L260.6 184.956Z" fill="#EACDB0"/>
<path d="M261.451 182.652L263.384 196.637L279.596 193.256L273.799 205.88L257.724 204.211L257.217 183.694L261.451 182.652Z" fill="#F47458"/>
<path d="M303.458 185.151L304.234 183.039L303.373 181.253L303.66 180.88L304.135 181.214L303.844 179.527L304.536 178.322L306.376 178.141L307.993 179.158L307.979 181.005L306.869 182.897L305.933 185.832L303.458 185.151Z" fill="#EACDB0"/>
<path d="M302.944 183.616L299.646 196.251L287.646 193.788L290.504 206.866L305.362 203.882L307.568 183.648L302.944 183.616Z" fill="#F47458"/>
<path d="M297.593 233.893C297.649 236.448 297.568 239.897 296.585 240.021C296.401 240.046 296.224 239.954 296.064 239.865C294.366 238.936 293.164 237.632 291.486 236.736C289.731 235.796 287.72 235.297 285.752 234.949C282.806 234.411 279.795 234.077 276.795 234.024C274.203 233.978 271.057 233.875 268.554 234.563C266.632 235.282 264.731 236.027 262.838 236.824C263.912 227.135 265.685 217.519 268.135 208.081C269.072 204.47 269.228 200.908 271.873 198.268C274.217 195.929 273.596 192.824 280.1 193.125C291.476 193.653 288.114 192.672 292.816 202.319C293.883 204.509 295.195 210.488 295.582 212.87C296.05 215.754 296.483 218.646 296.82 221.549C297.195 224.788 297.454 228.042 297.507 231.299C297.511 231.664 297.568 232.678 297.593 233.893Z" fill="#F47458"/>
<path opacity="0.09" d="M313.88 152.524H168.24V182.252H313.88V152.524Z" fill="black"/>
<path d="M310.5 148.441H164.86V178.169H310.5V148.441Z" fill="#FFFFF3"/>
<path d="M103.772 292.311C103.801 292.123 103.882 291.903 104.01 291.644C104.35 290.96 104.698 290.202 105.162 289.589C105.581 289.036 106.414 289.171 107.038 289.252C108.003 289.38 108.971 289.507 109.935 289.635C109.981 289.642 110.028 289.649 110.063 289.674C110.159 289.748 110.116 289.897 110.059 290.007C109.549 291.038 109.038 292.07 108.524 293.101C108.428 293.292 108.329 293.494 108.155 293.618C107.957 293.764 107.691 293.792 107.442 293.799C106.464 293.827 105.474 293.657 104.559 293.299C103.939 293.055 103.701 292.768 103.772 292.311Z" fill="#272525"/>
<path d="M97.9708 246.893L103.804 269.823L103.91 292.899L106.301 293.689L108.042 292.803L111.464 268.93L113.808 245.461L97.9708 246.893Z" fill="#CAB5A1"/>
<path d="M81.003 291.261C81.0845 291.088 81.2228 290.9 81.4143 290.687C81.932 290.124 82.4746 289.493 83.088 289.032C83.6412 288.618 84.4072 288.976 84.9816 289.227C85.8752 289.617 86.7653 290.007 87.6589 290.397C87.7015 290.414 87.744 290.436 87.7688 290.471C87.8398 290.567 87.7547 290.701 87.6731 290.79C86.8965 291.641 86.1199 292.491 85.3433 293.342C85.198 293.501 85.0455 293.664 84.8433 293.739C84.6093 293.824 84.3504 293.778 84.1093 293.714C83.159 293.469 82.2547 293.034 81.4781 292.435C80.9569 292.023 80.8079 291.683 81.003 291.261Z" fill="#272525"/>
<path d="M88.2334 245.185L86.6376 268.214L81.2122 291.038L83.2901 292.459L85.2086 292.087L95.1021 270.093L103.847 248.183L88.2334 245.185Z" fill="#CAB5A1"/>
<path d="M130.041 201.131C130.063 201.103 130.087 201.075 130.084 201.039C130.084 200.99 130.038 200.958 129.999 200.929C129.655 200.688 129.307 200.444 128.963 200.203C128.914 200.167 128.86 200.132 128.8 200.128C128.733 200.125 128.669 200.164 128.612 200.203C128.208 200.469 127.829 200.766 127.467 201.089C127.134 200.841 126.772 200.628 126.392 200.454C125.399 201.939 124.41 203.421 123.417 204.906C124.08 205.069 124.743 205.235 125.403 205.398C125.488 205.42 125.58 205.441 125.665 205.42C125.768 205.395 125.846 205.317 125.917 205.243C127.275 203.85 128.8 202.751 130.041 201.131Z" fill="#EBCEB1"/>
<path d="M104.769 217.86L111.999 221.85L127.928 204.236L124.949 201.596L111.602 210.041L107.942 203.999L100.403 210.084L104.769 217.86Z" fill="#226075"/>
<path d="M103.733 195.149C105.024 196.357 105.772 199.568 106.41 201.028C110.382 210.041 113.786 219.291 117.056 228.577C118.694 233.23 120.297 237.898 121.924 242.558C122.222 243.416 125.517 253.715 125.747 253.687C110.279 255.54 98.368 258.085 82.9143 256.497C81.127 256.309 81.0597 245.39 80.9568 243.994C80.4568 237.051 80.3824 230.051 81.2121 223.126C81.8327 217.959 82.9604 212.841 84.7476 207.95C86.1518 204.105 88.3326 197.247 92.3149 195.305C94.4496 194.263 101.301 193.621 103.389 194.89C103.51 194.957 103.623 195.046 103.733 195.149Z" fill="#184655"/>
<path d="M110.74 187.88C109.708 190.255 107.761 192.09 105.868 193.855C101.336 198.08 96.8041 202.308 92.2722 206.533C92.0772 206.713 91.8751 206.901 91.6269 207.004C91.2013 207.181 90.7191 207.085 90.2687 206.983C85.517 205.93 80.7653 204.878 76.01 203.825C78.1625 198.668 80.6341 193.643 83.4071 188.791C85.4071 185.293 87.6517 181.788 90.9354 179.449C94.2013 177.12 101.609 174.189 105.655 175.33C110.602 176.73 112.616 183.574 110.74 187.88Z" fill="#F2D042"/>
<path d="M193.558 153.431H191.491V171.353H202.551V169.592H193.558V153.431Z" fill="#334C60"/>
<path d="M213.331 159.197C212.423 158.662 211.374 158.393 210.182 158.393C208.991 158.393 207.941 158.662 207.033 159.197C206.126 159.736 205.427 160.498 204.931 161.487C204.434 162.479 204.186 163.635 204.186 164.96C204.186 166.286 204.434 167.444 204.931 168.433C205.427 169.422 206.126 170.188 207.033 170.723C207.941 171.261 208.991 171.527 210.182 171.527C211.374 171.527 212.423 171.258 213.331 170.723C214.239 170.188 214.938 169.422 215.434 168.433C215.93 167.444 216.175 166.286 216.175 164.96C216.175 163.635 215.927 162.476 215.434 161.487C214.938 160.498 214.235 159.732 213.331 159.197ZM213.079 168.6C212.409 169.429 211.441 169.847 210.182 169.847C208.923 169.847 207.952 169.433 207.275 168.6C206.594 167.771 206.253 166.558 206.253 164.964C206.253 163.418 206.597 162.224 207.285 161.377C207.973 160.53 208.938 160.105 210.182 160.105C211.409 160.105 212.367 160.53 213.055 161.377C213.743 162.224 214.087 163.422 214.087 164.964C214.087 166.555 213.75 167.767 213.079 168.6Z" fill="#334C60"/>
<path d="M224.867 160.101C225.487 160.101 226.097 160.218 226.693 160.452C227.289 160.686 227.906 161.054 228.544 161.561L229.225 160.051C228.703 159.53 228.044 159.123 227.246 158.829C226.448 158.534 225.622 158.389 224.764 158.389C223.523 158.389 222.434 158.666 221.501 159.218C220.569 159.771 219.852 160.548 219.349 161.547C218.845 162.546 218.594 163.698 218.594 165.01C218.594 166.321 218.842 167.466 219.338 168.447C219.835 169.429 220.537 170.188 221.455 170.726C222.37 171.265 223.441 171.531 224.668 171.531C225.54 171.531 226.384 171.385 227.2 171.091C228.016 170.797 228.689 170.4 229.228 169.897L228.547 168.387C227.909 168.89 227.292 169.259 226.696 169.496C226.101 169.73 225.491 169.847 224.87 169.847C223.562 169.847 222.54 169.422 221.81 168.575C221.079 167.728 220.714 166.541 220.714 165.013C220.714 163.468 221.083 162.266 221.821 161.402C222.558 160.533 223.572 160.101 224.867 160.101Z" fill="#334C60"/>
<path d="M240.962 160.884C240.576 160.094 240.012 159.484 239.274 159.045C238.537 158.609 237.671 158.389 236.678 158.389C235.569 158.389 234.593 158.666 233.746 159.218C232.898 159.771 232.239 160.548 231.767 161.547C231.296 162.546 231.062 163.698 231.062 165.01C231.062 166.321 231.292 167.466 231.753 168.447C232.214 169.429 232.87 170.188 233.718 170.726C234.565 171.265 235.551 171.531 236.678 171.531C237.668 171.531 238.537 171.318 239.285 170.889C240.033 170.46 240.59 169.854 240.959 169.064V171.354H242.973V158.69H240.959V160.884H240.962ZM239.955 168.571C239.285 169.418 238.327 169.844 237.083 169.844C235.824 169.844 234.849 169.426 234.161 168.586C233.473 167.746 233.129 166.555 233.129 165.01C233.129 163.464 233.476 162.263 234.175 161.398C234.87 160.533 235.842 160.101 237.083 160.101C238.324 160.101 239.281 160.519 239.955 161.359C240.625 162.199 240.962 163.397 240.962 164.96C240.962 166.523 240.625 167.724 239.955 168.571Z" fill="#334C60"/>
<path d="M249.65 154.714L247.611 155.444V158.691H245.143V160.303H247.611V167.501C247.611 168.827 247.951 169.83 248.632 170.51C249.313 171.191 250.256 171.531 251.466 171.531C252.122 171.531 252.707 171.446 253.228 171.279V169.543C252.792 169.695 252.338 169.769 251.866 169.769C251.161 169.769 250.615 169.582 250.228 169.202C249.841 168.823 249.65 168.168 249.65 167.225V160.303H253.278V158.691H249.65V154.714Z" fill="#334C60"/>
<path d="M258.037 153.332H255.544V155.646H258.037V153.332Z" fill="#334C60"/>
<path d="M257.785 158.694H255.746V171.357H257.785V158.694Z" fill="#334C60"/>
<path d="M270.128 159.197C269.221 158.662 268.171 158.393 266.98 158.393C265.788 158.393 264.738 158.662 263.831 159.197C262.923 159.736 262.224 160.498 261.728 161.487C261.231 162.479 260.983 163.635 260.983 164.96C260.983 166.286 261.231 167.444 261.728 168.433C262.224 169.422 262.923 170.188 263.831 170.723C264.738 171.261 265.788 171.527 266.98 171.527C268.171 171.527 269.221 171.258 270.128 170.723C271.036 170.188 271.735 169.422 272.231 168.433C272.728 167.444 272.972 166.286 272.972 164.96C272.972 163.635 272.724 162.476 272.231 161.487C271.735 160.498 271.033 159.732 270.128 159.197ZM269.877 168.6C269.206 169.429 268.238 169.847 266.98 169.847C265.721 169.847 264.749 169.433 264.072 168.6C263.391 167.771 263.051 166.558 263.051 164.964C263.051 163.418 263.394 162.224 264.082 161.377C264.77 160.53 265.735 160.105 266.98 160.105C268.206 160.105 269.164 160.53 269.852 161.377C270.54 162.224 270.884 163.422 270.884 164.964C270.884 166.555 270.547 167.767 269.877 168.6Z" fill="#334C60"/>
<path d="M282.469 158.389C281.48 158.389 280.597 158.612 279.823 159.055C279.05 159.502 278.472 160.133 278.086 160.955L277.884 158.69H275.944C276.079 159.747 276.146 160.93 276.146 162.238V171.35H278.185V164.099C278.185 162.872 278.536 161.901 279.242 161.178C279.948 160.455 280.887 160.097 282.065 160.097C283.072 160.097 283.809 160.37 284.281 160.916C284.749 161.462 284.987 162.323 284.987 163.496V171.35H287.026V163.393C287.029 160.062 285.508 158.389 282.469 158.389Z" fill="#334C60"/>
<path d="M191.037 101.772L193.062 102.212L194.583 101.202L194.959 101.418L194.718 101.893L196.218 101.414L197.406 101.893L197.807 103.548L197.08 105.15L195.392 105.373L193.523 104.597L190.729 104.115L191.037 101.772Z" fill="#EACDB0"/>
<path d="M193.147 100.908L175.626 90.6403L163.91 75.1455L160.626 80.809L169.64 100.954L192.321 104.859L193.147 100.908Z" fill="#3C8F7C"/>
<path d="M158.158 74.9894C156.874 74.8831 155.587 74.7768 154.303 74.6705C154.275 73.6427 154.328 72.6149 154.463 71.5942C153.389 71.2362 152.144 70.6904 151.938 69.5776C151.874 69.2267 151.928 68.8652 151.984 68.5144C152.211 67.0577 152.442 65.6011 152.669 64.1409C152.747 63.6377 152.832 63.1167 153.098 62.6843C153.566 61.9223 154.491 61.575 155.371 61.4084C157.615 60.9831 160.076 61.4297 161.846 62.8757C162.318 63.262 162.743 63.7263 162.959 64.2933C163.289 65.1723 163.069 66.1469 162.846 67.0577C162.64 67.8977 162.435 68.7376 162.225 69.5776C161.988 70.5451 161.64 71.6438 160.718 72.0195C160.229 72.218 159.647 72.1719 159.204 72.4625C158.431 72.9764 158.555 74.1424 158.158 74.9894Z" fill="#EACDB0"/>
<path d="M168.108 61.6707C168.495 60.7989 168.488 59.8384 167.775 58.8213C166.754 57.3717 165.112 56.4928 163.463 55.83C162.598 55.4827 161.708 55.1779 160.8 54.9688C157.147 54.1289 153.215 54.6321 149.942 56.5211C149.222 56.9358 148.651 57.5773 148.208 58.2861C146.679 60.7315 146.722 64.0665 148.318 66.4694C148.676 67.0081 149.101 67.5008 149.548 67.9686C150.47 68.9397 151.577 70.1376 152.832 70.4814C152.687 70.4424 152.374 67.4122 152.346 67.1251C152.24 65.9874 152.257 64.4883 153.58 64.0559C155.491 63.4321 157.463 63.4995 159.442 63.457C160.055 63.4428 160.669 63.3258 161.243 63.5491C162.08 63.8716 162.516 64.7647 163.474 64.9384C164.286 65.0837 165.098 64.6903 165.771 64.2118C166.74 63.5172 167.672 62.6524 168.108 61.6707Z" fill="#3A3029"/>
<path d="M178.08 120.489L170.945 150.695H166.857L164.91 124.536L154.215 117.122L168.293 106.681L175.176 114.389L178.08 120.489Z" fill="#666666"/>
<path d="M166.849 150.607L166.878 150.67L168.555 154.332L171.14 154.58L172.708 153.311L170.814 150.607H166.849Z" fill="#39281C"/>
<path d="M142.524 112.816C141.357 113.266 141.077 114.116 141.123 115.867C141.194 118.681 142.105 121.463 143.704 123.735C143.825 123.905 143.956 124.082 144.141 124.171C144.3 124.249 144.485 124.252 144.662 124.252C146.878 124.274 150.385 124.345 151.36 126.808C152.286 129.14 151.956 132.574 152.254 135.073C152.91 140.548 153.57 146.024 154.226 151.5L158.644 151.283L163.126 119.277L163.424 110.969L158.637 108.832C155.612 109.917 152.151 111.82 148.995 112.284C147.187 112.55 145.343 112.231 143.541 112.55C143.144 112.621 142.807 112.706 142.524 112.816Z" fill="#666666"/>
<path d="M154.215 151.4L154.247 151.468L156.236 155.338L159.045 155.469L160.676 154.012L158.498 151.191L154.215 151.4Z" fill="#39281C"/>
<path opacity="0.29" d="M171.637 110.207C169.339 110.395 166.892 108.942 164.502 108.478C162.573 108.102 160.591 108.386 158.647 108.673C157.236 108.878 155.885 109.169 154.506 109.559C153.215 109.924 152.371 110.703 151.297 111.586C154.226 113.163 157.729 111.954 160.967 112.394C162.222 112.564 163.435 112.986 164.669 113.298C167.803 114.088 170.74 114.063 173.757 112.887C172.959 112.064 172.179 111.196 171.637 110.207Z" fill="#272525"/>
<path d="M140.641 113.216C140.587 115.821 140.665 119.326 141.619 119.458C141.8 119.482 141.97 119.39 142.126 119.298C143.779 118.355 144.949 117.026 146.58 116.112C148.289 115.155 150.243 114.648 152.162 114.294C155.027 113.744 157.956 113.408 160.878 113.355C164.048 113.298 170.222 113.95 170.222 113.95C172.006 113.638 173.708 112.993 175.413 112.398C178.346 111.373 181.342 110.473 184.094 109.041C184.977 108.581 187.413 107.223 186.544 105.993C185.885 105.061 183.647 104.438 182.637 103.867C180.381 102.588 178.215 101.131 176.307 99.3802C173.594 96.8922 171.594 93.8372 170.342 90.3959C169.711 88.6593 169.254 86.866 168.878 85.0585C168.672 84.0803 168.495 83.0986 168.328 82.1133C168.233 81.5533 168.233 79.4375 167.842 79.0866C163.878 75.5248 162.711 72.406 157.913 73.1822C146.96 74.9542 147.736 75.4646 145.293 81.0749C144.311 83.3325 142.977 89.3894 142.602 91.8171C142.148 94.7551 141.726 97.7003 141.399 100.653C141.034 103.949 140.782 107.262 140.729 110.58C140.722 110.948 140.665 111.979 140.641 113.216Z" fill="#50BFA5"/>
<path d="M142.236 101.393L142.417 103.381L143.786 104.487L143.697 104.895L143.19 104.81L144.063 106.05L143.967 107.28L142.559 108.127L140.875 107.921L140.183 106.436L140.357 104.498L139.992 101.786L142.236 101.393Z" fill="#EACDB0"/>
<path d="M143.917 103.023L141.8 91.218C141.743 90.9025 144.967 88.9285 145.286 88.6981C146.818 87.5888 148.506 86.5149 149.789 85.1327C150.981 83.8462 152.151 82.4392 152.573 80.738C152.832 79.689 152.765 78.5726 152.424 77.5519C152.02 76.3398 151.215 74.7272 149.956 75.2199C149.311 75.4715 148.626 76.2264 148.073 76.6411C146.208 78.0516 144.343 79.4586 142.477 80.8692C139.79 82.9035 137.098 84.9343 134.41 86.9686L139.449 104.515L143.917 103.023Z" fill="#3C8F7C"/>
<path d="M164.889 56.1703L147.002 64.0027C147.002 64.0027 144.148 58.9311 147.814 54.6463C151.481 50.3579 157.052 49.4506 159.545 50.2764C162.034 51.0986 164.889 56.1703 164.889 56.1703Z" fill="#446072"/>
<path d="M169.498 56.826C169.548 57.1592 169.442 57.5171 169.275 57.8503C168.725 58.9419 167.587 59.7641 166.438 60.4269C163.115 62.3442 159.335 63.3791 155.619 63.8717C154.601 64.0064 150.236 63.1239 149.321 62.8546C148.41 62.5852 150.981 62.8404 151.059 61.9402C151.162 60.7458 152.538 59.8279 153.761 59.151C156.52 57.627 159.988 55.3092 163.076 54.611C165.066 54.1609 169.204 54.9193 169.498 56.826Z" fill="#446072"/>
<path d="M122.673 206.975L117.322 201.429L136.761 182.709L142.697 187.692L122.673 206.975Z" fill="#8E999E"/>
<path d="M111.538 212.409L111.478 212.345C109.79 210.594 109.488 208.152 110.801 206.887L125.715 192.306L132.201 198.75L116.974 213.291C115.659 214.553 113.226 214.156 111.538 212.409Z" fill="#2E4661"/>
<path d="M171.037 187.841C180.268 178.952 180.541 164.273 171.647 155.047C162.754 145.822 148.066 145.549 138.836 154.438C129.605 163.326 129.332 178.006 138.226 187.231C147.119 196.457 161.81 196.73 171.037 187.841ZM140.562 184.981C132.914 177.046 133.148 164.414 141.087 156.77C149.027 149.125 161.665 149.359 169.314 157.294C176.963 165.23 176.729 177.861 168.789 185.505C160.85 193.154 148.211 192.916 140.562 184.981Z" fill="#59595B"/>
<path opacity="0.77" d="M169.052 185.247C176.847 177.457 176.847 164.825 169.052 157.034C161.257 149.244 148.618 149.244 140.823 157.034C133.028 164.825 133.028 177.457 140.823 185.247C148.618 193.038 161.257 193.038 169.052 185.247Z" fill="#95BCCE"/>
<g opacity="0.22">
<path opacity="0.22" d="M159.222 157.39C165.421 158.843 169.998 164.255 170.218 170.638C170.438 177.003 166.19 182.819 160.073 184.605C158.35 185.108 159.002 187.82 160.729 187.313C167.772 185.257 172.74 178.924 173.006 171.602C173.268 164.386 168.644 157.851 161.967 155.302C161.321 155.054 160.655 154.866 159.981 154.71C158.233 154.299 157.463 156.979 159.222 157.39Z" fill="white"/>
</g>
<path opacity="0.31" d="M156.41 187.979C155.679 188.681 154.516 188.659 153.814 187.929C153.112 187.199 153.133 186.037 153.864 185.335C154.594 184.633 155.757 184.654 156.46 185.385C157.162 186.115 157.14 187.277 156.41 187.979Z" fill="white"/>
<path d="M125.91 192.594L132.08 198.721C132.293 198.93 132.63 198.948 132.861 198.757L132.935 198.697C133.204 198.477 133.222 198.073 132.97 197.832L126.733 191.757C126.499 191.53 126.123 191.537 125.903 191.775L125.896 191.782C125.683 192.012 125.687 192.374 125.91 192.594Z" fill="#A16652"/>
<path d="M150.059 189.981C145.41 188.798 141.321 185.977 138.595 182.028C135.903 178.13 134.733 173.349 135.229 168.649C135.736 163.844 138.119 159.346 141.694 156.121C145.176 152.977 149.779 151.202 154.46 151.092C159.311 150.979 164.13 152.736 167.8 155.901C171.332 158.949 173.711 163.266 174.41 167.88C175.14 172.697 174.009 177.669 171.346 181.734C168.782 185.651 164.779 188.518 160.296 189.822C156.967 190.786 153.421 190.811 150.059 189.981C149.396 189.818 149.137 190.846 149.8 191.009C154.467 192.161 159.36 191.675 163.718 189.659C167.974 187.688 171.474 184.215 173.545 180.019C175.693 175.667 176.222 170.631 175.098 165.92C174.016 161.391 171.332 157.287 167.669 154.423C163.839 151.432 158.999 149.883 154.144 150.032C149.456 150.178 144.928 151.996 141.35 155.005C137.673 158.099 135.208 162.5 134.364 167.218C133.527 171.896 134.375 176.755 136.658 180.912C139.417 185.934 144.258 189.595 149.797 191.006C150.463 191.179 150.722 190.152 150.059 189.981Z" fill="#6A8478"/>
<path d="M122.24 195.234C122.254 195.202 122.268 195.167 122.261 195.131C122.247 195.085 122.198 195.06 122.155 195.043C121.761 194.89 121.368 194.738 120.978 194.582C120.921 194.561 120.861 194.539 120.804 194.55C120.737 194.564 120.683 194.614 120.637 194.667C120.311 195.021 120.01 195.401 119.737 195.801C119.354 195.638 118.953 195.517 118.542 195.443C117.932 197.119 117.322 198.796 116.712 200.472C117.393 200.472 118.077 200.476 118.758 200.476C118.847 200.476 118.939 200.476 119.017 200.433C119.109 200.387 119.166 200.291 119.219 200.203C120.201 198.534 121.424 197.102 122.24 195.234Z" fill="#EBCEB1"/>
<path d="M101.676 217.495L109.652 219.649L120.928 198.753L117.407 196.896L106.453 208.273L101.46 203.276L95.5844 210.981L101.676 217.495Z" fill="#226075"/>
</g>
<defs>
<clipPath id="clip0">
<rect width="317" height="246" fill="white" transform="translate(26 50)"/>
</clipPath>
</defs>
</svg>
