<svg id="Layer_1" data-name="Layer 1" xmlns="http://www.w3.org/2000/svg" viewBox="0 0 200 60"><defs><style>.cls-1{fill:#fff;}</style></defs><title>Bridge</title><rect width="200" height="60"/><path class="cls-1" d="M44,25.09a5.31,5.31,0,0,0-1.12-1.35l-.2-.16a4.79,4.79,0,0,0,.76-1.23,7.06,7.06,0,0,0,.55-2.8,6.92,6.92,0,0,0-.54-2.8A6,6,0,0,0,42,14.64a6.47,6.47,0,0,0-2.28-1.29A8.63,8.63,0,0,0,37,12.93H25.45V35.65H37a12.17,12.17,0,0,0,2.8-.33,8,8,0,0,0,2.6-1.12,6.24,6.24,0,0,0,1.94-2.05,6.08,6.08,0,0,0,.75-3.1,7.94,7.94,0,0,0-.29-2.21A7.74,7.74,0,0,0,44,25.09ZM37.28,30.8h-7V27a5.48,5.48,0,0,1,1.22-.36,12,12,0,0,1,1.88-.16H37a7.49,7.49,0,0,1,1.33.13,3.32,3.32,0,0,1,1.06.37,1.68,1.68,0,0,1,.64.63,1.91,1.91,0,0,1,.23,1,1.63,1.63,0,0,1-.22.89,2.35,2.35,0,0,1-.68.69,3.49,3.49,0,0,1-1,.44A4.23,4.23,0,0,1,37.28,30.8Zm1.38-9.7a2.52,2.52,0,0,1-1.7.51H33.38a15.36,15.36,0,0,0-2.16.15,5.29,5.29,0,0,0-.94.21V17.78H37a3.1,3.1,0,0,1,1.75.44c.12.08.49.33.49,1.36A1.88,1.88,0,0,1,38.66,21.1Z"/><path class="cls-1" d="M72.41,30.8a2.31,2.31,0,0,1-.64-.07.94.94,0,0,1-.39-.21,3.14,3.14,0,0,1-.57-.58c-.23-.27-.49-.63-.8-1.07l-1.15-2.35a7.24,7.24,0,0,0,3-2.05A6.73,6.73,0,0,0,73.36,20a7.66,7.66,0,0,0-.56-3,6.31,6.31,0,0,0-1.61-2.25,6.93,6.93,0,0,0-2.4-1.37,9.23,9.23,0,0,0-2.93-.45H54V35.65h4.82V27.46A5.52,5.52,0,0,1,60,27.11,13.22,13.22,0,0,1,61.86,27h1.9l2.32,4.87A7,7,0,0,0,67.64,34a6,6,0,0,0,1.89,1.15,7.49,7.49,0,0,0,2,.42c.62,0,1.25,0,1.87,0h.88v-4.9l-.91,0Zm-13.64-13h7.08a5.08,5.08,0,0,1,1.2.13,2.14,2.14,0,0,1,.81.36,1.69,1.69,0,0,1,.49.59,2.19,2.19,0,0,1,.18,1,2,2,0,0,1-.63,1.73,3.39,3.39,0,0,1-2.05.57h-4a16.62,16.62,0,0,0-2.14.13,5.4,5.4,0,0,0-.95.21Z"/><polygon class="cls-1" points="84.06 12.93 83.17 12.93 83.17 13.81 83.17 34.77 83.17 35.65 84.06 35.65 87.06 35.65 87.94 35.65 87.94 34.77 87.94 13.81 87.94 12.93 87.06 12.93 84.06 12.93"/><path class="cls-1" d="M115.42,16.29A10.46,10.46,0,0,0,112,13.84a10.11,10.11,0,0,0-4.3-.91h-12l.54,1.23,1.35,3.09.23.53h1.36V35.65h8.63a10.92,10.92,0,0,0,4-.68,9.28,9.28,0,0,0,3.35-2.38,12.32,12.32,0,0,0,2.45-3.87,12.11,12.11,0,0,0,.08-8.86A11.42,11.42,0,0,0,115.42,16.29ZM107.8,30.8h-3.87v-13h3.82a5.6,5.6,0,0,1,2.49.52,5.32,5.32,0,0,1,1.83,1.41,6.18,6.18,0,0,1,1.16,2.11,8.23,8.23,0,0,1,.41,2.6,7.05,7.05,0,0,1-.43,2.47,6.35,6.35,0,0,1-1.18,2,5.55,5.55,0,0,1-4.23,1.87Z"/><path class="cls-1" d="M139.41,22.43h-1.34l.53,1.23,1.31,3,.23.53h2.39v2.51a7.72,7.72,0,0,1-7.45,1,7.83,7.83,0,0,1-2.38-1.46,6.83,6.83,0,0,1-1.62-2.2,6.51,6.51,0,0,1-.59-2.76,7.34,7.34,0,0,1,.56-2.89,7.21,7.21,0,0,1,1.55-2.27,6.92,6.92,0,0,1,2.33-1.48,8.16,8.16,0,0,1,2.94-.53,7.66,7.66,0,0,1,3,.6,8.14,8.14,0,0,1,2.48,1.67l.67.68.62-.73,2-2.3.52-.62-.57-.58a12.69,12.69,0,0,0-3.89-2.62,12.58,12.58,0,0,0-9.42-.07,12.47,12.47,0,0,0-3.89,2.43,11.65,11.65,0,0,0-2.67,3.71,11,11,0,0,0-1,4.65,12.12,12.12,0,0,0,3.52,8.63,12,12,0,0,0,3.86,2.58A12.67,12.67,0,0,0,143,35a12.53,12.53,0,0,0,4.09-3l.23-.25V22.43h-7.94Z"/><path class="cls-1" d="M173.25,30.8h-12V26.92a5.26,5.26,0,0,1,1.2-.34,11.81,11.81,0,0,1,1.88-.14h5.46V21.58h-5.46a18.77,18.77,0,0,0-2.14.13,6.35,6.35,0,0,0-.94.21V17.78H172.9V12.93H156.38V35.65h17.75V30.8Z"/><path class="cls-1" d="M9,4.25V44.19H191V4.25Zm2.93,37V7.19H188.1V41.25Z"/><path class="cls-1" d="M9,52a3.81,3.81,0,0,1,.23-1.31,4,4,0,0,1,.68-1.17,3.51,3.51,0,0,1,1.1-.83,3.3,3.3,0,0,1,1.46-.32,3.14,3.14,0,0,1,1.68.44,2.82,2.82,0,0,1,1.05,1.15l-.9.61a1.69,1.69,0,0,0-.36-.56,1.79,1.79,0,0,0-.47-.36,2,2,0,0,0-.51-.19,3.27,3.27,0,0,0-.53,0,2,2,0,0,0-1,.23,2.2,2.2,0,0,0-.71.61,2.62,2.62,0,0,0-.43.85,3.06,3.06,0,0,0-.14.94,3.11,3.11,0,0,0,.16,1,2.93,2.93,0,0,0,.48.85,2.29,2.29,0,0,0,.73.59,1.92,1.92,0,0,0,.92.22,2.55,2.55,0,0,0,.54-.06,2.11,2.11,0,0,0,.54-.22,2.26,2.26,0,0,0,.46-.37,1.75,1.75,0,0,0,.36-.55l1,.55a2.36,2.36,0,0,1-.49.72,3.31,3.31,0,0,1-.7.53,4,4,0,0,1-.83.33,3.85,3.85,0,0,1-.88.11A2.9,2.9,0,0,1,11,55.41a3.64,3.64,0,0,1-1.09-.86A4,4,0,0,1,9,52Z"/><path class="cls-1" d="M20.31,55.73a3.27,3.27,0,0,1-1.41-.31,3.42,3.42,0,0,1-1.08-.84,3.72,3.72,0,0,1-.71-1.18A4,4,0,0,1,16.87,52a3.87,3.87,0,0,1,1-2.57,3.56,3.56,0,0,1,1.1-.82,3.21,3.21,0,0,1,1.39-.3,3.1,3.1,0,0,1,1.4.32,3.6,3.6,0,0,1,1.08.85A3.89,3.89,0,0,1,23.76,52a3.87,3.87,0,0,1-1,2.58,3.83,3.83,0,0,1-1.09.81A3.23,3.23,0,0,1,20.31,55.73ZM18,52a3,3,0,0,0,.16,1,2.47,2.47,0,0,0,.45.85,2.28,2.28,0,0,0,.72.59,2,2,0,0,0,.95.22,1.88,1.88,0,0,0,.95-.23,2.13,2.13,0,0,0,.72-.61,2.67,2.67,0,0,0,.45-.85,3.22,3.22,0,0,0,.15-1,3.08,3.08,0,0,0-.16-1,2.86,2.86,0,0,0-.46-.84,2.25,2.25,0,0,0-.72-.58,1.93,1.93,0,0,0-.93-.22,1.9,1.9,0,0,0-1,.23,2.11,2.11,0,0,0-.72.6,2.52,2.52,0,0,0-.45.84A3.27,3.27,0,0,0,18,52Z"/><path class="cls-1" d="M27.14,50.55v5.13H26V48.39h.9l4.17,5.26V48.4h1.16v7.28h-1Z"/><path class="cls-1" d="M36,50.55v5.13H34.89V48.39h.9L40,53.65V48.4h1.16v7.28h-1Z"/><path class="cls-1" d="M48.78,54.66v1h-5V48.39h4.91v1H44.93v2.07h3.26v1H44.93v2.23Z"/><path class="cls-1" d="M50.59,52a4.06,4.06,0,0,1,.23-1.31,3.84,3.84,0,0,1,.69-1.17,3.36,3.36,0,0,1,1.09-.83,3.31,3.31,0,0,1,1.47-.32,3.08,3.08,0,0,1,1.67.44,2.92,2.92,0,0,1,1.06,1.15l-.91.61a1.69,1.69,0,0,0-.36-.56,1.74,1.74,0,0,0-.46-.36,2,2,0,0,0-.52-.19,3.15,3.15,0,0,0-.52,0,2,2,0,0,0-1,.23,2.13,2.13,0,0,0-.72.61,2.84,2.84,0,0,0-.43.85,3.4,3.4,0,0,0-.14.94,2.88,2.88,0,0,0,.17,1,2.7,2.7,0,0,0,.47.85,2.29,2.29,0,0,0,.73.59,1.93,1.93,0,0,0,.93.22,2.62,2.62,0,0,0,.54-.06,2.2,2.2,0,0,0,.53-.22,2.32,2.32,0,0,0,.47-.37A2.18,2.18,0,0,0,56,53.5l.95.55a2.36,2.36,0,0,1-.49.72,3.31,3.31,0,0,1-.7.53,4,4,0,0,1-.83.33,3.84,3.84,0,0,1-.87.11,2.94,2.94,0,0,1-1.39-.33,3.48,3.48,0,0,1-1.08-.86,4,4,0,0,1-1-2.57Z"/><path class="cls-1" d="M64.31,49.41H61.89v6.27H60.74V49.41H58.31v-1h6Z"/><path class="cls-1" d="M66.33,55.68V48.4h1.15v7.28Z"/><path class="cls-1" d="M71.3,50.55v5.13H70.15V48.39h.9l4.17,5.26V48.4h1.16v7.28h-1Z"/><path class="cls-1" d="M84.07,54.77a2.75,2.75,0,0,1-2.08,1,3.05,3.05,0,0,1-1.33-.31,3.66,3.66,0,0,1-1.08-.84,3.84,3.84,0,0,1-.71-1.19,3.88,3.88,0,0,1,.71-4,3.46,3.46,0,0,1,1.09-.8,3.49,3.49,0,0,1,3.09.15,2.84,2.84,0,0,1,1,1.15l-.88.64a2.1,2.1,0,0,0-.81-.9A2.22,2.22,0,0,0,82,49.38a1.86,1.86,0,0,0-.91.22,2.21,2.21,0,0,0-.71.58,3,3,0,0,0-.45.85,3.37,3.37,0,0,0-.16,1,3,3,0,0,0,.18,1,2.51,2.51,0,0,0,.49.84,2.26,2.26,0,0,0,.73.57,2,2,0,0,0,.91.21,2.55,2.55,0,0,0,2-1.08v-.76H82.54V52H85v3.69h-1Z"/><path class="cls-1" d="M93.17,48.42h1.07l.9,2.48.9-2.48h1.09l-1.26,3.25L97,54.34l2.27-6h1.25l-3,7.29h-1l-1.35-3.27-1.37,3.27h-1l-3-7.29H91l2.29,6,1.08-2.67Z"/><path class="cls-1" d="M108.36,48.39v7.29H107.2V52.47h-3.67v3.21h-1.15V48.39h1.15v3h3.67v-3Z"/><path class="cls-1" d="M110.28,55.68l2.94-7.29h.94l2.93,7.29h-1.22l-.78-2h-2.82l-.76,2Zm3.41-6-1.21,3.18h2.38Z"/><path class="cls-1" d="M123.64,49.41h-2.42v6.27h-1.15V49.41h-2.43v-1h6Z"/><path class="cls-1" d="M125.41,49.86V48.28h1v1.58Z"/><path class="cls-1" d="M133.09,50.11a1.27,1.27,0,0,0-.29-.25,3.87,3.87,0,0,0-.46-.24,4,4,0,0,0-.58-.18,3,3,0,0,0-.68-.07,1.7,1.7,0,0,0-1,.26.88.88,0,0,0-.35.75.82.82,0,0,0,.11.44,1,1,0,0,0,.34.29,2.72,2.72,0,0,0,.56.22l.79.21c.36.1.69.2,1,.3a2.7,2.7,0,0,1,.76.38,1.66,1.66,0,0,1,.49.57,1.81,1.81,0,0,1,.18.85,2.07,2.07,0,0,1-.22,1,1.82,1.82,0,0,1-.58.65,2.44,2.44,0,0,1-.85.37,4.19,4.19,0,0,1-1,.12,5.11,5.11,0,0,1-1.61-.25,4.53,4.53,0,0,1-1.41-.74l.53-1a2.8,2.8,0,0,0,.38.3,3.49,3.49,0,0,0,.58.3,6.43,6.43,0,0,0,.74.24,3.7,3.7,0,0,0,.83.09,1.83,1.83,0,0,0,1-.24.78.78,0,0,0,.36-.7.74.74,0,0,0-.13-.46,1.18,1.18,0,0,0-.39-.33,3.2,3.2,0,0,0-.63-.24l-.84-.23a8.87,8.87,0,0,1-1-.31,2.26,2.26,0,0,1-.67-.38,1.46,1.46,0,0,1-.4-.53,1.64,1.64,0,0,1-.14-.73,2,2,0,0,1,.2-1,2,2,0,0,1,.55-.7,2.57,2.57,0,0,1,.84-.43,4,4,0,0,1,2.42.1,4.52,4.52,0,0,1,1.09.58Z"/><path class="cls-1" d="M139.19,52a3.83,3.83,0,0,1,.24-1.31,3.62,3.62,0,0,1,.68-1.17,3.47,3.47,0,0,1,1.09-.83,3.31,3.31,0,0,1,1.47-.32,3.14,3.14,0,0,1,1.68.44,2.82,2.82,0,0,1,1.05,1.15l-.9.61a2.08,2.08,0,0,0-.36-.56,2,2,0,0,0-.47-.36,2,2,0,0,0-.52-.19,3.15,3.15,0,0,0-.52,0,2,2,0,0,0-1,.23,2.1,2.1,0,0,0-.71.61,2.65,2.65,0,0,0-.44.85,3.4,3.4,0,0,0-.14.94,3.12,3.12,0,0,0,.17,1,2.54,2.54,0,0,0,.48.85,2.19,2.19,0,0,0,.73.59,1.9,1.9,0,0,0,.92.22,2.62,2.62,0,0,0,.54-.06,2,2,0,0,0,.53-.22,2.32,2.32,0,0,0,.47-.37,2.18,2.18,0,0,0,.36-.55l.95.55a2.19,2.19,0,0,1-.49.72,3.07,3.07,0,0,1-.7.53,4,4,0,0,1-.83.33,3.7,3.7,0,0,1-.87.11,2.94,2.94,0,0,1-1.39-.33,3.6,3.6,0,0,1-1.08-.86,4,4,0,0,1-.71-1.2A3.78,3.78,0,0,1,139.19,52Z"/><path class="cls-1" d="M150.53,55.73a3.23,3.23,0,0,1-1.4-.31,3.58,3.58,0,0,1-1.09-.84,3.69,3.69,0,0,1-.7-1.18,3.83,3.83,0,0,1,.74-3.94,3.45,3.45,0,0,1,1.1-.82,3.17,3.17,0,0,1,1.38-.3,3.1,3.1,0,0,1,1.4.32,3.6,3.6,0,0,1,1.08.85,3.56,3.56,0,0,1,.7,1.19A3.7,3.7,0,0,1,154,52a3.82,3.82,0,0,1-1,2.58,3.69,3.69,0,0,1-1.09.81A3.17,3.17,0,0,1,150.53,55.73ZM148.26,52a3.32,3.32,0,0,0,.16,1,2.68,2.68,0,0,0,.46.85,2.28,2.28,0,0,0,.72.59,2,2,0,0,0,.94.22,1.9,1.9,0,0,0,1-.23,2.34,2.34,0,0,0,.72-.61,2.86,2.86,0,0,0,.44-.85,3,3,0,0,0,.16-1,3.09,3.09,0,0,0-.17-1,2.65,2.65,0,0,0-.46-.84,2.25,2.25,0,0,0-.72-.58,1.93,1.93,0,0,0-.93-.22,1.9,1.9,0,0,0-1,.23,2.31,2.31,0,0,0-.72.6,2.69,2.69,0,0,0-.44.84A3,3,0,0,0,148.26,52Z"/><path class="cls-1" d="M162.34,55.68V50.43l-2.16,4h-.64l-2.18-4v5.25h-1.14V48.39h1.23l2.41,4.46,2.41-4.46h1.23v7.29Z"/><path class="cls-1" d="M172.3,55.68V50.43l-2.17,4h-.64l-2.17-4v5.25h-1.15V48.39h1.23l2.41,4.46,2.41-4.46h1.24v7.29Z"/><path class="cls-1" d="M179.12,55.73a3.23,3.23,0,0,1-1.4-.31,3.58,3.58,0,0,1-1.09-.84,3.69,3.69,0,0,1-.7-1.18,3.83,3.83,0,0,1,.74-3.94,3.45,3.45,0,0,1,1.1-.82,3.17,3.17,0,0,1,1.38-.3,3.1,3.1,0,0,1,1.4.32,3.6,3.6,0,0,1,1.08.85,3.56,3.56,0,0,1,.7,1.19,3.7,3.7,0,0,1,.25,1.34,3.82,3.82,0,0,1-1,2.58,3.69,3.69,0,0,1-1.09.81A3.17,3.17,0,0,1,179.12,55.73ZM176.85,52a3.32,3.32,0,0,0,.16,1,2.68,2.68,0,0,0,.46.85,2.28,2.28,0,0,0,.72.59,2,2,0,0,0,.94.22,1.9,1.9,0,0,0,1-.23,2.34,2.34,0,0,0,.72-.61,2.86,2.86,0,0,0,.44-.85,3,3,0,0,0,.16-1,3.09,3.09,0,0,0-.17-1,2.86,2.86,0,0,0-.46-.84,2.25,2.25,0,0,0-.72-.58,1.93,1.93,0,0,0-.93-.22,1.9,1.9,0,0,0-1,.23,2.31,2.31,0,0,0-.72.6,2.69,2.69,0,0,0-.44.84A3,3,0,0,0,176.85,52Z"/><path class="cls-1" d="M186,50.55v5.13h-1.14V48.39h.9l4.16,5.26V48.4H191v7.28h-.95Z"/></svg>